<svg width="30" height="30" viewBox="0 0 30 30" fill="none" xmlns="http://www.w3.org/2000/svg">
<g clip-path="url(#clip0_529_134)">
<path d="M15 1.25022C11.3918 1.21355 7.91672 2.61097 5.33841 5.13537C2.76011 7.65977 1.28958 11.1046 1.25 14.7127C1.2639 17.5642 2.18118 20.3379 3.87008 22.6354C5.55898 24.9329 7.93259 26.6361 10.65 27.5002C11.3375 27.6252 11.5875 27.2127 11.5875 26.8502V24.5627C7.7625 25.3752 6.95 22.7627 6.95 22.7627C6.69537 21.9426 6.15404 21.2415 5.425 20.7877C4.175 19.9627 5.525 19.9752 5.525 19.9752C5.95706 20.033 6.37044 20.1878 6.73414 20.4281C7.09783 20.6684 7.4024 20.9879 7.625 21.3627C8.01291 22.0354 8.64942 22.5288 9.39751 22.7369C10.1456 22.945 10.9455 22.851 11.625 22.4752C11.6949 21.7907 12.0049 21.153 12.5 20.6752C9.45 20.3377 6.25 19.1877 6.25 14.0252C6.22272 12.6786 6.7203 11.3741 7.6375 10.3877C7.21978 9.23155 7.26911 7.95811 7.775 6.83772C7.775 6.83772 8.9375 6.47522 11.525 8.21272C13.7774 7.61251 16.1476 7.61251 18.4 8.21272C21.025 6.47522 22.15 6.83772 22.15 6.83772C22.6559 7.95811 22.7052 9.23155 22.2875 10.3877C23.226 11.356 23.7506 12.6517 23.75 14.0002C23.75 19.1752 20.525 20.3127 17.5 20.6502C17.8312 20.9718 18.0871 21.3628 18.2492 21.795C18.4113 22.2273 18.4756 22.6901 18.4375 23.1502V26.8377C18.4375 27.2752 18.6875 27.6252 19.375 27.4877C22.0847 26.6182 24.4503 24.9147 26.134 22.6204C27.8177 20.3261 28.7333 17.5584 28.75 14.7127C28.7104 11.1046 27.2399 7.65977 24.6616 5.13537C22.0833 2.61097 18.6082 1.21355 15 1.25022Z" fill="white" fill-opacity="0.6"/>
</g>
<defs>
<clipPath id="clip0_529_134">
<rect width="30" height="30" fill="white"/>
</clipPath>
</defs>
</svg>
