<svg width="380" height="550" viewBox="0 0 380 550" fill="none" xmlns="http://www.w3.org/2000/svg">
<path d="M378.194 448.442L365.39 441.557C362.719 440.119 358.051 440.303 354.961 441.961L330.565 455.093L160.732 363.775L185.555 350.417C188.641 348.755 188.976 346.246 186.305 344.807L173.505 337.923C170.83 336.488 166.158 336.668 163.069 338.33L92.4699 376.326C89.3804 377.985 89.0456 380.497 91.7242 381.936L104.52 388.82C107.195 390.255 111.863 390.075 114.953 388.413L148.926 370.132L318.755 461.45L284.359 479.957C281.273 481.619 280.938 484.132 283.609 485.567L296.409 492.451C299.088 493.89 303.756 493.709 306.845 492.047L377.444 454.051C380.534 452.39 380.868 449.877 378.194 448.442Z" fill="#F2F2F2"/>
<path d="M101.092 379.196L97.8197 377.425C96.7239 376.833 96.0429 375.571 96.0391 373.778C96.0277 370.164 98.7519 365.767 102.123 363.956C103.82 363.042 105.361 362.957 106.472 363.559L109.748 365.331C108.637 364.728 107.096 364.814 105.391 365.728C102.028 367.538 99.3036 371.936 99.315 375.55C99.3188 377.343 99.9961 378.605 101.092 379.196Z" fill="#BFBFBF"/>
<path d="M105.433 378.8C102.066 380.614 99.3264 379.158 99.315 375.55C99.3036 371.936 102.028 367.539 105.391 365.728C108.774 363.91 111.521 365.367 111.532 368.984C111.54 372.588 108.816 376.986 105.433 378.8Z" fill="#898989"/>
<path d="M104.322 380.933L101.05 379.161C99.9539 378.569 99.2729 377.308 99.2691 375.518C99.2577 371.901 101.982 367.503 105.353 365.692C107.05 364.775 108.591 364.693 109.702 365.296L112.974 367.064C111.863 366.465 110.322 366.546 108.621 367.464C105.254 369.275 102.53 373.672 102.541 377.29C102.545 379.08 103.226 380.341 104.322 380.933Z" fill="#262626"/>
<path d="M108.665 380.54C105.297 382.347 102.55 380.89 102.543 377.29C102.531 373.672 105.255 369.275 108.623 367.464C112.005 365.647 114.748 367.103 114.76 370.721C114.771 374.324 112.043 378.722 108.665 380.54Z" fill="#898989"/>
<path d="M107.613 382.704L104.341 380.933C103.245 380.337 102.564 379.079 102.56 377.29C102.549 373.668 105.277 369.275 108.644 367.46C110.345 366.546 111.882 366.461 112.993 367.064L116.269 368.835C115.158 368.233 113.617 368.318 111.916 369.232C108.545 371.046 105.825 375.44 105.832 379.062C105.836 380.851 106.517 382.109 107.613 382.704Z" fill="#BFBFBF"/>
<path d="M111.956 382.311C108.589 384.118 105.845 382.662 105.834 379.062C105.826 375.44 108.547 371.046 111.918 369.232C115.3 367.418 118.044 368.874 118.051 372.489C118.063 376.096 115.339 380.49 111.956 382.311Z" fill="#898989"/>
<path d="M160.528 347.252L157.256 345.481C156.16 344.889 155.479 343.631 155.475 341.838C155.464 338.22 158.192 333.823 161.559 332.012C163.26 331.101 164.801 331.013 165.912 331.615L169.184 333.387C168.073 332.785 166.536 332.873 164.831 333.784C161.464 335.594 158.74 339.992 158.751 343.61C158.755 345.403 159.432 346.661 160.528 347.252Z" fill="#BFBFBF"/>
<path d="M164.87 346.859C161.502 348.67 158.763 347.21 158.752 343.61C158.74 339.992 161.464 335.595 164.832 333.784C168.214 331.97 170.958 333.422 170.969 337.04C170.98 340.644 168.252 345.041 164.87 346.859Z" fill="#898989"/>
<path d="M163.758 348.989L160.486 347.217C159.39 346.622 158.709 345.364 158.705 343.574C158.694 339.956 161.418 335.559 164.789 333.752C166.49 332.834 168.027 332.745 169.138 333.348L172.414 335.12C171.303 334.517 169.758 334.606 168.061 335.524C164.69 337.331 161.966 341.728 161.977 345.346C161.981 347.135 162.662 348.393 163.758 348.989Z" fill="#262626"/>
<path d="M168.098 348.595C164.731 350.406 161.988 348.95 161.976 345.346C161.965 341.728 164.689 337.331 168.06 335.524C171.439 333.702 174.182 335.159 174.194 338.78C174.205 342.38 171.477 346.774 168.098 348.595Z" fill="#898989"/>
<path d="M167.049 350.757L163.777 348.985C162.685 348.394 162.004 347.136 161.996 345.346C161.985 341.728 164.713 337.327 168.08 335.52C169.781 334.606 171.318 334.518 172.429 335.12L175.705 336.892C174.594 336.289 173.053 336.378 171.352 337.292C167.985 339.099 165.261 343.5 165.272 347.118C165.276 348.907 165.953 350.165 167.049 350.757Z" fill="#BFBFBF"/>
<path d="M171.393 350.364C168.022 352.178 165.283 350.722 165.272 347.118C165.26 343.5 167.984 339.099 171.352 337.292C174.734 335.474 177.477 336.931 177.489 340.548C177.496 344.148 174.772 348.546 171.393 350.364Z" fill="#898989"/>
<path d="M168.014 337.891L158.137 332.54L158.118 325.666L167.995 331.016L168.014 337.891Z" fill="#D9D9D9"/>
<path d="M148.77 320.595L138.885 315.248L164.732 319.447L174.613 324.794L148.77 320.595Z" fill="#E6E6E6"/>
<path d="M133.776 328.656L123.895 323.309L138.886 315.248L148.77 320.595L133.776 328.656Z" fill="#F2F2F2"/>
<path d="M108.032 360.597L98.1475 355.25L123.895 323.309L133.776 328.656L108.032 360.597Z" fill="#E6E6E6"/>
<path d="M108.055 370.129L98.1778 364.778L98.1475 355.25L108.032 360.597L108.055 370.129Z" fill="#D9D9D9"/>
<path d="M148.77 320.595L174.613 324.794L174.651 334.322L168.015 337.891L167.996 331.016L148.793 327.898L133.798 335.963L114.672 359.69L114.694 366.561L108.055 370.129L108.032 360.597L133.776 328.656L148.77 320.595Z" fill="#A6A6A6"/>
<path d="M142.652 117.808L142.641 321.676C142.641 322.544 142.028 323.409 140.811 324.068C138.342 325.404 134.343 325.404 131.866 324.075C130.618 323.405 129.994 322.523 129.998 321.644L130.005 117.776C130.001 118.655 130.625 119.537 131.873 120.207C134.35 121.536 138.349 121.536 140.818 120.204C142.036 119.541 142.649 118.676 142.652 117.808Z" fill="#D9D9D9"/>
<path d="M140.789 115.385C143.262 116.713 143.274 118.871 140.82 120.204C138.35 121.536 134.352 121.536 131.875 120.207C129.394 118.875 129.382 116.713 131.848 115.381C134.306 114.049 138.308 114.049 140.789 115.385Z" fill="#898989"/>
<path d="M326.068 331.275L136.496 229.338C135.69 228.902 135.191 227.977 135.188 226.662C135.18 224.005 137.181 220.777 139.654 219.448C140.902 218.775 142.032 218.715 142.85 219.154L332.422 321.091C331.608 320.652 330.478 320.716 329.226 321.385C326.757 322.714 324.756 325.942 324.763 328.6C324.767 329.918 325.265 330.839 326.068 331.275Z" fill="#F2F2F2"/>
<path d="M329.256 330.985C326.787 332.317 324.77 331.25 324.763 328.6C324.755 325.942 326.756 322.714 329.226 321.385C331.71 320.05 333.727 321.12 333.734 323.777C333.742 326.424 331.741 329.652 329.256 330.985Z" fill="#898989"/>
<path d="M295.158 483.472L291.886 481.701C290.79 481.105 290.109 479.844 290.101 478.054C290.09 474.437 292.818 470.043 296.185 468.229C297.886 467.314 299.423 467.229 300.538 467.828L303.81 469.6C302.699 469.001 301.158 469.086 299.457 470C296.09 471.811 293.366 476.208 293.377 479.826C293.381 481.616 294.062 482.877 295.158 483.472Z" fill="#BFBFBF"/>
<path d="M299.499 483.075C296.128 484.886 293.385 483.429 293.377 479.826C293.366 476.208 296.09 471.811 299.457 470C302.84 468.182 305.583 469.638 305.591 473.256C305.602 476.86 302.881 481.257 299.499 483.075Z" fill="#898989"/>
<path d="M298.384 485.205L295.116 483.433C294.016 482.842 293.339 481.58 293.331 479.787C293.32 476.173 296.048 471.775 299.411 469.965C301.116 469.051 302.653 468.966 303.764 469.568L307.036 471.34C305.925 470.737 304.388 470.822 302.687 471.737C299.32 473.547 296.592 477.945 296.603 481.559C296.607 483.352 297.292 484.613 298.384 485.205Z" fill="#262626"/>
<path d="M302.729 484.808C299.358 486.619 296.614 485.166 296.603 481.559C296.592 477.945 299.32 473.547 302.687 471.736C306.066 469.919 308.809 471.371 308.82 474.993C308.832 478.597 306.104 482.994 302.729 484.808Z" fill="#898989"/>
<path d="M301.679 486.977L298.407 485.205C297.311 484.613 296.63 483.348 296.627 481.559C296.611 477.945 299.339 473.547 302.707 471.737C304.407 470.819 305.948 470.737 307.059 471.336L310.335 473.108C309.22 472.509 307.68 472.59 305.979 473.508C302.612 475.319 299.883 479.716 299.895 483.331C299.902 485.12 300.583 486.385 301.679 486.977Z" fill="#BFBFBF"/>
<path d="M306.02 486.58C302.653 488.39 299.905 486.934 299.894 483.33C299.883 479.716 302.611 475.319 305.978 473.508C309.361 471.687 312.104 473.143 312.112 476.764C312.123 480.368 309.399 484.766 306.02 486.58Z" fill="#898989"/>
<path d="M354.593 451.525L351.321 449.753C350.225 449.161 349.544 447.9 349.537 446.114C349.525 442.492 352.253 438.095 355.62 436.284C357.321 435.37 358.862 435.285 359.973 435.888L363.249 437.659C362.134 437.057 360.597 437.142 358.893 438.056C355.525 439.867 352.801 444.264 352.813 447.882C352.82 449.671 353.498 450.933 354.593 451.525Z" fill="#BFBFBF"/>
<path d="M358.935 451.131C355.568 452.942 352.825 451.486 352.814 447.882C352.802 444.264 355.526 439.867 358.894 438.056C362.276 436.238 365.023 437.698 365.031 441.313C365.038 444.916 362.318 449.314 358.935 451.131Z" fill="#898989"/>
<path d="M357.823 453.261L354.551 451.49C353.455 450.898 352.774 449.64 352.767 447.847C352.755 444.229 355.483 439.832 358.851 438.021C360.551 437.107 362.089 437.022 363.203 437.624L366.476 439.396C365.361 438.793 363.824 438.879 362.123 439.793C358.756 441.603 356.027 446.001 356.039 449.619C356.046 451.408 356.727 452.67 357.823 453.261Z" fill="#262626"/>
<path d="M362.163 452.868C358.796 454.678 356.049 453.218 356.038 449.618C356.026 446.001 358.754 441.603 362.122 439.792C365.504 437.975 368.243 439.431 368.255 443.049C368.266 446.653 365.542 451.05 362.163 452.868Z" fill="#898989"/>
<path d="M361.115 455.033L357.843 453.261C356.747 452.666 356.066 451.408 356.062 449.619C356.051 445.997 358.775 441.603 362.146 439.793C363.843 438.878 365.384 438.79 366.495 439.392L369.771 441.164C368.66 440.562 367.115 440.65 365.414 441.561C362.047 443.375 359.327 447.769 359.334 451.39C359.338 453.18 360.019 454.438 361.115 455.033Z" fill="#BFBFBF"/>
<path d="M365.455 454.639C362.088 456.45 359.345 454.99 359.334 451.39C359.326 447.769 362.046 443.375 365.414 441.561C368.796 439.746 371.539 441.203 371.551 444.82C371.562 448.424 368.838 452.818 365.455 454.639Z" fill="#898989"/>
<path d="M362.08 442.16L352.199 436.816L352.18 429.942L362.058 435.289L362.08 442.16Z" fill="#D9D9D9"/>
<path d="M342.833 424.868L332.952 419.52L358.798 423.719L368.679 429.07L342.833 424.868Z" fill="#E6E6E6"/>
<path d="M327.838 432.929L317.957 427.582L332.951 419.52L342.832 424.867L327.838 432.929Z" fill="#F2F2F2"/>
<path d="M302.094 464.873L292.212 459.522L317.956 427.582L327.837 432.929L302.094 464.873Z" fill="#E6E6E6"/>
<path d="M302.12 474.401L292.243 469.051L292.212 459.522L302.094 464.873L302.12 474.401Z" fill="#D9D9D9"/>
<path d="M342.832 424.868L368.678 429.07L368.716 438.595L362.081 442.16L362.058 435.289L342.851 432.171L327.86 440.232L308.737 463.962L308.76 470.833L302.12 474.401L302.094 464.873L327.837 432.929L342.832 424.868Z" fill="#A6A6A6"/>
<path d="M336.714 222.084L336.706 425.948C336.702 426.817 336.094 427.681 334.872 428.34C332.407 429.676 328.404 429.676 325.931 428.347C324.683 427.674 324.059 426.792 324.059 425.913L324.07 222.049C324.067 222.928 324.691 223.806 325.939 224.48C328.412 225.812 332.414 225.812 334.884 224.476C336.101 223.814 336.71 222.949 336.714 222.084Z" fill="#D9D9D9"/>
<path d="M334.854 219.654C337.323 220.986 337.338 223.147 334.884 224.476C332.415 225.812 328.412 225.812 325.939 224.48C323.458 223.147 323.443 220.986 325.909 219.65C328.366 218.321 332.373 218.321 334.854 219.654Z" fill="#898989"/>
<path d="M367.133 157.42L377.014 152.07L376.505 319.025L366.624 324.376L367.133 157.42Z" fill="#A6A6A6"/>
<path d="M84.3052 5.34715L94.1901 9.15527e-05L377.015 152.07L367.134 157.42L84.3052 5.34715Z" fill="#F2F2F2"/>
<path d="M367.133 157.42L366.623 324.376L83.7988 172.303L84.3049 5.34711L367.133 157.42Z" fill="#D9D9D9"/>
<path d="M359.254 157.831L358.775 315.503L91.6797 171.892L92.1591 14.2199L359.254 157.831Z" fill="#F2F2F2"/>
<path d="M278.717 135.568C276.891 134.586 275.399 135.373 275.399 137.329V244.514C275.399 246.47 276.891 248.866 278.717 249.847L334.633 279.913C336.467 280.898 337.95 280.104 337.95 278.148V170.963C337.95 169.007 336.467 166.619 334.633 165.63L278.717 135.568ZM334.633 282.152L278.717 252.09C275.734 250.485 273.303 246.58 273.303 243.387V136.206C273.303 133.013 275.734 131.723 278.717 133.329L334.633 163.391C337.616 165 340.051 168.901 340.051 172.094V279.279C340.051 282.468 337.616 283.758 334.633 282.152Z" fill="#4D4D4D"/>
<path d="M115.166 47.6308C113.332 46.6422 111.848 47.436 111.848 49.392V156.577C111.848 158.53 113.332 160.925 115.166 161.91L171.082 191.972C172.912 192.957 174.399 192.167 174.399 190.211V83.0262C174.399 81.0702 172.912 78.6784 171.082 77.6933L115.166 47.6308ZM171.082 194.215L115.166 164.149C112.179 162.544 109.751 158.639 109.751 155.447V48.2616C109.751 45.0725 112.179 43.7827 115.166 45.3879L171.082 75.4538C174.064 77.059 176.499 80.9639 176.499 84.153V191.335C176.499 194.531 174.064 195.821 171.082 194.215Z" fill="#4D4D4D"/>
<path d="M157.948 129.08L127.163 112.525C125.169 111.452 123.552 108.578 123.552 106.101C123.552 103.628 125.169 102.49 127.163 103.564L157.948 120.119C159.942 121.185 161.559 124.063 161.559 126.536C161.559 129.013 159.942 130.15 157.948 129.08Z" fill="#4D4D4D"/>
<path d="M166.665 141.188L117.921 114.977C117.267 114.63 116.738 113.684 116.738 112.872C116.738 112.061 117.267 111.689 117.921 112.036L166.665 138.247C167.319 138.598 167.848 139.54 167.848 140.355C167.848 141.167 167.319 141.539 166.665 141.188Z" fill="#4D4D4D"/>
<path d="M166.665 147.162L117.921 120.955C117.267 120.604 116.738 119.661 116.738 118.846C116.738 118.038 117.267 117.663 117.921 118.014L166.665 144.221C167.319 144.575 167.848 145.518 167.848 146.329C167.848 147.144 167.319 147.513 166.665 147.162Z" fill="#4D4D4D"/>
<path d="M166.665 153.14L117.921 126.929C117.267 126.578 116.738 125.636 116.738 124.824C116.738 124.009 117.267 123.637 117.921 123.988L166.665 150.199C167.319 150.546 167.848 151.492 167.848 152.307C167.848 153.115 167.319 153.491 166.665 153.14Z" fill="#4D4D4D"/>
<path d="M166.665 159.11L117.921 132.907C117.267 132.552 116.738 131.613 116.738 130.798C116.738 129.987 117.267 129.611 117.921 129.966L166.665 156.173C167.319 156.524 167.848 157.47 167.848 158.278C167.848 159.093 167.319 159.465 166.665 159.11Z" fill="#4D4D4D"/>
<path d="M134.384 165.24C134.384 166.374 133.524 166.831 132.466 166.261C131.401 165.69 130.545 164.305 130.545 163.175C130.545 162.041 131.401 161.584 132.466 162.154C133.524 162.725 134.384 164.107 134.384 165.24Z" fill="#4D4D4D"/>
<path d="M141.027 168.813C141.027 169.943 140.167 170.4 139.105 169.833C138.04 169.263 137.184 167.877 137.184 166.743C137.184 165.606 138.04 165.152 139.105 165.723C140.167 166.293 141.027 167.675 141.027 168.813Z" fill="#4D4D4D"/>
<path d="M147.667 172.381C147.667 173.514 146.807 173.972 145.746 173.401C144.68 172.831 143.824 171.449 143.824 170.315C143.824 169.177 144.68 168.72 145.746 169.294C146.807 169.865 147.667 171.247 147.667 172.381Z" fill="#4D4D4D"/>
<path d="M154.306 175.949C154.306 177.086 153.446 177.543 152.384 176.969C151.323 176.399 150.463 175.02 150.463 173.883C150.463 172.749 151.323 172.292 152.384 172.863C153.446 173.433 154.306 174.815 154.306 175.949Z" fill="#4D4D4D"/>
<path d="M196.944 91.5977C195.11 90.6126 193.622 91.4028 193.622 93.3623V200.544C193.622 202.503 195.11 204.892 196.944 205.88L252.856 235.943C254.69 236.928 256.178 236.138 256.178 234.178V126.997C256.178 125.037 254.69 122.645 252.856 121.664L196.944 91.5977ZM252.856 238.186L196.944 208.12C193.957 206.511 191.526 202.61 191.526 199.414V92.232C191.526 89.0429 193.957 87.7531 196.944 89.3582L252.856 119.421C255.843 121.026 258.274 124.931 258.274 128.12V235.305C258.274 238.501 255.843 239.791 252.856 238.186Z" fill="#4D4D4D"/>
<path d="M221.317 138.084L200.699 126.997V104.96L221.317 116.047V138.084Z" fill="#4D4D4D"/>
<path d="M249.1 153.023L228.482 141.936V119.899L249.1 130.986V153.023Z" fill="#FF9207"/>
<path d="M201.612 157.314L220.404 167.42V147.35L201.612 137.244V157.314ZM222.231 170.361L199.786 158.299V134.3L222.231 146.369V170.361Z" fill="#4D4D4D"/>
<path d="M229.395 172.253L248.187 182.359V162.289L229.395 152.18V172.253ZM250.013 185.303L227.568 173.238V149.238L250.013 161.304V185.303Z" fill="#4D4D4D"/>
<path d="M201.612 188.128L220.404 198.23V178.16L201.612 168.054V188.128ZM222.231 201.178L199.786 189.109V165.113L222.231 177.175V201.178Z" fill="#4D4D4D"/>
<path d="M229.395 203.067L248.187 213.169V193.099L229.395 182.993V203.067ZM250.013 216.114L227.568 204.048V180.052L250.013 192.117V216.114Z" fill="#4D4D4D"/>
<path d="M221.329 208.488V221.237L200.695 210.143V197.394L221.329 208.488Z" fill="#4D4D4D"/>
<path d="M249.089 223.417V236.166L228.478 225.082V212.333L249.089 223.417Z" fill="#4D4D4D"/>
<path d="M221.329 102.476V109.51L200.695 98.4188V91.3816L221.329 102.476Z" fill="#4D4D4D"/>
<path d="M249.089 117.405V124.438L228.478 113.354V106.321L249.089 117.405Z" fill="#4D4D4D"/>
<path d="M150.418 539.253C123.651 553.646 80.1164 553.572 53.1782 539.09C26.2438 524.604 26.1031 501.197 52.8739 486.803C79.6446 472.41 123.18 472.484 150.114 486.966C177.052 501.452 177.185 524.86 150.418 539.253Z" fill="#F2F2F2"/>
<path d="M63.2299 283.053C62.625 278.616 61.415 273.879 57.7471 270.994C56.6247 270.109 55.2398 269.421 53.7673 269.418C52.7666 269.414 51.8116 269.722 50.9061 270.133C42.8056 263.929 34.6024 257.547 29.7246 248.954C28.7886 247.314 27.9858 245.602 26.8481 244.075L26.2013 243.303C28.9941 240.946 31.7868 238.583 34.5643 236.209L35.2073 235.511C35.5079 234.947 35.3177 234.27 35.116 233.671C33.7805 229.717 31.8514 225.607 28.0618 223.431C26.5894 222.588 24.9001 222.113 23.1803 221.996C22.0389 221.914 20.1744 222.602 19.5162 221.514C16.381 223.261 13.6073 226.241 11.2369 228.796C8.83604 231.386 6.67114 234.157 4.62795 236.999C3.04133 239.199 1.1579 241.364 0.305618 243.937C-0.664614 246.874 0.838328 249.419 2.52767 251.807C4.97037 255.247 7.75545 258.476 10.8412 261.434C12.6028 263.128 14.4596 264.73 16.4115 266.236C21.8904 270.47 28.0201 273.907 34.123 277.327C37.0071 278.942 48.6422 285.253 49.1863 285.767C50.2706 286.787 50.6778 288.364 51.2143 289.658C52.2682 292.195 53.345 294.767 55.1104 296.929C55.8447 297.829 56.7275 298.669 57.8613 299.069L58.588 299.119L59.0484 298.693C61.1677 295.735 63.0054 292.482 63.4468 288.949C63.6903 286.989 63.5001 285.009 63.2299 283.053Z" fill="#FFB78C"/>
<path d="M42.525 199.059L41.6195 199.761C31.6509 207.68 23.3906 217.216 13.8595 225.553C13.1518 226.173 12.4251 226.8 11.9685 227.601C10.77 229.678 12.8512 232.126 14.2704 233.707C18.372 238.263 24.2581 241.399 30.5551 242.381C33.656 242.866 36.8178 242.845 39.9606 242.82C41.6956 242.81 43.4459 242.796 45.1504 242.487C45.0896 241.414 45.371 240.492 45.5575 239.461C45.7629 238.292 45.7135 237.045 45.8428 235.861C46.113 233.409 46.543 230.978 47.0643 228.565C48.1106 223.774 49.526 219.065 50.8805 214.345C51.6415 211.681 52.391 209.005 52.7791 206.273C52.9389 205.136 53.0378 203.984 52.9122 202.836C52.7677 201.5 52.41 200.299 52.7296 198.938C52.9008 198.219 53.9472 195.569 54.9973 195.558C50.5342 195.601 46.0369 196.43 42.525 199.059Z" fill="#F2F2F2"/>
<path d="M46.7021 508.854C46.4015 512.203 46.9533 515.647 49.7347 517.727C51.7817 519.254 54.7265 518.949 57.1008 518.421C59.2581 517.94 61.2442 516.597 62.5987 514.984C63.8733 513.468 64.4251 511.455 65.7644 509.956C66.8754 508.716 68.5724 508.096 70.1818 507.497C76.5777 505.123 83.0611 502.147 87.1551 496.994C88.6656 495.095 90.5072 492.519 88.5781 490.212C88.0454 489.571 87.2541 489.149 86.4322 488.876C85.1386 488.441 83.7498 488.334 82.3762 488.292C78.3012 488.168 74.2187 488.611 70.2503 489.472C67.6554 490.035 65.1023 490.783 62.6862 491.817C61.0007 492.54 59.3875 493.398 57.7818 494.255C56.6252 494.872 55.1565 495.418 54.1596 496.24C53.6726 496.647 52.6263 498.022 51.9909 496.948C51.8045 496.629 51.7816 496.25 51.7702 495.885C50.176 498.352 48.5589 500.853 47.7485 503.628C47.2957 505.18 46.8657 506.997 46.7021 508.854Z" fill="#FF9207"/>
<path d="M94.3203 353.907C94.2099 352.383 93.7153 350.913 93.2093 349.464C88.9935 337.352 83.3242 324.84 72.1913 317.456C69.391 315.603 66.1036 314.029 62.5993 313.955C61.4959 313.93 60.5447 314.352 59.5707 313.753C58.8896 313.335 57.6074 310.833 58.0412 310.093C53.4487 317.902 50.9642 326.757 50.7321 335.651C50.6408 339.138 50.4277 343.741 51.71 347.235C51.8507 347.621 52.0106 347.993 52.1894 348.351C54.0005 351.937 55.9904 355.225 57.0558 359.166C57.9347 362.408 57.128 364.867 57.166 368.07C57.2231 372.216 57.3258 376.362 57.3525 380.508C57.4057 388.93 57.265 397.357 56.6144 405.758C56.2263 410.719 55.6632 415.694 54.3505 420.52C52.684 426.65 48.8792 431.983 47.7225 438.237C46.7104 443.726 46.9577 449.339 47.205 454.902C47.8062 468.285 48.4035 481.672 49.0009 495.052C49.058 496.264 49.1075 497.476 49.1646 498.684C49.2216 499.967 48.9438 500.676 50.2755 501.253C52.3111 502.139 54.6473 502.192 56.8503 502.086C62.101 501.838 67.3097 500.771 72.1913 498.943C74.1127 498.224 73.3442 496.509 73.3937 494.911C73.4355 493.628 75.7146 467.035 76.5897 459.615C77.5333 451.642 78.5568 443.68 79.626 435.721C80.5734 428.688 81.5626 421.654 82.5937 414.631C83.2748 410 83.9559 405.372 84.7321 400.751C84.8995 399.763 84.9984 398.724 85.2876 397.757C87.6276 390.025 91.0367 382.524 92.2086 374.565C92.9391 369.622 92.7945 364.587 93.6468 359.658C93.9778 357.748 94.461 355.835 94.3203 353.907Z" fill="#333333"/>
<path d="M99.1937 513.875C99.1138 516.55 99.5475 519.208 100.978 521.337C102.744 523.959 106.51 524.994 109.763 524.349C112.434 523.811 114.862 522.315 117.586 522.145C119.211 522.039 120.82 522.418 122.396 522.779C129.571 524.438 136.804 525.915 144.125 526.869C146.796 527.212 149.741 527.156 152.336 526.422C157.297 525.022 165.497 518.8 160.147 513.793C158.899 512.62 157.202 511.972 155.547 511.377C149.433 509.169 143.185 507.302 136.911 505.527C131.242 503.921 125.527 502.391 119.683 501.427C116.78 500.945 113.846 500.605 110.897 500.474C109.098 500.396 105.951 501.278 105.095 499.485C102.329 500.722 101.073 504.184 100.373 506.745C99.791 508.872 99.2698 511.38 99.1937 513.875Z" fill="#FF9207" fill-opacity="0.6"/>
<path d="M125.839 498.146C125.516 494.159 123.271 416.813 126.026 382.286C126.395 377.722 126.6 373.148 126.551 368.573C126.395 353.939 123.899 339.276 121.871 324.784C121.513 322.211 121.068 319.461 119.188 317.548C120.775 319.164 114.25 326.155 112.884 327.055C110.186 328.834 106.67 329.907 103.356 329.907C97.79 330.056 92.3947 328.157 87.4217 325.829C83.2973 323.905 79.348 321.662 75.1322 319.901C73.3706 319.167 71.4339 319.068 69.7712 318.441C68.7553 318.026 67.9867 316.942 67.0393 316.371C65.818 315.638 64.2998 315.117 63.0024 314.483C62.5953 314.284 62.1159 314.086 61.7011 314.26C61.3511 314.401 61.1685 314.752 61.0239 315.078C58.273 321.219 57.8088 328.132 59.0492 334.684C60.6586 343.216 64.4178 351.501 71.491 357.17C74.9343 359.927 78.6098 362.599 80.9764 366.281C83.0044 369.431 83.9023 373.08 84.7204 376.67C87.4294 388.576 89.5221 400.599 91.1772 412.671C92.7638 424.262 92.0408 435.895 93.3345 447.503C94.3427 456.518 95.9902 465.454 97.341 474.423C98.2731 480.609 99.0836 486.81 99.7342 493.025C100.065 496.176 100.362 499.322 100.609 502.479C100.781 504.676 101.222 505.98 103.353 507.21C105.198 508.266 107.5 508.517 109.619 508.539C115.037 508.592 120.566 507.543 125.2 504.924C126.536 504.17 126.535 503.635 126.273 502.465C125.957 501.062 125.961 499.574 125.839 498.146Z" fill="#424242"/>
<path d="M52.6595 195.686C48.5236 196.345 44.7986 198.035 42.1543 201.809C40.6247 203.992 39.7116 206.5 39.0039 209.027C36.3405 218.544 36.8238 227.924 39.2589 237.371C40.9292 243.841 43.6344 250.031 45.9972 256.307C47.8425 261.214 49.4862 266.186 51.1337 271.157C53.3329 277.812 55.5511 284.541 56.0762 291.489C56.6393 298.909 55.2505 306.28 53.9454 313.565C53.2872 317.232 52.629 320.896 52.2371 324.596C52.0773 326.123 51.4077 328.001 51.499 329.503C51.6017 331.144 53.0893 332.859 54.2156 334.042C56.8713 336.838 60.5392 338.716 64.2299 340.066C69.8458 342.121 75.8271 343.273 81.8501 343.528C87.4128 343.769 92.9754 343.245 98.5039 342.625C106.311 341.753 114.302 340.619 121.165 337.04C122.657 336.264 123.494 335.602 123.357 333.986C122.04 318.469 122.71 302.885 123.844 287.379C124.986 271.753 126.599 256.147 127.143 240.485C127.306 235.758 127.451 231.028 127.398 226.294C127.375 223.948 127.052 221.542 127.15 219.2C127.234 217.248 126.964 215.759 124.997 214.597C123.509 213.715 121.728 213.396 120.035 212.935C114.088 211.316 108.979 207.811 103.378 205.352C99.398 203.605 95.1784 202.386 90.9665 201.199C81.9528 198.662 72.7908 196.221 63.3548 195.548C59.763 195.289 56.0686 195.137 52.6595 195.686Z" fill="#D9D9D9"/>
<path d="M104.265 148.994C105.798 151.981 106.863 155.202 108.876 157.927C109.987 159.433 111.364 160.751 112.784 162.016C113.168 162.356 113.579 162.725 113.712 163.207C114.001 164.245 112.94 165.127 112.304 166.024C110.725 168.252 111.699 171.193 112.457 173.77C113.016 175.697 113.427 177.664 113.67 179.645C113.83 180.934 113.902 182.323 113.183 183.436C111.749 185.672 108.271 185.481 105.684 186.469C101.51 188.067 99.8892 192.681 98.7553 196.752C98.1351 198.992 97.5112 201.231 96.8872 203.474C91.3321 203.102 85.7732 204.427 80.2144 204.133C75.7589 203.896 71.372 202.606 67.5786 200.416C66.4561 199.768 65.25 198.712 65.5924 197.528C65.699 197.174 65.9311 196.869 66.1441 196.557C69.1385 192.142 67.3959 186.21 64.314 181.841C61.2397 177.479 56.9517 173.876 54.3606 169.245C48.368 158.529 53.3789 144.958 64.7744 139.512C68.6325 137.669 72.8863 136.645 77.1477 135.89C80.9335 135.224 84.8069 134.76 88.6193 135.242C91.6746 135.624 95.2701 136.39 97.4084 138.629C100.216 141.577 102.446 145.45 104.265 148.994Z" fill="#FFB78C"/>
<path d="M100.464 154.366C95.1453 158.03 93.045 164.691 93.4141 170.843C91.3937 169.996 89.3277 169.135 87.1247 168.947C84.9141 168.756 82.5094 169.355 81.132 170.977C79.8841 172.451 79.7091 174.446 79.4542 176.31C79.1345 178.656 78.6057 181.005 77.5061 183.142C76.4103 185.272 74.702 187.192 72.4495 188.284C69.5997 189.665 67.3092 187.196 65.6008 185.477C63.6641 183.521 61.6818 181.583 60.0952 179.358C58.0254 176.459 56.4274 173.291 54.9663 170.095C54.0455 168.086 52.9117 165.726 52.436 163.593C51.949 161.396 51.2604 159.174 51.3479 156.892C51.4354 154.702 52.185 152.484 53.7336 150.833C54.369 150.153 55.5979 150.188 56.4844 149.933C58.4211 149.373 60.3349 149.451 62.3438 149.472C66.9287 149.515 71.5249 148.696 75.7635 147.07C78.4687 146.035 81.0293 144.675 83.7992 143.814C85.0092 143.434 86.3067 143.154 87.5623 143.371C90.1153 143.814 92.0025 146.241 93.3761 148.137C95.248 150.72 97.4624 152.902 100.464 154.366Z" fill="#733118"/>
<path d="M56.3779 154.894C57.1502 154.646 57.8959 154.33 58.6074 153.965C58.9537 153.792 59.3152 153.59 59.7071 153.547C60.099 153.501 60.5289 153.59 60.917 153.622C70.5356 154.479 80.3978 152.856 89.1184 148.983C93.0108 147.254 96.7813 144.997 99.2278 141.687C100.373 140.139 101.21 138.112 100.365 136.401C99.985 135.632 99.3116 135.029 98.6039 134.501C95.4953 132.177 91.5345 130.979 87.5622 130.678C83.5862 130.373 79.5873 130.915 75.7139 131.78C68.0662 133.477 60.4947 136.819 56.3779 143.371C56.1229 143.778 55.8794 144.203 55.5103 144.533C55.1261 144.884 54.6352 145.103 54.1825 145.373C52.2496 146.506 51.1653 148.558 50.6858 150.574C50.1912 152.651 50.2369 154.94 51.0549 156.938L51.325 157.505C51.5229 156.74 52.2305 156.159 53.0029 155.833C53.7715 155.5 54.62 155.369 55.4381 155.163L56.3779 154.894Z" fill="#8C3C1D"/>
<path d="M227.588 144.976L224.719 140.345L235.871 134.346C237.249 133.605 239.003 134.044 239.798 135.327C240.589 136.606 240.118 138.243 238.744 138.98L227.588 144.976Z" fill="white"/>
<path d="M193.462 154.532L228.406 135.866C229.076 135.504 230 135.557 231.02 136.1C233.071 137.198 234.73 139.877 234.73 142.088C234.73 143.201 234.311 143.984 233.63 144.345L198.686 163.015C199.364 162.65 199.786 161.871 199.786 160.755C199.786 158.544 198.123 155.861 196.073 154.77C195.057 154.228 194.132 154.175 193.462 154.532Z" fill="#FFC882"/>
<path d="M192.362 156.789C192.362 154.578 194.021 153.671 196.072 154.77C198.122 155.861 199.785 158.543 199.785 160.755C199.785 162.966 198.122 163.873 196.072 162.778C194.021 161.683 192.362 159.001 192.362 156.789Z" fill="#FF9207"/>
<path d="M229.524 156.513C229.242 155.4 228.908 154.274 228.234 153.317C227.565 152.357 226.492 151.577 225.266 151.481C224.947 149.731 222.881 148.448 221.024 148.842C220.898 147.718 220.111 146.677 219.019 146.184L218.315 145.741C218.121 145.461 218.208 145.093 218.292 144.77C218.441 144.221 218.566 143.651 218.444 143.098C218.319 142.549 217.881 142.017 217.284 141.936C216.793 141.865 216.321 142.099 215.887 142.322C214.042 143.275 212.197 144.228 210.351 145.181L209.492 145.748C209.225 146.018 209.077 146.368 208.932 146.708C208.091 148.7 207.251 150.691 206.41 152.679C205.946 153.778 205.474 154.912 205.481 156.091C205.489 157.077 205.828 158.033 206.166 158.969C206.783 160.691 207.403 162.409 208.023 164.131C208.567 165.655 209.115 167.179 209.667 168.703C210.759 171.743 207.403 181.544 206.539 183.539C202.593 192.674 197.837 201.504 192.347 209.916C189.375 214.466 186.175 218.888 182.778 223.172C181.671 223.023 180.541 222.945 179.422 222.878C170.37 222.315 161.345 221.418 152.37 220.199L149.379 220.228C148.196 220.763 146.822 220.72 145.517 220.876C144.212 221.032 142.793 221.503 142.23 222.609C141.861 223.328 141.937 224.164 142.04 224.954C142.298 226.957 142.686 228.941 143.196 230.9C143.31 231.329 143.428 231.776 143.348 232.211C143.249 232.732 142.892 233.168 142.538 233.572C139.662 236.864 136.348 239.819 132.699 242.356C137.504 244.337 142.82 244.932 148.063 245.294C160.9 246.176 173.844 245.786 186.598 244.142C189.509 243.763 192.434 243.313 195.159 242.289C195.893 242.009 196.597 241.626 197.137 241.091C197.788 240.606 198.366 239.989 198.884 239.369C205.112 231.892 208.936 222.963 212.684 214.165C215.511 207.514 218.345 200.852 220.427 193.964C221.602 190.069 226.613 175.031 226.91 174.407C227.523 173.121 227.846 171.675 228.497 170.421C229.159 169.145 229.768 167.93 230.08 166.516C230.818 163.214 230.35 159.762 229.524 156.513Z" fill="#FFB78C"/>
<path d="M103.724 236.248C108.792 243.809 117.502 249.085 126.922 250.652C130.229 251.201 133.642 251.318 136.921 250.666C142.507 249.564 146.772 245.336 150.044 241.219C152.289 238.391 154.249 235.319 155.352 231.953C156.067 229.781 156.486 227.385 156.36 225.061C156.246 223.02 156.163 220.525 153.609 220.107C150.379 219.583 147.198 218.789 144.067 217.868C136.918 215.752 130.031 212.946 122.882 210.841C119.355 209.803 115.763 208.935 112.099 208.439C108.693 207.978 105.387 207.918 102.598 210.125C99.8738 212.28 99.2346 214.991 98.9759 218.151C98.6411 222.205 99.2194 226.319 100.627 230.163C101.407 232.293 102.446 234.341 103.724 236.248Z" fill="#F2F2F2"/>
</svg>
