<svg width="167" height="198" viewBox="0 0 167 198" fill="none" xmlns="http://www.w3.org/2000/svg">
<path d="M113.4 197.444L56.5762 163.765C55.3599 163.045 55.5122 161.785 56.9155 160.952L60.1421 159.04C61.5466 158.207 63.6708 158.117 64.8871 158.837L121.711 192.516C122.928 193.238 122.775 194.498 121.371 195.33L118.145 197.243C116.741 198.075 114.617 198.166 113.4 197.444Z" fill="#F2F2F2"/>
<path d="M118.989 31.9771L66.6997 0.97525C65.7176 0.391464 64.8316 0.374359 64.1415 0.77803L58.9829 3.84297L65.0557 8.69221L66.5396 8.30562V135.551C66.5396 138.537 68.3065 142.003 70.4857 143.296L116.333 177.758V179.883L121.67 176.683V176.662C122.443 176.133 122.935 175.03 122.935 173.467V39.719C122.935 36.7356 121.168 33.2683 118.989 31.9771Z" fill="#999999"/>
<path d="M110.993 43.3362V37.3312L105.851 41.2981L83.3776 31.6273L66.5407 19.0415V8.30301L65.0478 8.68563L58.9878 3.84298L64.1426 0.77803C64.8352 0.380939 65.7149 0.395432 66.6995 0.970024L118.985 31.9837C120.424 32.8304 121.676 34.6226 122.356 36.5923L110.993 43.3362Z" fill="#E6E6E6"/>
<path d="M113.799 179.639L61.5096 148.637C59.3304 147.344 57.5635 143.877 57.5635 140.894V7.14597C57.5635 4.16122 59.3304 2.78983 61.5096 4.08234L113.799 35.0842C115.978 36.3753 117.745 39.8426 117.745 42.8287V176.575C117.745 179.56 115.978 180.931 113.799 179.639Z" fill="#CCCCCC"/>
<path d="M58.7183 141.683V7.72308C58.7183 5.54831 60.005 4.54901 61.594 5.49045L113.715 36.3936C115.304 37.3364 116.592 39.8636 116.592 42.037V175.998C116.592 178.173 115.304 179.172 113.715 178.23L61.594 147.326C60.005 146.384 58.7183 143.859 58.7183 141.683Z" fill="#333333"/>
<path d="M115.062 43.4596V173.218C115.062 175.148 113.734 175.912 112.108 174.948L63.2071 145.953C61.5682 144.983 60.2417 142.632 60.2417 140.702V10.9562C60.2417 9.026 61.5682 8.24893 63.2071 9.22061L72.1402 14.5168C72.5128 14.7377 72.8405 15.2229 72.9442 15.7068L73.3578 17.6449C73.6689 19.5015 75.0889 21.5672 76.7508 22.552L98.5542 35.4797C100.215 36.4645 101.645 36.0898 101.945 34.5948L102.359 33.1472C102.463 32.7869 102.791 32.6909 103.164 32.9118L112.108 38.2146C113.734 39.1784 115.062 41.5281 115.062 43.4596Z" fill="#D9D9D9"/>
<path d="M104.095 75.6685C104.951 76.1773 105.641 77.4028 105.639 78.4179L105.623 83.9114C105.622 84.9212 104.927 85.3327 104.07 84.8239L72.7167 66.2344C71.8601 65.7281 71.1713 64.4961 71.1738 63.4863L71.1892 57.9928C71.1917 56.9777 71.887 56.5728 72.7436 57.079L104.095 75.6685Z" fill="#FFE5CC"/>
<path d="M104.095 94.8826C104.951 95.3902 105.641 96.6222 105.639 97.632L105.623 103.129C105.622 104.139 104.927 104.546 104.07 104.038L72.7167 85.4498C71.8601 84.941 71.1713 83.7142 71.1738 82.7044L71.1892 77.2069C71.1917 76.1971 71.887 75.7856 72.7436 76.2944L104.095 94.8826Z" fill="#FFE5CC"/>
<path d="M57.5634 98.7495H57.562V89.4508L57.5634 89.4521V98.7495Z" fill="#B3B3B3"/>
<path d="M58.7184 99.4346L57.5635 98.7495V89.4521L58.7184 90.1372V99.4346Z" fill="#8F8F8F"/>
<path d="M60.2419 100.339L58.7183 99.4347V90.1373L60.2419 91.0419V100.339Z" fill="#242424"/>
<path d="M60.2459 100.342L60.2417 100.339V91.0417L60.2459 91.0444V100.342Z" fill="#5A8AB3"/>
<path d="M105.644 120.407L105.632 124.792C105.621 126.139 104.691 126.69 103.545 126.017L60.2451 100.342V91.0432L103.569 116.72C104.715 117.405 105.644 119.046 105.644 120.407Z" fill="#FFE5CC"/>
<path d="M80.4551 127.588C81.281 128.079 81.948 129.266 81.9455 130.241L81.9045 145.294C81.9019 146.269 81.2298 146.658 80.4039 146.169L67.645 138.606C66.8205 138.115 66.1547 136.933 66.1572 135.96L66.1995 120.904C66.2021 119.931 66.8717 119.535 67.6962 120.025L80.4551 127.588Z" fill="#FFE5CC"/>
<path d="M104.153 141.613C104.978 142.103 105.643 143.289 105.64 144.264L105.599 159.317C105.597 160.293 104.927 160.684 104.101 160.194L91.3437 152.63C90.5191 152.141 89.8495 150.956 89.8521 149.982L89.8943 134.927C89.8969 133.954 90.5704 133.559 91.3949 134.05L104.153 141.613Z" fill="#FFE5CC"/>
<path d="M103.237 45.6463C104.567 46.4365 105.644 48.351 105.64 49.9248L105.604 62.8118C105.6 64.3831 104.516 65.0181 103.185 64.2279L66.9765 42.7588C65.6449 41.9699 64.5681 40.0555 64.5733 38.4842L64.6078 25.5973C64.6117 24.0234 65.6961 23.3883 67.0277 24.1786L103.237 45.6463Z" fill="#FFE5CC"/>
<path d="M57.562 74.4708H57.5637V49.2239H57.562V74.4708Z" fill="#B3B3B3"/>
<path d="M58.7184 75.1558L57.5635 74.4707V49.2241L58.7184 49.9091V75.1558Z" fill="#8F8F8F"/>
<path d="M60.2419 76.0604L58.7183 75.1558V49.9092L60.2419 50.8138V76.0604Z" fill="#242424"/>
<path d="M60.2459 76.0629L60.2417 76.0602V50.8136L60.2459 50.8162V76.0629Z" fill="#5A8AB3"/>
<path d="M64.2527 55.6539L64.1938 75.9527C64.1938 77.2991 63.263 77.8396 62.1055 77.165L60.2451 76.0632V50.8165L62.1772 51.9683C63.3347 52.6534 64.2527 54.3075 64.2527 55.6539Z" fill="#FFE5CC"/>
<path d="M78.7428 20.6718C78.7428 21.704 78.0335 22.1208 77.1577 21.6015C76.2806 21.0821 75.5713 19.8224 75.5713 18.7903C75.5713 17.7581 76.2806 17.3439 77.1577 17.862C78.0335 18.3827 78.7428 19.6397 78.7428 20.6718Z" fill="#666666"/>
<path d="M78.0271 20.247C78.0271 20.8124 77.6379 21.0399 77.1578 20.7559C76.6776 20.4719 76.2871 19.7816 76.2871 19.2162C76.2871 18.6508 76.6776 18.422 77.1578 18.7073C77.6379 18.9927 78.0271 19.6816 78.0271 20.247Z" fill="#333333"/>
<path d="M95.2728 28.1784L79.7586 18.981C79.5038 18.8298 79.2964 18.4221 79.2964 18.0724V17.4268C79.2964 17.0784 79.5038 16.918 79.7586 17.0692L95.2728 26.2666C95.5289 26.4178 95.7363 26.8254 95.7363 27.1739V27.8195C95.7363 28.1692 95.5289 28.3296 95.2728 28.1784Z" fill="black"/>
<path d="M121.486 60.3319C121.178 60.1478 120.752 60.1754 120.282 60.4541C119.345 61.009 118.591 62.3502 118.593 63.4547L118.638 79.3526C118.639 79.897 118.829 80.2822 119.134 80.465L120.073 81.0251C119.767 80.8437 119.579 80.4571 119.577 79.9128L119.533 64.0148C119.531 62.9103 120.285 61.5691 121.219 61.0143C121.69 60.7355 122.117 60.7092 122.425 60.8933L121.486 60.3319Z" fill="#E6E6E6"/>
<path d="M121.219 61.0146C122.157 60.4597 122.915 60.9041 122.917 62.0073L122.962 77.9053C122.965 78.9993 122.212 80.3523 121.274 80.9071C120.34 81.4607 119.581 81.007 119.577 79.9131L119.533 64.0151C119.531 62.9106 120.285 61.5694 121.219 61.0146Z" fill="#BFBFBF"/>
<path d="M121.495 62.8013C122.264 62.3464 122.886 62.7119 122.888 63.6165L122.924 76.6573C122.927 77.5554 122.308 78.6625 121.54 79.1188C120.773 79.5737 120.15 79.2016 120.147 78.3035L120.111 65.2628C120.109 64.3581 120.727 63.2576 121.495 62.8013Z" fill="#CCCCCC"/>
<path d="M55.9337 19.1478L43.1761 11.5847C42.7612 11.3375 42.3861 11.3165 42.1147 11.4782L39.7178 12.9088C39.9879 12.747 40.3631 12.7694 40.7779 13.0153L53.5355 20.5797C54.3601 21.0688 55.0297 22.2574 55.0272 23.2304L54.9849 38.2843C54.9836 38.7695 54.8185 39.1074 54.5496 39.2678L56.9477 37.8372C57.2153 37.6768 57.3818 37.3376 57.3831 36.855L57.424 21.7999C57.4279 20.8256 56.7582 19.6382 55.9337 19.1478Z" fill="#FFBE6A"/>
<path d="M53.5349 20.5798C54.3595 21.069 55.0291 22.2576 55.0265 23.2306L54.9843 38.2858C54.9817 39.2601 54.3082 39.6506 53.4837 39.1615L40.7261 31.5971C39.9003 31.1079 39.2357 29.9232 39.2383 28.9502L39.2793 13.8964C39.2831 12.9208 39.9515 12.5263 40.7773 13.0154L53.5349 20.5798Z" fill="#FF9207"/>
<path d="M46.2202 26.8702L45.0205 30.1744L40.0283 27.2147L43.1281 22.7244C43.5634 22.0933 44.6505 22.7389 45.0858 23.8842L46.2202 26.8702Z" fill="white"/>
<path d="M48.1869 32.0507L45.0205 30.1743L46.2202 26.8701L48.1869 32.0507Z" fill="#E6E6E6"/>
<path d="M53.1808 35.0117L48.1874 32.0506L46.2207 26.8701L47.7354 22.6981C48.1886 21.4489 50.0119 22.5297 50.4664 24.3166L53.1808 35.0117Z" fill="white"/>
<path d="M46.2436 20.9992C46.2436 21.725 45.7442 22.0155 45.1271 21.6513C44.5125 21.2871 44.0132 20.4022 44.0132 19.6764C44.0132 18.9506 44.5125 18.6587 45.1271 19.0242C45.7442 19.3884 46.2436 20.2734 46.2436 20.9992Z" fill="#E6E6E6"/>
<path d="M102.866 76.4324L71.5137 57.8429C71.0822 57.5878 70.693 57.5642 70.4126 57.7325L68.0132 59.163C68.2949 58.9947 68.6854 59.0197 69.1156 59.2748L100.468 77.8643C101.325 78.3718 102.013 79.5986 102.011 80.6137L101.996 86.1072C101.994 86.6082 101.823 86.9631 101.544 87.1301L103.942 85.6983C104.221 85.5326 104.394 85.1789 104.395 84.6753L104.409 79.1818C104.412 78.168 103.723 76.9413 102.866 76.4324Z" fill="#FFBE6A"/>
<path d="M100.469 77.8644C101.325 78.3719 102.014 79.5987 102.011 80.6138L101.996 86.1073C101.995 87.1171 101.301 87.5273 100.444 87.0184L69.0905 68.4302C68.234 67.9227 67.5438 66.692 67.5464 65.6809L67.5618 60.1887C67.5656 59.1736 68.2596 58.7673 69.1161 59.2749L100.469 77.8644Z" fill="#FF9207"/>
<path d="M99.4271 81.228L70.6738 64.0954C70.3435 63.8994 70.0771 64.1072 70.0771 64.5582C70.0771 65.0092 70.3435 65.5325 70.6738 65.7284L99.4271 82.8611C99.7561 83.0557 100.022 82.8479 100.022 82.3969C100.022 81.9472 99.7561 81.4226 99.4271 81.228Z" fill="white"/>
<path d="M102.867 95.6465L71.5144 77.0583C71.0842 76.8019 70.6937 76.7796 70.4133 76.9465L68.0151 78.3784C68.2968 78.2101 68.6861 78.2325 69.1163 78.4889L100.469 97.0771C101.325 97.5859 102.014 98.8166 102.012 99.8265L101.996 105.324C101.995 105.826 101.823 106.179 101.545 106.344L103.944 104.912C104.221 104.747 104.394 104.394 104.396 103.892L104.41 98.3959C104.412 97.3848 103.723 96.154 102.867 95.6465Z" fill="#FFBE6A"/>
<path d="M100.469 97.077C101.325 97.5858 102.014 98.8165 102.011 99.8263L101.996 105.324C101.995 106.334 101.301 106.74 100.444 106.232L69.0905 87.6442C68.234 87.1353 67.5438 85.9085 67.5464 84.8987L67.5618 79.4013C67.5656 78.3902 68.2596 77.9812 69.1161 78.4888L100.469 97.077Z" fill="#FF9207"/>
<path d="M99.4271 100.133L70.6738 83.0004C70.3435 82.8058 70.0771 83.0122 70.0771 83.4632C70.0771 83.9142 70.3435 84.4375 70.6738 84.6334L99.4271 101.766C99.7561 101.961 100.022 101.753 100.022 101.302C100.022 100.851 99.7561 100.328 99.4271 100.133Z" fill="white"/>
<path d="M55.9337 114.569L43.1761 107.005C42.7612 106.76 42.3861 106.736 42.1147 106.898L39.7178 108.329C39.9879 108.167 40.3631 108.191 40.7779 108.435L53.5355 116C54.3601 116.489 55.0297 117.677 55.0272 118.653L54.9849 133.707C54.9836 134.189 54.8185 134.529 54.5496 134.689L56.9477 133.257C57.2153 133.098 57.3818 132.757 57.3831 132.275L57.424 117.221C57.4279 116.245 56.7582 115.058 55.9337 114.569Z" fill="#FFBE6A"/>
<path d="M53.5349 115.999C54.3595 116.488 55.0291 117.677 55.0265 118.653L54.9843 133.707C54.9817 134.68 54.3082 135.07 53.4837 134.581L40.7261 127.016C39.9003 126.527 39.2357 125.344 39.2383 124.37L39.2793 109.316C39.2831 108.342 39.9515 107.946 40.7773 108.436L53.5349 115.999Z" fill="#FF9207"/>
<path d="M53.1174 121.114V121.135L47.0395 121.66L40.8706 113.853C40.8706 113.609 41.0384 113.509 41.2471 113.632L52.7409 120.447C52.9484 120.571 53.1174 120.869 53.1174 121.114Z" fill="white"/>
<path d="M47.0395 122.155L53.1174 121.628V129.228C53.1174 129.473 52.9484 129.571 52.7409 129.449L41.2471 122.634C41.0384 122.51 40.8706 122.212 40.8706 121.966V114.344L46.9473 122.038L47.0395 122.155Z" fill="white"/>
<path d="M102.341 117.486L45.578 83.8313C45.0018 83.4894 44.4795 83.4579 44.1017 83.684L41.7036 85.1146C42.0813 84.8884 42.6037 84.92 43.1799 85.2632L99.9425 118.917C101.091 119.598 102.015 121.243 102.012 122.599L101.999 126.985C101.998 127.66 101.767 128.134 101.393 128.356L103.791 126.926C104.165 126.704 104.396 126.228 104.397 125.554L104.41 121.168C104.414 119.811 103.489 118.166 102.341 117.486Z" fill="#FFBE6A"/>
<path d="M99.9423 118.918C101.091 119.598 102.015 121.243 102.011 122.599L101.999 126.985C101.996 128.341 101.065 128.889 99.9167 128.208L43.154 94.5526C42.0094 93.8741 41.0811 92.224 41.085 90.8697L41.0978 86.482C41.1016 85.1264 42.035 84.5833 43.1796 85.2631L99.9423 118.918Z" fill="#FF9207"/>
<path d="M98.4453 122.224L43.8081 89.6349C43.479 89.4403 43.2114 89.6468 43.2114 90.0978C43.2114 90.5488 43.479 91.0721 43.8081 91.2667L98.4453 123.858C98.7757 124.053 99.042 123.846 99.042 123.395C99.042 122.944 98.7757 122.421 98.4453 122.224Z" fill="white"/>
<path d="M79.225 128.352L66.4674 120.789C66.0525 120.542 65.6774 120.52 65.4059 120.683L63.0078 122.112C63.2793 121.95 63.6544 121.974 64.0692 122.219L76.8268 129.783C77.6527 130.272 78.3198 131.462 78.3172 132.435L78.2762 147.489C78.2749 147.973 78.1085 148.312 77.8409 148.471L80.239 147.041C80.5066 146.88 80.6731 146.542 80.6744 146.058L80.7153 131.005C80.7179 130.03 80.0508 128.843 79.225 128.352Z" fill="#FFBE6A"/>
<path d="M76.8264 129.783C77.6522 130.272 78.3193 131.462 78.3168 132.435L78.2758 147.489C78.2732 148.463 77.601 148.854 76.7752 148.365L64.0176 140.8C63.1917 140.311 62.5272 139.128 62.5298 138.155L62.5707 123.1C62.5733 122.125 63.243 121.729 64.0688 122.219L76.8264 129.783Z" fill="#FF9207"/>
<path d="M65.144 128.955C64.774 128.735 64.4731 128.91 64.4731 129.348V135.311C64.4731 135.748 64.774 136.282 65.144 136.502L75.6828 142.75C76.0528 142.97 76.3537 142.792 76.3537 142.356V136.393C76.3537 135.956 76.0528 135.42 75.6828 135.202L65.144 128.955ZM75.6828 143.314L65.144 137.067C64.509 136.69 63.9917 135.775 63.9917 135.027V129.064C63.9917 128.313 64.509 128.011 65.144 128.388L75.6828 134.635C76.3178 135.012 76.8351 135.927 76.8351 136.678V142.641C76.8351 143.389 76.3178 143.693 75.6828 143.314Z" fill="white"/>
<path d="M70.4128 133.181C69.1324 132.422 68.0915 133.032 68.0915 134.542C68.0915 136.05 69.1324 137.894 70.4128 138.653C71.6931 139.413 72.7354 138.803 72.7354 137.294C72.7354 135.785 71.6931 133.941 70.4128 133.181ZM70.4128 139.22C68.8674 138.305 67.6113 136.077 67.6113 134.256C67.6113 132.435 68.8674 131.699 70.4128 132.615C71.9594 133.532 73.2155 135.758 73.2155 137.579C73.2155 139.4 71.9594 140.136 70.4128 139.22Z" fill="white"/>
<path d="M67.5678 129.721L73.2591 133.095V132.233C73.2591 132.052 73.1349 131.833 72.9838 131.743L67.8431 128.694C67.6921 128.605 67.5678 128.677 67.5678 128.856V129.721ZM73.7405 133.946L67.0864 130.001V128.572C67.0864 128.08 67.4257 127.882 67.8431 128.129L72.9838 131.177C73.3999 131.424 73.7405 132.025 73.7405 132.517V133.946Z" fill="white"/>
<path d="M102.921 142.378L90.1638 134.814C89.7489 134.567 89.3725 134.544 89.0998 134.707L86.7017 136.136C86.9744 135.975 87.3508 135.998 87.7656 136.243L100.523 143.807C101.349 144.296 102.014 145.485 102.011 146.458L101.97 161.512C101.969 161.996 101.802 162.336 101.535 162.497L103.933 161.065C104.2 160.906 104.367 160.567 104.368 160.081L104.409 145.028C104.412 144.053 103.747 142.867 102.921 142.378Z" fill="#FFBE6A"/>
<path d="M100.523 143.807C101.349 144.297 102.014 145.485 102.011 146.458L101.97 161.512C101.968 162.486 101.298 162.878 100.472 162.389L87.7145 154.825C86.8899 154.336 86.2216 153.151 86.2241 152.178L86.2651 137.121C86.2677 136.148 86.9411 135.754 87.7657 136.244L100.523 143.807Z" fill="#FF9207"/>
<path d="M94.1743 143.48C91.2589 141.751 88.894 142.654 88.894 145.498C88.894 147.338 89.8889 149.539 91.3792 151.332C91.3101 151.812 91.0067 152.819 89.6725 152.046C89.6725 152.046 91.515 154.13 93.2601 153.151C93.5572 153.378 93.8619 153.59 94.1743 153.774C97.0897 155.503 99.4533 154.6 99.4533 151.757C99.4533 148.914 97.0897 145.209 94.1743 143.48Z" fill="white"/>
<path d="M102.006 46.4103L65.7971 24.9425C65.1275 24.5441 64.5206 24.5087 64.0814 24.769L61.6846 26.2009C62.1225 25.9392 62.7307 25.976 63.399 26.3731L99.6078 47.8422C100.939 48.6311 102.016 50.5455 102.011 52.1208L101.977 65.0077C101.974 65.7874 101.705 66.3357 101.272 66.5947L103.67 65.1642C104.103 64.9065 104.372 64.3568 104.375 63.5758L104.409 50.6888C104.413 49.115 103.338 47.2005 102.006 46.4103Z" fill="#FFBE6A"/>
<path d="M99.6077 47.8421C100.939 48.6311 102.016 50.5455 102.011 52.1207L101.976 65.0076C101.971 66.5776 100.888 67.2113 99.5565 66.4224L63.3476 44.9547C62.016 44.1645 60.9392 42.25 60.9444 40.6788L60.9789 27.7918C60.984 26.2179 62.0673 25.5828 63.3988 26.3731L99.6077 47.8421Z" fill="#FF9207"/>
<path d="M98.6972 50.9361L64.5561 30.611C64.2271 30.4151 63.9595 30.6215 63.9595 31.0738C63.9595 31.5248 64.2271 32.0481 64.5561 32.2441L98.6972 52.5679C99.0263 52.7625 99.2938 52.556 99.2938 52.105C99.2938 51.6541 99.0263 51.1307 98.6972 50.9361Z" fill="white"/>
<path d="M98.6972 55.8024L64.5561 35.4772C64.2271 35.2813 63.9595 35.4904 63.9595 35.94C63.9595 36.391 64.2271 36.9157 64.5561 37.1103L98.6972 57.4354C99.0263 57.63 99.2938 57.4223 99.2938 56.9713C99.2938 56.5216 99.0263 55.997 98.6972 55.8024Z" fill="white"/>
<path d="M98.6972 60.6687L64.5561 40.3436C64.2271 40.1477 63.9595 40.3567 63.9595 40.8064C63.9595 41.2574 64.2271 41.782 64.5561 41.9766L98.6972 62.3018C99.0263 62.4977 99.2938 62.2886 99.2938 61.8389C99.2938 61.3879 99.0263 60.8633 98.6972 60.6687Z" fill="white"/>
<path d="M60.9513 52.7372L42.6382 41.8791C42.0607 41.5359 41.5371 41.5057 41.1581 41.7305L38.7612 43.1611C39.1389 42.9363 39.6626 42.9678 40.2401 43.311L58.5532 54.1691C59.7017 54.8489 60.63 56.4991 60.6261 57.8507L60.5698 78.1417C60.5672 78.8123 60.3368 79.2843 59.9629 79.5078L62.361 78.0759C62.7336 77.8537 62.9654 77.3817 62.9679 76.7111L63.0242 56.4189C63.0281 55.0685 62.0985 53.417 60.9513 52.7372Z" fill="#FFBE6A"/>
<path d="M58.5529 54.1695C59.7014 54.8493 60.6296 56.4994 60.6258 57.8511L60.5694 78.1421C60.5656 79.4924 59.6322 80.0394 58.4837 79.3596L40.1706 68.5015C39.0234 67.8204 38.0938 66.1715 38.0977 64.8186L38.154 44.5289C38.1578 43.1759 39.0925 42.6303 40.2397 43.3114L58.5529 54.1695Z" fill="#FF9207"/>
<path d="M47.3141 63.7244V57.5446L51.8555 63.3286L47.3141 63.7244ZM48.7391 54.5269C45.5152 52.6164 42.9058 54.1443 42.9058 57.9429C42.9058 61.7363 45.5152 66.3633 48.7391 68.2738C51.9593 70.183 54.5712 68.6538 54.5712 64.8591C54.5712 61.0618 51.9593 56.4361 48.7391 54.5269Z" fill="white"/>
<path d="M118.012 54.7346C121.924 55.6787 125.835 56.6228 129.746 57.5655C132.09 58.1309 134.448 58.7016 136.664 59.6759C138.876 60.6502 140.959 62.0624 142.401 64.0439L142.488 64.4265L142.26 64.5422C139.234 65.176 136.158 65.8123 133.084 65.527C130.715 65.3074 128.424 64.5461 126.223 63.6205C123.773 62.5883 121.405 61.3471 119.156 59.9113C117.365 58.77 115.59 57.4367 114.589 55.5341C114.47 55.3053 114.358 55.041 114.435 54.7925C114.498 54.5874 114.678 54.444 114.852 54.3257C115.358 53.9838 115.804 53.6459 116.34 54.0312C116.854 54.4006 117.404 54.5887 118.012 54.7346Z" fill="#FFB78C"/>
<path d="M166.919 80.5767C166.919 86.1005 163.126 92.8378 158.425 95.6056C156.052 97.0151 153.904 97.1374 152.365 96.1933L152.271 96.1447C149.468 94.4301 146.234 93.4742 143.049 92.9233C138.6 92.1646 134.056 92.1764 129.547 91.8332C127.615 91.686 125.658 91.4664 123.845 90.7432C121.782 89.9346 120.004 88.525 118.334 87.0314C116.89 85.7454 115.495 84.3727 114.111 83.0132C109.985 78.9463 105.857 74.8807 101.718 70.8257C101.252 70.3471 100.715 69.8566 100.358 69.2939C100.012 68.7548 100.215 67.9593 100.49 67.4307C100.787 66.8693 101.252 66.4157 101.729 66.0107L101.801 65.9502L101.886 65.7043L101.79 65.607L101.718 65.5452L101.706 65.5334C100.74 64.7247 99.7857 63.928 98.8191 63.1325C98.2224 62.642 97.5912 62.0911 97.4235 61.3193C97.2685 60.6211 97.5669 59.8624 98.0803 59.3719C98.33 59.1392 98.6296 58.9551 98.9509 58.8447C99.0815 58.796 99.2019 58.7829 99.321 58.7829C99.5463 58.7829 99.7614 58.821 99.988 58.7592C99.5104 58.4042 99.0342 58.0492 98.5566 57.706L98.5323 57.6929C98.0918 57.3497 97.6501 57.0315 97.2083 56.7015C96.709 56.3215 96.2673 55.7955 96.2199 55.1328C96.1469 54.1664 96.8037 53.2105 97.6257 52.8055C98.7473 52.2428 100.263 52.7332 101.312 53.4051C101.431 53.48 101.539 53.5655 101.646 53.6391C101.539 53.5537 101.444 53.2592 101.359 53.1356C101.242 52.941 101.097 52.7569 100.966 52.5741L100.752 52.2914C100.537 52.0219 100.335 51.7405 100.156 51.4459C99.714 50.686 99.3683 49.755 99.8805 48.9346C100.275 48.31 101.038 48.0286 101.754 48.0168C102.588 47.9918 103.387 48.2364 104.176 48.5059C106.99 49.45 109.746 50.5518 112.429 51.8023C113.67 52.3769 114.886 52.9659 116.021 53.7246C117.2 54.5201 118.227 55.4773 119.313 56.3819C122.82 59.2983 127.221 61.0497 131.717 61.3074C133.89 61.4297 136.084 61.222 138.219 61.6138C140.402 62.0174 142.43 63.022 144.421 64.0384C147.689 65.7293 157.483 71.2057 163.829 74.6835C164.14 74.8557 164.45 75.0148 164.735 75.1739C166.095 76.1417 166.919 78.0035 166.919 80.5767Z" fill="#FFE5CC"/>
<path d="M166.919 80.5767C166.919 86.1005 163.126 92.8378 158.426 95.6056C156.052 97.0151 153.905 97.1374 152.366 96.1933L152.271 96.1447C150.827 95.2138 149.944 93.3151 149.944 90.6459C149.944 85.1209 153.738 78.3835 158.426 75.6026C160.477 74.389 162.361 74.1326 163.829 74.6835C164.15 74.8071 164.45 74.9649 164.735 75.1739C166.095 76.1417 166.919 78.0035 166.919 80.5767Z" fill="#FFB78C"/>
<path d="M100.196 48.9675C99.9077 49.3435 99.795 49.834 99.7758 50.3113C99.7681 50.4901 99.7733 50.6715 99.8257 50.8438C99.8834 51.0344 99.996 51.2028 100.116 51.3619C100.714 52.1574 101.502 52.7845 102.306 53.3591C102.873 52.5531 102.958 51.5038 103.024 50.5111L103.014 50.3073L102.919 50.1443C102.623 49.7433 102.326 49.3435 102.031 48.9425C101.783 48.6098 101.622 48.4021 101.209 48.4442C100.805 48.4862 100.456 48.6309 100.196 48.9675Z" fill="#FFB78C"/>
<path d="M96.3111 54.7254C96.2279 55.0804 96.2548 55.4539 96.306 55.8154C96.3355 56.0206 96.3764 56.2336 96.5032 56.394C96.5928 56.5045 96.7144 56.5807 96.8348 56.6504C97.717 57.1645 98.6683 57.5524 99.6516 57.8009C99.9064 57.0435 99.932 56.2296 99.9563 55.4289L99.9218 55.1068L99.795 54.9135C99.288 54.3152 98.5991 53.8826 97.8501 53.6841C97.4634 53.5828 97.2509 53.5092 96.918 53.7761C96.6209 54.0128 96.4007 54.3507 96.3111 54.7254Z" fill="#FFB78C"/>
<path d="M97.6424 61.0762C97.554 61.3773 97.4721 61.7073 97.5809 62.0032C97.65 62.1912 97.7883 62.3424 97.9279 62.4857C98.7396 63.322 99.6641 64.0583 100.718 64.5277C100.784 64.0162 100.847 63.4995 100.815 62.9841C100.781 62.4686 100.646 61.9493 100.346 61.5338C99.9777 61.0197 99.408 60.7225 98.8369 60.5082C98.6474 60.4372 98.2736 60.2242 98.0725 60.2991C97.8267 60.3885 97.7089 60.854 97.6424 61.0762Z" fill="#FFB78C"/>
<path d="M100.877 69.4099C101.522 69.8622 102.167 70.3132 102.812 70.7642L102.919 70.7944L102.969 70.6801C103.002 70.1646 103.03 69.6256 102.837 69.1483C102.673 68.7485 102.369 68.4356 102.062 68.1476C101.774 67.8781 101.448 67.5217 101.06 67.4113C100.404 67.222 99.8625 67.8649 100.064 68.5171C100.185 68.9155 100.555 69.1851 100.877 69.4099Z" fill="#FFB78C"/>
<path d="M120.429 85.0828C118.259 84.14 116.553 82.3649 114.905 80.6254C112.318 77.9181 109.742 75.1989 107.166 72.4785C106.199 71.4621 105.221 70.4444 104.386 69.3057C103.503 68.1184 102.788 66.9416 101.797 65.9502L101.882 65.7043L101.784 65.607L101.714 65.5452C102.955 66.2921 103.957 67.4689 104.887 68.5589C107.225 71.3398 109.479 74.1944 112.031 76.7531C114.811 79.559 117.937 82.0205 120.429 85.0828Z" fill="#FFB78C"/>
<path d="M118.891 77.6121C116.433 75.762 114.381 73.4348 112.342 71.1193C110.612 69.147 108.894 67.1878 107.165 65.2274C106.424 64.3819 105.685 63.5378 104.85 62.7896C104.075 62.0914 103.228 61.4919 102.381 60.891C101.439 60.2296 100.509 59.4827 99.5189 58.9068L99.3166 58.7832C99.542 58.7832 99.7571 58.8214 99.9837 58.7596C99.5061 58.4046 99.0298 58.0496 98.5522 57.7064C100.83 58.7964 102.977 60.5609 104.779 62.3242C105.722 63.2432 106.604 64.2228 107.488 65.2155C111.245 69.3797 115.05 73.5202 118.891 77.6121Z" fill="#FFB78C"/>
<path d="M119.905 68.9022C118.533 68.179 117.423 67.0522 116.302 65.974C112.783 62.5449 109.014 59.3721 105.053 56.4807C103.825 55.5866 102.513 54.7043 101.451 53.5893L101.308 53.4052C101.427 53.4802 101.534 53.5657 101.642 53.6393C101.534 53.5538 101.44 53.2593 101.355 53.1357C101.237 52.9411 101.093 52.757 100.962 52.5743L100.747 52.2916C101.106 52.5361 101.463 52.782 101.81 53.0384C105.113 55.4157 108.131 58.1467 111.137 60.8908C112.235 61.8953 113.332 62.8999 114.418 63.8913C116.254 65.569 118.079 67.2363 119.905 68.9022Z" fill="#FFB78C"/>
<path d="M125.676 69.7107C126.012 69.7476 126.352 69.7489 126.69 69.7147C126.858 69.6976 127.036 69.67 127.172 69.5635C127.286 69.4715 127.358 69.336 127.407 69.1953C127.571 68.7325 127.516 68.2079 127.332 67.7556C126.844 66.563 125.052 64.8616 123.968 66.3539C122.984 67.7082 124.239 69.5569 125.676 69.7107Z" fill="#FFB78C"/>
<path d="M123.159 79.6038C123.362 79.6235 123.572 79.6262 123.764 79.5578C124.198 79.404 124.455 78.8964 124.41 78.427C124.269 76.9373 121.719 76.172 120.71 77.17C119.403 78.4625 122.241 79.5197 123.159 79.6038Z" fill="#FFB78C"/>
<path d="M123.206 85.9074C123.866 85.605 122.566 82.2481 121.061 83.5143C120.667 83.8443 120.381 84.3953 120.662 84.8831C120.965 85.4051 122.639 86.169 123.206 85.9074Z" fill="#FFB78C"/>
<path d="M122.992 89.0826L123.053 88.8946C123.082 88.1109 121.27 86.7382 120.959 87.8585C120.868 88.1832 121.031 88.6618 121.27 88.8788C121.529 89.1142 122.741 89.3719 122.992 89.0826Z" fill="#FFB78C"/>
<path d="M35.6775 105.148C35.5226 105.369 34.7825 106.286 34.4496 106.201C32.8991 105.774 31.5739 104.732 30.2974 103.715C28.0913 101.975 25.8724 100.247 23.4743 98.7904C22.2708 98.0436 21.0173 97.369 19.6703 96.9535C18.6191 96.634 17.4988 96.4749 16.4016 96.5854C15.9726 96.6222 15.2082 96.659 14.8984 97.0258C14.7076 97.2586 14.6487 97.6872 14.4938 97.9699C13.3722 99.9777 12.1904 101.95 11.0931 103.972C8.71932 100.823 5.96526 97.9818 2.91029 95.5072C2.50442 95.1772 2.08701 94.8458 1.65809 94.5276C1.41994 94.3435 1.16899 94.1608 0.942366 93.9635C0.345714 93.0458 0 91.7835 0 90.2267C0 85.3157 3.37507 79.337 7.55035 76.8624C10.1636 75.3083 12.4657 75.516 13.8126 77.0965C13.9317 77.2674 14.0636 77.4397 14.1942 77.6106L14.207 77.6343C16.8663 81.2738 19.7177 84.8134 23.4141 87.288C26.3731 89.2603 29.857 90.5344 32.2064 93.2404C33.8159 95.1022 34.7224 97.4545 35.3088 99.8318C35.6058 101.057 35.8324 102.293 36.036 103.532C36.1436 104.192 36.0706 104.584 35.6775 105.148Z" fill="#FFB78C"/>
<path d="M43.2525 124.233C43.0144 124.282 42.7634 124.318 42.5483 124.405C42.3691 124.478 42.227 124.575 42.1322 124.735L42.0721 124.919C42.0247 125.103 42.0477 125.298 42.0349 125.495C41.9645 126.878 40.4844 127.809 39.1375 127.749C37.7892 127.699 36.5857 126.94 35.4513 126.217V126.254C35.4397 126.498 35.4269 126.731 35.3924 126.977C35.3322 127.491 35.2246 127.993 34.998 128.447C34.6651 129.12 33.9955 129.683 33.2567 129.671C32.3617 129.659 31.6934 128.888 30.9546 128.373C29.7254 127.516 28.1621 127.344 26.7908 126.744C25.5873 126.217 24.5489 125.397 23.4516 124.675C21.3646 123.326 19.0497 122.395 16.891 121.182C14.7195 119.97 12.644 118.39 11.4622 116.173C11.0103 115.314 10.7004 114.383 10.1755 113.563C9.61467 112.694 8.81572 111.959 8.44569 110.979C8.17041 110.244 8.17041 109.435 8.17041 108.651C8.17041 107.304 8.17041 105.956 8.18321 104.609C8.18321 103.532 8.25492 102.429 8.73249 101.461C8.94632 101.009 9.05387 100.604 9.23184 100.162C9.41237 99.6976 9.86433 99.3544 10.1639 98.9744C10.9027 98.0435 11.0935 96.7813 11.3201 95.5926C11.5352 94.4171 11.8694 93.1562 12.7759 92.3844C13.0384 92.1503 13.3482 91.9794 13.6107 91.7348C14.3738 90.9985 14.5287 89.8243 15.1612 88.9539C15.7105 88.1952 16.5812 87.7416 17.4877 87.5575C18.3942 87.3734 19.3237 87.4234 20.243 87.5207C20.8512 87.5825 21.4709 87.6548 22.0202 87.9375C22.8908 88.3648 23.4875 89.2471 23.8089 90.1912C24.1315 91.1221 24.2147 92.1267 24.2979 93.1299C24.3581 93.9267 24.2506 94.6617 24.8114 95.2376C25.4554 95.899 26.1596 96.4867 26.8869 97.0508C28.6999 98.4722 30.6921 99.6477 32.5883 100.947C35.3924 102.857 38.0158 105.062 40.4012 107.5C41.5945 108.712 42.7519 110.06 43.2525 111.701C43.6828 113.122 43.4907 114.825 42.5483 115.916C42.4177 116.086 42.25 116.245 42.0592 116.381L42.0951 116.406C43.5854 117.189 44.9465 118.438 45.3639 120.104C45.7928 121.795 44.8991 123.854 43.2525 124.233Z" fill="#FFE5CC"/>
<path d="M13.8026 96.4827C14.2827 95.8503 14.6911 94.8839 14.6041 94.0608C14.508 93.1667 13.5644 93.1903 12.8858 93.4362C11.7066 93.8635 11.4953 95.3125 11.7937 96.4275C12.1048 97.5899 13.2277 97.2401 13.8026 96.4827Z" fill="#FFB78C"/>
<path d="M10.3904 104.811C10.5889 104.699 10.7067 104.484 10.7937 104.271C10.9077 103.997 10.9871 103.708 11.0332 103.415C11.1151 102.874 11.0114 102.067 10.3507 101.983C9.84499 101.916 9.2048 102.55 8.92184 102.93C8.22148 103.866 9.33156 105.407 10.3904 104.811Z" fill="#FFB78C"/>
<path d="M9.79074 111.196C9.9175 111.203 10.0583 111.183 10.1416 111.086L10.2363 110.8C10.2862 110.419 10.3246 110.027 10.2299 109.655C10.0058 108.783 8.8471 108.464 8.47067 109.434C8.15954 110.234 9.0366 111.159 9.79074 111.196Z" fill="#FFB78C"/>
<path d="M30.2479 127.616C30.3285 128.017 30.5948 128.352 30.8919 128.623C31.381 129.069 31.9789 129.391 32.6153 129.55L32.719 129.552L32.7984 129.423C32.9802 128.721 33.1633 128.018 33.3438 127.314L33.354 127.087L33.2145 126.943C32.6063 126.53 31.687 125.858 30.9098 126.075C30.3183 126.239 30.1416 127.09 30.2479 127.616Z" fill="#FFB78C"/>
<path d="M35.4642 124.359C35.6319 124.707 35.9136 124.982 36.1953 125.244C37.0954 126.08 38.0672 126.857 39.176 127.366C39.3744 127.058 39.4282 126.677 39.4769 126.31C39.5562 125.716 39.6344 125.122 39.7125 124.529C39.7637 124.149 39.8097 123.745 39.6561 123.395C39.409 122.832 38.7458 122.621 38.1529 122.51C37.6638 122.419 37.1645 122.355 36.6716 122.427C35.6857 122.571 34.9533 123.312 35.4642 124.359Z" fill="#FFB78C"/>
<path d="M38.872 121.729C39.6684 122.546 40.5954 123.226 41.6043 123.736L41.7067 123.761L41.804 123.645C42.1997 122.662 42.5774 121.67 42.9346 120.671L43.0038 120.325L42.9167 120.061C42.4071 119.044 41.3175 118.366 40.2061 118.374C39.3457 118.38 38.5557 118.834 38.1217 119.608C37.7068 120.351 38.3829 121.231 38.872 121.729Z" fill="#FFB78C"/>
<path d="M36.9952 112.61C37.0874 113.167 37.3883 113.667 37.7276 114.111C38.0297 114.504 38.3677 114.871 38.7519 115.18C39.4881 115.773 40.392 116.145 41.3254 116.243C41.6288 115.095 41.931 113.944 42.2357 112.796C42.3138 112.499 42.3894 112.163 42.2421 111.894C42.1359 111.7 41.9361 111.585 41.7466 111.479C41.1141 111.124 40.4701 110.766 39.7633 110.62C39.0617 110.476 38.2704 110.612 37.629 110.945C37.0746 111.233 36.9004 112.027 36.9952 112.61Z" fill="#FFB78C"/>
<path d="M35.4513 126.254C35.4398 126.499 35.427 126.731 35.3924 126.977C34.998 126.671 34.6408 126.316 34.2464 126.058C32.5397 124.906 30.3695 124.883 28.4732 124.098C27.4592 123.682 26.5284 123.045 25.5143 122.616C24.3812 122.139 23.1418 121.918 22.0676 121.318C21.0778 120.754 20.2904 119.897 19.4198 119.149C18.1547 118.072 16.699 117.238 15.1484 116.687C15.8898 116.614 16.5927 116.92 17.2482 117.251C18.2751 117.779 19.2405 118.39 20.1585 119.089C20.8999 119.64 21.5913 120.252 22.3902 120.717C23.3569 121.269 24.4286 121.563 25.4554 121.966C26.8869 122.519 28.2351 123.277 29.6781 123.78C30.7997 124.16 31.9687 124.392 33.0659 124.809C33.7817 125.079 34.4846 125.434 35.0697 125.936C35.1773 126.021 35.3092 126.132 35.4513 126.254Z" fill="#FFB78C"/>
<path d="M42.5483 124.405C42.3691 124.477 42.2269 124.575 42.1322 124.735L42.072 124.919C41.5829 124.772 41.1284 124.502 40.6879 124.233C40.2462 123.963 39.7225 123.695 39.3525 123.314C39.0183 122.984 38.7315 122.664 38.35 122.371C37.5267 121.723 36.656 121.159 35.7367 120.668C34.3783 119.945 32.9468 119.407 31.5512 118.758C30.1799 118.12 28.8663 117.385 27.495 116.76C26.0763 116.099 24.6078 115.56 23.225 114.837C21.4119 113.894 19.7654 112.657 18.1304 111.431C23.1776 113.894 27.9482 116.993 33.2323 118.855C34.3539 119.248 35.487 119.578 36.5485 120.117C37.6816 120.681 38.7085 121.477 39.6022 122.383C40.1386 122.934 40.6521 123.533 41.2846 123.963C41.702 124.245 42.1066 124.367 42.5483 124.405Z" fill="#FFB78C"/>
<path d="M42.0596 116.38L42.0954 116.405C41.8099 116.553 41.5116 116.65 41.2133 116.663C40.39 116.712 39.6384 116.295 38.97 115.829C38.0763 115.204 37.0738 114.726 36.1558 114.127C35.0572 113.417 33.9843 112.705 32.8998 111.982C27.8999 108.663 22.8911 105.343 17.8926 102.012C21.5788 103.542 24.7042 106.214 28.27 108.014C29.2136 108.479 30.1803 108.896 31.0868 109.422C32.0279 109.961 32.91 110.599 33.7935 111.249C35.4989 112.498 37.2057 113.76 38.9112 115.009C39.4835 115.425 40.0673 115.854 40.7485 116.062C41.3208 116.245 42.0007 116.186 42.5487 115.916C42.4181 116.086 42.2503 116.245 42.0596 116.38Z" fill="#FFB78C"/>
</svg>
