<svg width="30" height="30" viewBox="0 0 30 30" fill="none" xmlns="http://www.w3.org/2000/svg">
<g clip-path="url(#clip0_529_129)">
<path d="M26.2498 4.99998C26.2368 4.88515 26.2117 4.77202 26.1748 4.66248V4.54998C26.1149 4.41087 26.0302 4.2838 25.9248 4.17498C25.8187 4.07531 25.6961 3.99494 25.5623 3.93748H25.4498C25.3346 3.8495 25.2028 3.78572 25.0623 3.74998H24.9998C24.8755 3.73113 24.7491 3.73113 24.6248 3.74998L2.12482 11.25C1.87474 11.3322 1.65699 11.4912 1.50262 11.7045C1.34825 11.9177 1.26514 12.1742 1.26514 12.4375C1.26514 12.7007 1.34825 12.9573 1.50262 13.1705C1.65699 13.3837 1.87474 13.5428 2.12482 13.625L12.7873 17.175L16.3373 27.8375C16.4195 28.0876 16.5786 28.3053 16.7918 28.4597C17.0051 28.6141 17.2616 28.6972 17.5248 28.6972C17.7881 28.6972 18.0446 28.6141 18.2578 28.4597C18.4711 28.3053 18.6301 28.0876 18.7123 27.8375L26.2123 5.33748C26.2401 5.22721 26.2527 5.11366 26.2498 4.99998ZM20.3748 7.86248L13.4123 14.825L6.44982 12.5L20.3748 7.86248ZM17.4998 23.55L15.1748 16.5875L22.1373 9.62498L17.4998 23.55Z" fill="white" fill-opacity="0.6"/>
</g>
<defs>
<clipPath id="clip0_529_129">
<rect width="30" height="30" fill="white"/>
</clipPath>
</defs>
</svg>
