<svg width="155" height="196" viewBox="0 0 155 196" fill="none" xmlns="http://www.w3.org/2000/svg">
<path d="M154.547 157.531L120.844 137.342L126.318 134.059C127.192 133.535 127.288 132.743 126.53 132.29L95.1146 113.531C94.3567 113.076 93.036 113.133 92.1628 113.658L86.7368 116.911L54.7401 97.7439C54.2952 97.4766 53.5183 97.5095 53.0037 97.8175L51.8845 98.489C51.3699 98.7969 51.3142 99.2628 51.7603 99.5301L83.757 118.698L74.2157 124.417C73.3424 124.942 73.2474 125.733 74.004 126.187L105.42 144.947C106.177 145.401 107.499 145.344 108.372 144.819L117.864 139.128L151.567 159.317C152.012 159.584 152.789 159.551 153.302 159.242L154.421 158.572C154.934 158.263 154.99 157.798 154.547 157.531Z" fill="#F2F2F2"/>
<path d="M122.963 128.996L122.666 130.579L121.897 132.101L120.125 133.446L118.857 134.405L113.101 137.742L105.75 142.551L77.6696 125.692L77.6746 125.68C77.61 125.624 77.5605 125.527 77.5605 125.385C77.5605 125.063 77.7785 124.665 78.0523 124.506L91.614 116.348L92.2211 115.985C92.9537 115.548 93.6635 114.742 94.0957 113.776C94.5215 112.823 94.6369 111.881 94.4062 111.199L86.5582 87.717L87.4923 86.79L115.573 103.639L115.469 105.841L118.698 114.85L121.214 122.575L122.825 127.008L122.963 128.996Z" fill="#CCCCCC"/>
<path d="M120.125 133.446L118.857 134.405L113.101 137.742L105.75 142.551L77.6696 125.692L77.6746 125.68C77.61 125.624 77.5605 125.527 77.5605 125.385C77.5605 125.063 77.7785 124.665 78.0523 124.506L91.614 116.348L120.125 133.446Z" fill="#E6E6E6"/>
<path d="M120.278 134.027L106.129 142.53C105.858 142.693 105.637 142.561 105.637 142.238C105.637 141.914 105.858 141.518 106.129 141.356L120.299 132.84C121.029 132.402 121.741 131.591 122.171 130.628C122.598 129.673 122.711 128.735 122.484 128.052L114.634 104.571L115.57 103.64L123.418 127.121C123.738 128.078 123.593 129.384 123.022 130.718C122.408 132.153 121.362 133.377 120.278 134.027Z" fill="#A6A6A6"/>
<path d="M152.213 58.4487L56.0426 0.789902C55.4304 0.422684 54.8778 0.389786 54.4786 0.629333L52.5508 1.79286C52.95 1.552 53.5052 1.5849 54.1161 1.95212L150.285 59.6109C151.497 60.3374 152.478 62.1024 152.474 63.5463L152.265 140.206C152.263 140.926 152.019 141.431 151.625 141.669L153.55 140.507C153.944 140.269 154.189 139.763 154.19 139.045L154.399 62.3841C154.404 60.9402 153.423 59.1752 152.213 58.4487Z" fill="#595959"/>
<path d="M154.227 125.608L154.188 139.044C154.188 139.763 153.942 140.269 153.549 140.508L151.625 141.672C152.019 141.432 152.265 140.927 152.265 140.207L152.303 126.759L154.227 125.608Z" fill="#BFBFBF"/>
<path d="M152.472 63.5463L152.265 140.207C152.259 141.655 151.275 142.232 150.062 141.513L53.8958 83.8513C52.6766 83.1248 51.6981 81.3649 51.7031 79.912L51.911 3.25255C51.9161 1.81 52.8996 1.2256 54.1189 1.95215L150.285 59.6135C151.498 60.3401 152.478 62.0998 152.472 63.5463Z" fill="#333333"/>
<path d="M152.303 126.77L152.265 140.207C152.259 141.655 151.275 142.232 150.062 141.513L53.8958 83.8513C52.6766 83.1248 51.6981 81.3649 51.7031 79.912L51.7412 66.4765L152.303 126.77Z" fill="#D9D9D9"/>
<path d="M149.822 120.792L55.2012 63.9003V7.04315L149.822 63.9359V120.792Z" fill="#1A1A1A"/>
<path d="M65.7606 21.4002L63.2143 19.8734C62.8049 19.6273 62.4741 18.9692 62.4741 18.4032C62.4741 17.8373 62.8049 17.5753 63.2143 17.8215L65.7606 19.3483C66.1687 19.5944 66.5008 20.2525 66.5008 20.8171C66.5008 21.3844 66.1687 21.645 65.7606 21.4002Z" fill="#006EFF"/>
<path d="M65.7606 57.3771L63.2143 55.8503C62.8049 55.6042 62.4741 54.9461 62.4741 54.3801C62.4741 53.8142 62.8049 53.5523 63.2143 53.7984L65.7606 55.3252C66.1687 55.5713 66.5008 56.2294 66.5008 56.7941C66.5008 57.3613 66.1687 57.6219 65.7606 57.3771Z" fill="#006EFF"/>
<path d="M72.9228 61.6705L67.8264 58.6142C67.417 58.3707 67.085 57.7127 67.085 57.1454C67.085 56.5781 67.417 56.3175 67.8264 56.5636L72.9228 59.6198C73.3322 59.8646 73.6643 60.5227 73.6643 61.09C73.6643 61.6573 73.3322 61.9166 72.9228 61.6705Z" fill="#B3D4FF"/>
<path d="M91.3084 72.6938L75.0192 62.9276C74.6111 62.6828 74.2803 62.0247 74.2803 61.4587C74.2803 60.8927 74.6111 60.6308 75.0192 60.8769L91.3084 70.6429C91.7178 70.8881 92.0499 71.5462 92.0499 72.1133C92.0499 72.6794 91.7178 72.94 91.3084 72.6938Z" fill="#FFAD66"/>
<path d="M75.814 27.4271L68.0927 22.798C67.6834 22.5532 67.3525 21.8951 67.3525 21.3278C67.3525 20.7605 67.6834 20.5013 68.0927 20.7474L75.814 25.3751C76.2234 25.6213 76.5542 26.2794 76.5542 26.8453C76.5542 27.4126 76.2234 27.6719 75.814 27.4271Z" fill="#B3D4FF"/>
<path d="M101.393 42.7635L78.1775 28.8447C77.7681 28.5986 77.436 27.9405 77.436 27.3745C77.436 26.8072 77.7681 26.5479 78.1775 26.7914L101.393 40.7129C101.801 40.9577 102.134 41.6158 102.134 42.183C102.134 42.7477 101.801 43.0096 101.393 42.7635Z" fill="#FFAD66"/>
<path d="M68.1573 26.3544L65.6135 24.8276C65.2029 24.5828 64.8721 23.9247 64.8721 23.3587C64.8721 22.7914 65.2029 22.5308 65.6135 22.777L68.1573 24.3038C68.568 24.5473 68.8988 25.2054 68.8988 25.7726C68.8988 26.3399 68.568 26.6005 68.1573 26.3544Z" fill="#006EFF"/>
<path d="M78.2122 32.3812L70.491 27.7534C70.0816 27.5073 69.7495 26.8492 69.7495 26.2832C69.7495 25.7159 70.0816 25.4566 70.491 25.7001L78.2122 30.3305C78.6204 30.5753 78.9524 31.2334 78.9524 31.8007C78.9524 32.368 78.6204 32.6273 78.2122 32.3812Z" fill="#B3D4FF"/>
<path d="M103.792 47.7188L80.5745 33.8C80.1651 33.5539 79.833 32.8958 79.833 32.3285C79.833 31.7625 80.1651 31.5019 80.5745 31.7467L103.792 45.6668C104.201 45.913 104.533 46.5711 104.533 47.1357C104.533 47.703 104.201 47.9636 103.792 47.7188Z" fill="#FFAD66"/>
<path d="M68.1573 30.1647L65.6135 28.6392C65.2029 28.3931 64.8721 27.735 64.8721 27.169C64.8721 26.6017 65.2029 26.3424 65.6135 26.5859L68.1573 28.1127C68.568 28.3589 68.8988 29.017 68.8988 29.5842C68.8988 30.1489 68.568 30.4095 68.1573 30.1647Z" fill="#006EFF"/>
<path d="M68.1573 33.7789L65.6135 32.2535C65.2029 32.0073 64.8721 31.3492 64.8721 30.7833C64.8721 30.216 65.2029 29.9567 65.6135 30.2015L68.1573 31.727C68.568 31.9731 68.8988 32.6312 68.8988 33.1985C68.8988 33.7644 68.568 34.0251 68.1573 33.7789Z" fill="#006EFF"/>
<path d="M68.1573 48.3611L65.6135 46.8343C65.2029 46.5882 64.8721 45.9301 64.8721 45.3641C64.8721 44.7982 65.2029 44.5376 65.6135 44.7824L68.1573 46.3092C68.568 46.554 68.8988 47.2121 68.8988 47.7794C68.8988 48.3453 68.568 48.6059 68.1573 48.3611Z" fill="#006EFF"/>
<path d="M68.1573 51.9095L65.6135 50.3841C65.2029 50.1393 64.8721 49.4812 64.8721 48.9139C64.8721 48.3466 65.2029 48.0873 65.6135 48.3321L68.1573 49.8589C68.568 50.1037 68.8988 50.7618 68.8988 51.3291C68.8988 51.8951 68.568 52.1557 68.1573 51.9095Z" fill="#006EFF"/>
<path d="M68.1573 62.0392L65.6135 60.5124C65.2029 60.2663 64.8721 59.6082 64.8721 59.0422C64.8721 58.4763 65.2029 58.2144 65.6135 58.4605L68.1573 59.9873C68.568 60.2321 68.8988 60.8902 68.8988 61.4562C68.8988 62.0234 68.568 62.2841 68.1573 62.0392Z" fill="#006EFF"/>
<path d="M75.1165 66.2116L70.162 63.2409C69.7527 62.9948 69.4219 62.3367 69.4219 61.7707C69.4219 61.2034 69.7527 60.9442 70.162 61.1877L75.1165 64.1583C75.5259 64.4044 75.858 65.0615 75.858 65.6285C75.858 66.1957 75.5259 66.4553 75.1165 66.2116Z" fill="#B3D4FF"/>
<path d="M94.3223 77.726L77.3879 67.5727C76.9773 67.3264 76.6465 66.6683 76.6465 66.1027C76.6465 65.5352 76.9773 65.276 77.3879 65.5207L94.3223 75.674C94.7304 75.9203 95.0625 76.5784 95.0625 77.1429C95.0625 77.71 94.7304 77.9706 94.3223 77.726Z" fill="#FFAD66"/>
<path d="M103.391 73.0347L100.846 71.5077C100.437 71.2646 100.106 70.6065 100.106 70.0388C100.106 69.4718 100.437 69.211 100.846 69.4559L103.391 70.9844C103.802 71.229 104.133 71.8871 104.133 72.4527C104.133 73.0204 103.802 73.281 103.391 73.0347Z" fill="#006EFF"/>
<path d="M66.7235 36.1178L64.1772 34.5924C63.7691 34.3476 63.437 33.6895 63.437 33.1222C63.437 32.5549 63.7691 32.2956 64.1772 32.5417L66.7235 34.0672C67.1329 34.312 67.465 34.9701 67.465 35.5374C67.465 36.1047 67.1329 36.364 66.7235 36.1178Z" fill="#006EFF"/>
<path d="M73.7629 40.339L68.8908 37.4197C68.4814 37.1736 68.1519 36.5155 68.1519 35.9482C68.1519 35.3822 68.4814 35.1229 68.8908 35.3677L73.7629 38.2884C74.1722 38.5332 74.5043 39.1913 74.5043 39.7586C74.5043 40.3259 74.1722 40.5852 73.7629 40.339Z" fill="#B3D4FF"/>
<path d="M99.959 56.0452L96.5205 53.9854C96.1124 53.7392 95.7803 53.0811 95.7803 52.5139C95.7803 51.9479 96.1124 51.6873 96.5205 51.9321L99.959 53.9933C100.368 54.2394 100.699 54.8975 100.699 55.4648C100.699 56.0294 100.368 56.2914 99.959 56.0452Z" fill="#B3D4FF"/>
<path d="M83.8899 46.4106L75.9633 41.6578C75.5539 41.413 75.2231 40.7549 75.2231 40.1889C75.2231 39.6217 75.5539 39.3611 75.9633 39.6072L83.8899 44.3587C84.2981 44.6048 84.6301 45.2629 84.6301 45.8289C84.6301 46.3961 84.2981 46.6554 83.8899 46.4106Z" fill="#FFAD66"/>
<path d="M66.7235 40.0756L64.1772 38.5489C63.7691 38.304 63.437 37.6459 63.437 37.08C63.437 36.5127 63.7691 36.2521 64.1772 36.4969L66.7235 38.025C67.1329 38.2685 67.465 38.9266 67.465 39.4939C67.465 40.0599 67.1329 40.3218 66.7235 40.0756Z" fill="#006EFF"/>
<path d="M66.7235 54.5104L64.1772 52.9836C63.7691 52.7388 63.437 52.0794 63.437 51.5147C63.437 50.9475 63.7691 50.6868 64.1772 50.9317L66.7235 52.4585C67.1329 52.7046 67.465 53.3627 67.465 53.9286C67.465 54.4946 67.1329 54.7552 66.7235 54.5104Z" fill="#006EFF"/>
<path d="M73.7629 44.2967L68.8908 41.3747C68.4814 41.1299 68.1519 40.4718 68.1519 39.9046C68.1519 39.3399 68.4814 39.078 68.8908 39.3241L73.7629 42.2461C74.1722 42.4896 74.5043 43.149 74.5043 43.715C74.5043 44.2809 74.1722 44.5428 73.7629 44.2967Z" fill="#B3D4FF"/>
<path d="M73.7632 55.2713L70.5325 53.3325C70.1218 53.0877 69.791 52.4296 69.791 51.8637C69.791 51.2977 70.1218 51.0358 70.5325 51.2819L73.7632 53.2207C74.1726 53.4655 74.5046 54.1236 74.5046 54.6909C74.5046 55.2555 74.1726 55.5174 73.7632 55.2713Z" fill="#B3D4FF"/>
<path d="M87.5986 63.5661L84.3666 61.6287C83.9572 61.3839 83.6265 60.7258 83.6265 60.1585C83.6265 59.5912 83.9572 59.3319 84.3666 59.578L87.5986 61.5142C88.0093 61.7603 88.3401 62.4184 88.3401 62.9844C88.3401 63.5517 88.0093 63.8109 87.5986 63.5661Z" fill="#B3D4FF"/>
<path d="M109.724 69.8877L66.801 44.1521C66.3917 43.906 66.0596 43.2479 66.0596 42.6832C66.0596 42.1159 66.3917 41.8553 66.801 42.1001L109.724 67.8358C110.135 68.082 110.466 68.7401 110.466 69.3057C110.466 69.8732 110.135 70.1324 109.724 69.8877Z" fill="#F2F2F2"/>
<path d="M82.0864 49.2852L75.9633 45.6156C75.5539 45.3708 75.2231 44.7127 75.2231 44.1454C75.2231 43.5781 75.5539 43.3188 75.9633 43.5636L82.0864 47.2345C82.4945 47.4793 82.8266 48.1374 82.8266 48.7047C82.8266 49.2707 82.4945 49.5313 82.0864 49.2852Z" fill="#FFAD66"/>
<path d="M82.0864 60.261L75.9633 56.5901C75.5539 56.3453 75.2231 55.6872 75.2231 55.1199C75.2231 54.5526 75.5539 54.2933 75.9633 54.5381L82.0864 58.209C82.4945 58.4538 82.8266 59.1119 82.8266 59.6792C82.8266 60.2452 82.4945 60.5071 82.0864 60.261Z" fill="#FFAD66"/>
<path d="M98.5661 70.1406L89.9209 64.9586C89.5127 64.7138 89.1807 64.0556 89.1807 63.4883C89.1807 62.9223 89.5127 62.6617 89.9209 62.9065L98.5661 68.0881C98.9742 68.3344 99.3063 68.9925 99.3063 69.5602C99.3063 70.1256 98.9742 70.3864 98.5661 70.1406Z" fill="#F2F2F2"/>
<path d="M94.4038 52.7152L86.4785 47.9625C86.0691 47.7176 85.7383 47.0595 85.7383 46.4923C85.7383 45.9263 86.0691 45.6657 86.4785 45.9118L94.4038 50.6633C94.8145 50.9094 95.144 51.5675 95.144 52.1335C95.144 52.6994 94.8145 52.9601 94.4038 52.7152Z" fill="#F2F2F2"/>
<path d="M78.2122 36.1929L70.491 31.5625C70.0816 31.3177 69.7495 30.6596 69.7495 30.0923C69.7495 29.5277 70.0816 29.2657 70.491 29.5119L78.2122 34.1396C78.6204 34.3858 78.9524 35.0439 78.9524 35.6112C78.9524 36.1771 78.6204 36.4377 78.2122 36.1929Z" fill="#B3D4FF"/>
<path d="M94.8143 46.1473L87.093 41.5169C86.6836 41.2708 86.3516 40.6127 86.3516 40.0467C86.3516 39.4807 86.6836 39.2201 87.093 39.4649L94.8143 44.0953C95.2237 44.3388 95.5558 44.9969 95.5558 45.5642C95.5558 46.1315 95.2237 46.3921 94.8143 46.1473Z" fill="#B3D4FF"/>
<path d="M84.4833 39.9519L80.5745 37.6091C80.1651 37.3642 79.833 36.7062 79.833 36.1389C79.833 35.5716 80.1651 35.3123 80.5745 35.5584L84.4833 37.9013C84.894 38.1461 85.2247 38.8042 85.2247 39.3715C85.2247 39.9374 84.894 40.198 84.4833 39.9519Z" fill="#FFAD66"/>
<path d="M110.034 55.2712L97.4226 47.7109C97.0132 47.4648 96.6812 46.8067 96.6812 46.2407C96.6812 45.6734 97.0132 45.4141 97.4226 45.6589L110.034 53.2192C110.442 53.464 110.774 54.1221 110.774 54.6894C110.774 55.2554 110.442 55.516 110.034 55.2712Z" fill="#FFAD66"/>
<path d="M68.1573 65.2625L65.6135 63.7358C65.2029 63.491 64.8721 62.8329 64.8721 62.267C64.8721 61.6997 65.2029 61.4391 65.6135 61.6839L68.1573 63.2107C68.568 63.4568 68.8988 64.1149 68.8988 64.681C68.8988 65.2466 68.568 65.5073 68.1573 65.2625Z" fill="#006EFF"/>
<path d="M78.2122 71.2891L70.491 66.6603C70.0816 66.4156 69.7495 65.7575 69.7495 65.1898C69.7495 64.6228 70.0816 64.3635 70.491 64.6094L78.2122 69.2371C78.6204 69.4835 78.9524 70.1416 78.9524 70.7092C78.9524 71.2747 78.6204 71.5354 78.2122 71.2891Z" fill="#B3D4FF"/>
<path d="M94.8143 81.2451L87.093 76.6147C86.6836 76.3685 86.3516 75.7104 86.3516 75.1448C86.3516 74.5787 86.6836 74.3181 87.093 74.5628L94.8143 79.1921C95.2237 79.4369 95.5558 80.095 95.5558 80.6621C95.5558 81.2297 95.2237 81.4888 94.8143 81.2451Z" fill="#B3D4FF"/>
<path d="M84.4833 75.0497L80.5745 72.7073C80.1651 72.462 79.833 71.8039 79.833 71.2369C79.833 70.6697 80.1651 70.4101 80.5745 70.6553L84.4833 72.9992C84.894 73.244 85.2247 73.9022 85.2247 74.4692C85.2247 75.0353 84.894 75.296 84.4833 75.0497Z" fill="#FFAD66"/>
<path d="M110.034 90.3681L97.4226 82.8093C97.0132 82.563 96.6812 81.9049 96.6812 81.3388C96.6812 80.7717 97.0132 80.5121 97.4226 80.7557L110.034 88.3172C110.442 88.562 110.774 89.2201 110.774 89.7876C110.774 90.3532 110.442 90.614 110.034 90.3681Z" fill="#FFAD66"/>
<path d="M69.1359 172.931L0.384413 131.711C-0.184671 131.37 -0.113694 130.774 0.542844 130.381L26.0135 115.109C26.6713 114.714 27.6637 114.673 28.2328 115.014L96.9855 156.234C97.5533 156.575 97.4823 157.17 96.8258 157.565L71.3539 172.835C70.6974 173.229 69.7037 173.271 69.1359 172.931Z" fill="#F2F2F2"/>
<path d="M92.4933 152.084V153.103L29.2818 115.203C28.7419 114.881 27.7989 114.92 27.1753 115.296L5.0343 128.571V127.878H2.48926L2.51335 130.503C2.51461 130.707 2.61727 130.901 2.85809 131.045L68.0873 170.153C68.6272 170.477 69.5702 170.438 70.1925 170.064L94.3577 155.575C94.691 155.375 94.852 155.122 94.8609 154.88L94.8736 152.251L92.4933 152.084Z" fill="#BFBFBF"/>
<path d="M68.0872 167.495L2.85795 128.386C2.31802 128.064 2.38647 127.498 3.00879 127.124L27.1752 112.636C27.7988 112.262 28.7418 112.222 29.2817 112.545L94.5084 151.653C95.0483 151.977 94.9812 152.541 94.3576 152.916L70.1924 167.404C69.5688 167.779 68.6271 167.818 68.0872 167.495Z" fill="#D9D9D9"/>
<path d="M32.2846 115.751L30.1527 117.038C30.0045 117.126 29.7611 117.126 29.609 117.035L26.0576 114.907L25.9448 114.742V115.137L26.0564 115.302L29.6078 117.431C29.7598 117.521 30.0032 117.521 30.1515 117.433L32.2833 116.145L32.3961 115.982L32.3974 115.588L32.2846 115.751Z" fill="#1F2125"/>
<path d="M32.2821 115.421C32.4342 115.513 32.4354 115.66 32.2846 115.751L30.1528 117.038C30.0045 117.126 29.7611 117.126 29.609 117.035L26.0576 114.907C25.9081 114.816 25.9081 114.67 26.0564 114.582L28.1869 113.294C28.3378 113.204 28.5811 113.204 28.7307 113.292L32.2821 115.421Z" fill="#4D4D4D"/>
<path d="M28.9059 117.564L25.6549 119.527C25.4812 119.632 25.1948 119.632 25.0186 119.527L21.7473 117.564L21.6155 117.372L21.6143 117.767L21.7461 117.959L25.0174 119.92C25.1935 120.026 25.48 120.026 25.6536 119.92L28.9046 117.959L29.0339 117.77L29.0352 117.375L28.9059 117.564Z" fill="#1F2125"/>
<path d="M28.9032 117.181C29.0781 117.287 29.0794 117.459 28.9058 117.564L25.6547 119.527C25.4811 119.632 25.1947 119.632 25.0185 119.527L21.7472 117.564C21.5723 117.459 21.571 117.287 21.7447 117.181L24.9957 115.221C25.1693 115.115 25.4558 115.115 25.6319 115.221L28.9032 117.181Z" fill="#4D4D4D"/>
<path d="M36.6393 118.355L34.4999 119.647C34.3516 119.738 34.1133 119.738 33.9688 119.649L30.5619 117.607L30.4517 117.447V117.842L30.5607 118.002L33.9676 120.044C34.1133 120.131 34.3516 120.131 34.4986 120.043L36.6381 118.752L36.7496 118.591L36.7509 118.196L36.6393 118.355Z" fill="#1F2125"/>
<path d="M36.6409 118.037C36.7867 118.124 36.788 118.266 36.6397 118.355L34.5002 119.647C34.3519 119.738 34.1137 119.738 33.9692 119.649L30.5623 117.607C30.4165 117.52 30.4152 117.377 30.5635 117.287L32.7043 115.995C32.8526 115.907 33.0908 115.907 33.2366 115.994L36.6409 118.037Z" fill="#4D4D4D"/>
<path d="M33.4314 120.279L30.1804 122.24C30.0055 122.345 29.7203 122.345 29.5428 122.238L26.2741 120.279L26.1385 120.082L26.1372 120.479L26.2728 120.673L29.5416 122.633C29.719 122.74 30.0042 122.74 30.1804 122.635L33.4301 120.673L33.5606 120.484L33.5619 120.089L33.4314 120.279Z" fill="#1F2125"/>
<path d="M33.4265 119.894C33.6052 120.002 33.6065 120.173 33.4316 120.278L30.1806 122.239C30.0057 122.345 29.7205 122.345 29.5431 122.238L26.2743 120.278C26.0943 120.171 26.0943 119.999 26.2692 119.894L29.519 117.933C29.6939 117.826 29.9778 117.826 30.1578 117.934L33.4265 119.894Z" fill="#4D4D4D"/>
<path d="M41.0797 121.017L38.9402 122.309C38.7919 122.399 38.5549 122.399 38.4054 122.309L35.0023 120.269L34.8895 120.107L34.8882 120.502L35.001 120.664L38.4041 122.705C38.5537 122.794 38.7919 122.794 38.939 122.705L41.0784 121.413L41.1899 121.252L41.1912 120.857L41.0797 121.017Z" fill="#1F2125"/>
<path d="M41.0776 120.696C41.2259 120.787 41.2272 120.929 41.0789 121.017L38.9395 122.31C38.7912 122.399 38.5542 122.399 38.4046 122.31L35.0015 120.269C34.8532 120.18 34.8519 120.037 35.0002 119.948L37.141 118.656C37.288 118.566 37.5263 118.566 37.6758 118.656L41.0776 120.696Z" fill="#4D4D4D"/>
<path d="M45.5191 123.68L43.3797 124.971C43.2301 125.062 42.9906 125.059 42.8448 124.971L39.4392 122.929L39.3289 122.769L39.3276 123.165L39.4379 123.324L42.8435 125.366C42.9893 125.454 43.2301 125.455 43.3784 125.366L45.5178 124.076L45.6281 123.914L45.6294 123.52L45.5191 123.68Z" fill="#1F2125"/>
<path d="M45.518 123.358C45.6638 123.445 45.6676 123.59 45.5193 123.68L43.3799 124.971C43.2303 125.062 42.9908 125.059 42.845 124.971L39.4394 122.929C39.2923 122.841 39.2923 122.699 39.4394 122.609L41.5813 121.318C41.7284 121.227 41.9654 121.227 42.1124 121.316L45.518 123.358Z" fill="#4D4D4D"/>
<path d="M49.9566 126.339L47.8172 127.632C47.6676 127.72 47.4306 127.72 47.2848 127.633L43.8779 125.591L43.7664 125.43L43.7651 125.825L43.8779 125.987L47.2836 128.027C47.4293 128.116 47.6663 128.116 47.8159 128.027L49.9553 126.734L50.0656 126.574L50.0669 126.179L49.9566 126.339Z" fill="#1F2125"/>
<path d="M49.9579 126.019C50.1037 126.108 50.1037 126.25 49.9567 126.339L47.8172 127.632C47.6677 127.72 47.4306 127.72 47.2849 127.633L43.878 125.591C43.7297 125.502 43.7297 125.359 43.8767 125.269L46.0174 123.977C46.1657 123.889 46.4027 123.889 46.5523 123.977L49.9579 126.019Z" fill="#4D4D4D"/>
<path d="M54.3966 129.002L52.2571 130.294C52.1076 130.383 51.8705 130.383 51.7222 130.294L48.3179 128.252L48.2063 128.09L48.2051 128.486L48.3179 128.648L51.721 130.688C51.8693 130.776 52.1063 130.776 52.2559 130.688L54.3953 129.397L54.5056 129.237L54.5069 128.843L54.3966 129.002Z" fill="#1F2125"/>
<path d="M54.394 128.68C54.5436 128.769 54.5436 128.911 54.3966 129.002L52.2571 130.293C52.1076 130.383 51.8705 130.383 51.7223 130.293L48.3179 128.252C48.1696 128.164 48.1683 128.022 48.3166 127.93L50.4573 126.64C50.6056 126.55 50.8426 126.55 50.9922 126.64L54.394 128.68Z" fill="#4D4D4D"/>
<path d="M58.8327 131.661L56.6933 132.953C56.545 133.043 56.3079 133.043 56.1622 132.956L52.7553 130.913L52.645 130.754V131.149L52.754 131.308L56.1609 133.35C56.3067 133.438 56.5437 133.438 56.692 133.347L58.8327 132.057L58.943 131.897L58.9443 131.5L58.8327 131.661Z" fill="#1F2125"/>
<path d="M58.8338 131.342C58.9796 131.429 58.9808 131.573 58.8325 131.66L56.6931 132.953C56.5448 133.042 56.3078 133.042 56.162 132.956L52.7551 130.913C52.6094 130.825 52.6081 130.683 52.7564 130.593L54.8971 129.301C55.0454 129.213 55.2824 129.213 55.4294 129.299L58.8338 131.342Z" fill="#4D4D4D"/>
<path d="M63.2726 134.324L61.1331 135.615C60.9848 135.705 60.7478 135.705 60.5982 135.615L57.1951 133.575L57.0823 133.413L57.0811 133.808L57.1939 133.97L60.597 136.01C60.7465 136.1 60.9835 136.1 61.1318 136.01L63.2713 134.718L63.3828 134.558L63.3841 134.165L63.2726 134.324Z" fill="#1F2125"/>
<path d="M63.2712 134.003C63.4195 134.092 63.4207 134.234 63.2724 134.323L61.133 135.615C60.9847 135.705 60.7477 135.705 60.5981 135.615L57.195 133.575C57.0467 133.485 57.0455 133.343 57.1925 133.254L59.3345 131.963C59.4815 131.872 59.7185 131.872 59.8681 131.963L63.2712 134.003Z" fill="#4D4D4D"/>
<path d="M67.7095 136.984L65.5687 138.276C65.4204 138.365 65.1834 138.365 65.0377 138.278L61.6308 136.235L61.5218 136.076L61.5205 136.472L61.6308 136.631L65.0364 138.671C65.1822 138.76 65.4192 138.76 65.5687 138.67L67.7082 137.379L67.8197 137.218V136.823L67.7095 136.984Z" fill="#1F2125"/>
<path d="M67.7116 136.664C67.8573 136.751 67.8573 136.894 67.7103 136.983L65.5696 138.276C65.4213 138.364 65.1843 138.364 65.0385 138.277L61.6316 136.235C61.4871 136.146 61.4859 136.004 61.6329 135.916L63.7736 134.624C63.9219 134.534 64.1589 134.534 64.3047 134.621L67.7116 136.664Z" fill="#4D4D4D"/>
<path d="M72.1495 139.646L70.0088 140.937C69.8605 141.026 69.6235 141.026 69.4752 140.937L66.0721 138.896L65.9593 138.734L65.958 139.13L66.0708 139.292L69.4739 141.332C69.6222 141.421 69.8592 141.421 70.0075 141.332L72.1482 140.04L72.2585 139.881L72.2598 139.486L72.1495 139.646Z" fill="#1F2125"/>
<path d="M72.1473 139.324C72.2969 139.413 72.2981 139.555 72.1498 139.646L70.0091 140.937C69.8608 141.026 69.6238 141.026 69.4755 140.937L66.0724 138.896C65.9229 138.808 65.9216 138.666 66.0699 138.575L68.2093 137.284C68.3589 137.194 68.5959 137.194 68.7442 137.284L72.1473 139.324Z" fill="#4D4D4D"/>
<path d="M76.5894 142.308L74.4487 143.599C74.3004 143.689 74.0609 143.687 73.9138 143.599L70.5082 141.557L70.3992 141.398L70.3979 141.792L70.507 141.952L73.9126 143.994C74.0596 144.082 74.2991 144.084 74.4474 143.994L76.5882 142.703L76.6972 142.544L76.6984 142.149L76.5894 142.308Z" fill="#1F2125"/>
<path d="M76.5867 141.985C76.7325 142.073 76.7363 142.218 76.5893 142.308L74.4485 143.6C74.3003 143.688 74.0607 143.687 73.9137 143.6L70.5081 141.557C70.3623 141.469 70.361 141.327 70.5093 141.238L72.6488 139.945C72.7983 139.857 73.0353 139.857 73.1811 139.944L76.5867 141.985Z" fill="#4D4D4D"/>
<path d="M81.0257 144.967L78.8849 146.258C78.7379 146.348 78.5009 146.348 78.3539 146.26L74.9482 144.218L74.8367 144.057L74.8354 144.452L74.947 144.613L78.3526 146.656C78.4996 146.743 78.7366 146.743 78.8837 146.653L81.0244 145.362L81.1359 145.202L81.1372 144.807L81.0257 144.967Z" fill="#1F2125"/>
<path d="M81.027 144.646C81.1728 144.736 81.174 144.878 81.0258 144.968L78.885 146.259C78.738 146.348 78.501 146.348 78.354 146.26L74.9483 144.218C74.8026 144.132 74.7988 143.986 74.947 143.898L77.0865 142.607C77.2348 142.516 77.4756 142.518 77.6214 142.607L81.027 144.646Z" fill="#4D4D4D"/>
<path d="M79.4565 147.188L79.4578 146.793L79.6086 147.013L79.6074 147.408L79.4565 147.188Z" fill="#1F2125"/>
<path d="M89.0522 149.588L89.0509 149.984L88.9014 150.202L88.9026 149.806L89.0522 149.588Z" fill="#1F2125"/>
<path d="M88.9029 149.806L88.9017 150.202L86.9536 151.378L86.9549 150.983L88.9029 149.806Z" fill="#1F2125"/>
<path d="M86.2286 150.983L86.2273 151.378L79.6074 147.408L79.6087 147.013L86.2286 150.983Z" fill="#1F2125"/>
<path d="M86.9546 150.983L86.9533 151.377C86.7543 151.497 86.4286 151.497 86.2271 151.377L86.2283 150.983C86.4286 151.102 86.7556 151.102 86.9546 150.983Z" fill="#1F2125"/>
<path d="M88.9027 149.369C89.1017 149.489 89.1029 149.686 88.9027 149.806L86.9546 150.982C86.7556 151.102 86.4286 151.102 86.2283 150.982L79.6085 147.013C79.4044 146.892 79.4069 146.697 79.6059 146.577L81.554 145.402C81.7555 145.28 82.0787 145.278 82.2815 145.4L88.9027 149.369Z" fill="#4D4D4D"/>
<path d="M37.8588 122.932L34.6091 124.895C34.4342 125 34.1477 125 33.9703 124.893L30.7015 122.932L30.5672 122.737L30.5659 123.133L30.7003 123.328L33.969 125.286C34.1465 125.394 34.4329 125.394 34.6078 125.289L37.8576 123.328L37.9881 123.139L37.9894 122.744L37.8588 122.932Z" fill="#1F2125"/>
<path d="M37.8538 122.549C38.0325 122.655 38.0338 122.827 37.8589 122.932L34.6091 124.894C34.4342 124.999 34.1478 124.999 33.9703 124.893L30.7016 122.932C30.5254 122.827 30.5216 122.653 30.6965 122.549L33.9463 120.586C34.1212 120.481 34.4102 120.484 34.5851 120.589L37.8538 122.549Z" fill="#4D4D4D"/>
<path d="M26.812 121.526L23.7245 123.389C23.5052 123.523 23.1427 123.523 22.9222 123.389L17.5735 120.183L17.4062 119.94V120.336L17.5723 120.578L22.9209 123.784C23.1427 123.916 23.5039 123.916 23.7232 123.784L26.8107 121.922L26.9742 121.682L26.9755 121.287L26.812 121.526Z" fill="#1F2125"/>
<path d="M26.8093 121.045C27.0298 121.176 27.0311 121.394 26.8118 121.526L23.7243 123.39C23.5051 123.523 23.1426 123.523 22.922 123.39L17.5734 120.183C17.3503 120.049 17.3529 119.833 17.5709 119.701L20.6584 117.837C20.8789 117.705 21.2376 117.704 21.4607 117.837L26.8093 121.045Z" fill="#4D4D4D"/>
<path d="M31.4772 124.228L28.23 126.188C28.0551 126.294 27.7674 126.295 27.5886 126.188L24.3199 124.228L24.1868 124.034L24.1855 124.428L24.3186 124.623L27.5874 126.583C27.7661 126.69 28.0538 126.689 28.23 126.583L31.4759 124.623L31.609 124.431L31.6103 124.036L31.4772 124.228Z" fill="#1F2125"/>
<path d="M31.4745 123.843C31.6545 123.949 31.6558 124.122 31.4771 124.228L28.2299 126.188C28.055 126.294 27.7672 126.295 27.5885 126.188L24.3198 124.228C24.1436 124.123 24.1436 123.948 24.3185 123.843L27.5645 121.883C27.7432 121.775 28.0309 121.776 28.2071 121.883L31.4745 123.843Z" fill="#4D4D4D"/>
<path d="M23.4864 124.893L20.4686 126.712C20.2303 126.858 19.8374 126.858 19.5966 126.712L13.1896 122.872C13.068 122.799 13.0071 122.704 13.0071 122.608L13.0059 123.003C13.0059 123.098 13.0667 123.194 13.1884 123.266L19.5953 127.108C19.8361 127.253 20.229 127.253 20.4686 127.108L23.4851 125.286C23.6043 125.217 23.6638 125.121 23.6638 125.027L23.6651 124.631C23.6651 124.727 23.6055 124.821 23.4864 124.893Z" fill="#1F2125"/>
<path d="M23.4826 124.366C23.7247 124.512 23.726 124.748 23.4864 124.893L20.4686 126.712C20.2304 126.858 19.8375 126.858 19.5966 126.712L13.1897 122.871C12.9463 122.725 12.9476 122.491 13.1871 122.346L16.2037 120.526C16.4445 120.382 16.8323 120.38 17.0769 120.526L23.4826 124.366Z" fill="#4D4D4D"/>
<path d="M42.2856 125.588L39.0358 127.549C38.8609 127.654 38.577 127.654 38.397 127.546L35.1283 125.588L34.9939 125.393L34.9927 125.787L35.127 125.983L38.3958 127.942C38.5757 128.049 38.8597 128.049 39.0346 127.944L42.2843 125.983L42.4148 125.793L42.4161 125.397L42.2856 125.588Z" fill="#1F2125"/>
<path d="M42.2805 125.203C42.4605 125.31 42.4605 125.483 42.2856 125.588L39.0359 127.549C38.861 127.654 38.5771 127.654 38.3971 127.546L35.1283 125.588C34.9522 125.483 34.9484 125.309 35.1233 125.203L38.373 123.243C38.5492 123.137 38.8369 123.139 39.0118 123.244L42.2805 125.203Z" fill="#4D4D4D"/>
<path d="M35.9459 126.908L32.7 128.868C32.5238 128.973 32.2374 128.975 32.0574 128.868L28.7886 126.908L28.6556 126.713L28.6543 127.108L28.7874 127.303L32.0561 129.263C32.2361 129.37 32.5238 129.368 32.6987 129.263L35.9447 127.303L36.079 127.111V126.716L35.9459 126.908Z" fill="#1F2125"/>
<path d="M35.9443 126.522C36.1242 126.629 36.1255 126.8 35.9468 126.908L32.7009 128.868C32.5247 128.973 32.2382 128.975 32.0583 128.868L28.7895 126.908C28.6133 126.803 28.6121 126.628 28.7882 126.522L32.0342 124.562C32.2129 124.455 32.5019 124.458 32.6768 124.562L35.9443 126.522Z" fill="#4D4D4D"/>
<path d="M28.1959 127.503L24.9487 129.462C24.77 129.57 24.4848 129.57 24.3074 129.462L21.0387 127.503L20.9056 127.311L20.9043 127.706L21.0374 127.898L24.3061 129.858C24.4836 129.964 24.77 129.964 24.9475 129.858L28.1947 127.898L28.3265 127.706L28.3277 127.311L28.1959 127.503Z" fill="#1F2125"/>
<path d="M28.1931 127.117C28.3718 127.224 28.3706 127.398 28.1956 127.503L24.9484 129.462C24.7697 129.569 24.4845 129.569 24.3071 129.462L21.0384 127.503C20.8622 127.398 20.8609 127.225 21.0384 127.119L24.2856 125.159C24.4605 125.053 24.7482 125.052 24.9244 125.158L28.1931 127.117Z" fill="#4D4D4D"/>
<path d="M17.1335 126.138L13.9775 128.043C13.776 128.164 13.449 128.164 13.2475 128.043L8.84945 125.405L8.69609 125.184L8.69482 125.579L8.84945 125.8L13.2462 128.438C13.449 128.559 13.7747 128.559 13.9763 128.438L17.1335 126.533L17.2843 126.312L17.2856 125.917L17.1335 126.138Z" fill="#1F2125"/>
<path d="M17.1355 125.697C17.3383 125.818 17.3357 126.016 17.1342 126.138L13.9782 128.043C13.7767 128.164 13.4497 128.164 13.2482 128.043L8.85016 125.405C8.64736 125.284 8.64609 125.088 8.84762 124.965L12.0036 123.06C12.2051 122.94 12.5346 122.937 12.7374 123.059L17.1355 125.697Z" fill="#4D4D4D"/>
<path d="M21.6151 128.818L18.3679 130.776C18.1904 130.884 17.9052 130.884 17.7291 130.779L14.4565 128.818L14.326 128.626L14.3247 129.02L14.4553 129.213L17.7278 131.174C17.904 131.279 18.1892 131.279 18.3666 131.173L21.6138 129.213L21.7469 129.02L21.7482 128.626L21.6151 128.818Z" fill="#1F2125"/>
<path d="M21.6165 128.433C21.7914 128.539 21.7927 128.71 21.6152 128.818L18.368 130.776C18.1906 130.884 17.9054 130.884 17.7292 130.779L14.4567 128.818C14.2818 128.713 14.2805 128.54 14.458 128.433L17.7064 126.474C17.8826 126.367 18.1691 126.367 18.3452 126.472L21.6165 128.433Z" fill="#4D4D4D"/>
<path d="M11.6629 127.969L8.41317 129.932C8.23826 130.036 7.9531 130.036 7.77819 129.932L4.50563 127.969L4.37256 127.777V128.172L4.50563 128.364L7.77692 130.326C7.95183 130.432 8.23701 130.432 8.41191 130.326L11.6629 128.364L11.7935 128.174L11.7947 127.779L11.6629 127.969Z" fill="#1F2125"/>
<path d="M11.6618 127.587C11.838 127.693 11.838 127.864 11.6631 127.969L8.41336 129.932C8.23846 130.036 7.95329 130.036 7.77839 129.932L4.50583 127.969C4.32965 127.864 4.32965 127.693 4.50456 127.587L7.7543 125.625C7.9292 125.52 8.21438 125.52 8.38929 125.625L11.6618 127.587Z" fill="#4D4D4D"/>
<path d="M16.2792 130.736L13.0282 132.697C12.8546 132.804 12.5694 132.804 12.3894 132.696L9.12069 130.736L8.9876 130.542L8.98633 130.936L9.12069 131.131L12.3894 133.091C12.5681 133.198 12.8533 133.198 13.027 133.093L16.2792 131.131L16.4085 130.942L16.4098 130.547L16.2792 130.736Z" fill="#1F2125"/>
<path d="M16.2745 130.353C16.4545 130.459 16.4545 130.632 16.2796 130.736L13.0286 132.697C12.855 132.804 12.5698 132.804 12.3898 132.696L9.12106 130.736C8.94615 130.632 8.94234 130.458 9.11598 130.353L12.3683 128.39C12.5432 128.286 12.8296 128.287 13.0058 128.393L16.2745 130.353Z" fill="#4D4D4D"/>
<path d="M46.7159 128.243L43.4637 130.204C43.2887 130.309 43.0048 130.309 42.8261 130.202L39.5574 128.243L39.4256 128.049L39.4243 128.445L39.5561 128.636L42.8249 130.597C43.0036 130.705 43.2875 130.705 43.4637 130.599L46.7147 128.636L46.8439 128.448L46.8452 128.053L46.7159 128.243Z" fill="#1F2125"/>
<path d="M46.7107 127.859C46.8882 127.967 46.8894 128.136 46.7158 128.243L43.4635 130.204C43.2886 130.309 43.0047 130.309 42.826 130.203L39.5572 128.243C39.3811 128.136 39.3798 127.967 39.5547 127.861L42.8057 125.899C42.9794 125.792 43.2658 125.792 43.4407 125.899L46.7107 127.859Z" fill="#4D4D4D"/>
<path d="M40.4161 129.588L37.1689 131.547C36.994 131.652 36.7063 131.655 36.5263 131.547L33.2576 129.588L33.1258 129.394L33.1245 129.788L33.2563 129.983L36.5251 131.943C36.705 132.05 36.994 132.048 37.1677 131.943L40.4149 129.983L40.5479 129.791V129.397L40.4161 129.588Z" fill="#1F2125"/>
<path d="M40.4156 129.201C40.593 129.309 40.5943 129.48 40.4168 129.588L37.1697 131.547C36.9947 131.652 36.707 131.655 36.527 131.547L33.2583 129.588C33.0834 129.483 33.0834 129.307 33.257 129.201L36.5042 127.243C36.6817 127.135 36.9706 127.137 37.1468 127.243L40.4156 129.201Z" fill="#4D4D4D"/>
<path d="M32.6447 130.169L29.3962 132.13C29.22 132.237 28.9336 132.237 28.7561 132.13L25.4861 130.169L25.3543 129.977L25.353 130.374L25.4861 130.564L28.7549 132.524C28.9323 132.632 29.2187 132.632 29.3949 132.524L32.6434 130.564L32.7739 130.374L32.7752 129.977L32.6447 130.169Z" fill="#1F2125"/>
<path d="M32.642 129.784C32.822 129.892 32.8194 130.064 32.6445 130.17L29.3961 132.131C29.2199 132.238 28.9334 132.238 28.756 132.131L25.486 130.17C25.3111 130.064 25.3098 129.892 25.4873 129.785L28.7345 127.826C28.9094 127.72 29.1971 127.719 29.3733 127.824L32.642 129.784Z" fill="#4D4D4D"/>
<path d="M26.0441 131.472L22.7956 133.432C22.6182 133.539 22.333 133.539 22.1581 133.434L18.8855 131.472L18.7537 131.281L18.7524 131.676L18.8843 131.866L22.1568 133.829C22.3317 133.935 22.6169 133.935 22.7943 133.827L26.0428 131.866L26.1746 131.676L26.1759 131.279L26.0441 131.472Z" fill="#1F2125"/>
<path d="M26.0441 131.088C26.2203 131.194 26.2215 131.366 26.0441 131.472L22.7956 133.432C22.6182 133.539 22.333 133.539 22.1581 133.434L18.8856 131.472C18.7107 131.367 18.7094 131.196 18.8856 131.088L22.134 129.128C22.3127 129.02 22.5966 129.02 22.7728 129.126L26.0441 131.088Z" fill="#4D4D4D"/>
<path d="M20.748 133.415L17.4982 135.376C17.3233 135.483 17.0382 135.483 16.8594 135.375L13.592 133.415L13.4563 133.222L13.4551 133.617L13.5907 133.812L16.8594 135.77C17.0369 135.878 17.3221 135.878 17.497 135.773L20.748 133.812L20.8785 133.62L20.8798 133.227L20.748 133.415Z" fill="#1F2125"/>
<path d="M20.7431 133.031C20.9231 133.139 20.9244 133.31 20.7482 133.415L17.4985 135.376C17.3236 135.484 17.0384 135.484 16.8597 135.375L13.5922 133.415C13.416 133.31 13.411 133.138 13.5871 133.032L16.8369 131.07C17.0118 130.965 17.2995 130.967 17.4744 131.073L20.7431 133.031Z" fill="#4D4D4D"/>
<path d="M51.1432 130.896L47.8922 132.859C47.7185 132.963 47.4321 132.963 47.2559 132.859L43.9847 130.898L43.8528 130.705L43.8516 131.099L43.9834 131.293L47.2559 133.254C47.4308 133.359 47.7173 133.359 47.8909 133.254L51.1419 131.293L51.2725 131.101V130.708L51.1432 130.896Z" fill="#1F2125"/>
<path d="M51.1405 130.515C51.3154 130.62 51.3167 130.791 51.1431 130.896L47.892 132.859C47.7184 132.962 47.432 132.962 47.2558 132.859L43.9845 130.898C43.8096 130.791 43.8083 130.62 43.982 130.515L47.2342 128.553C47.4079 128.448 47.6931 128.448 47.8692 128.553L51.1405 130.515Z" fill="#4D4D4D"/>
<path d="M44.8859 132.268L41.64 134.226C41.465 134.333 41.1761 134.334 40.9973 134.226L37.7286 132.268L37.5955 132.073L37.5942 132.469L37.7286 132.663L40.9961 134.622C41.1748 134.729 41.4638 134.727 41.6387 134.622L44.8846 132.663L45.019 132.47L45.0202 132.075L44.8859 132.268Z" fill="#1F2125"/>
<path d="M44.884 131.881C45.0627 131.988 45.064 132.16 44.8853 132.268L41.6394 134.226C41.4644 134.332 41.1755 134.334 40.9967 134.226L37.728 132.268C37.5518 132.162 37.5518 131.986 37.7267 131.881L40.9739 129.922C41.1514 129.814 41.4391 129.817 41.6152 129.922L44.884 131.881Z" fill="#4D4D4D"/>
<path d="M37.0931 132.838L33.8446 134.797C33.6685 134.904 33.382 134.904 33.2033 134.797L29.9346 132.838L29.8027 132.645V133.04L29.9333 133.232L33.202 135.192C33.382 135.299 33.6672 135.299 33.8434 135.192L37.0918 133.232L37.2224 133.04L37.2236 132.645L37.0931 132.838Z" fill="#1F2125"/>
<path d="M37.0907 132.452C37.2694 132.558 37.2669 132.732 37.0933 132.837L33.8448 134.797C33.6686 134.904 33.3822 134.904 33.2035 134.797L29.9347 132.837C29.7598 132.732 29.7585 132.56 29.936 132.453L33.1845 130.493C33.3581 130.386 33.6458 130.385 33.822 130.492L37.0907 132.452Z" fill="#4D4D4D"/>
<path d="M30.471 134.126L27.2238 136.087C27.0464 136.194 26.76 136.194 26.585 136.088L23.3163 134.128L23.1819 133.935L23.1807 134.33L23.3163 134.523L26.5838 136.483C26.7587 136.588 27.0451 136.588 27.2226 136.482L30.4698 134.522L30.6028 134.33L30.6041 133.935L30.471 134.126Z" fill="#1F2125"/>
<path d="M30.4723 133.743C30.6485 133.848 30.6485 134.02 30.471 134.126L27.2238 136.088C27.0464 136.194 26.76 136.194 26.5851 136.089L23.3163 134.129C23.1376 134.021 23.1363 133.85 23.315 133.743L26.561 131.784C26.7397 131.677 27.0236 131.677 27.2036 131.784L30.4723 133.743Z" fill="#4D4D4D"/>
<path d="M26.2109 136.742L23.0436 138.653C22.8446 138.772 22.5252 138.772 22.3249 138.653L18.0993 136.119L17.9497 135.902V136.297L18.098 136.514L22.3237 139.047C22.5239 139.167 22.8446 139.167 23.0423 139.047L26.2109 137.135L26.358 136.92L26.3592 136.527L26.2109 136.742Z" fill="#1F2125"/>
<path d="M26.2097 136.308C26.4087 136.428 26.4099 136.621 26.211 136.741L23.0436 138.652C22.8446 138.772 22.5252 138.772 22.325 138.652L18.0993 136.119C17.9028 136.001 17.899 135.807 18.0968 135.687L21.2641 133.776C21.4631 133.656 21.7876 133.658 21.984 133.776L26.2097 136.308Z" fill="#4D4D4D"/>
<path d="M41.541 135.504L38.2938 137.464C38.1164 137.571 37.8325 137.571 37.6563 137.465L34.3838 135.504L34.252 135.314V135.707L34.3838 135.899L37.655 137.862C37.8312 137.966 38.1151 137.966 38.2938 137.859L41.5398 135.899L41.6729 135.707L41.6741 135.312L41.541 135.504Z" fill="#1F2125"/>
<path d="M41.5425 135.12C41.7187 135.225 41.7161 135.399 41.5412 135.504L38.2953 137.464C38.1166 137.571 37.8326 137.571 37.6565 137.465L34.3839 135.504C34.2078 135.399 34.2078 135.228 34.3852 135.12L37.6324 133.161C37.8073 133.056 38.0963 133.054 38.2712 133.159L41.5425 135.12Z" fill="#4D4D4D"/>
<path d="M34.9021 136.784L31.6549 138.744C31.4762 138.85 31.1897 138.849 31.0135 138.744L27.7448 136.784L27.6092 136.589L27.6079 136.984L27.7435 137.18L31.0123 139.138C31.1884 139.244 31.4762 139.247 31.6536 139.138L34.9008 137.18L35.0326 136.988L35.0339 136.591L34.9021 136.784Z" fill="#1F2125"/>
<path d="M34.8994 136.398C35.0756 136.503 35.0794 136.677 34.902 136.784L31.6548 138.744C31.476 138.85 31.1896 138.849 31.0134 138.744L27.7447 136.784C27.5647 136.677 27.5634 136.505 27.7421 136.398L30.9893 134.438C31.1668 134.332 31.4532 134.332 31.6307 134.438L34.8994 136.398Z" fill="#4D4D4D"/>
<path d="M55.5701 133.552L52.3192 135.514C52.1455 135.618 51.8603 135.618 51.6842 135.514L48.4116 133.552L48.2798 133.359V133.754L48.4103 133.947L51.6829 135.908C51.8591 136.013 52.1442 136.013 52.3179 135.908L55.5689 133.947L55.6994 133.756L55.7007 133.361L55.5701 133.552Z" fill="#1F2125"/>
<path d="M55.5689 133.169C55.7451 133.275 55.7463 133.447 55.5702 133.552L52.3192 135.514C52.1455 135.619 51.8603 135.619 51.6842 135.514L48.4116 133.552C48.2367 133.447 48.2367 133.275 48.4103 133.169L51.6613 131.208C51.8362 131.102 52.1202 131.102 52.2963 131.208L55.5689 133.169Z" fill="#4D4D4D"/>
<path d="M49.3558 134.946L46.1086 136.907C45.9337 137.013 45.646 137.014 45.466 136.907L42.1972 134.946L42.0654 134.753V135.149L42.1972 135.343L45.466 137.301C45.6447 137.409 45.9324 137.406 46.1073 137.301L49.3558 135.343L49.4876 135.152L49.4889 134.755L49.3558 134.946Z" fill="#1F2125"/>
<path d="M49.3545 134.561C49.5319 134.669 49.5332 134.84 49.3558 134.946L46.1086 136.908C45.9337 137.013 45.646 137.014 45.466 136.908L42.1972 134.946C42.0211 134.841 42.0211 134.666 42.196 134.561L45.4432 132.601C45.6206 132.494 45.9096 132.496 46.0845 132.601L49.3545 134.561Z" fill="#4D4D4D"/>
<path d="M45.9896 138.172L42.7437 140.132C42.565 140.238 42.2798 140.238 42.1049 140.133L38.8323 138.172L38.7005 137.98L38.6992 138.375L38.8323 138.567L42.1036 140.529C42.2798 140.635 42.5637 140.635 42.7424 140.527L45.9896 138.565L46.1214 138.375L46.1227 137.978L45.9896 138.172Z" fill="#1F2125"/>
<path d="M45.9907 137.788C46.1669 137.893 46.1656 138.065 45.9895 138.172L42.7435 140.132C42.5648 140.238 42.2796 140.238 42.1047 140.133L38.8322 138.172C38.6573 138.065 38.656 137.895 38.8334 137.788L42.0807 135.828C42.2556 135.723 42.5433 135.72 42.7195 135.825L45.9907 137.788Z" fill="#4D4D4D"/>
<path d="M39.3288 139.438L36.0816 141.398C35.9042 141.506 35.6165 141.503 35.4403 141.398L32.1715 139.438L32.0359 139.244L32.0347 139.639L32.1703 139.833L35.439 141.793C35.6152 141.9 35.9029 141.901 36.0804 141.793L39.3276 139.833L39.4594 139.642L39.4606 139.247L39.3288 139.438Z" fill="#1F2125"/>
<path d="M39.3262 139.051C39.5024 139.158 39.5075 139.331 39.3287 139.438L36.0815 141.398C35.9041 141.506 35.6164 141.503 35.4402 141.398L32.1715 139.438C31.9927 139.331 31.9915 139.16 32.1689 139.051L35.4161 137.093C35.5948 136.985 35.88 136.985 36.0575 137.093L39.3262 139.051Z" fill="#4D4D4D"/>
<path d="M59.9987 136.205L56.7489 138.168C56.5728 138.273 56.2876 138.273 56.1127 138.168L52.8427 136.208L52.7083 136.013L52.707 136.408L52.8414 136.603L56.1114 138.563C56.2863 138.668 56.5715 138.668 56.7477 138.563L59.9974 136.6L60.1279 136.412L60.1292 136.017L59.9987 136.205Z" fill="#1F2125"/>
<path d="M59.9965 135.824C60.1727 135.93 60.1739 136.1 59.999 136.206L56.7493 138.168C56.5731 138.274 56.288 138.274 56.113 138.168L52.843 136.208C52.6656 136.1 52.6643 135.93 52.8392 135.824L56.089 133.863C56.2639 133.758 56.549 133.758 56.7277 133.864L59.9965 135.824Z" fill="#4D4D4D"/>
<path d="M53.825 137.626L50.5778 139.587C50.4042 139.692 50.1152 139.694 49.9365 139.587L46.6678 137.626L46.5359 137.432L46.5347 137.827L46.6665 138.022L49.9352 139.982C50.114 140.09 50.4029 140.087 50.5766 139.982L53.825 138.022L53.9569 137.831L53.9581 137.435L53.825 137.626Z" fill="#1F2125"/>
<path d="M53.8236 137.24C54.0023 137.348 54.0036 137.519 53.8249 137.626L50.5777 139.587C50.4041 139.692 50.1151 139.693 49.9364 139.587L46.6676 137.626C46.4927 137.521 46.4914 137.347 46.6651 137.24L49.9123 135.28C50.091 135.174 50.3787 135.175 50.5549 135.28L53.8236 137.24Z" fill="#4D4D4D"/>
<path d="M50.4401 140.838L47.1916 142.798C47.0141 142.905 46.729 142.905 46.5541 142.8L43.2828 140.838L43.1497 140.647L43.1484 141.041L43.2815 141.235L46.5528 143.196C46.7277 143.301 47.0141 143.301 47.1916 143.193L50.4388 141.235L50.5706 141.041V140.645L50.4401 140.838Z" fill="#1F2125"/>
<path d="M50.4393 140.454C50.6155 140.56 50.6142 140.733 50.4393 140.838L47.1908 142.798C47.0134 142.905 46.7282 142.905 46.5533 142.8L43.282 140.838C43.1058 140.733 43.1046 140.562 43.282 140.454L46.5292 138.496C46.7041 138.391 46.9918 138.388 47.168 138.493L50.4393 140.454Z" fill="#4D4D4D"/>
<path d="M43.7575 142.093L40.5102 144.053C40.3315 144.159 40.0476 144.159 39.8677 144.053L36.5989 142.093L36.4671 141.9L36.4658 142.293L36.5989 142.488L39.8664 144.448C40.0464 144.556 40.3303 144.556 40.509 144.448L43.7562 142.488L43.8893 142.296L43.8905 141.902L43.7575 142.093Z" fill="#1F2125"/>
<path d="M43.7563 141.707C43.9338 141.814 43.935 141.987 43.7576 142.093L40.5104 144.053C40.3317 144.159 40.0478 144.159 39.8678 144.053L36.5991 142.093C36.4229 141.988 36.4191 141.814 36.5978 141.707L39.845 139.748C40.0224 139.641 40.3114 139.642 40.4863 139.748L43.7563 141.707Z" fill="#4D4D4D"/>
<path d="M64.4279 138.863L61.1782 140.824C61.0033 140.93 60.7143 140.928 60.5394 140.823L57.2707 138.863L57.1351 138.667L57.1338 139.063L57.2707 139.258L60.5394 141.218C60.7143 141.323 61.002 141.324 61.1769 141.219L64.4267 139.258L64.5572 139.068L64.5585 138.673L64.4279 138.863Z" fill="#1F2125"/>
<path d="M64.423 138.479C64.5992 138.584 64.6029 138.758 64.428 138.863L61.1783 140.824C61.0034 140.93 60.7144 140.928 60.5395 140.823L57.272 138.863C57.092 138.756 57.0908 138.584 57.2657 138.479L60.5167 136.518C60.6916 136.412 60.9755 136.412 61.1542 136.519L64.423 138.479Z" fill="#4D4D4D"/>
<path d="M58.2938 140.307L55.0478 142.267C54.8729 142.372 54.584 142.373 54.4053 142.267L51.1378 140.307L51.0047 140.112L51.0034 140.507L51.1365 140.701L54.4053 142.662C54.584 142.768 54.8717 142.767 55.0466 142.662L58.2938 140.701L58.4269 140.509L58.4281 140.115L58.2938 140.307Z" fill="#1F2125"/>
<path d="M58.2925 139.922C58.4713 140.028 58.4725 140.201 58.2938 140.307L55.0479 142.267C54.873 142.372 54.584 142.373 54.4053 142.267L51.1378 140.307C50.9616 140.202 50.9604 140.027 51.1353 139.922L54.3825 137.96C54.5599 137.854 54.8476 137.855 55.0238 137.96L58.2925 139.922Z" fill="#4D4D4D"/>
<path d="M54.8883 143.506L51.6398 145.467C51.4637 145.573 51.1772 145.573 51.001 145.468L47.7297 143.506L47.5979 143.315L47.5967 143.71L47.7285 143.901L50.9998 145.863C51.1759 145.968 51.4624 145.968 51.6386 145.86L54.887 143.901L55.0176 143.71L55.0188 143.315L54.8883 143.506Z" fill="#1F2125"/>
<path d="M54.8895 143.122C55.0644 143.228 55.0619 143.4 54.8882 143.505L51.6397 145.466C51.4636 145.573 51.1771 145.573 51.0009 145.468L47.7296 143.505C47.5547 143.4 47.5535 143.229 47.7309 143.122L50.9781 141.162C51.153 141.057 51.4408 141.054 51.6169 141.16L54.8895 143.122Z" fill="#4D4D4D"/>
<path d="M48.186 144.748L44.9375 146.707C44.7601 146.814 44.4749 146.814 44.2962 146.707L41.0274 144.748L40.8943 144.553L40.8931 144.948L41.0262 145.143L44.2949 147.104C44.4736 147.21 44.7601 147.21 44.9362 147.104L48.1847 145.143L48.3165 144.951L48.3178 144.556L48.186 144.748Z" fill="#1F2125"/>
<path d="M48.184 144.362C48.3627 144.47 48.3627 144.641 48.1865 144.748L44.938 146.707C44.7606 146.814 44.4754 146.814 44.2967 146.707L41.028 144.748C40.853 144.643 40.8492 144.47 41.0254 144.362L44.2739 142.401C44.4501 142.295 44.739 142.296 44.9152 142.401L48.184 144.362Z" fill="#4D4D4D"/>
<path d="M68.8567 141.518L65.6069 143.479C65.4307 143.585 65.1443 143.583 64.9681 143.478L61.6994 141.518L61.5638 141.323L61.5625 141.718L61.6981 141.913L64.9668 143.872C65.143 143.978 65.4307 143.981 65.6056 143.875L68.8554 141.913L68.9847 141.724L68.986 141.329L68.8567 141.518Z" fill="#1F2125"/>
<path d="M68.8518 141.134C69.028 141.24 69.0318 141.411 68.8569 141.518L65.6071 143.479C65.4309 143.585 65.1445 143.583 64.9683 143.478L61.6996 141.518C61.5196 141.41 61.5196 141.24 61.6945 141.134L64.9442 139.171C65.1191 139.066 65.4043 139.066 65.583 139.174L68.8518 141.134Z" fill="#4D4D4D"/>
<path d="M62.7658 142.987L59.5173 144.947C59.3424 145.052 59.0547 145.053 58.8747 144.947L55.6072 142.987L55.4754 142.792L55.4741 143.187L55.6059 143.382L58.8747 145.341C59.0534 145.448 59.3411 145.447 59.516 145.341L62.7645 143.382L62.8963 143.19L62.8976 142.795L62.7658 142.987Z" fill="#1F2125"/>
<path d="M62.7631 142.601C62.9405 142.708 62.9418 142.88 62.7656 142.987L59.5171 144.946C59.3422 145.052 59.0545 145.053 58.8745 144.946L55.607 142.987C55.4309 142.882 55.4296 142.706 55.6045 142.601L58.853 140.64C59.0291 140.533 59.3181 140.535 59.4943 140.64L62.7631 142.601Z" fill="#4D4D4D"/>
<path d="M59.337 146.173L56.0886 148.133C55.9111 148.241 55.626 148.241 55.4498 148.136L52.1785 146.175L52.0467 145.981L52.0454 146.377L52.1772 146.568L55.4498 148.531C55.626 148.636 55.9099 148.636 56.0873 148.53L59.3358 146.568L59.4676 146.376L59.4689 145.981L59.337 146.173Z" fill="#1F2125"/>
<path d="M59.3369 145.79C59.5131 145.896 59.5105 146.068 59.3369 146.173L56.0884 148.133C55.911 148.241 55.6258 148.241 55.4496 148.136L52.1783 146.175C52.0022 146.068 52.0009 145.897 52.1796 145.79L55.4281 143.829C55.6017 143.724 55.8894 143.723 56.0643 143.828L59.3369 145.79Z" fill="#4D4D4D"/>
<path d="M52.6131 147.403L49.3647 149.361C49.1885 149.47 48.902 149.47 48.7233 149.361L45.4546 147.403L45.3228 147.212V147.605L45.4533 147.797L48.7221 149.757C48.902 149.864 49.1872 149.864 49.3634 149.757L52.6118 147.797L52.7437 147.605L52.7449 147.212L52.6131 147.403Z" fill="#1F2125"/>
<path d="M52.6107 147.017C52.7895 147.123 52.7907 147.295 52.6133 147.403L49.3648 149.361C49.1887 149.47 48.9022 149.47 48.7235 149.361L45.4547 147.403C45.2798 147.297 45.2786 147.125 45.456 147.019L48.7032 145.059C48.8807 144.952 49.1671 144.952 49.342 145.057L52.6107 147.017Z" fill="#4D4D4D"/>
<path d="M48.096 150.336L45.7157 151.774C45.2987 152.024 44.6244 152.022 44.2074 151.774L23.9599 139.633C23.7483 139.505 23.6431 139.341 23.6431 139.176V139.571C23.6418 139.736 23.7483 139.902 23.9587 140.029L44.2062 152.167C44.6232 152.417 45.2974 152.42 45.7144 152.167L48.0947 150.731C48.3025 150.606 48.4052 150.443 48.4052 150.281L48.4065 149.886C48.4065 150.048 48.3026 150.211 48.096 150.336Z" fill="#1F2125"/>
<path d="M48.0912 149.428C48.5095 149.678 48.5133 150.084 48.0963 150.336L45.716 151.774C45.299 152.024 44.6248 152.023 44.2078 151.774L23.9603 139.633C23.5407 139.38 23.5382 138.978 23.9552 138.725L26.3355 137.29C26.7537 137.037 27.4255 137.037 27.845 137.29L48.0912 149.428Z" fill="#4D4D4D"/>
<path d="M73.2836 144.173L70.0339 146.134C69.859 146.239 69.5738 146.239 69.3951 146.131L66.1263 144.173L65.9907 143.978V144.371L66.1251 144.568L69.3938 146.528C69.5738 146.634 69.8577 146.634 70.0326 146.529L73.2824 144.568L73.4129 144.378L73.4142 143.985L73.2836 144.173Z" fill="#1F2125"/>
<path d="M73.2786 143.788C73.4573 143.895 73.4585 144.067 73.2836 144.173L70.0339 146.134C69.859 146.239 69.5738 146.239 69.3951 146.131L66.1264 144.173C65.9477 144.065 65.9464 143.893 66.1213 143.788L69.371 141.827C69.5459 141.722 69.8324 141.722 70.0098 141.829L73.2786 143.788Z" fill="#4D4D4D"/>
<path d="M67.235 145.666L63.9865 147.625C63.8129 147.732 63.5239 147.733 63.3465 147.625L60.0764 145.666L59.9446 145.47L59.9434 145.867L60.0764 146.062L63.3452 148.021C63.5226 148.128 63.8116 148.126 63.9852 148.021L67.2337 146.062L67.3655 145.869L67.3668 145.474L67.235 145.666Z" fill="#1F2125"/>
<path d="M67.2322 145.28C67.4109 145.388 67.4121 145.559 67.2347 145.666L63.9862 147.625C63.8126 147.73 63.5236 147.733 63.3462 147.625L60.0762 145.666C59.9012 145.561 59.9 145.386 60.0749 145.281L63.3221 143.321C63.4995 143.213 63.7872 143.216 63.9634 143.321L67.2322 145.28Z" fill="#4D4D4D"/>
<path d="M63.784 148.841L60.5381 150.799C60.3594 150.907 60.0754 150.907 59.8993 150.803L56.6305 148.843L56.4949 148.648L56.4937 149.043L56.6293 149.238L59.898 151.197C60.0742 151.302 60.3581 151.302 60.5368 151.196L63.7827 149.236L63.9158 149.043L63.9171 148.648L63.784 148.841Z" fill="#1F2125"/>
<path d="M63.7861 148.457C63.9623 148.562 63.9598 148.735 63.7849 148.841L60.5389 150.799C60.3602 150.907 60.0763 150.907 59.9001 150.802L56.6314 148.842C56.4514 148.735 56.4501 148.563 56.6288 148.457L59.876 146.497C60.0509 146.392 60.3399 146.391 60.5174 146.497L63.7861 148.457Z" fill="#4D4D4D"/>
<path d="M57.0409 150.058L53.7936 152.017C53.6162 152.124 53.331 152.124 53.1561 152.019L49.8835 150.058L49.7518 149.865L49.7505 150.26L49.8835 150.453L53.1548 152.415C53.3297 152.52 53.6149 152.52 53.7924 152.412L57.0396 150.452L57.1726 150.26L57.1739 149.865L57.0409 150.058Z" fill="#1F2125"/>
<path d="M57.042 149.673C57.2182 149.778 57.2195 149.951 57.0407 150.058L53.7935 152.017C53.6161 152.124 53.3309 152.124 53.156 152.019L49.8834 150.058C49.7073 149.952 49.7073 149.781 49.8847 149.673L53.1319 147.715C53.3094 147.605 53.5945 147.605 53.7707 147.712L57.042 149.673Z" fill="#4D4D4D"/>
<path d="M77.8876 146.933L74.6379 148.894C74.463 148.999 74.1778 148.999 73.9991 148.893L70.7316 146.933L70.596 146.737L70.5947 147.133L70.7304 147.329L73.9991 149.287C74.1765 149.395 74.4617 149.395 74.6379 149.29L77.8876 147.329L78.0182 147.138V146.743L77.8876 146.933Z" fill="#1F2125"/>
<path d="M77.882 146.549C78.062 146.657 78.0632 146.827 77.8871 146.933L74.6373 148.894C74.4624 148.999 74.1772 148.999 73.9985 148.893L70.7311 146.933C70.5549 146.827 70.5498 146.654 70.7247 146.549L73.9757 144.587C74.1506 144.481 74.4396 144.482 74.6145 144.589L77.882 146.549Z" fill="#4D4D4D"/>
<path d="M71.7033 148.345L68.456 150.305C68.2811 150.41 67.9934 150.413 67.8147 150.305L64.546 148.345L64.4129 148.152L64.4116 148.546L64.5447 148.741L67.8135 150.701C67.9922 150.808 68.2799 150.806 68.4548 150.701L71.702 148.741L71.8351 148.549L71.8363 148.154L71.7033 148.345Z" fill="#1F2125"/>
<path d="M71.7008 147.959C71.8795 148.067 71.8807 148.239 71.7033 148.345L68.4561 150.305C68.2812 150.41 67.9935 150.413 67.8148 150.305L64.546 148.347C64.3698 148.241 64.3686 148.065 64.5435 147.959L67.7907 146.001C67.9681 145.893 68.2571 145.896 68.432 146.001L71.7008 147.959Z" fill="#4D4D4D"/>
<path d="M68.2332 151.508L64.9873 153.468C64.8086 153.576 64.5234 153.576 64.3485 153.471L61.0798 151.509L60.9441 151.316L60.9429 151.711L61.0785 151.904L64.3473 153.864C64.5222 153.969 64.8073 153.969 64.986 153.863L68.2332 151.903L68.3651 151.711L68.3663 151.316L68.2332 151.508Z" fill="#1F2125"/>
<path d="M68.2344 151.123C68.4106 151.229 68.4093 151.402 68.2331 151.508L64.9872 153.468C64.8085 153.576 64.5233 153.576 64.3484 153.47L61.0796 151.509C60.8997 151.402 60.8997 151.23 61.0771 151.123L64.3243 149.163C64.4992 149.059 64.7869 149.057 64.9656 149.163L68.2344 151.123Z" fill="#4D4D4D"/>
<path d="M61.6195 152.803L58.3735 154.763C58.1948 154.87 57.9109 154.87 57.7347 154.766L54.4635 152.803L54.3304 152.611L54.3291 153.007L54.4622 153.199L57.7335 155.161C57.9097 155.266 58.1936 155.266 58.3723 155.158L61.6195 153.199L61.7526 153.006L61.7538 152.611L61.6195 152.803Z" fill="#1F2125"/>
<path d="M61.6209 152.42C61.7971 152.525 61.7984 152.696 61.6197 152.803L58.3738 154.763C58.195 154.869 57.9111 154.869 57.735 154.765L54.4637 152.803C54.2875 152.698 54.2862 152.526 54.4637 152.42L57.7108 150.458C57.8883 150.351 58.1747 150.351 58.3496 150.457L61.6209 152.42Z" fill="#4D4D4D"/>
<path d="M53.94 153.365L50.7727 155.278C50.5737 155.396 50.2505 155.394 50.054 155.278L45.8284 152.745L45.6775 152.527L45.6763 152.923L45.8271 153.14L50.0528 155.673C50.2492 155.791 50.5724 155.792 50.7714 155.673L53.9388 153.761L54.0858 153.547L54.0871 153.151L53.94 153.365Z" fill="#1F2125"/>
<path d="M53.9379 152.933C54.1343 153.052 54.1394 153.247 53.9404 153.365L50.773 155.278C50.5741 155.396 50.2509 155.394 50.0531 155.278L45.8287 152.745C45.6297 152.624 45.6285 152.432 45.8262 152.312L48.9936 150.401C49.1926 150.281 49.5132 150.281 49.7135 150.401L53.9379 152.933Z" fill="#4D4D4D"/>
<path d="M82.3777 149.626L79.1279 151.587C78.953 151.692 78.6679 151.692 78.4891 151.584L75.2204 149.626L75.0848 149.429L75.0835 149.824L75.2204 150.019L78.4891 151.98C78.6666 152.087 78.9518 152.087 79.1267 151.981L82.3764 150.019L82.5082 149.831V149.435L82.3777 149.626Z" fill="#1F2125"/>
<path d="M82.3728 149.241C82.5528 149.348 82.5528 149.52 82.3779 149.626L79.1282 151.587C78.9532 151.692 78.6681 151.692 78.4894 151.584L75.2206 149.626C75.0419 149.518 75.0406 149.346 75.2155 149.241L78.4665 147.279C78.6414 147.174 78.9266 147.174 79.1041 147.28L82.3728 149.241Z" fill="#4D4D4D"/>
<path d="M76.174 151.025L72.9255 152.985C72.7506 153.09 72.4629 153.091 72.2842 152.985L69.0154 151.025L68.8836 150.831L68.8823 151.225L69.0141 151.421L72.2829 153.379C72.4616 153.487 72.7506 153.486 72.9242 153.379L76.1727 151.421L76.3045 151.229L76.3058 150.834L76.174 151.025Z" fill="#1F2125"/>
<path d="M76.1708 150.639C76.3482 150.747 76.3495 150.918 76.1733 151.025L72.9248 152.985C72.7499 153.09 72.4623 153.091 72.2835 152.985L69.0148 151.025C68.8399 150.919 68.8386 150.744 69.0123 150.639L72.2607 148.679C72.4369 148.573 72.7259 148.574 72.902 148.679L76.1708 150.639Z" fill="#4D4D4D"/>
<path d="M72.6858 154.177L69.4373 156.137C69.2611 156.244 68.9722 156.242 68.796 156.137L65.5272 154.177L65.3929 153.982L65.3916 154.377L65.526 154.572L68.7947 156.532C68.9709 156.637 69.2598 156.639 69.436 156.532L72.6845 154.572L72.8138 154.381L72.8151 153.985L72.6858 154.177Z" fill="#1F2125"/>
<path d="M72.683 153.791C72.8579 153.897 72.8591 154.072 72.6855 154.177L69.437 156.137C69.2608 156.244 68.9719 156.242 68.7957 156.137L65.5269 154.177C65.3495 154.07 65.3482 153.898 65.5244 153.791L68.7729 151.83C68.9478 151.725 69.2355 151.724 69.4142 151.83L72.683 153.791Z" fill="#4D4D4D"/>
<path d="M66.037 155.45L62.7886 157.411C62.6111 157.518 62.3234 157.516 62.1472 157.411L58.8785 155.45L58.7441 155.257V155.651L58.8785 155.846L62.146 157.806C62.3221 157.911 62.6111 157.914 62.7886 157.806L66.0358 155.846L66.1676 155.655V155.259L66.037 155.45Z" fill="#1F2125"/>
<path d="M66.0356 155.064C66.2105 155.171 66.2143 155.343 66.0369 155.45L62.7884 157.411C62.611 157.518 62.3232 157.516 62.1471 157.411L58.8783 155.45C58.7009 155.343 58.6996 155.172 58.8771 155.064L62.1243 153.104C62.3017 152.998 62.5869 152.998 62.7669 153.104L66.0356 155.064Z" fill="#4D4D4D"/>
<path d="M58.511 156.067L55.2777 158.019C55.0977 158.127 54.8037 158.125 54.625 158.019L51.1902 155.958L51.052 155.76L51.0508 156.155L51.1889 156.353L54.625 158.412C54.8024 158.519 55.0977 158.522 55.2777 158.412L58.5097 156.462L58.6441 156.267L58.6453 155.872L58.511 156.067Z" fill="#1F2125"/>
<path d="M58.5082 155.674C58.6881 155.78 58.692 155.958 58.5107 156.068L55.2774 158.019C55.0975 158.127 54.8034 158.126 54.6247 158.019L51.1899 155.958C51.0074 155.849 51.0061 155.674 51.1874 155.565L54.4207 153.615C54.6006 153.506 54.8922 153.506 55.0734 153.615L58.5082 155.674Z" fill="#4D4D4D"/>
<path d="M61.2582 159.862L59.7182 160.791C59.5889 160.87 59.3773 160.867 59.2455 160.788L55.6294 158.62L55.5306 158.477L55.5293 158.873L55.6282 159.014L59.2442 161.184C59.376 161.262 59.5877 161.263 59.717 161.185L61.2569 160.256L61.352 160.117L61.3532 159.722L61.2582 159.862Z" fill="#1F2125"/>
<path d="M61.2531 159.577C61.3849 159.657 61.3887 159.783 61.2582 159.862L59.7182 160.791C59.589 160.87 59.3773 160.867 59.2455 160.788L55.6294 158.621C55.4976 158.541 55.4964 158.415 55.6269 158.338L57.1669 157.41C57.2962 157.33 57.504 157.33 57.6358 157.41L61.2531 159.577Z" fill="#4D4D4D"/>
<path d="M92.5983 151.867L90.3929 153.198C90.2624 153.276 90.0545 153.276 89.9227 153.198L87.3371 151.647L87.2395 151.504L87.2383 151.9L87.3358 152.042L89.9227 153.593C90.0545 153.671 90.2611 153.671 90.3917 153.593L92.597 152.262L92.6946 152.121L92.6959 151.726L92.5983 151.867Z" fill="#1F2125"/>
<path d="M92.5977 151.584C92.7283 151.663 92.7296 151.788 92.599 151.867L90.3937 153.198C90.2631 153.276 90.0553 153.276 89.9247 153.198L87.3378 151.647C87.2098 151.57 87.206 151.445 87.3366 151.364L89.5432 150.034C89.6725 149.956 89.8829 149.957 90.0122 150.034L92.5977 151.584Z" fill="#4D4D4D"/>
<path d="M89.2754 153.873L86.2145 155.721C85.9851 155.858 85.6176 155.858 85.3869 155.721L79.6783 152.298C79.563 152.228 79.5047 152.136 79.5047 152.045L79.5034 152.44C79.5034 152.532 79.5617 152.623 79.677 152.693L85.3869 156.115C85.6163 156.253 85.9839 156.253 86.2133 156.115L89.2742 154.268L89.4427 154.022L89.444 153.627L89.2754 153.873Z" fill="#1F2125"/>
<path d="M89.2715 153.375C89.5009 153.515 89.5022 153.736 89.2753 153.873L86.2145 155.721C85.9851 155.858 85.6175 155.858 85.3868 155.721L79.6782 152.298C79.4501 152.16 79.445 151.937 79.6719 151.799L82.7328 149.952C82.9622 149.814 83.3336 149.816 83.563 149.953L89.2715 153.375Z" fill="#4D4D4D"/>
<path d="M80.6427 153.704L77.3955 155.666C77.2206 155.771 76.9316 155.772 76.7542 155.666L73.4854 153.704L73.3523 153.511L73.3511 153.906L73.4842 154.101L76.7529 156.059C76.9303 156.167 77.2193 156.164 77.3942 156.059L80.6414 154.101L80.7745 153.908L80.7758 153.513L80.6427 153.704Z" fill="#1F2125"/>
<path d="M80.6402 153.319C80.8189 153.426 80.8202 153.598 80.6427 153.704L77.3955 155.666C77.2206 155.771 76.9316 155.772 76.7542 155.666L73.4855 153.704C73.3093 153.599 73.308 153.424 73.4829 153.319L76.7301 151.359C76.9076 151.252 77.1953 151.254 77.3715 151.359L80.6402 153.319Z" fill="#4D4D4D"/>
<path d="M77.1342 156.844L73.8857 158.804C73.7083 158.91 73.4206 158.909 73.2444 158.804L69.9756 156.844L69.8413 156.65V157.045L69.9756 157.24L73.2431 159.199C73.4193 159.304 73.707 159.307 73.8857 159.199L77.1329 157.24L77.2635 157.048L77.2647 156.653L77.1342 156.844Z" fill="#1F2125"/>
<path d="M77.1333 156.458C77.3082 156.564 77.3082 156.739 77.1345 156.844L73.8861 158.804C73.7086 158.91 73.4209 158.909 73.2447 158.804L69.976 156.844C69.7973 156.738 69.796 156.566 69.9747 156.458L73.2219 154.499C73.3956 154.393 73.6846 154.392 73.8633 154.499L77.1333 156.458Z" fill="#4D4D4D"/>
<path d="M85.1119 156.384L81.8647 158.345C81.6898 158.451 81.4021 158.452 81.2234 158.345L77.9547 156.384L77.8216 156.191L77.8203 156.585L77.9534 156.779L81.2221 158.739C81.4008 158.848 81.6886 158.846 81.8635 158.739L85.1107 156.779L85.2438 156.588L85.245 156.193L85.1119 156.384Z" fill="#1F2125"/>
<path d="M85.1094 155.998C85.2882 156.105 85.2894 156.277 85.112 156.384L81.8648 158.345C81.6899 158.451 81.4021 158.452 81.2234 158.345L77.9547 156.384C77.7785 156.279 77.7773 156.105 77.9522 155.998L81.2006 154.039C81.3768 153.932 81.6658 153.934 81.8407 154.039L85.1094 155.998Z" fill="#4D4D4D"/>
<path d="M80.7903 158.993L77.4683 160.998C77.315 161.091 77.0602 161.091 76.9043 160.998L74.4163 159.506L74.2972 159.333L74.2959 159.728L74.415 159.901L76.9043 161.392C77.0589 161.484 77.3137 161.484 77.4683 161.392L80.789 159.389L80.9069 159.218L80.9082 158.822L80.7903 158.993Z" fill="#1F2125"/>
<path d="M80.7911 158.652C80.9458 158.745 80.947 158.9 80.7899 158.993L77.4679 160.998C77.3145 161.091 77.0598 161.091 76.9039 160.998L74.4159 159.507C74.2587 159.412 74.2574 159.258 74.4108 159.166L77.7328 157.16C77.89 157.066 78.1447 157.066 78.3032 157.16L80.7911 158.652Z" fill="#4D4D4D"/>
<path d="M76.1953 161.765L73.322 163.501C73.0432 163.669 72.5856 163.669 72.3055 163.501L63.4473 158.19C63.3053 158.104 63.2356 157.993 63.2356 157.882L63.2344 158.277C63.2344 158.389 63.3041 158.501 63.446 158.584L72.3042 163.895C72.5843 164.063 73.0419 164.063 73.3207 163.895L76.194 162.161C76.3334 162.078 76.4019 161.968 76.4019 161.859L76.4032 161.462C76.4019 161.573 76.3347 161.683 76.1953 161.765Z" fill="#1F2125"/>
<path d="M76.1915 161.154C76.4716 161.323 76.4742 161.598 76.1953 161.765L73.322 163.501C73.0432 163.669 72.5856 163.669 72.3055 163.501L63.4473 158.19C63.1659 158.021 63.1647 157.746 63.4435 157.579L66.3181 155.843C66.5957 155.675 67.0532 155.675 67.3333 155.843L76.1915 161.154Z" fill="#4D4D4D"/>
<path d="M67.6438 161.542L64.4105 163.495C64.2306 163.603 63.9353 163.601 63.7578 163.495L60.3218 161.433L60.1849 161.236L60.1836 161.631L60.3218 161.828L63.7566 163.889C63.9353 163.996 64.2293 163.998 64.4093 163.889L67.6425 161.937L67.7769 161.742L67.7782 161.348L67.6438 161.542Z" fill="#1F2125"/>
<path d="M67.6416 161.15C67.8203 161.257 67.8254 161.434 67.6442 161.543L64.4109 163.495C64.2309 163.603 63.9356 163.601 63.7582 163.495L60.3221 161.434C60.1396 161.324 60.1396 161.15 60.3208 161.041L63.5528 159.091C63.7328 158.981 64.0243 158.981 64.2055 159.091L67.6416 161.15Z" fill="#4D4D4D"/>
<path d="M70.3333 165.303L68.7946 166.232C68.664 166.31 68.4536 166.308 68.3243 166.232L64.7058 164.062L64.6082 163.92L64.6069 164.315L64.7045 164.457L68.3243 166.628C68.4523 166.703 68.664 166.706 68.7933 166.628L70.332 165.699L70.4283 165.558L70.4296 165.163L70.3333 165.303Z" fill="#1F2125"/>
<path d="M70.3323 165.021C70.4616 165.099 70.4641 165.224 70.3336 165.303L68.7949 166.232C68.6644 166.31 68.454 166.309 68.3247 166.232L64.7061 164.062C64.5769 163.986 64.5731 163.858 64.7036 163.78L66.2435 162.851C66.3728 162.772 66.5845 162.773 66.7125 162.851L70.3323 165.021Z" fill="#4D4D4D"/>
<path d="M60.1408 65.2294L40.6309 103.444C39.1658 106.483 40.394 110.179 43.3522 111.631C46.4017 113.13 50.0367 111.636 51.2725 108.377L64.4843 71.3606L60.1408 65.2294Z" fill="#424242"/>
<path d="M69.1457 17.3728C62.8921 13.6256 57.2278 13.2781 53.1365 15.7473L48.9185 18.2915C53.0085 15.8223 58.674 16.1698 64.9263 19.9196C77.3625 27.3746 87.4033 45.4447 87.3627 60.2756C87.3424 67.6425 84.8392 72.8256 80.7999 75.2632L85.0192 72.7161C89.0585 70.2786 91.5617 65.0955 91.582 57.7288C91.6226 42.8992 81.5806 24.8291 69.1457 17.3728Z" fill="#424242"/>
<path d="M64.7849 70.2605C53.9216 63.7438 45.1395 47.9546 45.1775 34.9782C45.2142 22.0123 54.0509 16.7778 64.9142 23.2943C75.7978 29.8108 84.5698 45.6092 84.5419 58.5856C84.5051 71.5515 75.6672 76.7752 64.7849 70.2605ZM64.9243 19.917C52.5021 12.4633 42.3942 18.4626 42.3473 33.2843C42.3118 48.1178 52.355 66.1828 64.776 73.6271C77.216 81.0914 87.3239 75.1011 87.362 60.2795C87.4076 45.446 77.3631 27.3719 64.9243 19.917Z" fill="#333333"/>
<path d="M57.5029 73.066H79.8952V59.5343H57.5029V73.066Z" fill="#999999"/>
<path d="M50.232 46.8976C48.384 42.2001 47.3232 37.3301 47.3359 32.8063C47.3485 28.3365 48.4233 24.8144 50.2497 22.3439C48.5159 23.6087 47.1495 25.4962 46.2725 27.9496C47.4005 24.7604 49.3473 22.5176 51.8619 21.3712L51.8366 30.8176C50.0368 32.522 48.962 35.3624 48.9519 39.1373C48.9455 41.6341 49.4043 44.2783 50.232 46.8976Z" fill="#F4F4F4"/>
<path d="M51.8364 30.8176L51.8618 21.3713C52.8871 20.9027 54.005 20.6171 55.2015 20.5236V29.1079C53.915 29.3487 52.7769 29.9279 51.8364 30.8176Z" fill="#A3A3A3"/>
<path d="M80.2383 70.5652C80.5146 70.3138 80.7795 70.0444 81.033 69.7576L81.0672 69.7786C80.8226 70.0573 80.5653 70.3195 80.2979 70.5641C80.2916 70.5627 80.2852 70.5627 80.2801 70.5627C80.2662 70.5627 80.2523 70.5641 80.2383 70.5652ZM78.9214 70.3982C78.8302 69.9189 78.5475 69.4402 78.2117 69.2371L71.6387 65.2979C72.0025 65.1467 72.351 64.9637 72.6805 64.7504L75.1166 66.2115C75.2205 66.2732 75.3206 66.3025 75.4106 66.3025C75.673 66.3025 75.858 66.051 75.858 65.6284C75.858 65.0614 75.526 64.4043 75.1166 64.1582L74.0836 63.5396C74.3168 63.2763 74.5361 62.9907 74.7401 62.684C74.8263 62.7854 74.9201 62.8683 75.019 62.9276L82.6262 67.4896C82.4678 67.7909 82.3005 68.0819 82.1243 68.3606L77.3878 65.5205C77.2826 65.4573 77.1825 65.4285 77.0925 65.4285C76.8302 65.4285 76.6464 65.6798 76.6464 66.1025C76.6464 66.6681 76.9772 67.3262 77.3878 67.5724L80.7567 69.5915C80.1775 69.9246 79.5653 70.193 78.9214 70.3982ZM83.3474 65.8691L75.5374 61.1875C76.0481 59.9753 76.3777 58.5407 76.4892 56.9059L82.0863 60.2609C82.1902 60.3241 82.2891 60.3531 82.379 60.3531C82.6427 60.3531 82.8265 60.1004 82.8265 59.6792C82.8265 59.1119 82.4944 58.4538 82.0863 58.209L76.5184 54.8724C76.4563 53.1219 76.1736 51.3081 75.7059 49.4905L84.2929 54.6394C84.4577 55.9727 84.5413 57.2916 84.5375 58.5814C84.5362 58.9487 84.5287 59.3106 84.5134 59.6647L84.3664 59.5778C84.2625 59.5146 84.1623 59.4844 84.0723 59.4844C83.81 59.4844 83.6262 59.7371 83.6262 60.1583C83.6262 60.719 83.9507 61.3692 84.3537 61.6206C84.1611 63.1855 83.8201 64.6043 83.3474 65.8691ZM83.9406 52.3769L74.9429 46.9818C74.635 46.1013 74.2851 45.2247 73.8998 44.3612C73.9543 44.3797 74.0076 44.3889 74.057 44.3889C74.3206 44.3889 74.5044 44.1362 74.5044 43.715C74.5044 43.149 74.1723 42.4896 73.7629 42.2461L72.4321 41.4472C71.8352 40.3863 71.1824 39.3557 70.4853 38.3752L73.7629 40.3389C73.8681 40.4021 73.9683 40.4324 74.0583 40.4324C74.3206 40.4324 74.5044 40.1797 74.5044 39.7585C74.5044 39.1912 74.1723 38.5331 73.7629 38.2883L68.8909 35.3676C68.7869 35.3045 68.6868 35.2755 68.5968 35.2755C68.4359 35.2755 68.3041 35.3703 68.2267 35.5427C66.5588 33.6829 64.7197 32.1048 62.7843 30.9452C60.5625 29.6132 58.4623 28.9815 56.6004 28.9815C56.1175 28.9815 55.6498 29.0249 55.2012 29.1078V20.5236C55.4927 20.4999 55.7905 20.4893 56.0922 20.4893C58.7374 20.4893 61.7196 21.3804 64.8743 23.2652C64.873 23.2955 64.8718 23.3271 64.8718 23.3586C64.8718 23.9246 65.2026 24.5827 65.6132 24.8275L68.157 26.3543C68.2622 26.4175 68.3611 26.4478 68.4523 26.4478C68.6323 26.4478 68.7755 26.328 68.8478 26.1161C69.2141 26.4241 69.5753 26.7413 69.9327 27.069C70.0683 27.3652 70.2686 27.6192 70.4904 27.7534L70.9365 28.0206C72.1292 29.1934 73.2724 30.4701 74.3536 31.8271L70.4904 29.5119C70.3865 29.4487 70.2863 29.4197 70.1963 29.4197C69.9327 29.4197 69.7489 29.6711 69.7489 30.0923C69.7489 30.6596 70.081 31.3177 70.4904 31.5625L76.9645 35.4453C77.109 35.6664 77.2535 35.8915 77.3954 36.1166C78.6844 38.158 79.834 40.3087 80.815 42.5159L75.9632 39.6071C75.858 39.544 75.7592 39.515 75.6692 39.515C75.4068 39.515 75.223 39.7664 75.223 40.1889C75.223 40.7548 75.5538 41.413 75.9632 41.6578L81.9278 45.2339C82.8125 47.6017 83.4957 50.0025 83.9406 52.3769ZM75.6692 43.4715C75.4068 43.4715 75.223 43.7229 75.223 44.1454C75.223 44.7127 75.5538 45.3708 75.9632 45.6156L82.0863 49.2851C82.1902 49.3483 82.2903 49.3786 82.3803 49.3786C82.6427 49.3786 82.8265 49.1259 82.8265 48.7047C82.8265 48.1374 82.4944 47.4793 82.0863 47.2345L75.9632 43.5636C75.858 43.5004 75.7592 43.4715 75.6692 43.4715ZM65.3179 30.1094C65.0556 30.1094 64.8718 30.3608 64.8718 30.7833C64.8718 31.3493 65.2026 32.0074 65.6132 32.2535L68.157 33.779C68.2622 33.8422 68.3623 33.8711 68.4523 33.8711C68.7147 33.8711 68.8985 33.6197 68.8985 33.1985C68.8985 32.6313 68.5677 31.9732 68.157 31.727L65.6132 30.2016C65.508 30.1384 65.4079 30.1094 65.3179 30.1094ZM65.3192 26.4938C65.0556 26.4938 64.8718 26.7465 64.8718 27.169C64.8718 27.735 65.2026 28.3931 65.6132 28.6392L68.157 30.1647C68.2622 30.2279 68.3623 30.2568 68.4523 30.2568C68.7147 30.2568 68.8985 30.0041 68.8985 29.5843C68.8985 29.017 68.5677 28.3589 68.157 28.1128L65.6132 26.586C65.508 26.5241 65.4092 26.4938 65.3192 26.4938Z" fill="#999999"/>
<path d="M82.6263 67.4896L75.0191 62.9276C74.9202 62.8683 74.8264 62.7854 74.7402 62.6841C75.0406 62.2313 75.3068 61.7311 75.5375 61.1875L83.3475 65.8691C83.1333 66.4418 82.8925 66.9817 82.6263 67.4896Z" fill="#F4D3B6"/>
<path d="M68.4526 26.4479C68.3614 26.4479 68.2625 26.4176 68.1573 26.3544L65.6135 24.8276C65.2029 24.5828 64.8721 23.9247 64.8721 23.3587C64.8721 23.3272 64.8733 23.2956 64.8746 23.2653C64.8885 23.2732 64.9038 23.2824 64.9177 23.2903C66.2637 24.0985 67.5781 25.0474 68.8481 26.1162C68.7758 26.3281 68.6326 26.4479 68.4526 26.4479Z" fill="#8EBAF4"/>
<path d="M70.9369 28.0206L70.4908 27.7534C70.269 27.6192 70.0687 27.3652 69.9331 27.069C70.2715 27.377 70.6061 27.6955 70.9369 28.0206Z" fill="#D6E2F4"/>
<path d="M68.4526 30.2571C68.3626 30.2571 68.2625 30.2281 68.1573 30.165L65.6135 28.6395C65.2029 28.3933 64.8721 27.7352 64.8721 27.1693C64.8721 26.7468 65.0559 26.4941 65.3195 26.4941C65.4095 26.4941 65.5083 26.5243 65.6135 26.5862L68.1573 28.113C68.568 28.3591 68.8988 29.0172 68.8988 29.5845C68.8988 30.0044 68.715 30.2571 68.4526 30.2571Z" fill="#8EBAF4"/>
<path d="M68.4526 33.8713C68.3626 33.8713 68.2625 33.8424 68.1573 33.7792L65.6135 32.2537C65.2029 32.0076 64.8721 31.3495 64.8721 30.7835C64.8721 30.361 65.0559 30.1096 65.3182 30.1096C65.4082 30.1096 65.5083 30.1386 65.6135 30.2018L68.1573 31.7273C68.568 31.9734 68.8988 32.6315 68.8988 33.1988C68.8988 33.6199 68.715 33.8713 68.4526 33.8713Z" fill="#8EBAF4"/>
<path d="M75.4108 66.3025C75.3208 66.3025 75.2206 66.2731 75.1167 66.2114L72.6807 64.7503C73.1927 64.4202 73.6629 64.0147 74.0837 63.5395L75.1167 64.1581C75.5261 64.4043 75.8582 65.0613 75.8582 65.6283C75.8582 66.051 75.6731 66.3025 75.4108 66.3025Z" fill="#D6E2F4"/>
<path d="M81.0673 69.7787L81.0331 69.7576C81.2346 69.5282 81.4286 69.2876 81.6161 69.0346C81.3386 69.2363 81.0521 69.4229 80.7568 69.5915L77.3879 67.5725C76.9773 67.3262 76.6465 66.6681 76.6465 66.1025C76.6465 65.6799 76.8303 65.4285 77.0926 65.4285C77.1826 65.4285 77.2827 65.4573 77.3879 65.5205L82.1244 68.3606C81.8012 68.8727 81.4476 69.3467 81.0673 69.7787Z" fill="#F4D3B6"/>
<path d="M74.0581 40.4324C73.9681 40.4324 73.868 40.4021 73.7628 40.3389L70.4851 38.3752C69.7766 37.3775 69.0213 36.4272 68.2266 35.5427C68.3039 35.3703 68.4357 35.2755 68.5966 35.2755C68.6866 35.2755 68.7868 35.3044 68.8907 35.3676L73.7628 38.2883C74.1722 38.5331 74.5042 39.1912 74.5042 39.7585C74.5042 40.1797 74.3205 40.4324 74.0581 40.4324Z" fill="#D6E2F4"/>
<path d="M81.9279 45.2339L75.9633 41.6578C75.5539 41.413 75.2231 40.7549 75.2231 40.1889C75.2231 39.7664 75.4069 39.515 75.6693 39.515C75.7593 39.515 75.8581 39.544 75.9633 39.6071L80.8151 42.5159C81.2144 43.4136 81.5857 44.3218 81.9279 45.2339Z" fill="#F4D3B6"/>
<path d="M74.0575 44.3889C74.0081 44.3889 73.9548 44.3797 73.9003 44.3613C73.458 43.3702 72.9675 42.3962 72.4326 41.4472L73.7634 42.2461C74.1728 42.4896 74.5049 43.1491 74.5049 43.715C74.5049 44.1362 74.3211 44.3889 74.0575 44.3889Z" fill="#D6E2F4"/>
<path d="M84.354 61.6206C83.9509 61.3692 83.6265 60.719 83.6265 60.1583C83.6265 59.7371 83.8102 59.4844 84.0726 59.4844C84.1626 59.4844 84.2627 59.5147 84.3666 59.5779L84.5137 59.6647C84.4858 60.3399 84.4313 60.9915 84.354 61.6206Z" fill="#D6E2F4"/>
<path d="M84.2928 54.6394L75.7059 49.4904C75.4891 48.6533 75.2344 47.8162 74.9429 46.9818L83.9405 52.3769C84.0824 53.135 84.2003 53.8892 84.2928 54.6394Z" fill="#EFEFEF"/>
<path d="M82.3804 49.3787C82.2904 49.3787 82.1903 49.3484 82.0864 49.2852L75.9633 45.6157C75.5539 45.3708 75.2231 44.7127 75.2231 44.1455C75.2231 43.723 75.4069 43.4716 75.6693 43.4716C75.7593 43.4716 75.8581 43.5005 75.9633 43.5637L82.0864 47.2346C82.4945 47.4794 82.8266 48.1375 82.8266 48.7048C82.8266 49.126 82.6428 49.3787 82.3804 49.3787Z" fill="#F4D3B6"/>
<path d="M82.3791 60.3531C82.2891 60.3531 82.1902 60.3242 82.0863 60.261L76.4893 56.906C76.5171 56.5072 76.5311 56.0966 76.5323 55.6741C76.5336 55.4082 76.5285 55.141 76.5184 54.8725L82.0863 58.2091C82.4944 58.4539 82.8265 59.112 82.8265 59.6793C82.8265 60.1004 82.6427 60.3531 82.3791 60.3531Z" fill="#F4D3B6"/>
<path d="M76.9651 35.4454L70.491 31.5626C70.0816 31.3178 69.7495 30.6597 69.7495 30.0924C69.7495 29.6713 69.9333 29.4199 70.1969 29.4199C70.2869 29.4199 70.387 29.4488 70.491 29.512L74.3541 31.8272C75.2718 32.9789 76.145 34.1898 76.9651 35.4454Z" fill="#D6E2F4"/>
<path d="M77.3309 70.7616L70.4905 66.6603C70.2167 66.4969 69.9771 66.1473 69.8491 65.7653C70.4803 65.6861 71.0786 65.5297 71.6388 65.2979L78.2117 69.2372C78.5476 69.4403 78.8303 69.919 78.9215 70.3982C78.4107 70.5601 77.8797 70.6814 77.3309 70.7616Z" fill="#D6E2F4"/>
<path d="M79.8721 70.9314C79.8784 70.9077 79.886 70.8851 79.8949 70.8645C80.0115 70.7669 80.1255 70.6682 80.2383 70.5652C80.2523 70.5642 80.2662 70.5627 80.2802 70.5627C80.2853 70.5627 80.2916 70.5627 80.2979 70.5642C80.1585 70.6907 80.0166 70.8131 79.8721 70.9314Z" fill="#F4D3B6"/>
<path d="M66.948 68.0831C56.0796 61.568 47.2988 45.7736 47.3355 32.8064C47.3482 28.3366 48.423 24.8145 50.2494 22.344C47.1137 24.6302 45.1821 28.9579 45.1656 34.9808C45.1301 47.9506 53.9098 63.7437 64.7781 70.2604C71.9075 74.5349 78.1434 73.7324 81.6162 69.0347C77.9989 71.6697 72.7745 71.5777 66.948 68.0831Z" fill="#424242"/>
<path d="M51.7815 50.8818C51.1769 49.5762 50.6559 48.2402 50.2313 46.8977C49.4037 44.2785 48.9449 41.6342 48.9512 39.1374C48.9614 35.3625 50.0362 32.5222 51.8359 30.8177L51.7815 50.8818Z" fill="#EFEFEF"/>
<path d="M55.2013 56.7152C53.8895 54.9068 52.7323 52.9324 51.7817 50.8818L51.8362 30.8177C52.7767 29.9279 53.9149 29.3488 55.2013 29.1079V56.7152Z" fill="#D9D9D9"/>
<path d="M68.8871 65.8234C67.0239 65.8234 64.9199 65.1915 62.6956 63.8582C60.8565 62.7552 59.1036 61.2745 57.5028 59.5344C56.6942 58.6552 55.9236 57.7102 55.2012 56.7151V29.1079C55.6498 29.0249 56.1175 28.9815 56.6004 28.9815C58.4623 28.9815 60.5625 29.6133 62.7843 30.9453C64.7197 32.1048 66.5588 33.683 68.2267 35.5428C68.1786 35.6494 68.1519 35.7862 68.1519 35.9481C68.1519 36.5154 68.4815 37.1735 68.8909 37.4197L70.4853 38.3752C71.1824 39.3558 71.8352 40.3864 72.4321 41.4472L68.8909 39.3242C68.7869 39.261 68.6868 39.2321 68.5968 39.2321C68.3345 39.2321 68.1519 39.4835 68.1519 39.9046C68.1519 40.4719 68.4815 41.13 68.8909 41.3748L73.7629 44.2968C73.8098 44.3244 73.8555 44.3468 73.8998 44.3613C74.2851 45.2247 74.635 46.1013 74.9429 46.9818L66.8009 42.1001C66.6969 42.0382 66.5968 42.0079 66.5068 42.0079C66.2432 42.0079 66.0594 42.2606 66.0594 42.6831C66.0594 43.2478 66.3915 43.9059 66.8009 44.152L75.7059 49.4905C76.1736 51.3082 76.4563 53.1219 76.5184 54.8725L75.9632 54.5381C75.858 54.4763 75.7592 54.446 75.6692 54.446C75.4068 54.446 75.223 54.6974 75.223 55.1199C75.223 55.6872 75.5538 56.3453 75.9632 56.5901L76.4892 56.906C76.3777 58.5407 76.0482 59.9754 75.5374 61.1876L75.019 60.877C74.915 60.8138 74.8162 60.7848 74.7262 60.7848C74.4638 60.7848 74.2801 61.0375 74.2801 61.4587C74.2801 61.8878 74.4702 62.3695 74.7401 62.6841C74.5361 62.9908 74.3168 63.2764 74.0836 63.5396L70.1621 61.1876C70.0582 61.1257 69.9593 61.0954 69.8681 61.0954C69.6057 61.0954 69.4219 61.3482 69.4219 61.7707C69.4219 62.3366 69.7527 62.9947 70.1621 63.2409L72.6805 64.7504C72.351 64.9638 72.0025 65.1467 71.6387 65.2979L70.4904 64.6094C70.3865 64.5468 70.2863 64.5174 70.1963 64.5174C69.9327 64.5174 69.7489 64.7688 69.7489 65.1899C69.7489 65.3781 69.7857 65.5755 69.849 65.7653C69.536 65.8034 69.2153 65.8234 68.8871 65.8234ZM65.3179 61.5917C65.0556 61.5917 64.8718 61.8444 64.8718 62.2669C64.8718 62.8328 65.2026 63.4909 65.6132 63.7357L68.157 65.2624C68.2622 65.3257 68.3611 65.3544 68.4523 65.3544C68.7147 65.3544 68.8985 65.102 68.8985 64.6809C68.8985 64.1148 68.5677 63.4567 68.157 63.2106L65.6132 61.6838C65.508 61.6219 65.4092 61.5917 65.3179 61.5917ZM65.3179 58.3683C65.0556 58.3683 64.8718 58.621 64.8718 59.0422C64.8718 59.6081 65.2026 60.2662 65.6132 60.5124L68.157 62.0392C68.2622 62.101 68.3611 62.1313 68.4523 62.1313C68.7147 62.1313 68.8985 61.8786 68.8985 61.4561C68.8985 60.8901 68.5677 60.232 68.157 59.9872L65.6132 58.4604C65.508 58.3972 65.4092 58.3683 65.3179 58.3683ZM67.5321 56.4703C67.2685 56.4703 67.0848 56.723 67.0848 57.1455C67.0848 57.7128 67.4168 58.3709 67.8262 58.6144L72.9226 61.6706C73.0278 61.7338 73.1279 61.7641 73.2179 61.7641C73.4803 61.7641 73.6641 61.5114 73.6641 61.0902C73.6641 60.5229 73.332 59.8648 72.9226 59.62L67.8262 56.5638C67.721 56.5006 67.6221 56.4703 67.5321 56.4703ZM62.9199 53.7063C62.6576 53.7063 62.4738 53.959 62.4738 54.3802C62.4738 54.9462 62.8046 55.6043 63.214 55.8504L65.7603 57.3772C65.8642 57.439 65.9631 57.4693 66.053 57.4693C66.3167 57.4693 66.5005 57.2166 66.5005 56.7941C66.5005 56.2295 66.1684 55.5714 65.7603 55.3252L63.214 53.7984C63.11 53.7353 63.0099 53.7063 62.9199 53.7063ZM70.2369 51.1897C69.9745 51.1897 69.7907 51.4424 69.7907 51.8636C69.7907 52.4296 70.1216 53.0877 70.5322 53.3325L73.7629 55.2713C73.8681 55.3344 73.967 55.3634 74.0583 55.3634C74.3206 55.3634 74.5044 55.112 74.5044 54.6908C74.5044 54.1235 74.1723 53.4654 73.7629 53.2206L70.5322 51.2819C70.427 51.2187 70.3281 51.1897 70.2369 51.1897ZM63.8832 50.8396C63.6208 50.8396 63.437 51.0923 63.437 51.5148C63.437 52.0795 63.7691 52.7389 64.1772 52.9837L66.7235 54.5105C66.8275 54.5737 66.9276 54.6026 67.0176 54.6026C67.2799 54.6026 67.465 54.3499 67.465 53.9287C67.465 53.3628 67.1329 52.7047 66.7235 52.4586L64.1772 50.9317C64.0733 50.8699 63.9732 50.8396 63.8832 50.8396ZM65.3192 48.2401C65.0556 48.2401 64.8718 48.4915 64.8718 48.914C64.8718 49.4813 65.2026 50.1394 65.6132 50.3842L68.157 51.9097C68.2622 51.9729 68.3611 52.0031 68.4523 52.0031C68.7147 52.0031 68.8985 51.7504 68.8985 51.3292C68.8985 50.762 68.5677 50.1039 68.157 49.8591L65.6132 48.3323C65.508 48.2691 65.4092 48.2401 65.3192 48.2401ZM65.3179 44.6903C65.0556 44.6903 64.8718 44.9431 64.8718 45.3642C64.8718 45.9302 65.2026 46.5883 65.6132 46.8344L68.157 48.3612C68.2622 48.4231 68.3611 48.4534 68.451 48.4534C68.7147 48.4534 68.8985 48.202 68.8985 47.7795C68.8985 47.2122 68.5677 46.5541 68.157 46.3093L65.6132 44.7825C65.508 44.7206 65.4092 44.6903 65.3179 44.6903ZM63.8832 36.4049C63.6208 36.4049 63.437 36.6576 63.437 37.0801C63.437 37.646 63.7691 38.3041 64.1772 38.549L66.7235 40.0757C66.8275 40.1389 66.9276 40.1679 67.0176 40.1679C67.2799 40.1679 67.465 39.9165 67.465 39.494C67.465 38.9267 67.1329 38.2686 66.7235 38.0251L64.1772 36.497C64.0733 36.4351 63.9732 36.4049 63.8832 36.4049ZM63.8832 32.4484C63.6208 32.4484 63.437 32.6998 63.437 33.1223C63.437 33.6895 63.7691 34.3477 64.1772 34.5925L66.7235 36.1179C66.8275 36.1811 66.9276 36.2114 67.0176 36.2114C67.2812 36.2114 67.465 35.9587 67.465 35.5375C67.465 34.9702 67.1329 34.3121 66.7235 34.0673L64.1772 32.5418C64.072 32.4786 63.9732 32.4484 63.8832 32.4484Z" fill="#D7D7D7"/>
<path d="M66.0534 57.4694C65.9634 57.4694 65.8645 57.4391 65.7606 57.3772L63.2143 55.8504C62.8049 55.6043 62.4741 54.9462 62.4741 54.3802C62.4741 53.9591 62.6579 53.7064 62.9203 53.7064C63.0103 53.7064 63.1104 53.7353 63.2143 53.7985L65.7606 55.3253C66.1687 55.5714 66.5008 56.2295 66.5008 56.7941C66.5008 57.2166 66.317 57.4694 66.0534 57.4694Z" fill="#D5DFEF"/>
<path d="M73.2181 61.764C73.1281 61.764 73.028 61.7338 72.9228 61.6706L67.8264 58.6144C67.417 58.3709 67.085 57.7128 67.085 57.1455C67.085 56.723 67.2687 56.4703 67.5323 56.4703C67.6223 56.4703 67.7212 56.5006 67.8264 56.5637L72.9228 59.6199C73.3322 59.8648 73.6643 60.5229 73.6643 61.0901C73.6643 61.5113 73.4805 61.764 73.2181 61.764Z" fill="#E6EAEF"/>
<path d="M74.7403 62.6842C74.4704 62.3696 74.2803 61.8879 74.2803 61.4588C74.2803 61.0376 74.464 60.7849 74.7264 60.7849C74.8164 60.7849 74.9152 60.8139 75.0192 60.8771L75.5376 61.1877C75.3069 61.7313 75.0407 62.2314 74.7403 62.6842Z" fill="#EFE6DE"/>
<path d="M68.4513 48.4535C68.3614 48.4535 68.2625 48.4232 68.1573 48.3614L65.6135 46.8346C65.2029 46.5884 64.8721 45.9303 64.8721 45.3644C64.8721 44.9432 65.0559 44.6905 65.3182 44.6905C65.4095 44.6905 65.5083 44.7207 65.6135 44.7826L68.1573 46.3094C68.568 46.5542 68.8988 47.2123 68.8988 47.7796C68.8988 48.2021 68.715 48.4535 68.4513 48.4535Z" fill="#D5DFEF"/>
<path d="M68.4526 52.0032C68.3614 52.0032 68.2625 51.9729 68.1573 51.9097L65.6135 50.3843C65.2029 50.1394 64.8721 49.4813 64.8721 48.9141C64.8721 48.4916 65.0559 48.2402 65.3195 48.2402C65.4095 48.2402 65.5083 48.2691 65.6135 48.3323L68.1573 49.8591C68.568 50.1039 68.8988 50.762 68.8988 51.3293C68.8988 51.7505 68.715 52.0032 68.4526 52.0032Z" fill="#D5DFEF"/>
<path d="M68.4526 62.1313C68.3614 62.1313 68.2625 62.1011 68.1573 62.0392L65.6135 60.5124C65.2029 60.2663 64.8721 59.6082 64.8721 59.0422C64.8721 58.621 65.0559 58.3683 65.3182 58.3683C65.4095 58.3683 65.5083 58.3973 65.6135 58.4605L68.1573 59.9873C68.568 60.2321 68.8988 60.8902 68.8988 61.4561C68.8988 61.8786 68.715 62.1313 68.4526 62.1313Z" fill="#D5DFEF"/>
<path d="M72.6805 64.7505L70.162 63.2409C69.7527 62.9948 69.4219 62.3367 69.4219 61.7707C69.4219 61.3482 69.6057 61.0955 69.868 61.0955C69.9593 61.0955 70.0581 61.1258 70.162 61.1877L74.0836 63.5397C73.6628 64.0149 73.1925 64.4204 72.6805 64.7505Z" fill="#E6EAEF"/>
<path d="M67.0176 36.2113C66.9276 36.2113 66.8274 36.181 66.7235 36.1179L64.1772 34.5924C63.7691 34.3476 63.437 33.6895 63.437 33.1222C63.437 32.6997 63.6208 32.4483 63.8832 32.4483C63.9731 32.4483 64.072 32.4786 64.1772 32.5417L66.7235 34.0672C67.1329 34.312 67.465 34.9701 67.465 35.5374C67.465 35.9586 67.2812 36.2113 67.0176 36.2113Z" fill="#D5DFEF"/>
<path d="M70.4852 38.3754L68.8908 37.4198C68.4814 37.1737 68.1519 36.5156 68.1519 35.9483C68.1519 35.7864 68.1785 35.6495 68.2266 35.5429C69.0213 36.4274 69.7767 37.3777 70.4852 38.3754Z" fill="#E6EAEF"/>
<path d="M67.0176 40.168C66.9276 40.168 66.8274 40.139 66.7235 40.0758L64.1772 38.549C63.7691 38.3042 63.437 37.6461 63.437 37.0802C63.437 36.6577 63.6208 36.4049 63.8832 36.4049C63.9731 36.4049 64.0733 36.4352 64.1772 36.4971L66.7235 38.0252C67.1329 38.2687 67.465 38.9268 67.465 39.4941C67.465 39.9166 67.2799 40.168 67.0176 40.168Z" fill="#D5DFEF"/>
<path d="M67.0176 54.6027C66.9276 54.6027 66.8274 54.5737 66.7235 54.5105L64.1772 52.9837C63.7691 52.7389 63.437 52.0795 63.437 51.5149C63.437 51.0924 63.6208 50.8397 63.8832 50.8397C63.9731 50.8397 64.0733 50.8699 64.1772 50.9318L66.7235 52.4586C67.1329 52.7047 67.465 53.3628 67.465 53.9288C67.465 54.35 67.2799 54.6027 67.0176 54.6027Z" fill="#D5DFEF"/>
<path d="M73.8997 44.3613C73.8554 44.3468 73.8097 44.3245 73.7629 44.2968L68.8908 41.3749C68.4814 41.1301 68.1519 40.472 68.1519 39.9047C68.1519 39.4835 68.3344 39.2321 68.5967 39.2321C68.6867 39.2321 68.7869 39.2611 68.8908 39.3242L72.432 41.4473C72.9669 42.3962 73.4574 43.3702 73.8997 44.3613Z" fill="#E6EAEF"/>
<path d="M74.0585 55.3634C73.9673 55.3634 73.8684 55.3345 73.7632 55.2713L70.5325 53.3325C70.1218 53.0877 69.791 52.4296 69.791 51.8636C69.791 51.4424 69.9748 51.1897 70.2372 51.1897C70.3284 51.1897 70.4273 51.2187 70.5325 51.2819L73.7632 53.2206C74.1726 53.4654 74.5046 54.1235 74.5046 54.6908C74.5046 55.112 74.3209 55.3634 74.0585 55.3634Z" fill="#E6EAEF"/>
<path d="M75.7061 49.4904L66.801 44.1519C66.3917 43.9057 66.0596 43.2476 66.0596 42.683C66.0596 42.2605 66.2434 42.0078 66.507 42.0078C66.597 42.0078 66.6971 42.038 66.801 42.0999L74.9431 46.9817C75.2346 47.8162 75.4894 48.6533 75.7061 49.4904Z" fill="#EEEEEE"/>
<path d="M76.4893 56.906L75.9633 56.5901C75.5539 56.3453 75.2231 55.6872 75.2231 55.1199C75.2231 54.6974 75.4069 54.446 75.6693 54.446C75.7593 54.446 75.8581 54.4763 75.9633 54.5382L76.5185 54.8725C76.5286 55.141 76.5337 55.4082 76.5324 55.674C76.5311 56.0965 76.5172 56.5072 76.4893 56.906Z" fill="#EFE6DE"/>
<path d="M68.4526 65.3545C68.3614 65.3545 68.2625 65.3258 68.1573 65.2625L65.6135 63.7358C65.2029 63.491 64.8721 62.8329 64.8721 62.267C64.8721 61.8445 65.0559 61.5917 65.3182 61.5917C65.4095 61.5917 65.5083 61.622 65.6135 61.6839L68.1573 63.2107C68.568 63.4568 68.8988 64.1149 68.8988 64.681C68.8988 65.102 68.715 65.3545 68.4526 65.3545Z" fill="#D5DFEF"/>
<path d="M69.8496 65.7654C69.7862 65.5756 69.7495 65.3782 69.7495 65.1899C69.7495 64.7689 69.9333 64.5175 70.1969 64.5175C70.2869 64.5175 70.387 64.5468 70.491 64.6095L71.6393 65.298C71.0791 65.5298 70.4808 65.6861 69.8496 65.7654Z" fill="#E6EAEF"/>
<path d="M121.042 172.841C120.317 173.275 119.153 173.275 118.433 172.841L99.4698 161.396C98.7575 160.967 98.7625 160.267 99.4862 159.833L118.575 148.387C119.29 147.959 120.464 147.953 121.175 148.382L140.138 159.828C140.858 160.262 140.846 160.967 140.131 161.396L121.042 172.841Z" fill="#F2F2F2"/>
<path d="M120.936 171.086L138.252 160.705C138.581 160.508 138.745 160.249 138.745 159.988L138.735 158.173C138.736 158.433 138.57 158.693 138.243 158.891L120.926 169.273C120.27 169.666 119.214 169.666 118.561 169.273L101.357 158.891C101.037 158.697 100.878 158.444 100.876 158.19L100.887 160.005C100.887 160.259 101.048 160.512 101.367 160.705L118.57 171.086C119.224 171.481 120.28 171.481 120.936 171.086Z" fill="#FFAD66"/>
<path d="M120.926 169.273C120.27 169.666 119.214 169.666 118.561 169.273L101.357 158.891C100.712 158.501 100.716 157.866 101.373 157.473L118.69 147.09C119.338 146.701 120.402 146.696 121.047 147.085L138.251 157.467C138.904 157.861 138.892 158.502 138.243 158.891L120.926 169.273Z" fill="#FFD166"/>
<path d="M113.84 154.688L114.983 157.278L113.93 157.91L111.983 153.576L119.202 154.748L118.15 155.38L113.84 154.688Z" fill="black"/>
<path d="M114.557 160.01L113.676 159.481C116.885 158.602 119.29 157.941 120.889 157.497L124.496 156.504L125.379 157.034L114.557 160.01Z" fill="black"/>
<path d="M125.282 161.549L124.131 158.954L125.173 158.328L127.14 162.663L119.9 161.488L120.964 160.851L125.282 161.549Z" fill="black"/>
<path d="M108.686 195.674C107.961 196.109 106.798 196.109 106.078 195.674L87.1143 184.23C86.4032 183.801 86.4071 183.1 87.1308 182.666L106.22 171.222C106.935 170.793 108.108 170.788 108.819 171.215L127.783 182.66C128.504 183.095 128.49 183.801 127.775 184.23L108.686 195.674Z" fill="#F2F2F2"/>
<path d="M108.581 193.921L125.897 183.539C126.226 183.342 126.39 183.082 126.39 182.821L126.38 181.006C126.381 181.267 126.215 181.527 125.888 181.724L108.571 192.106C107.915 192.501 106.859 192.501 106.206 192.106L89.0019 181.724C88.6825 181.531 88.5228 181.277 88.5215 181.023L88.5316 182.838C88.5316 183.092 88.6926 183.346 89.012 183.537L106.215 193.921C106.868 194.316 107.924 194.316 108.581 193.921Z" fill="#1F2125"/>
<path d="M108.571 192.106C107.914 192.501 106.859 192.501 106.206 192.106L89.0016 181.724C88.3564 181.334 88.3602 180.7 89.0167 180.305L106.335 169.924C106.983 169.535 108.048 169.529 108.691 169.919L125.896 180.3C126.55 180.695 126.537 181.334 125.888 181.724L108.571 192.106Z" fill="#4D4D4D"/>
<path d="M108.868 178.213C110.359 177.83 111.737 177.63 112.999 177.61L113.424 178.511C112.224 178.566 110.982 178.768 109.694 179.118C108.406 179.468 107.191 179.986 106.046 180.673C104.902 181.359 104.035 182.089 103.448 182.865C102.86 183.636 102.525 184.382 102.44 185.097L100.928 184.848C100.968 184.087 101.307 183.258 101.947 182.364C102.586 181.47 103.526 180.65 104.767 179.906C106.008 179.161 107.374 178.598 108.868 178.213Z" fill="white"/>
</svg>
