<svg width="30" height="30" viewBox="0 0 30 30" fill="none" xmlns="http://www.w3.org/2000/svg">
<g clip-path="url(#clip0_529_124)">
<path d="M10.0999 25C11.9482 25.0618 13.7902 24.7525 15.517 24.0904C17.2438 23.4282 18.8204 22.4266 20.1535 21.1448C21.4866 19.8629 22.5492 18.3269 23.2786 16.6274C24.0079 14.9278 24.3892 13.0994 24.3999 11.25C25.2469 10.2018 25.8759 8.99478 26.2499 7.69999C26.2778 7.5977 26.2755 7.48951 26.2434 7.38846C26.2112 7.28741 26.1506 7.19781 26.0687 7.13045C25.9868 7.06309 25.8872 7.02083 25.7818 7.00878C25.6765 6.99672 25.5699 7.01538 25.4749 7.06249C25.0317 7.27581 24.5328 7.34472 24.0484 7.2595C23.564 7.17429 23.1186 6.93925 22.7749 6.58749C22.3361 6.10697 21.8053 5.71941 21.2139 5.44778C20.6226 5.17615 19.9827 5.02598 19.3323 5.00616C18.6819 4.98635 18.0341 5.09729 17.4273 5.33242C16.8205 5.56754 16.2671 5.92207 15.7999 6.37499C15.1601 6.99457 14.6915 7.76911 14.4396 8.62334C14.1877 9.47757 14.1611 10.3824 14.3624 11.25C10.1749 11.5 7.29987 9.5125 4.99987 6.78749C4.93077 6.70925 4.84039 6.65281 4.73975 6.62508C4.63911 6.59735 4.53257 6.59953 4.43315 6.63134C4.33373 6.66316 4.24572 6.72324 4.17988 6.80424C4.11403 6.88524 4.0732 6.98367 4.06237 7.08749C3.62421 9.51802 3.94028 12.0244 4.96814 14.2701C5.996 16.5157 7.68642 18.3931 9.81237 19.65C8.38691 21.2848 6.38513 22.3058 4.22487 22.5C4.10913 22.5192 4.0023 22.5741 3.91931 22.657C3.83632 22.7399 3.78134 22.8467 3.76205 22.9624C3.74276 23.0782 3.76014 23.197 3.81175 23.3024C3.86336 23.4077 3.94661 23.4943 4.04987 23.55C5.92927 24.4892 7.99891 24.9852 10.0999 25Z" fill="white" fill-opacity="0.6"/>
</g>
<defs>
<clipPath id="clip0_529_124">
<rect width="30" height="30" fill="white"/>
</clipPath>
</defs>
</svg>
