<svg width="204" height="170" viewBox="0 0 204 170" fill="none" xmlns="http://www.w3.org/2000/svg">
<path d="M40.2064 168.266L129.354 117.817C131.596 116.545 131.315 114.324 128.728 112.854L99.4033 96.2119C96.8161 94.7412 92.9012 94.5823 90.6613 95.8547L1.51339 146.304C-0.727864 147.576 -0.447349 149.797 2.13984 151.266L31.4645 167.911C34.0517 169.379 37.9665 169.538 40.2064 168.266Z" fill="#F2F2F2"/>
<path d="M163.794 122.892L94.053 83.3227C91.8117 82.0503 92.0936 79.8299 94.6794 78.3606L124.005 61.7175C126.593 60.2481 130.506 60.0893 132.746 61.3616L202.487 100.93C204.728 102.201 204.447 104.422 201.86 105.892L172.536 122.535C169.948 124.004 166.034 124.164 163.794 122.892Z" fill="#F2F2F2"/>
<path d="M152.412 69.6785L130.329 82.2932C129.493 82.7711 128.53 83.0377 127.446 83.0849C125.441 83.1821 123.221 82.5387 120.747 81.135C118.383 79.7944 116.238 77.939 114.296 75.582C112.354 73.2238 110.814 70.662 109.692 67.8849C108.57 65.088 108.014 62.3647 108.021 59.6939L130.104 47.0793C130.096 49.7488 130.653 52.472 131.775 55.2702C132.897 58.046 134.437 60.6078 136.379 62.9648C138.321 65.3231 140.466 67.1771 142.829 68.5204C145.304 69.9227 147.523 70.5661 149.527 70.469C150.613 70.4217 151.575 70.1551 152.412 69.6785Z" fill="#FFD39C"/>
<path d="M157.597 78.2305L135.514 90.8464C136.525 90.2687 137.419 89.4822 138.195 88.4869C139.969 86.1811 140.869 82.8853 140.882 78.6126L162.965 65.9966C162.953 70.2707 162.051 73.5639 160.277 75.8709C159.5 76.8662 158.608 77.6528 157.597 78.2305Z" fill="#FF9207"/>
<path d="M100.967 16.6765L123.051 4.06188L130.216 8.12841L108.135 20.7444L100.967 16.6765Z" fill="#FFD39C"/>
<path d="M108.135 20.7446L130.216 8.12858L130.104 47.0795L108.021 59.6941L108.135 20.7446Z" fill="#FF9207"/>
<path d="M140.995 39.3954L163.078 26.7808L162.965 65.9968L140.883 78.6128L140.995 39.3954Z" fill="#FF9207"/>
<path d="M133.976 35.4114L156.06 22.7955L163.078 26.7806L140.995 39.3953L133.976 35.4114Z" fill="#FFD39C"/>
<path d="M140.995 39.3953L140.883 78.6127C140.87 82.8855 139.969 86.1813 138.196 88.487C136.403 90.7836 133.995 91.9679 130.935 92.0415C127.875 92.115 124.47 91.0882 120.724 88.9624C117.033 86.8667 113.671 84.0541 110.621 80.5128C107.571 76.9701 105.178 73.0611 103.441 68.7621C101.705 64.4631 100.844 60.1667 100.856 55.894L100.968 16.6766L108.135 20.7445L108.021 59.694C108.015 62.3648 108.57 65.0882 109.692 67.885C110.814 70.6621 112.354 73.2239 114.296 75.5822C116.238 77.9391 118.384 79.7945 120.748 81.1351C123.221 82.5388 125.441 83.1822 127.446 83.085C129.431 82.9984 131 82.1804 132.152 80.6743C133.286 79.1367 133.857 77.0318 133.864 74.3624L133.976 35.4115L140.995 39.3953Z" fill="#FFBE6A"/>
<path d="M162.854 51.8024L184.938 39.1864L184.765 99.5009L162.682 112.118L162.854 51.8024Z" fill="#FF9207"/>
<path d="M155.69 47.7358L177.773 35.1198L184.938 39.1864L162.854 51.8024L155.69 47.7358Z" fill="#FFD39C"/>
<path d="M162.855 51.8024L162.682 112.118L155.515 108.05L155.69 47.7358L162.855 51.8024Z" fill="#FFBE6A"/>
<path d="M86.8883 80.3696C84.0807 79.6737 83.1231 83.0758 82.4459 84.9929C82.2282 85.61 81.8822 86.6395 81.2171 86.9415C80.6053 87.2185 79.5114 87.0754 78.8316 87.1148C76.8147 87.2343 74.7939 87.2802 72.773 87.2842C68.7246 87.2907 64.6788 87.1266 60.6304 87.0386C57.1924 86.9651 53.7504 86.9467 50.3164 87.1358C49.0114 87.208 47.6904 87.3131 46.459 87.7437C45.8085 87.9709 45.1794 88.2966 44.7026 88.7877C44.3045 89.2026 44.0294 89.716 43.7756 90.2307C43.1852 91.4295 42.6737 92.6914 42.5428 94.0176C42.4146 95.3425 42.7017 96.7527 43.5646 97.7808C45.122 99.6336 47.9322 99.7334 50.3738 99.5876C57.4609 99.1648 64.5199 97.9647 71.6177 98.2194C76.0828 98.3796 80.5506 99.1149 84.9971 98.6777C85.9961 98.5805 87.0633 98.3638 87.9075 97.8019C89.0014 97.0731 89.1403 96.0554 89.2925 94.854C89.6719 91.8694 90.0018 88.8638 89.8923 85.8516C89.8535 84.7355 89.748 83.5984 89.2952 82.5742C88.8437 81.55 87.9902 80.6427 86.8883 80.3696Z" fill="#333333"/>
<path d="M87.0967 125.289C87.9021 125.453 88.7196 125.572 89.5036 125.814C90.9421 126.252 92.2177 127.08 93.5079 127.842C94.145 128.221 94.8623 128.597 95.5956 128.467C96.1953 128.362 96.6868 127.928 97.0248 127.429C97.6699 126.478 97.8502 125.279 97.7353 124.144C97.6191 123.008 97.2318 121.917 96.8164 120.85C96.1699 119.188 95.4099 117.495 94.0609 116.308C92.6518 115.07 90.7284 114.5 89.3447 113.235C88.2294 112.216 87.4693 110.755 86.0789 110.145C84.7967 109.582 83.3061 109.891 81.9624 110.291C81.5003 110.429 81.0154 110.591 80.7069 110.955C80.4718 111.232 80.3676 111.589 80.2461 111.931C79.8373 113.089 79.1722 114.158 78.3107 115.043C77.8379 115.527 77.3009 115.968 76.9844 116.563C76.5289 117.427 76.6251 118.497 77.0378 119.382C78.3294 122.15 81.6873 123.637 84.4441 124.572C85.3123 124.866 86.1978 125.105 87.0967 125.289Z" fill="#FF9207"/>
<path d="M43.6099 98.5345C45.0952 100.891 47.4526 102.568 49.75 104.179C56.7689 109.099 63.8413 114.013 71.5575 117.793C74.1006 119.039 76.7319 120.174 78.9972 121.86C79.3298 119.464 80.1098 117.126 81.2865 115.002C81.3693 114.856 81.4548 114.692 81.4174 114.528C81.388 114.402 81.2919 114.302 81.1984 114.211C78.2626 111.313 75.3281 108.414 72.3923 105.516C69.9413 103.096 67.489 100.676 64.9406 98.3559C60.0827 93.9401 54.4689 89.7291 47.8867 89.0778C46.288 88.9202 44.5248 89.1421 43.5204 90.492C42.4145 91.9797 42.0899 93.7589 42.4332 95.563C42.6335 96.6122 43.0369 97.6272 43.6099 98.5345Z" fill="#333333"/>
<path d="M86.0887 67.8637C86.6189 64.023 87.4444 60.1967 87.399 56.3205C87.3736 54.0253 86.9742 51.3401 85.1671 49.6935C82.8563 47.586 80.6711 49.7749 79.7068 52.0478C79.1525 53.3477 78.9308 54.758 78.7678 56.159C78.454 58.8574 78.0639 61.5137 77.8783 64.2554C77.7006 66.8947 77.1931 69.5143 76.3676 72.0327C76.1138 72.8114 75.8267 73.5939 75.7719 74.4107C75.6798 75.7815 76.6174 77.1498 77.4843 78.1569C77.7781 78.4957 78.0773 78.8318 78.3898 79.1535C78.6316 79.4017 79.0657 79.9952 79.4103 80.0832C80.1209 80.267 80.929 79.3045 81.3029 78.8528C82.1751 77.7958 82.9979 76.7007 83.7686 75.5701C84.4858 74.5144 85.1363 73.4863 85.4796 72.2533C85.8709 70.8562 85.8883 69.3015 86.0887 67.8637Z" fill="#FFB78C"/>
<path d="M77.9461 56.4719C77.5694 57.9807 77.313 59.5183 77.1473 61.0651C76.9951 62.4792 76.6411 63.9104 77.7002 65.0502C78.5324 65.947 79.641 66.5681 80.8137 66.945C81.9864 67.3218 83.2259 67.461 84.4587 67.4912C84.3025 66.7887 83.9539 65.9339 83.9673 65.2143C83.9793 64.5827 84.1956 63.8802 84.2744 63.2421C84.4815 61.6099 84.6765 59.9778 84.8635 58.3431C85.1093 56.1726 85.3403 53.9981 85.3803 51.8145C85.4044 50.4738 85.1346 49.1647 84.6685 47.9068L84.5269 47.6901L84.225 47.6836C82.8359 48.0263 81.6325 48.9271 80.7416 50.0327C79.852 51.1356 79.2497 52.4395 78.7675 53.7657C78.4456 54.6533 78.1745 55.5581 77.9461 56.4719Z" fill="#F2F2F2"/>
<path d="M27.5605 130.353C27.0676 129.86 26.3236 129.291 25.5917 129.225C24.9759 129.17 24.5819 129.465 24.2173 128.761C22.5691 129.372 20.9769 130.29 19.3888 131.045C17.5616 131.914 7.34911 136.12 4.25837 137.743C3.473 138.156 2.69697 138.604 2.05184 139.206C0.577262 140.578 1.94499 142.446 3.19117 143.503C5.16529 145.175 7.82196 145.926 10.4252 145.968C13.0311 146.011 15.6009 145.394 18.0746 144.589C18.9094 144.317 19.7241 144.073 20.5936 143.926C21.4685 143.78 22.3607 143.965 23.2543 143.946C24.3869 143.921 25.5823 143.636 26.3584 142.826C27.1598 141.991 27.3628 140.765 27.3988 139.619C27.4362 138.472 27.3468 137.295 27.7061 136.204C27.9345 135.511 28.3352 134.88 28.5408 134.182C28.9322 132.857 28.5435 131.338 27.5605 130.353Z" fill="#FFC882"/>
<path d="M111.635 95.5405C111.563 93.5316 111.287 91.3046 109.738 89.9928C109.076 89.4335 108.25 89.1052 107.437 88.7888C104.277 87.5518 101.094 86.3084 97.7565 85.6611C94.4187 85.015 90.8805 84.9953 87.6949 86.1705C86.4728 86.6209 85.3602 86.7456 84.9996 88.1257C84.468 90.1688 84.0218 92.4601 84.1447 94.5781C84.1674 94.9957 84.8353 95.9214 84.7659 96.1919L84.6323 96.3389C84.1074 96.6816 82.2307 96.9193 81.8434 97.0138C77.8096 97.9934 73.7733 98.9743 69.7395 99.9538C67.2605 100.557 64.7869 101.003 62.4922 102.206C61.2527 102.856 60.2042 104.1 59.1317 105.012C58.1526 105.844 57.1869 106.691 56.2105 107.528C46.3693 115.942 35.4222 123.106 23.7284 128.785C23.508 128.891 23.2743 129.009 23.1554 129.221C22.9831 129.524 23.1033 129.901 23.2329 130.224C24.1171 132.413 25.3339 134.47 26.8312 136.309C26.9394 136.44 27.0542 136.575 27.2118 136.642C27.4803 136.755 27.7875 136.641 28.0587 136.527C38.4515 132.142 50.2041 130.171 58.9313 123.098C61.6334 120.908 63.9775 118.295 66.7917 116.249C75.7568 117.288 84.854 116.95 93.8043 115.783C96.9779 115.368 100.197 114.834 103.043 113.393C106.336 111.727 108.979 108.854 110.336 105.467C111.591 102.342 111.757 98.8981 111.635 95.5405Z" fill="#424242"/>
<path d="M81.7405 62.357C81.5909 63.0674 81.4186 63.7712 81.2142 64.4645C80.8229 65.8012 80.3086 67.1234 80.2098 68.5127C80.0642 70.5847 81.1221 72.377 82.0784 74.1404C82.5566 75.0241 82.9012 75.9748 83.1577 76.9439C83.4235 77.9379 83.3593 78.7888 83.2284 79.8143C82.964 81.8771 82.4484 83.9071 81.6951 85.8491C81.4667 86.4387 81.2116 87.0387 81.2089 87.6703C81.2022 88.7798 81.9863 90.0798 82.5352 91.0134C83.1096 91.9916 84.2142 92.8622 85.0864 93.5817C86.995 95.1574 89.1935 96.3878 91.5256 97.2453C95.8265 98.8262 100.524 99.1767 105.096 98.7539C107.1 98.5688 109.118 98.2313 110.95 97.4133C111.245 97.282 111.546 97.127 111.724 96.8618C111.96 96.5046 111.916 96.0438 111.859 95.621C111.498 92.9568 110.978 90.3135 110.301 87.7084C110.162 87.1753 110.017 86.6395 109.977 86.0894C109.933 85.5195 110.003 84.947 110.078 84.3811C110.548 80.8069 111.183 77.2537 111.977 73.7347C112.675 70.6464 113.488 67.5265 113.491 64.341C113.495 62.4476 113.358 60.78 112.313 59.1663C111.177 57.416 109.731 56.1501 108.067 54.8896C103.087 51.1211 97.9929 47.2896 92.0519 45.2806C91.4415 46.2641 90.2274 46.7617 89.0573 46.8195C88.1651 46.8431 87.3236 46.6829 86.4567 46.4807C85.3802 46.2286 85.4577 46.5372 85.0944 47.4143C84.4439 48.9834 83.8255 50.479 83.4421 52.14C82.6621 55.5093 82.4564 58.9759 81.7405 62.357Z" fill="#D9D9D9"/>
<path d="M95.9872 105.064L73.242 118.059C72.8066 118.308 72.0947 118.308 71.6566 118.059L38.4545 99.2148C38.2355 99.09 38.1246 98.9259 38.126 98.7617L38.1206 100.601C38.1193 100.765 38.2301 100.93 38.4492 101.056L71.6513 119.901C72.0894 120.149 72.8013 120.149 73.2354 119.901L95.9818 106.905C96.1982 106.781 96.3064 106.619 96.3064 106.456L96.3118 104.617C96.3118 104.778 96.2035 104.941 95.9872 105.064Z" fill="#BFBFBF"/>
<path d="M95.9817 104.162C96.4198 104.412 96.4225 104.815 95.987 105.064L73.2419 118.058C72.8065 118.308 72.0945 118.308 71.6564 118.058L38.4544 99.2147C38.0163 98.9652 38.0163 98.5621 38.4517 98.3126L61.1968 85.3185C61.6323 85.069 62.3415 85.0677 62.781 85.3185L95.9817 104.162Z" fill="white"/>
<path d="M76.2923 104.605L61.9312 96.4535C61.6841 96.3143 61.7148 96.0701 61.9993 95.9085L70.3926 91.1447C70.6771 90.9832 71.1072 90.9648 71.3543 91.1053L85.7154 99.2569C85.9612 99.3961 85.9305 99.6416 85.646 99.8031L77.254 104.567C76.9695 104.727 76.5381 104.745 76.2923 104.605Z" fill="#D9D9D9"/>
<path d="M61.9991 96.1684L70.3924 91.4058C70.6769 91.2443 71.107 91.2273 71.3541 91.3665L85.7152 99.518L85.8368 99.627C85.9183 99.4956 85.8822 99.3512 85.7152 99.2567L71.3541 91.1052C71.107 90.9647 70.6769 90.983 70.3924 91.1445L61.9991 95.9084C61.78 96.0331 61.7132 96.2077 61.8067 96.3443L61.9991 96.1684Z" fill="#BFBFBF"/>
<path d="M71.2915 116.887L39.8031 99.0152C39.5426 98.8668 39.576 98.6094 39.8752 98.4387L51.5423 91.8169C51.8415 91.6462 52.297 91.6278 52.5574 91.7762L84.0458 109.647C84.3063 109.795 84.2729 110.054 83.9724 110.224L72.3066 116.845C72.0061 117.016 71.5506 117.034 71.2915 116.887Z" fill="#D9D9D9"/>
<path d="M39.8753 98.6844L51.5423 92.0639C51.8415 91.8932 52.297 91.8748 52.5574 92.0219L84.0458 109.894L84.1861 110.023C84.2595 109.887 84.2155 109.744 84.0458 109.647L52.5574 91.7763C52.297 91.6279 51.8415 91.6463 51.5423 91.817L39.8753 98.4389C39.6495 98.5675 39.5761 98.7435 39.6629 98.8879L39.8753 98.6844Z" fill="#BFBFBF"/>
<path d="M54.0063 93.2403L52.9778 93.8286L52.7147 93.8272L51.001 92.8542L50.9463 92.7794V92.9606L50.9997 93.0355L52.7147 94.0084L52.9778 94.0098L54.0063 93.4215L54.0611 93.3466V93.1654L54.0063 93.2403Z" fill="#1F2125"/>
<path d="M54.0071 93.0907V93.2404L52.9786 93.8286L52.7155 93.8273L51.0018 92.8543L51.0005 92.7072L52.0303 92.1176L52.2921 92.1164L54.0071 93.0907Z" fill="#4D4D4D"/>
<path d="M52.3777 94.0701L50.8083 94.9655H50.5011L48.9224 94.0701L48.8583 93.9807L48.8569 94.1619L48.921 94.25L50.4998 95.1467H50.807L52.3764 94.25L52.4392 94.1633V93.9821L52.3777 94.0701Z" fill="#1F2125"/>
<path d="M52.3758 93.8954L52.3771 94.0701L50.8077 94.9656H50.5005L48.9217 94.0701L48.9204 93.8954L50.4885 92.9973H50.7957L52.3758 93.8954Z" fill="#4D4D4D"/>
<path d="M56.1099 94.4313L55.0761 95.0208L54.821 95.0222L53.1755 94.0886L53.1234 94.0164L53.1221 94.1963L53.1755 94.2698L54.8197 95.2034L55.0761 95.2021L56.1099 94.6125L56.1634 94.5377L56.1647 94.3578L56.1099 94.4313Z" fill="#1F2125"/>
<path d="M56.1107 94.2854V94.4311L55.0769 95.0206L54.8218 95.022L53.1763 94.0884L53.1776 93.9426L54.2114 93.3531L54.4665 93.3517L56.1107 94.2854Z" fill="#4D4D4D"/>
<path d="M54.5609 95.3097L52.9928 96.2066L52.6843 96.2052L51.1055 95.3097L51.0414 95.2204L51.04 95.4003L51.1041 95.4909L52.6829 96.3851L52.9915 96.3865L54.5595 95.4909L54.6237 95.403V95.223L54.5609 95.3097Z" fill="#1F2125"/>
<path d="M54.5584 95.1338L54.5611 95.3097L52.993 96.2065L52.6845 96.2052L51.1057 95.3097L51.103 95.1338L52.6724 94.2382L52.981 94.2396L54.5584 95.1338Z" fill="#4D4D4D"/>
<path d="M58.2539 95.6471L57.2214 96.2379H56.9623L55.3194 95.3057L55.266 95.2308L55.2646 95.412L55.3194 95.4869L56.9609 96.4192H57.2201L58.2525 95.8283L58.306 95.7548V95.5749L58.2539 95.6471Z" fill="#1F2125"/>
<path d="M58.2529 95.5014L58.2543 95.6472L57.2218 96.238H56.9627L55.3198 95.3058V95.1587L56.3523 94.5691H56.6114L58.2529 95.5014Z" fill="#4D4D4D"/>
<path d="M60.396 96.8642L59.3635 97.4538H59.1057L57.4602 96.5215L57.4081 96.448L57.4067 96.6292L57.4602 96.7027L59.1044 97.635H59.3621L60.3946 97.0441L60.4494 96.9719V96.7907L60.396 96.8642Z" fill="#1F2125"/>
<path d="M60.3954 96.7172L60.3967 96.8643L59.3643 97.4539H59.1065L57.4609 96.5216L57.4623 96.3758L58.4961 95.7836H58.7525L60.3954 96.7172Z" fill="#4D4D4D"/>
<path d="M62.5386 98.0789L61.5061 98.6698L61.2483 98.6712L59.6041 97.7376L59.5507 97.6641L59.5493 97.8439L59.6041 97.9174L61.247 98.8511L61.5048 98.8497L62.5372 98.2602L62.5906 98.1867L62.592 98.0067L62.5386 98.0789Z" fill="#1F2125"/>
<path d="M62.539 97.9332V98.0789L61.5065 98.6698L61.2487 98.6711L59.6045 97.7376V97.5905L60.637 96.9996H60.8961L62.539 97.9332Z" fill="#4D4D4D"/>
<path d="M64.6813 99.2961L63.6488 99.8857H63.391L61.7481 98.9534L61.6934 98.8799V99.0598L61.7468 99.1346L63.3897 100.067H63.6475L64.6799 99.4774L64.7347 99.4038L64.736 99.2239L64.6813 99.2961Z" fill="#1F2125"/>
<path d="M64.6797 99.1491L64.681 99.2961L63.6486 99.8857H63.3908L61.7479 98.9535L61.7466 98.8064L62.7804 98.2168H63.0382L64.6797 99.1491Z" fill="#4D4D4D"/>
<path d="M66.824 100.512L65.7915 101.101L65.5337 101.103L63.8908 100.169L63.8374 100.097V100.277L63.8895 100.35L65.5337 101.284L65.7902 101.283L66.8226 100.693L66.8761 100.618L66.8774 100.438L66.824 100.512Z" fill="#1F2125"/>
<path d="M66.8243 100.366V100.512L65.7918 101.102L65.534 101.103L63.8911 100.169V100.024L64.9236 99.4341L65.1814 99.4328L66.8243 100.366Z" fill="#4D4D4D"/>
<path d="M68.9659 101.728L67.9334 102.319H67.6757L66.0328 101.387L65.978 101.312V101.493L66.0314 101.568L67.6757 102.5H67.9321L68.9659 101.908L69.0193 101.836L69.0207 101.656L68.9659 101.728Z" fill="#1F2125"/>
<path d="M68.9662 101.581V101.728L67.9337 102.319H67.676L66.0331 101.387L66.0317 101.24L67.0655 100.649H67.3234L68.9662 101.581Z" fill="#4D4D4D"/>
<path d="M71.1082 102.944L70.0757 103.535H69.8179L68.175 102.602L68.1216 102.529V102.71L68.1737 102.781L69.8179 103.715H70.0743L71.1082 103.124L71.1616 103.052V102.87L71.1082 102.944Z" fill="#1F2125"/>
<path d="M71.1085 102.798V102.944L70.0759 103.535H69.8182L68.1753 102.602V102.455L69.2078 101.864H69.4655L71.1085 102.798Z" fill="#4D4D4D"/>
<path d="M73.2511 104.16L72.2186 104.749H71.9608L70.3179 103.818L70.2632 103.745V103.925L70.3166 103.998L71.9608 104.93H72.2186L73.2511 104.341L73.3058 104.267V104.087L73.2511 104.16Z" fill="#1F2125"/>
<path d="M73.2509 104.014V104.16L72.2184 104.75H71.9606L70.3177 103.819L70.3164 103.671L71.3502 103.081H71.608L73.2509 104.014Z" fill="#4D4D4D"/>
<path d="M75.3946 105.377L74.3622 105.967H74.1031L72.4602 105.033L72.4067 104.962V105.141L72.4588 105.214L74.1031 106.148H74.3622L75.3946 105.558L75.4468 105.485L75.4481 105.304L75.3946 105.377Z" fill="#1F2125"/>
<path d="M75.3945 105.23V105.377L74.362 105.967H74.1029L72.46 105.033V104.887L73.4924 104.298L73.7502 104.296L75.3945 105.23Z" fill="#4D4D4D"/>
<path d="M77.5362 106.593L76.5037 107.182L76.2473 107.184L74.6031 106.25L74.5496 106.175L74.5483 106.357L74.6031 106.431L76.2473 107.365L76.5037 107.364L77.5362 106.774L77.591 106.699V106.519L77.5362 106.593Z" fill="#1F2125"/>
<path d="M77.5369 106.446L77.5355 106.593L76.503 107.182L76.2466 107.184L74.6024 106.25L74.6011 106.103L75.6348 105.513H75.8927L77.5369 106.446Z" fill="#4D4D4D"/>
<path d="M76.7783 107.606L76.7797 107.427L76.8534 107.527L76.8521 107.708L76.7783 107.606Z" fill="#1F2125"/>
<path d="M81.412 108.703L81.4107 108.884L81.3384 108.984V108.804L81.412 108.703Z" fill="#1F2125"/>
<path d="M81.3388 108.804V108.984L80.3984 109.521V109.341L81.3388 108.804Z" fill="#1F2125"/>
<path d="M80.0483 109.341V109.521L76.8521 107.708L76.8534 107.528L80.0483 109.341Z" fill="#1F2125"/>
<path d="M80.3983 109.341V109.521H80.0483V109.341H80.3983Z" fill="#1F2125"/>
<path d="M81.3385 108.604V108.804L80.3982 109.341H80.0483L76.8534 107.528L76.8521 107.327L77.7924 106.791L78.1436 106.79L81.3385 108.604Z" fill="#4D4D4D"/>
<path d="M56.6994 96.5232L55.13 97.4187H54.8215L53.2427 96.5232L53.1786 96.4339L53.1772 96.6138L53.2427 96.7044L54.8215 97.5986L55.1287 97.5999L56.6981 96.7044L56.7609 96.6164L56.7622 96.4365L56.6994 96.5232Z" fill="#1F2125"/>
<path d="M56.6966 96.347L56.6993 96.523L55.1299 97.4185H54.8213L53.2425 96.523L53.2412 96.347L54.8106 95.4501L55.1178 95.4515L56.6966 96.347Z" fill="#4D4D4D"/>
<path d="M51.3665 95.8808L49.8758 96.7317H49.4885L46.9067 95.2662L46.8252 95.156V95.3372L46.9067 95.4474L49.4872 96.9128H49.8758L51.3665 96.0607L51.4439 95.9504L51.4453 95.7718L51.3665 95.8808Z" fill="#1F2125"/>
<path d="M51.3646 95.6604L51.3659 95.8811L49.8753 96.7319H49.488L46.9061 95.2665L46.9048 95.046L48.3954 94.1938H48.7827L51.3646 95.6604Z" fill="#4D4D4D"/>
<path d="M53.6181 97.115L52.0501 98.0105H51.7415L50.1628 97.115L50.1 97.0257L50.0986 97.2056L50.1614 97.2949L51.7402 98.1904H52.0501L53.6168 97.2949L53.6809 97.207L53.6822 97.0271L53.6181 97.115Z" fill="#1F2125"/>
<path d="M53.6165 96.938L53.6178 97.1153L52.0498 98.0107H51.7412L50.1625 97.1153L50.1611 96.938L51.7292 96.0438H52.0391L53.6165 96.938Z" fill="#4D4D4D"/>
<path d="M49.7602 97.4185L48.3043 98.2497H47.8823L44.7902 96.4941L44.7007 96.3746V96.5545L44.7888 96.6753L47.8809 98.4309H48.303L49.7602 97.5984L49.8457 97.4789V97.299L49.7602 97.4185Z" fill="#1F2125"/>
<path d="M49.7591 97.178L49.7605 97.4183L48.3046 98.2495H47.8825L44.7904 96.4939L44.7891 96.255L46.245 95.4224H46.6657L49.7591 97.178Z" fill="#4D4D4D"/>
<path d="M58.8363 97.7362L57.2669 98.6317H56.9583L55.3809 97.7362L55.3168 97.6469L55.3154 97.8268L55.3809 97.9162L56.9583 98.8116L57.2669 98.813L58.8363 97.9162L58.8977 97.8295V97.6496L58.8363 97.7362Z" fill="#1F2125"/>
<path d="M58.8338 97.5602L58.8365 97.7361L57.2671 98.6316H56.9585L55.3811 97.7361L55.3784 97.5602L56.9465 96.6633L57.2564 96.6646L58.8338 97.5602Z" fill="#4D4D4D"/>
<path d="M55.7762 98.3404L54.2081 99.2346H53.8983L52.3208 98.3404L52.2567 98.2498L52.2554 98.431L52.3208 98.5189L53.8969 99.4158H54.2081L55.7762 98.5189L55.839 98.4323V98.2511L55.7762 98.3404Z" fill="#1F2125"/>
<path d="M55.7747 98.1629L55.776 98.3402L54.208 99.2344H53.8981L52.3207 98.3402L52.3193 98.1629L53.8861 97.2674H54.196L55.7747 98.1629Z" fill="#4D4D4D"/>
<path d="M52.0342 98.6121L50.466 99.5063H50.1562L48.5788 98.6121L48.5146 98.5229V98.704L48.5788 98.7907L50.1562 99.6875H50.466L52.0342 98.7907L52.0969 98.704L52.0983 98.5229L52.0342 98.6121Z" fill="#1F2125"/>
<path d="M52.0327 98.4346L52.034 98.6119L50.4659 99.5061H50.156L48.5786 98.6119V98.436L50.1467 97.5391H50.4552L52.0327 98.4346Z" fill="#4D4D4D"/>
<path d="M46.6939 97.9871L45.1699 98.8576H44.8173L42.6949 97.6522L42.6215 97.5511L42.6201 97.7324L42.6949 97.8335L44.8173 99.0388H45.1699L46.6939 98.1683L46.766 98.0672V97.8873L46.6939 97.9871Z" fill="#1F2125"/>
<path d="M46.695 97.7862L46.6937 97.9871L45.1697 98.8577H44.8171L42.6947 97.6522L42.6934 97.4527L44.216 96.5821L44.5713 96.5808L46.695 97.7862Z" fill="#4D4D4D"/>
<path d="M48.8574 99.2121L47.2893 100.108H46.9821L45.402 99.2121L45.3379 99.1241V99.3054L45.4007 99.392L46.9808 100.289L47.2893 100.288L48.8561 99.392L48.9215 99.304V99.1241L48.8574 99.2121Z" fill="#1F2125"/>
<path d="M48.8577 99.0362V99.2122L47.2897 100.108H46.9825L45.4023 99.2122V99.0362L46.9704 98.1407L47.2776 98.1393L48.8577 99.0362Z" fill="#4D4D4D"/>
<path d="M44.0527 98.8246L42.4833 99.7201H42.1774L40.5973 98.8246L40.5332 98.7353V98.9166L40.5973 99.0045L42.1761 99.9014H42.4833L44.0527 99.0045L44.1155 98.9178V98.7367L44.0527 98.8246Z" fill="#1F2125"/>
<path d="M44.0516 98.6501L44.0529 98.8247L42.4835 99.7202H42.1776L40.5975 98.8247L40.5962 98.6501L42.1656 97.7532L42.4728 97.752L44.0516 98.6501Z" fill="#4D4D4D"/>
<path d="M46.2811 100.089L44.7117 100.985L44.4045 100.983L42.8257 100.089L42.7616 100L42.7603 100.18L42.8257 100.269L44.4031 101.165L44.7117 101.166L46.2811 100.269L46.3439 100.182V100.003L46.2811 100.089Z" fill="#1F2125"/>
<path d="M46.2786 99.9134L46.2813 100.089L44.7119 100.985L44.4047 100.984L42.8259 100.089L42.8232 99.9134L44.3927 99.0165L44.7012 99.0179L46.2786 99.9134Z" fill="#4D4D4D"/>
<path d="M60.973 98.9494L59.4036 99.8449H59.0964L57.5176 98.9494L57.4535 98.8614L57.4521 99.0413L57.5163 99.1293L59.095 100.025L59.4036 100.026L60.973 99.1293L61.0358 99.044V98.8628L60.973 98.9494Z" fill="#1F2125"/>
<path d="M60.9707 98.7737L60.9733 98.9497L59.4039 99.8452H59.0967L57.5179 98.9497L57.5166 98.7751L59.086 97.8782H59.3932L60.9707 98.7737Z" fill="#4D4D4D"/>
<path d="M57.9336 99.5641L56.3655 100.46H56.0556L54.4782 99.5641L54.4141 99.4749V99.6561L54.4782 99.744L56.0543 100.641H56.3655L57.9336 99.744L57.9977 99.6574V99.4762L57.9336 99.5641Z" fill="#1F2125"/>
<path d="M57.932 99.3882L57.9333 99.5642L56.3652 100.46H56.0553L54.4779 99.5642L54.4766 99.3882L56.0446 98.4927H56.3545L57.932 99.3882Z" fill="#4D4D4D"/>
<path d="M54.1819 99.8293L52.6139 100.726H52.304L50.7266 99.8293L50.6625 99.7426L50.6611 99.9238L50.7252 100.01L52.304 100.906H52.6125L54.1806 100.01L54.2447 99.9238V99.7426L54.1819 99.8293Z" fill="#1F2125"/>
<path d="M54.1806 99.6546L54.1819 99.8292L52.6138 100.726H52.304L50.7266 99.8292V99.6546L52.2946 98.7591L52.6032 98.7578L54.1806 99.6546Z" fill="#4D4D4D"/>
<path d="M50.9946 100.425L49.4279 101.321H49.118L47.5392 100.425L47.4764 100.337L47.4751 100.519L47.5392 100.605L49.118 101.502H49.4265L50.9933 100.605L51.0574 100.519L51.0587 100.337L50.9946 100.425Z" fill="#1F2125"/>
<path d="M50.9945 100.249V100.425L49.4277 101.321H49.1178L47.5391 100.425V100.249L49.1071 99.3538L49.4157 99.3525L50.9945 100.249Z" fill="#4D4D4D"/>
<path d="M48.4384 101.313L46.8703 102.21H46.5618L44.9831 101.313L44.9203 101.225L44.9189 101.405L44.9831 101.494L46.5618 102.39L46.8703 102.391L48.4384 101.494L48.5012 101.408V101.228L48.4384 101.313Z" fill="#1F2125"/>
<path d="M48.4353 101.138L48.438 101.313L46.8699 102.21H46.5614L44.9827 101.313L44.98 101.138L46.5494 100.241L46.8592 100.243L48.4353 101.138Z" fill="#4D4D4D"/>
<path d="M63.1121 100.162L61.5427 101.058H61.2342L59.6568 100.162L59.5926 100.075L59.5913 100.256L59.6554 100.343L61.2342 101.24H61.5414L63.1108 100.343L63.1749 100.256V100.076L63.1121 100.162Z" fill="#1F2125"/>
<path d="M63.1102 99.9882L63.1115 100.162L61.5421 101.058H61.2336L59.6561 100.162L59.6548 99.9882L61.2242 99.0914H61.5301L63.1102 99.9882Z" fill="#4D4D4D"/>
<path d="M60.0903 100.789L58.5222 101.685H58.2136L56.6349 100.789L56.5708 100.7V100.88L56.6349 100.969L58.2136 101.865H58.5222L60.0903 100.969L60.1544 100.881V100.701L60.0903 100.789Z" fill="#1F2125"/>
<path d="M60.0891 100.612L60.0905 100.789L58.5224 101.685H58.2139L56.6351 100.789L56.6338 100.612L58.2019 99.7166H58.5117L60.0891 100.612Z" fill="#4D4D4D"/>
<path d="M56.3296 101.049L54.7615 101.945H54.4516L52.8742 101.049L52.8101 100.961V101.141L52.8742 101.23L54.4503 102.125H54.7615L56.3296 101.23L56.391 101.141L56.3923 100.961L56.3296 101.049Z" fill="#1F2125"/>
<path d="M56.3281 100.872L56.3294 101.049L54.7613 101.945H54.4515L52.874 101.049V100.873L54.4408 99.9776H54.7506L56.3281 100.872Z" fill="#4D4D4D"/>
<path d="M53.1318 101.637L51.5637 102.534L51.2565 102.535L49.6778 101.639L49.6136 101.551L49.6123 101.732L49.6778 101.82L51.2565 102.715H51.5637L53.1318 101.818L53.1959 101.732V101.551L53.1318 101.637Z" fill="#1F2125"/>
<path d="M53.1326 101.464L53.1313 101.638L51.5632 102.534L51.256 102.536L49.6772 101.639V101.464L51.244 100.567H51.5539L53.1326 101.464Z" fill="#4D4D4D"/>
<path d="M51.0757 102.834L49.5464 103.707H49.2004L47.1595 102.549L47.0887 102.45L47.0874 102.63L47.1582 102.729L49.1991 103.887H49.545L51.0744 103.014L51.1465 102.915L51.1478 102.734L51.0757 102.834Z" fill="#1F2125"/>
<path d="M51.0753 102.635L51.0767 102.834L49.5473 103.707H49.2014L47.1605 102.549L47.1592 102.35L48.6885 101.477H49.0358L51.0753 102.635Z" fill="#4D4D4D"/>
<path d="M58.4756 102.268L56.9088 103.163H56.6003L55.0202 102.268L54.9574 102.18L54.9561 102.361L55.0202 102.449L56.6003 103.344H56.9075L58.4756 102.449L58.5397 102.361V102.18L58.4756 102.268Z" fill="#1F2125"/>
<path d="M58.4772 102.092L58.4759 102.268L56.9092 103.163H56.6006L55.0205 102.268L55.0218 102.092L56.5899 101.196L56.8971 101.195L58.4772 102.092Z" fill="#4D4D4D"/>
<path d="M55.2713 102.852L53.7033 103.749H53.3934L51.8159 102.852L51.7505 102.764V102.944L51.8159 103.033L53.392 103.929H53.7033L55.2713 103.033L55.3328 102.945L55.3341 102.765L55.2713 102.852Z" fill="#1F2125"/>
<path d="M55.2703 102.676L55.2717 102.852L53.7036 103.749H53.3937L51.8163 102.852L51.8149 102.676L53.383 101.78H53.6929L55.2703 102.676Z" fill="#4D4D4D"/>
<path d="M65.2481 101.375L63.6787 102.272H63.3729L61.7928 101.375L61.73 101.288V101.468L61.7928 101.556L63.3729 102.451H63.6787L65.2481 101.556L65.3109 101.469L65.3123 101.289L65.2481 101.375Z" fill="#1F2125"/>
<path d="M65.2474 101.2V101.375L63.678 102.271H63.3721L61.792 101.375V101.2L63.3614 100.305H63.6686L65.2474 101.2Z" fill="#4D4D4D"/>
<path d="M62.248 102.014L60.6813 102.908H60.3714L58.7926 102.014L58.7285 101.924V102.105L58.7926 102.193L60.3714 103.09H60.6799L62.248 102.193L62.3121 102.106V101.925L62.248 102.014Z" fill="#1F2125"/>
<path d="M62.2474 101.837V102.014L60.6806 102.908H60.3708L58.792 102.014V101.837L60.3587 100.941H60.67L62.2474 101.837Z" fill="#4D4D4D"/>
<path d="M60.6231 103.487L59.0564 104.382L58.7478 104.383L57.1678 103.487L57.105 103.4V103.579L57.1664 103.667L58.7465 104.564L59.0564 104.563L60.6218 103.667L60.6859 103.579L60.6872 103.398L60.6231 103.487Z" fill="#1F2125"/>
<path d="M60.6238 103.312V103.488L59.0571 104.382L58.7485 104.383L57.1685 103.488V103.312L58.7365 102.416L59.0451 102.415L60.6238 103.312Z" fill="#4D4D4D"/>
<path d="M57.408 104.065L55.84 104.962H55.5301L53.9527 104.065L53.8872 103.977V104.157L53.9513 104.247L55.5301 105.142H55.84L57.4067 104.247L57.4708 104.159V103.979L57.408 104.065Z" fill="#1F2125"/>
<path d="M57.4071 103.889L57.4084 104.065L55.8403 104.962H55.5304L53.953 104.065L53.9517 103.889L55.5197 102.994H55.8296L57.4071 103.889Z" fill="#4D4D4D"/>
<path d="M67.3862 102.589L65.8168 103.486H65.5109L63.9321 102.589L63.8667 102.501V102.681L63.9321 102.771L65.5096 103.665H65.8168L67.3862 102.769L67.449 102.683V102.503L67.3862 102.589Z" fill="#1F2125"/>
<path d="M67.3841 102.414L67.3854 102.589L65.816 103.486H65.5102L63.9314 102.589L63.9287 102.414L65.4981 101.518L65.8067 101.519L67.3841 102.414Z" fill="#4D4D4D"/>
<path d="M64.4067 103.238L62.84 104.134H62.5288L60.9513 103.238L60.8872 103.149V103.329L60.9513 103.419L62.5288 104.313H62.8386L64.4054 103.419L64.4695 103.33L64.4708 103.15L64.4067 103.238Z" fill="#1F2125"/>
<path d="M64.4047 103.061L64.4061 103.238L62.8393 104.134H62.5281L60.9507 103.238V103.061L62.5175 102.167H62.8273L64.4047 103.061Z" fill="#4D4D4D"/>
<path d="M62.7719 104.705L61.2039 105.602L60.8967 105.603L59.3166 104.705L59.2524 104.618V104.8L59.3166 104.886L60.8967 105.783H61.2039L62.7719 104.886L62.8361 104.8V104.618L62.7719 104.705Z" fill="#1F2125"/>
<path d="M62.7722 104.532L62.7708 104.705L61.2027 105.602L60.8955 105.603L59.3154 104.705L59.3168 104.532L60.8835 103.635H61.1921L62.7722 104.532Z" fill="#4D4D4D"/>
<path d="M59.5459 105.278L57.9791 106.174H57.6679L56.0905 105.278L56.0264 105.189V105.37L56.0905 105.46L57.6679 106.355H57.9778L59.5459 105.46L59.61 105.372L59.6113 105.191L59.5459 105.278Z" fill="#1F2125"/>
<path d="M59.5457 105.102V105.278L57.979 106.174H57.6678L56.0903 105.278V105.102L57.6571 104.206H57.967L59.5457 105.102Z" fill="#4D4D4D"/>
<path d="M69.5247 103.802L67.9567 104.698H67.6481L66.0707 103.802L66.0052 103.713L66.0039 103.894L66.0694 103.984L67.6468 104.878L67.9553 104.879L69.5234 103.984L69.5862 103.897L69.5875 103.716L69.5247 103.802Z" fill="#1F2125"/>
<path d="M69.5224 103.627L69.5251 103.803L67.957 104.698H67.6485L66.071 103.803L66.0684 103.627L67.6364 102.73L67.945 102.731L69.5224 103.627Z" fill="#4D4D4D"/>
<path d="M66.5648 104.463L64.9967 105.357H64.6855L63.1094 104.463L63.0453 104.373L63.0439 104.554L63.1081 104.643L64.6855 105.539H64.9953L66.5634 104.643L66.6275 104.555L66.6289 104.374L66.5648 104.463Z" fill="#1F2125"/>
<path d="M66.5633 104.286L66.5646 104.463L64.9965 105.357H64.6853L63.1092 104.463L63.1079 104.286L64.676 103.39H64.9845L66.5633 104.286Z" fill="#4D4D4D"/>
<path d="M64.9193 105.924L63.3512 106.82L63.044 106.821L61.4639 105.924L61.3998 105.838L61.3984 106.016L61.4625 106.106L63.0427 107.001L63.3499 107L64.9179 106.106L64.982 106.016V105.837L64.9193 105.924Z" fill="#1F2125"/>
<path d="M64.9193 105.749V105.925L63.3512 106.82L63.044 106.822L61.4639 105.925V105.749L63.0319 104.855L63.3405 104.853L64.9193 105.749Z" fill="#4D4D4D"/>
<path d="M61.6831 106.492L60.1163 107.387H59.8065L58.2277 106.493L58.1649 106.402L58.1636 106.584L58.2277 106.672L59.8051 107.568H60.1163L61.6831 106.672L61.7472 106.585V106.404L61.6831 106.492Z" fill="#1F2125"/>
<path d="M61.681 106.316L61.6823 106.492L60.1155 107.387H59.8057L58.2269 106.493L58.2256 106.316L59.7937 105.42H60.1049L61.681 106.316Z" fill="#4D4D4D"/>
<path d="M71.6628 105.016L70.0934 105.912H69.7848L68.2074 105.016L68.142 104.927L68.1406 105.108L68.2061 105.196L69.7848 106.093H70.0921L71.6614 105.196L71.7242 105.111V104.929L71.6628 105.016Z" fill="#1F2125"/>
<path d="M71.6605 104.84L71.6631 105.016L70.0937 105.911H69.7852L68.2078 105.016L68.2051 104.84L69.7745 103.943L70.0817 103.944L71.6605 104.84Z" fill="#4D4D4D"/>
<path d="M68.722 105.687L67.1539 106.582H66.8441L65.2666 105.687L65.2025 105.599L65.2012 105.779L65.2653 105.868L66.8441 106.763H67.1539L68.7207 105.868L68.7848 105.78L68.7861 105.599L68.722 105.687Z" fill="#1F2125"/>
<path d="M68.7205 105.511L68.7219 105.687L67.1538 106.583H66.8439L65.2665 105.687L65.2651 105.511L66.8332 104.616H67.1418L68.7205 105.511Z" fill="#4D4D4D"/>
<path d="M67.0668 107.144L65.4988 108.039L65.1902 108.04L63.6115 107.144L63.5474 107.055V107.236L63.6115 107.323L65.1902 108.22H65.4988L67.0668 107.323L67.1296 107.236V107.055L67.0668 107.144Z" fill="#1F2125"/>
<path d="M67.0667 106.969V107.144L65.4986 108.039L65.1901 108.04L63.6113 107.144V106.969L65.1794 106.072H65.488L67.0667 106.969Z" fill="#4D4D4D"/>
<path d="M63.8213 107.705L62.2532 108.601H61.9446L60.3659 107.705L60.3018 107.617V107.798L60.3645 107.885L61.9433 108.782H62.2532L63.8199 107.885L63.8854 107.798V107.617L63.8213 107.705Z" fill="#1F2125"/>
<path d="M63.8198 107.529L63.8211 107.705L62.253 108.601H61.9445L60.3657 107.705V107.531L61.9338 106.634H62.241L63.8198 107.529Z" fill="#4D4D4D"/>
<path d="M61.6396 109.046L60.4923 109.702C60.2892 109.818 59.9647 109.817 59.763 109.702L49.9886 104.155L49.8363 103.946L49.835 104.127L49.9886 104.336L59.763 109.884C59.9634 109.998 60.2892 109.999 60.4909 109.884L61.6396 109.227L61.7892 109.02V108.841L61.6396 109.046Z" fill="#1F2125"/>
<path d="M61.6386 108.632C61.8403 108.745 61.8416 108.93 61.6399 109.046L60.4926 109.702C60.2895 109.818 59.965 109.816 59.7633 109.702L49.9889 104.154C49.7858 104.039 49.7858 103.855 49.9875 103.74L51.1362 103.083C51.3365 102.969 51.6611 102.969 51.8641 103.083L61.6386 108.632Z" fill="#4D4D4D"/>
<path d="M73.7996 106.228L72.2302 107.126L71.9217 107.125L70.3442 106.228L70.2788 106.14V106.321L70.3442 106.409L71.9217 107.306H72.2302L73.7996 106.409L73.8624 106.324V106.143L73.7996 106.228Z" fill="#1F2125"/>
<path d="M73.7972 106.055L73.7999 106.228L72.2305 107.126L71.9219 107.125L70.3445 106.228L70.3418 106.055L71.9112 105.158H72.2198L73.7972 106.055Z" fill="#4D4D4D"/>
<path d="M70.8787 106.912L69.3106 107.807H69.0021L67.4234 106.912L67.3592 106.823L67.3579 107.003L67.4234 107.093L69.0008 107.987H69.3106L70.8787 107.093L70.9428 107.004V106.824L70.8787 106.912Z" fill="#1F2125"/>
<path d="M70.8778 106.735L70.8791 106.912L69.311 107.808H69.0024L67.4237 106.912L67.4224 106.735L68.9904 105.841H69.3003L70.8778 106.735Z" fill="#4D4D4D"/>
<path d="M69.2152 108.362L67.6471 109.259H67.3386L65.7611 108.363L65.6957 108.275L65.6943 108.455L65.7598 108.544L67.3386 109.44L67.6458 109.438L69.2138 108.543L69.2779 108.455V108.275L69.2152 108.362Z" fill="#1F2125"/>
<path d="M69.2142 108.187V108.362L67.6461 109.259H67.3376L65.7601 108.363L65.7588 108.187L67.3269 107.292H67.6354L69.2142 108.187Z" fill="#4D4D4D"/>
<path d="M65.9598 108.918L64.3917 109.814L64.0818 109.815L62.5044 108.918L62.4403 108.83L62.439 109.012L62.5031 109.1L64.0818 109.996L64.3904 109.995L65.9585 109.098L66.0212 109.012L66.0226 108.83L65.9598 108.918Z" fill="#1F2125"/>
<path d="M65.9602 108.744V108.919L64.3922 109.814L64.0823 109.815L62.5049 108.919V108.744L64.0716 107.847H64.3802L65.9602 108.744Z" fill="#4D4D4D"/>
<path d="M76.0223 107.49L74.4529 108.386H74.1444L72.5669 107.49L72.5015 107.402V107.581L72.5669 107.671L74.143 108.566L74.4529 108.568L76.0223 107.671L76.0851 107.585V107.404L76.0223 107.49Z" fill="#1F2125"/>
<path d="M76.0198 107.315L76.0225 107.49L74.4531 108.386H74.1446L72.5671 107.49L72.5645 107.315L74.1339 106.418L74.441 106.42L76.0198 107.315Z" fill="#4D4D4D"/>
<path d="M73.0362 108.137L71.4695 109.031H71.1596L69.5808 108.137L69.5181 108.048V108.228L69.5808 108.317L71.1582 109.213H71.4695L73.0362 108.317L73.1003 108.229V108.048L73.0362 108.137Z" fill="#1F2125"/>
<path d="M73.035 107.96L73.0363 108.137L71.4695 109.031H71.1597L69.5809 108.137L69.5796 107.96L71.1477 107.064H71.4589L73.035 107.96Z" fill="#4D4D4D"/>
<path d="M71.3609 109.581L69.7942 110.477L69.4857 110.478L67.9082 109.581L67.8428 109.493V109.673L67.9082 109.763L69.4843 110.658H69.7942L71.3609 109.763L71.4237 109.673L71.425 109.493L71.3609 109.581Z" fill="#1F2125"/>
<path d="M71.3608 109.406V109.581L69.7941 110.477L69.4855 110.478L67.9081 109.581L67.9067 109.406L69.4735 108.51H69.7847L71.3608 109.406Z" fill="#4D4D4D"/>
<path d="M68.1689 110.172L66.6021 111.069H66.2936L64.7135 110.172L64.6508 110.086L64.6494 110.267L64.7135 110.354L66.2936 111.25H66.6008L68.1689 110.354L68.233 110.267L68.2343 110.086L68.1689 110.172Z" fill="#1F2125"/>
<path d="M68.1696 109.998L68.1683 110.172L66.6015 111.069H66.293L64.7129 110.172L64.7142 109.998L66.2823 109.102L66.5895 109.101L68.1696 109.998Z" fill="#4D4D4D"/>
<path d="M64.4609 110.431L62.9329 111.304H62.5857L60.5461 110.146L60.4727 110.048V110.227L60.5461 110.327L62.5844 111.484H62.9316L64.4609 110.611L64.5317 110.512V110.333L64.4609 110.431Z" fill="#1F2125"/>
<path d="M64.4597 110.233L64.4611 110.431L62.9331 111.304H62.5858L60.5463 110.146L60.5449 109.948L62.0729 109.075H62.4202L64.4597 110.233Z" fill="#4D4D4D"/>
<path d="M78.1906 108.721L76.6212 109.618L76.3127 109.617L74.7352 108.721L74.6698 108.632L74.6685 108.812L74.7339 108.901L76.3127 109.797H76.6199L78.1893 108.901L78.2534 108.815V108.635L78.1906 108.721Z" fill="#1F2125"/>
<path d="M78.1878 108.545L78.1905 108.721L76.6211 109.618L76.3125 109.617L74.7351 108.721L74.7324 108.545L76.3018 107.65H76.609L78.1878 108.545Z" fill="#4D4D4D"/>
<path d="M75.1943 109.361L73.6262 110.256H73.3163L71.7389 109.361L71.6748 109.273V109.453L71.7389 109.542L73.3163 110.438H73.6262L75.1943 109.542L75.2571 109.454V109.273L75.1943 109.361Z" fill="#1F2125"/>
<path d="M75.1931 109.184L75.1945 109.361L73.6264 110.256H73.3165L71.7391 109.361L71.7378 109.184L73.3058 108.289H73.6158L75.1931 109.184Z" fill="#4D4D4D"/>
<path d="M73.5109 110.802L71.9429 111.697H71.633L70.0542 110.802L69.9901 110.714L69.9888 110.893L70.0542 110.983L71.633 111.877H71.9415L73.5096 110.983L73.5723 110.893L73.5737 110.714L73.5109 110.802Z" fill="#1F2125"/>
<path d="M73.5101 110.624L73.5114 110.801L71.9433 111.697H71.6334L70.0547 110.801V110.624L71.6227 109.729H71.9313L73.5101 110.624Z" fill="#4D4D4D"/>
<path d="M70.3016 111.383L68.7335 112.278H68.4236L66.8462 111.383L66.7808 111.295V111.475L66.8449 111.564L68.4223 112.459H68.7335L70.3002 111.564L70.363 111.476V111.296L70.3016 111.383Z" fill="#1F2125"/>
<path d="M70.3006 111.206L70.3019 111.383L68.7338 112.279H68.424L66.8466 111.383L66.8452 111.206L68.412 110.312H68.7218L70.3006 111.206Z" fill="#4D4D4D"/>
<path d="M66.6687 111.665L65.1073 112.557H64.7921L63.1332 111.615L63.0664 111.525V111.705L63.1332 111.797L64.7921 112.738H65.1073L66.6674 111.845L66.7328 111.756V111.576L66.6687 111.665Z" fill="#1F2125"/>
<path d="M66.6673 111.484L66.6687 111.665L65.1073 112.557H64.7921L63.1332 111.615L63.1318 111.436L64.6932 110.544H65.0085L66.6673 111.484Z" fill="#4D4D4D"/>
<path d="M67.9939 113.399L67.2512 113.824L67.0228 113.823L65.2771 112.831L65.229 112.767V112.948L65.2771 113.011L67.0215 114.003L67.2499 114.004L67.9939 113.58L68.0393 113.515L68.0406 113.336L67.9939 113.399Z" fill="#1F2125"/>
<path d="M67.9926 113.27L67.994 113.399L67.2513 113.824L67.0229 113.823L65.2772 112.831L65.2759 112.703L66.0185 112.278H66.2456L67.9926 113.27Z" fill="#4D4D4D"/>
<path d="M83.1229 109.745L82.0585 110.353H81.8314L80.5839 109.644L80.5371 109.58V109.76L80.5839 109.826L81.8314 110.535H82.0585L83.1229 109.925L83.1697 109.861V109.681L83.1229 109.745Z" fill="#1F2125"/>
<path d="M83.1231 109.617V109.746L82.0586 110.354H81.8315L80.584 109.644V109.516L81.6485 108.908H81.8742L83.1231 109.617Z" fill="#4D4D4D"/>
<path d="M81.518 110.662L80.0394 111.506H79.6414L76.8859 109.942L76.8018 109.827V110.007L76.8846 110.122L79.6414 111.688H80.0394L81.518 110.842L81.5995 110.73V110.549L81.518 110.662Z" fill="#1F2125"/>
<path d="M81.5171 110.436L81.5184 110.662L80.0398 111.507H79.6418L76.8863 109.943L76.8823 109.714L78.3609 108.87L78.7603 108.871L81.5171 110.436Z" fill="#4D4D4D"/>
<path d="M77.3515 110.586L75.7848 111.48H75.4749L73.8961 110.586L73.832 110.497V110.677L73.8961 110.767L75.4749 111.661H75.7835L77.3515 110.767L77.4156 110.678V110.498L77.3515 110.586Z" fill="#1F2125"/>
<path d="M77.3514 110.409V110.586L75.7847 111.48H75.4748L73.896 110.586V110.409L75.4627 109.513H75.7727L77.3514 110.409Z" fill="#4D4D4D"/>
<path d="M75.6577 112.021L74.0896 112.915H73.781L72.2023 112.021L72.1382 111.93V112.112L72.2023 112.2L73.7797 113.096H74.0896L75.6563 112.2L75.7204 112.113V111.932L75.6577 112.021Z" fill="#1F2125"/>
<path d="M75.6566 111.844L75.6579 112.021L74.0898 112.916H73.7813L72.2025 112.021L72.2012 111.844L73.7693 110.949H74.0791L75.6566 111.844Z" fill="#4D4D4D"/>
<path d="M79.5101 111.81L77.942 112.705H77.6321L76.0547 111.81L75.9893 111.722V111.902L76.0534 111.991L77.6321 112.886H77.9407L79.5087 111.991L79.5728 111.903L79.5742 111.723L79.5101 111.81Z" fill="#1F2125"/>
<path d="M79.5086 111.634L79.5099 111.81L77.9418 112.705H77.632L76.0545 111.81L76.0532 111.634L77.6213 110.738H77.9298L79.5086 111.634Z" fill="#4D4D4D"/>
<path d="M77.4237 113.002L75.8196 113.919H75.5472L74.3464 113.236L74.289 113.157L74.2876 113.338L74.3464 113.417L75.5458 114.1H75.8183L77.4237 113.182L77.4798 113.105V112.923L77.4237 113.002Z" fill="#1F2125"/>
<path d="M77.4233 112.847V113.002L75.8192 113.918H75.5467L74.3459 113.236L74.3433 113.081L75.9474 112.164H76.2226L77.4233 112.847Z" fill="#4D4D4D"/>
<path d="M75.205 114.269L73.8172 115.062C73.6837 115.14 73.4633 115.14 73.3271 115.062L69.0502 112.634L68.9487 112.494V112.675L69.0502 112.816L73.3257 115.243C73.4619 115.318 73.6824 115.318 73.8159 115.243L75.2036 114.449L75.3052 114.311V114.13L75.205 114.269Z" fill="#1F2125"/>
<path d="M75.2027 113.991C75.3389 114.067 75.3403 114.193 75.2054 114.269L73.8176 115.062C73.684 115.14 73.4636 115.14 73.3274 115.062L69.0506 112.634C68.9157 112.558 68.9143 112.432 69.0492 112.355L70.437 111.563C70.5719 111.485 70.7923 111.485 70.9272 111.563L75.2027 113.991Z" fill="#4D4D4D"/>
<path d="M71.0774 114.166L69.516 115.058H69.1994L67.5419 114.117L67.4751 114.027V114.207L67.5419 114.298L69.1994 115.239H69.516L71.0761 114.348L71.1402 114.258V114.079L71.0774 114.166Z" fill="#1F2125"/>
<path d="M71.0765 113.988L71.0779 114.167L69.5165 115.058H69.1999L67.5424 114.117L67.541 113.938L69.1024 113.047H69.4163L71.0765 113.988Z" fill="#4D4D4D"/>
<path d="M72.3752 115.885L71.6339 116.31H71.4069L69.6585 115.318L69.6117 115.254L69.6104 115.434L69.6585 115.498L71.4069 116.491H71.6326L72.3752 116.067L72.4206 116.002L72.4219 115.821L72.3752 115.885Z" fill="#1F2125"/>
<path d="M72.3745 115.757V115.885L71.6331 116.31H71.4061L69.6577 115.318V115.189L70.4003 114.764H70.6274L72.3745 115.757Z" fill="#4D4D4D"/>
<path d="M89.5036 55.9792C89.5143 56.5137 89.8229 56.7342 90.3384 56.8892C91.1238 57.1242 91.972 57.0257 92.7747 56.8537C95.4808 56.2733 98.0693 54.7935 99.5345 52.4825C99.7469 52.1477 99.9366 51.7918 100.059 51.415C100.178 51.0447 100.269 50.7847 99.9847 50.5208C99.437 50.0113 98.9776 49.3758 98.4687 48.8217C97.4202 47.6754 96.3236 46.512 95.7159 45.0663C95.2684 46.5185 94.6914 47.9642 93.7137 49.1368C92.7333 50.3107 91.2935 51.1852 89.7508 51.197C89.5958 51.1983 89.4262 51.1957 89.3033 51.2889L89.1243 51.5909C88.8973 52.3538 89.1684 53.059 89.3647 53.789C89.5531 54.4915 89.4903 55.2544 89.5036 55.9792Z" fill="#FFB78C"/>
<path d="M80.3538 46.7537C80.6918 47.5153 81.1285 48.2335 81.4024 49.0187C81.6548 49.7462 81.6641 50.5314 81.6428 51.2903C81.6294 51.7801 81.3169 52.7491 81.7857 53.1286C82.2011 53.4634 82.9277 52.9895 83.4232 53.1575C83.7825 53.2796 83.9575 53.7313 84.1672 54.0583C84.6561 54.8159 85.026 55.8428 85.9744 56.1526C86.4312 56.301 86.9294 56.2354 87.4009 56.1382C90.4462 55.5119 93.0788 53.7024 95.6179 51.9324C95.9091 51.7302 96.2149 51.5109 96.3565 51.1879C96.6637 50.492 96.0841 49.7317 96.052 48.9728L96.1228 48.6392C96.1989 48.5263 96.3365 48.4712 96.462 48.4173C98.173 47.6899 99.4085 46.0985 99.9401 44.3429C100.47 42.5887 100.353 40.6899 99.884 38.9199C99.0332 35.7003 96.7372 32.9126 93.8107 31.3448C93.2871 31.0651 92.7583 30.7829 92.1866 30.6161C91.2944 30.3535 90.3394 30.3863 89.4151 30.5032C85.3533 31.0127 81.0243 33.4064 79.706 37.4323C79.2372 38.8622 79.1958 40.552 79.3067 42.0358C79.4256 43.6456 79.694 45.266 80.3538 46.7537Z" fill="#FFE5CC"/>
<path d="M82.4444 40.7109C82.7569 40.7083 83.0762 40.6715 83.378 40.7529C83.7694 40.8579 84.0793 41.1494 84.3878 41.4121C85.7408 42.5571 87.4264 43.3187 89.1909 43.58C89.9535 43.6916 90.8618 43.5616 91.5804 43.7901C92.2803 44.0133 93.0015 44.3415 93.5638 44.8116C94.0206 45.1977 94.0794 45.736 94.3091 46.2455C94.6083 46.9073 95.0852 46.6171 95.3683 46.0919C95.6208 45.6244 95.9787 45.2161 96.4101 44.9009C96.5984 44.7657 96.8068 44.6449 97.0379 44.6173C97.269 44.5884 97.5268 44.6724 97.647 44.8694C97.7164 44.9823 97.7351 45.1175 97.7365 45.2502C97.7445 45.8161 97.5027 46.361 97.1715 46.8219C96.8389 47.2854 96.4195 47.678 96.0228 48.0864C95.8064 48.3083 95.5807 48.5946 95.6635 48.89L95.8305 49.1802C96.2739 49.7632 96.7441 50.3239 97.2409 50.8622C97.4319 51.0697 97.639 51.2811 97.9088 51.3625C98.0984 51.4203 98.3014 51.4084 98.4991 51.3914C100.139 51.2404 101.754 50.6324 103 49.5715C103.885 48.8191 104.572 47.8343 104.94 46.7418C105.338 45.564 105.457 44.4689 105.117 43.2582C104.397 40.6912 103.306 38.224 101.892 35.9524C100.599 33.8751 99.2217 31.9514 97.0847 30.6173C96.1804 30.054 95.1893 29.6207 94.1448 29.3765C92.9454 29.0955 91.8996 28.9721 90.6521 29.0653C89.3057 29.1664 87.9701 29.4251 86.6945 29.8584C84.6603 30.553 82.773 31.698 81.3011 33.2422C80.0108 34.5973 79.156 36.1532 79.1626 38.0309C79.1666 38.7859 79.2575 39.5974 79.9226 40.0544C80.6345 40.5441 81.5895 40.7175 82.4444 40.7109Z" fill="#733118"/>
<path d="M83.222 79.8142L83.1753 80.1398L83.0457 80.4431C81.698 83.6522 80.3838 86.8601 78.8945 90.0114C78.1599 91.5687 77.309 93.0578 76.5517 94.5927C76.2806 95.1508 76.139 95.6156 75.618 96.0108C75.216 96.3141 74.7071 96.5348 74.3278 96.8486C73.0041 97.9411 72.0451 99.4642 70.5679 100.348C70.3315 100.499 70.0122 100.628 69.7758 100.487C69.5848 100.383 69.5034 100.151 69.5261 99.9303C69.5381 99.7203 69.6449 99.5233 69.7398 99.3368L71.0875 96.7199C71.2771 96.3602 71.4668 95.9531 71.3719 95.5579C70.8871 95.8599 70.5906 96.3601 70.3902 96.8945C70.2006 97.4184 70.0937 97.966 69.9054 98.4886C69.669 99.174 69.279 99.8135 68.7353 100.278C68.1784 100.744 67.4571 101.033 66.7238 100.965C66.5222 100.953 66.3098 100.907 66.1094 100.953C65.7181 101.033 65.3401 101.418 64.9728 101.233C64.6656 101.07 64.7136 100.616 64.8071 100.267C65.1157 99.1268 65.4349 98.0002 65.7541 96.8604C66.0614 95.722 66.3926 94.5586 67.0431 93.5816C67.7055 92.5929 68.7581 91.7906 69.9535 91.7316C70.437 91.7092 70.9339 91.9429 71.4187 91.872C71.5964 91.8379 71.7392 91.721 71.8568 91.5687C72.3416 88.9531 72.8265 86.3257 73.3233 83.71C73.7134 81.5579 74.0807 79.3729 74.5536 77.2445C75.0504 75.0832 75.9613 72.9429 76.919 70.9431C77.0366 70.7107 77.1554 70.4664 77.3451 70.2918C77.6884 69.9662 78.2079 69.8978 78.6808 69.9083C79.2845 69.9202 79.8401 70.0607 80.361 70.2813C80.6803 71.6298 81.4015 72.8851 82.076 74.1404C82.5595 75.0254 82.9028 75.9773 83.1633 76.9438C83.4237 77.9417 83.365 78.7913 83.222 79.8142Z" fill="#FFB78C"/>
<path d="M115.801 73.9816C115.726 71.6615 115.407 69.3531 114.953 67.0762C114.686 65.7356 114.217 64.4343 113.987 63.0989C113.79 61.9671 113.01 60.7446 112.064 60.0631C111.317 59.5261 110.353 59.2897 109.435 59.4197C106.017 59.9042 103.948 63.699 103.613 66.7322C103.349 69.1285 103.803 71.5354 104.119 73.9239C104.55 77.1606 104.728 80.4223 104.823 83.6839C104.869 85.2727 105.085 86.9968 104.922 88.5791C104.797 89.8081 103.979 89.9302 102.907 90.0878C101.591 90.2795 83.2549 94.7886 82.941 95.0879C82.1169 95.2035 81.2888 95.2875 80.4313 95.3111C79.8062 95.3282 79.1785 95.3151 78.552 95.2757C77.959 95.2363 77.3539 95.1733 76.7743 95.3072C76.1959 95.4425 75.683 95.7668 75.1848 96.0872C72.595 97.7508 70.0344 99.4841 67.7625 101.548C67.5701 101.724 67.3698 101.915 67.2963 102.163C67.2202 102.411 67.3217 102.73 67.5742 102.807C67.1347 103.108 67.0306 103.786 67.3578 104.201C67.6864 104.616 68.3809 104.682 68.7856 104.338C68.6761 104.635 69.0501 104.879 69.364 104.945C70.1347 105.105 70.9627 104.978 71.6439 104.593C71.6212 104.832 71.8363 105.024 72.0446 105.146C72.4948 105.407 73.0197 105.544 73.5419 105.535C74.0748 105.524 74.5904 105.368 75.0993 105.213C76.0503 104.921 77.0027 104.633 77.9537 104.341C79.8049 103.775 81.7096 103.18 83.1855 101.949C83.8106 101.426 84.3608 100.791 85.1035 100.45C85.6444 100.202 86.2335 100.135 86.8332 100.093C94.8258 100.481 102.897 99.6758 110.572 97.4567C111.397 97.2177 112.251 96.8659 112.804 96.1896C113.397 95.4674 113.581 94.2975 113.786 93.4111C114.604 89.8501 114.966 86.2037 115.326 82.5718C115.609 79.7159 115.892 76.8494 115.801 73.9816Z" fill="#FFE5CC"/>
<path d="M103.035 65.5517C102.6 68.4207 103.002 71.3409 103.402 74.2166C103.635 75.8723 103.865 77.5308 104.097 79.1892C104.117 79.3297 104.138 79.4741 104.215 79.5962C104.337 79.7932 104.577 79.8824 104.802 79.9507C105.263 80.0886 105.739 80.1858 106.215 80.2554C109.484 80.7334 112.931 79.9022 115.604 77.9904C115.862 77.8065 116.118 77.6043 116.266 77.3272C116.404 77.0646 116.431 76.7587 116.448 76.4633C116.66 73.2686 116.503 70.045 115.88 66.9028C115.561 65.3022 115.096 63.7199 114.43 62.2243C114.363 62.0733 114.295 61.9223 114.225 61.7726C113.66 60.5659 112.747 59.0703 111.438 58.5503C110.162 58.0422 108.558 58.2549 107.363 58.8563C104.884 60.1024 103.433 62.94 103.035 65.5517Z" fill="#F2F2F2"/>
<path d="M70.9474 120.946L71.0221 95.0839C71.0234 94.5889 70.6682 93.9849 70.2301 93.7354L37.0267 74.8903C36.8063 74.7669 36.6073 74.755 36.4644 74.8364L37.215 74.4071C37.3579 74.3243 37.5582 74.3349 37.7786 74.4609L70.9794 93.3061C71.4175 93.5543 71.7741 94.1595 71.7728 94.6546L71.6967 120.517C71.6967 120.764 71.6085 120.937 71.4669 121.017L70.7149 121.448C70.8578 121.366 70.946 121.193 70.9474 120.946Z" fill="#4D4D4D"/>
<path d="M70.1487 121.394C70.5881 121.643 70.9461 121.442 70.9474 120.946L71.0222 95.0838C71.0235 94.5888 70.6683 93.9848 70.2302 93.7353L37.0268 74.8902C36.5887 74.642 36.2334 74.8429 36.232 75.3379L36.1572 101.2C36.1559 101.696 36.5098 102.3 36.9479 102.55L70.1487 121.394Z" fill="#1F2125"/>
<path d="M67.2458 33.2804L9.38594 0.439308C9.14418 0.30275 8.92511 0.289558 8.76751 0.378853L6.87354 1.46085C7.03114 1.37156 7.25018 1.38337 7.49327 1.52125L65.3532 34.3611C65.83 34.6316 66.2173 35.2894 66.2147 35.8291L66.0931 78.2241C66.0918 78.492 65.9956 78.6811 65.8407 78.769L67.7346 77.6871C67.8896 77.5991 67.9858 77.4101 67.9858 77.1422L68.1086 34.7471C68.11 34.2088 67.724 33.5509 67.2458 33.2804Z" fill="#E6E6E6"/>
<path d="M66.2219 35.8212L66.2112 40.1859L66.099 78.2176C66.099 78.7573 65.7117 78.9739 65.2335 78.7034L7.37497 45.8636C6.89146 45.5892 6.50545 44.9339 6.5108 44.3956L6.61766 6.36382L6.62832 2.0005C6.63366 1.46082 7.02101 1.24417 7.49918 1.51335L65.3617 34.3532C65.8359 34.6276 66.2219 35.2829 66.2219 35.8212Z" fill="#BFBFBF"/>
<path d="M65.165 35.9748L65.1544 40.1832L65.0448 76.8677C65.0448 77.3877 64.6722 77.5965 64.21 77.3365L8.40174 45.66C7.9356 45.3947 7.56161 44.7632 7.56695 44.2432L7.67114 7.55868L7.68183 3.35032C7.68718 2.82903 8.05983 2.62155 8.52197 2.88023L64.3356 34.5567C64.791 34.8232 65.165 35.4535 65.165 35.9748Z" fill="#1F2125"/>
<path d="M66.2214 35.8211L66.2107 40.1857L6.61719 6.36364L6.62785 2.00031C6.63319 1.46064 7.02054 1.24399 7.49871 1.51317L65.3612 34.353C65.8354 34.6275 66.2214 35.2827 66.2214 35.8211Z" fill="#BFBFBF"/>
<path d="M12.6655 15.2951L11.0533 14.3786C10.7942 14.2315 10.5845 13.8363 10.5845 13.4962C10.5845 13.1575 10.7942 13.0011 11.0533 13.1482L12.6655 14.0634C12.9246 14.2105 13.1356 14.6058 13.1356 14.9459C13.1356 15.2859 12.9246 15.4408 12.6655 15.2951Z" fill="#006EFF"/>
<path d="M12.6655 36.8702L11.0533 35.9563C10.7942 35.8092 10.5845 35.414 10.5845 35.0739C10.5845 34.7338 10.7942 34.5776 11.0533 34.7247L12.6655 35.6412C12.9246 35.7882 13.1356 36.1822 13.1356 36.5222C13.1356 36.861 12.9246 37.0173 12.6655 36.8702Z" fill="#006EFF"/>
<path d="M17.2034 39.4464L13.975 37.6146C13.7146 37.4663 13.5049 37.0724 13.5049 36.7323C13.5049 36.3922 13.7146 36.2359 13.975 36.383L17.2034 38.2174C17.4625 38.3631 17.6722 38.7583 17.6722 39.0971C17.6722 39.4372 17.4625 39.5935 17.2034 39.4464Z" fill="#B3D4FF"/>
<path d="M28.8507 46.058L18.5327 40.2004C18.2722 40.0533 18.0625 39.6594 18.0625 39.3193C18.0625 38.9805 18.2722 38.823 18.5327 38.9713L28.8507 44.8276C29.1112 44.9747 29.3209 45.3699 29.3209 45.71C29.3209 46.0488 29.1112 46.2064 28.8507 46.058Z" fill="#FFAD66"/>
<path d="M19.0347 18.9089L14.1435 16.133C13.883 15.986 13.6733 15.5908 13.6733 15.2507C13.6733 14.9119 13.883 14.7544 14.1435 14.9027L19.0347 17.6785C19.2939 17.8256 19.5036 18.2208 19.5036 18.5609C19.5036 18.901 19.2939 19.0573 19.0347 18.9089Z" fill="#B3D4FF"/>
<path d="M35.2401 28.1069L20.5317 19.7597C20.2712 19.6126 20.0615 19.2174 20.0615 18.8773C20.0615 18.5372 20.2712 18.381 20.5317 18.528L35.2401 26.8765C35.4992 27.0236 35.7089 27.4188 35.7089 27.7589C35.7089 28.099 35.4992 28.2553 35.2401 28.1069Z" fill="#FFAD66"/>
<path d="M14.1849 18.2654L12.5714 17.3502C12.3122 17.2044 12.1025 16.8092 12.1025 16.4691C12.1025 16.129 12.3122 15.9728 12.5714 16.1199L14.1849 17.0364C14.444 17.1821 14.6537 17.5774 14.6537 17.9174C14.6537 18.2562 14.444 18.4138 14.1849 18.2654Z" fill="#006EFF"/>
<path d="M20.5539 21.8801L15.6627 19.1043C15.4035 18.9572 15.1938 18.5633 15.1938 18.2232C15.1938 17.8832 15.4035 17.7269 15.6627 17.8739L20.5539 20.6511C20.8143 20.7981 21.024 21.1921 21.024 21.5321C21.024 21.8709 20.8143 22.0271 20.5539 21.8801Z" fill="#B3D4FF"/>
<path d="M36.7588 31.0782L22.0504 22.731C21.7912 22.5826 21.5815 22.1888 21.5815 21.8487C21.5815 21.5086 21.7912 21.3536 22.0504 21.4994L36.7588 29.8492C37.0192 29.9963 37.2289 30.3902 37.2289 30.7289C37.2289 31.069 37.0192 31.2253 36.7588 31.0782Z" fill="#FFAD66"/>
<path d="M14.1849 20.5501L12.5714 19.6349C12.3122 19.4892 12.1025 19.094 12.1025 18.7539C12.1025 18.4151 12.3122 18.2575 12.5714 18.4059L14.1849 19.3211C14.444 19.4668 14.6537 19.8621 14.6537 20.2022C14.6537 20.5422 14.444 20.6985 14.1849 20.5501Z" fill="#006EFF"/>
<path d="M14.1849 22.7192L12.5714 21.8041C12.3122 21.6557 12.1025 21.2604 12.1025 20.9216C12.1025 20.5816 12.3122 20.4266 12.5714 20.5723L14.1849 21.4876C14.444 21.636 14.6537 22.0298 14.6537 22.3699C14.6537 22.71 14.444 22.8663 14.1849 22.7192Z" fill="#006EFF"/>
<path d="M14.1849 31.4644L12.5714 30.5492C12.3122 30.4008 12.1025 30.0069 12.1025 29.6668C12.1025 29.3267 12.3122 29.1705 12.5714 29.3175L14.1849 30.2328C14.444 30.3811 14.6537 30.7763 14.6537 31.1151C14.6537 31.4552 14.444 31.6102 14.1849 31.4644Z" fill="#006EFF"/>
<path d="M14.1849 33.5929L12.5714 32.6776C12.3122 32.5306 12.1025 32.1354 12.1025 31.7953C12.1025 31.4552 12.3122 31.3003 12.5714 31.446L14.1849 32.3625C14.444 32.5096 14.6537 32.9048 14.6537 33.2436C14.6537 33.5837 14.444 33.7399 14.1849 33.5929Z" fill="#006EFF"/>
<path d="M14.1849 39.6671L12.5714 38.7519C12.3122 38.6035 12.1025 38.2095 12.1025 37.8695C12.1025 37.5294 12.3122 37.3745 12.5714 37.5202L14.1849 38.4367C14.444 38.5838 14.6537 38.979 14.6537 39.3178C14.6537 39.6579 14.444 39.8142 14.1849 39.6671Z" fill="#006EFF"/>
<path d="M18.5938 42.1685L15.4537 40.388C15.1959 40.2409 14.9849 39.8457 14.9849 39.5056C14.9849 39.1655 15.1959 39.0106 15.4537 39.1563L18.5938 40.9395C18.8516 41.0853 19.0627 41.4805 19.0627 41.8206C19.0627 42.1607 18.8516 42.3169 18.5938 42.1685Z" fill="#B3D4FF"/>
<path d="M30.7608 49.0751L20.0327 42.9851C19.7722 42.838 19.5625 42.4428 19.5625 42.104C19.5625 41.7639 19.7722 41.609 20.0327 41.7548L30.7608 47.8448C31.0185 47.9918 31.2296 48.3871 31.2296 48.7258C31.2296 49.0659 31.0185 49.2209 30.7608 49.0751Z" fill="#FFAD66"/>
<path d="M36.507 46.2626L34.8935 45.346C34.6344 45.199 34.4233 44.805 34.4233 44.4649C34.4233 44.1261 34.6344 43.9686 34.8935 44.117L36.507 45.0309C36.7661 45.1779 36.9758 45.5732 36.9758 45.9133C36.9758 46.2533 36.7661 46.4096 36.507 46.2626Z" fill="#006EFF"/>
<path d="M13.2753 24.1216L11.6632 23.2064C11.404 23.0593 11.1943 22.6654 11.1943 22.3253C11.1943 21.9852 11.404 21.8289 11.6632 21.976L13.2753 22.8912C13.5357 23.0383 13.7454 23.4336 13.7454 23.7736C13.7454 24.1124 13.5357 24.27 13.2753 24.1216Z" fill="#006EFF"/>
<path d="M17.7361 26.6532L14.648 24.9016C14.3889 24.7545 14.1792 24.3593 14.1792 24.0205C14.1792 23.6804 14.3889 23.5242 14.648 23.6699L17.7361 25.4228C17.9939 25.5699 18.2049 25.9652 18.2049 26.3039C18.2049 26.644 17.9939 26.8002 17.7361 26.6532Z" fill="#B3D4FF"/>
<path d="M34.3309 36.0732L32.1538 34.8363C31.8946 34.6892 31.6836 34.2939 31.6836 33.9539C31.6836 33.6151 31.8946 33.4602 32.1538 33.6059L34.3309 34.8415C34.59 34.9899 34.7997 35.3838 34.7997 35.7239C34.7997 36.064 34.59 36.2189 34.3309 36.0732Z" fill="#B3D4FF"/>
<path d="M24.1506 30.2944L19.1298 27.4438C18.8707 27.2967 18.6597 26.9015 18.6597 26.5627C18.6597 26.2226 18.8707 26.0677 19.1298 26.2134L24.1506 29.0641C24.4097 29.2112 24.6194 29.6064 24.6194 29.9465C24.6194 30.2866 24.4097 30.4415 24.1506 30.2944Z" fill="#FFAD66"/>
<path d="M13.2753 26.4957L11.6632 25.5804C11.404 25.432 11.1943 25.0368 11.1943 24.6981C11.1943 24.358 11.404 24.2017 11.6632 24.3488L13.2753 25.264C13.5357 25.4123 13.7454 25.8063 13.7454 26.1464C13.7454 26.4864 13.5357 26.6414 13.2753 26.4957Z" fill="#006EFF"/>
<path d="M13.2753 35.1528L11.6632 34.2363C11.404 34.0892 11.1943 33.694 11.1943 33.3539C11.1943 33.0152 11.404 32.8589 11.6632 33.0059L13.2753 33.9212C13.5357 34.0682 13.7454 34.4635 13.7454 34.8036C13.7454 35.1437 13.5357 35.2999 13.2753 35.1528Z" fill="#006EFF"/>
<path d="M17.7361 29.0273L14.648 27.2757C14.3889 27.1273 14.1792 26.7321 14.1792 26.3933C14.1792 26.0532 14.3889 25.897 14.648 26.0441L17.7361 27.7957C17.9939 27.9428 18.2049 28.3379 18.2049 28.678C18.2049 29.0181 17.9939 29.1744 17.7361 29.0273Z" fill="#B3D4FF"/>
<path d="M17.737 35.6084L15.6894 34.4463C15.4289 34.2993 15.2192 33.904 15.2192 33.5653C15.2192 33.2252 15.4289 33.0689 15.6894 33.216L17.737 34.378C17.9948 34.5251 18.2058 34.9204 18.2058 35.2605C18.2058 35.5992 17.9948 35.7568 17.737 35.6084Z" fill="#B3D4FF"/>
<path d="M26.5012 40.5823L24.4523 39.4216C24.1946 39.2732 23.9849 38.8779 23.9849 38.5391C23.9849 38.1991 24.1946 38.0442 24.4523 38.1899L26.5012 39.3533C26.7604 39.5003 26.9701 39.8943 26.9701 40.2343C26.9701 40.5731 26.7604 40.7307 26.5012 40.5823Z" fill="#B3D4FF"/>
<path d="M40.519 44.3745L13.3248 28.9394C13.0657 28.7936 12.856 28.3984 12.856 28.0583C12.856 27.7182 13.0657 27.562 13.3248 27.7104L40.519 43.1442C40.7781 43.2913 40.9878 43.6865 40.9878 44.0253C40.9878 44.3653 40.7781 44.5216 40.519 44.3745Z" fill="#F2F2F2"/>
<path d="M23.0073 32.0185L19.1298 29.8178C18.8707 29.6707 18.6597 29.2755 18.6597 28.9354C18.6597 28.5953 18.8707 28.4391 19.1298 28.5874L23.0073 30.7882C23.2677 30.9366 23.4774 31.3292 23.4774 31.6692C23.4774 32.0093 23.2677 32.1656 23.0073 32.0185Z" fill="#FFAD66"/>
<path d="M23.0073 38.6007L19.1298 36.4C18.8707 36.2516 18.6597 35.8577 18.6597 35.5176C18.6597 35.1775 18.8707 35.0213 19.1298 35.1683L23.0073 37.3703C23.2677 37.5174 23.4774 37.9113 23.4774 38.2514C23.4774 38.5915 23.2677 38.7478 23.0073 38.6007Z" fill="#FFAD66"/>
<path d="M33.448 44.5254L27.9718 41.4187C27.7126 41.2716 27.5029 40.8763 27.5029 40.5363C27.5029 40.1962 27.7126 40.0399 27.9718 40.1883L33.448 43.2963C33.7071 43.4434 33.9168 43.8373 33.9168 44.1774C33.9168 44.5162 33.7071 44.6738 33.448 44.5254Z" fill="#F2F2F2"/>
<path d="M30.8114 34.0746L25.7906 31.2239C25.5315 31.0782 25.3218 30.683 25.3218 30.3429C25.3218 30.0041 25.5315 29.8479 25.7906 29.9949L30.8114 32.8456C31.0705 32.9913 31.2815 33.3866 31.2815 33.7266C31.2815 34.0654 31.0705 34.223 30.8114 34.0746Z" fill="#F2F2F2"/>
<path d="M20.5539 24.1651L15.6627 21.3893C15.4035 21.2422 15.1938 20.8483 15.1938 20.5082C15.1938 20.1681 15.4035 20.0119 15.6627 20.1603L20.5539 22.936C20.8143 23.0831 21.024 23.477 21.024 23.8171C21.024 24.1572 20.8143 24.3135 20.5539 24.1651Z" fill="#B3D4FF"/>
<path d="M31.0719 30.1354L26.1794 27.3595C25.9216 27.2125 25.7119 26.8173 25.7119 26.4772C25.7119 26.1371 25.9216 25.9809 26.1794 26.1292L31.0719 28.905C31.3311 29.0521 31.5408 29.4474 31.5408 29.7874C31.5408 30.1262 31.3311 30.2838 31.0719 30.1354Z" fill="#B3D4FF"/>
<path d="M24.5267 26.4209L22.0504 25.0159C21.7912 24.8688 21.5815 24.4736 21.5815 24.1348C21.5815 23.7948 21.7912 23.6385 22.0504 23.7842L24.5267 25.1918C24.7858 25.3376 24.9969 25.7328 24.9969 26.0729C24.9969 26.4117 24.7858 26.5679 24.5267 26.4209Z" fill="#FFAD66"/>
<path d="M40.7123 35.6083L32.725 31.0743C32.4646 30.9272 32.2549 30.532 32.2549 30.1919C32.2549 29.8518 32.4646 29.6956 32.725 29.844L40.7123 34.378C40.9715 34.525 41.1825 34.9203 41.1825 35.259C41.1825 35.5978 40.9715 35.7554 40.7123 35.6083Z" fill="#FFAD66"/>
<path d="M14.1849 41.6011L12.5714 40.6846C12.3122 40.5375 12.1025 40.1423 12.1025 39.8035C12.1025 39.4634 12.3122 39.3072 12.5714 39.4542L14.1849 40.3694C14.444 40.5178 14.6537 40.9117 14.6537 41.2518C14.6537 41.5919 14.444 41.7469 14.1849 41.6011Z" fill="#006EFF"/>
<path d="M20.5539 45.2161L15.6627 42.4389C15.4035 42.2919 15.1938 41.8966 15.1938 41.5579C15.1938 41.2178 15.4035 41.0615 15.6627 41.2086L20.5539 43.9844C20.8143 44.1315 21.024 44.5267 21.024 44.8668C21.024 45.2068 20.8143 45.3631 20.5539 45.2161Z" fill="#B3D4FF"/>
<path d="M31.0719 51.1854L26.1794 48.4083C25.9216 48.2625 25.7119 47.8673 25.7119 47.5272C25.7119 47.1884 25.9216 47.0309 26.1794 47.1793L31.0719 49.9551C31.3311 50.1021 31.5408 50.496 31.5408 50.8361C31.5408 51.1762 31.3311 51.3325 31.0719 51.1854Z" fill="#B3D4FF"/>
<path d="M24.5267 47.4706L22.0504 46.0656C21.7912 45.9186 21.5815 45.5233 21.5815 45.1832C21.5815 44.8432 21.7912 44.6869 22.0504 44.8353L24.5267 46.2402C24.7858 46.3873 24.9969 46.7826 24.9969 47.1226C24.9969 47.4627 24.7858 47.6177 24.5267 47.4706Z" fill="#FFAD66"/>
<path d="M40.7123 56.6582L32.725 52.1228C32.4646 51.9758 32.2549 51.5806 32.2549 51.2418C32.2549 50.903 32.4646 50.7467 32.725 50.8925L40.7123 55.4265C40.9715 55.5735 41.1825 55.9688 41.1825 56.3089C41.1825 56.649 40.9715 56.8053 40.7123 56.6582Z" fill="#FFAD66"/>
<path d="M61.2739 34.8534C61.2739 35.6176 61.8229 36.5485 62.5001 36.9332C63.1772 37.3167 63.7262 37.0094 63.7262 36.2452C63.7262 35.4823 63.1772 34.5514 62.5001 34.1666C61.8229 33.7819 61.2739 34.0892 61.2739 34.8534Z" fill="#404040"/>
<path d="M57.8472 32.9088C57.8472 33.673 58.3962 34.604 59.0733 34.9887C59.7505 35.3734 60.2995 35.0649 60.2995 34.3007C60.2995 33.5365 59.7505 32.6055 59.0733 32.2207C58.3962 31.836 57.8472 32.1446 57.8472 32.9088Z" fill="#404040"/>
<path d="M54.4209 30.9627C54.4209 31.727 54.9698 32.6579 55.647 33.0426C56.3242 33.4274 56.8732 33.1201 56.8732 32.3559C56.8732 31.5917 56.3242 30.6607 55.647 30.276C54.9698 29.8926 54.4209 30.1999 54.4209 30.9627Z" fill="#404040"/>
</svg>
