<svg width="181" height="192" viewBox="0 0 181 192" fill="none" xmlns="http://www.w3.org/2000/svg">
<path d="M58.5597 135.146L2.85453 135.049C1.30081 135.046 0.0361401 134.344 0.030787 133.478L9.59313e-06 127.97C-0.00400519 127.106 1.25265 126.407 2.80637 126.41L58.5115 126.508C60.0653 126.51 61.3286 127.213 61.3339 128.077L61.3633 133.585C61.3687 134.449 60.1134 135.148 58.5597 135.146Z" fill="#F2F2F2"/>
<path d="M6.40028 116.312C5.24 116.468 4.11719 117.108 3.58189 118.111C2.83648 119.505 3.33302 121.192 3.1644 122.753C3.03593 123.949 2.50727 125.074 2.28244 126.258C2.00676 127.71 2.19947 129.047 2.91544 130.359C3.29818 131.062 3.83483 131.768 4.53207 132.204C5.39391 132.743 6.37753 133.14 7.40397 133.189C8.43176 133.238 9.50507 132.908 10.2023 132.18C10.6908 131.669 10.9731 130.98 10.9798 130.285C10.9865 129.597 10.7323 128.928 10.4017 128.316C10.0618 127.68 9.54122 127.078 9.28427 126.405C8.76235 125.027 10.2639 123.862 11.2983 123.231C11.4763 123.123 11.6637 123.016 11.7908 122.852C11.9046 122.707 11.9594 122.527 12.0116 122.351C12.2525 121.551 12.4961 120.738 12.4907 119.904C12.4841 119.071 12.1923 118.2 11.5272 117.668C10.9209 117.183 10.0698 116.996 9.34445 116.721C8.41168 116.37 7.4013 116.176 6.40028 116.312Z" fill="#FF9207"/>
<path d="M41.9772 118.725C41.6119 116.735 40.8116 114.849 40.0488 112.966C38.1846 108.374 36.481 103.655 33.6091 99.5733C31.1922 96.1327 28.0205 93.2556 24.8782 90.4107C24.2493 89.8407 23.5574 89.5505 22.8936 89.1056C22.5697 88.8877 21.6209 87.4988 22.0906 87.1145C20.0391 88.7948 18.3824 91.218 17.2823 93.7894C16.6346 95.3034 16.1782 96.8703 15.9467 98.3675C15.6496 100.297 15.8169 102.329 16.6961 104.087C17.574 105.845 19.2161 107.292 21.19 107.725C21.5366 107.8 21.9194 107.86 22.1536 108.117C22.27 108.245 22.3342 108.405 22.4078 108.559C23.2496 110.345 25.0696 111.786 26.2714 113.362C26.9994 114.315 27.6886 115.295 28.3885 116.267C27.9 116.159 27.4076 116.06 26.9098 115.991C25.2878 115.768 23.643 115.775 22.0037 115.791C21.2904 115.798 20.5771 115.808 19.8638 115.821C17.7025 115.864 15.5412 115.947 13.3906 116.152C12.3147 116.256 11.2467 116.399 10.1801 116.56C9.71439 116.63 9.49758 116.662 9.17372 117.035C8.90607 117.345 8.71871 117.718 8.60228 118.105C8.41627 118.727 8.40825 119.386 8.45108 120.03C8.50461 120.849 8.65049 121.675 8.96364 122.441C9.11486 122.808 9.30223 123.163 9.54044 123.485C9.65687 123.644 9.78399 123.804 9.92852 123.94C10.1293 124.133 10.132 124.116 10.3795 124.02C12.1608 123.338 13.9058 123.16 15.8169 123.199C19.4998 123.272 23.1773 123.73 26.7518 124.592C29.0804 125.151 31.3688 125.884 33.7322 126.289C35.5723 126.605 37.664 126.611 39.4252 125.952C42.5929 124.768 42.4657 121.393 41.9772 118.725Z" fill="#333333"/>
<path d="M40.8397 128.05L40.7889 128.24C40.6591 128.755 40.5654 129.283 40.5948 129.813C40.6644 131.104 41.5249 132.091 42.8779 132.235C43.6969 132.323 44.5199 132.147 45.339 132.057C47.5417 131.815 49.7606 132.191 51.9714 132.372C54.1809 132.551 56.5094 132.512 58.474 131.522C59.5018 131.005 60.4519 130.132 60.5657 129.02C60.5831 128.849 60.5791 128.671 60.5148 128.509C60.4171 128.271 60.199 128.098 59.9809 127.95C59.1846 127.408 58.2746 127.039 57.3659 126.694C56.3448 126.304 55.313 125.939 54.2705 125.605C52.4424 125.021 50.5796 124.534 48.6873 124.191C47.7425 124.019 46.791 123.885 45.8354 123.792C45.4179 123.752 44.8893 123.801 44.4918 123.676C44.2014 123.584 44.077 123.279 43.8588 123.093C43.369 123.339 42.9769 123.872 42.6637 124.296C41.826 125.427 41.2037 126.705 40.8397 128.05Z" fill="#FFD39C"/>
<path d="M60.2642 99.4921C60.1866 98.5107 59.9965 97.2418 59.1628 96.5686C58.5512 96.0747 57.8633 95.5666 57.0778 95.4324C56.8436 95.3293 56.6 95.2428 56.3551 95.1706C53.7281 94.3904 50.903 94.923 48.1864 95.3344C43.8651 95.9882 39.4997 96.3184 35.137 96.6189C31.9452 96.8407 28.7307 97.0393 25.535 96.7607C24.5032 96.6704 22.5868 96.7323 21.9645 95.8502C21.6326 95.3808 21.4037 94.8508 21.2953 94.2924C21.2445 94.0268 21.0518 92.8893 21.3181 92.6998C19.5877 93.943 18.3619 95.7729 17.6914 97.7486C17.306 98.8834 17.0397 100.15 16.9674 101.43C16.8403 103.648 17.2873 105.91 18.6817 107.617C19.8233 109.015 21.5322 109.91 23.3148 110.371C25.0987 110.832 26.9669 110.888 28.8137 110.847C35.3418 110.706 41.8136 109.369 47.9054 107.089C47.4611 108.014 47.0462 108.951 46.6915 109.912C46.092 111.532 45.645 113.201 45.1994 114.867C44.5209 117.447 43.8183 120.023 43.1278 122.601C42.9832 123.136 42.559 123.988 42.6139 124.534C42.6607 125.002 43.0782 125.195 43.4985 125.411C44.5597 125.959 45.8123 126.079 46.998 126.057C47.8077 126.041 50.0238 126.071 50.5537 125.351C50.7505 125.086 57.5863 108.653 58.9139 105.328C59.6794 103.414 60.4301 101.588 60.2642 99.4921Z" fill="#424242"/>
<path d="M73.8733 100.422C73.702 100.047 73.4264 99.7243 73.1547 99.4084C73.3033 99.3813 73.3635 99.1878 73.3033 99.0524C73.2444 98.917 73.1105 98.828 72.9834 98.7481C72.4133 98.3883 71.8459 98.0298 71.2758 97.67C70.9198 97.4456 70.5639 97.2199 70.1744 97.0574C69.7181 96.8653 69.2242 96.7621 68.7304 96.6835C67.8378 96.5403 66.8756 96.5287 66.0044 96.2862C65.3272 96.098 61.295 93.2337 60.6728 92.6237C58.7176 90.7074 56.9029 88.6595 54.9236 86.7677C52.943 84.8758 50.771 83.1271 48.2711 81.9355C47.6903 81.6582 47.08 81.408 46.4323 81.3474L46.1285 81.39C46.0201 81.4583 45.984 81.5963 45.9612 81.7201C45.6012 83.6816 46.2556 86.0726 47.5644 87.5904C48.2925 88.4338 49.1115 89.4178 50.0483 90.0548C50.9235 90.6493 51.7679 91.2065 52.6003 91.8861C53.5813 92.6869 54.5622 93.4891 55.5445 94.2899C57.0701 95.537 58.6011 96.7866 60.2552 97.875C61.8651 98.9325 63.5125 99.9693 65.2683 100.793C66.9626 101.588 68.7893 102.171 70.5558 102.825C70.9948 102.986 71.4859 103.149 71.9208 102.975L72.2366 102.845C72.4762 102.788 72.7465 102.903 72.9687 102.799L73.227 102.564C73.3595 102.399 73.492 102.234 73.6258 102.069C73.7409 101.926 73.8546 101.782 73.9309 101.619C74.1035 101.242 74.046 100.799 73.8733 100.422Z" fill="#FFB78C"/>
<path d="M48.1528 74.0277C47.7821 72.6427 47.4034 71.2396 46.6687 69.9964C45.9326 68.7532 44.7857 67.6713 43.3497 67.3089C41.4681 66.8356 39.4955 67.6661 37.8883 68.721C36.3747 69.714 35.0204 70.9185 33.7397 72.1797C30.9199 74.955 28.4281 78.0203 25.9858 81.1077C24.6448 82.8035 23.3159 84.507 21.9991 86.2209C20.7933 87.7904 19.5916 89.3792 18.6963 91.1305C18.4487 91.6128 18.0592 92.2808 18.2412 92.825C18.4326 93.4014 19.0081 93.9895 19.4202 94.4318C20.3557 95.4326 21.5106 96.236 22.7646 96.8293C24.7573 97.7732 26.9747 98.204 29.1896 98.3794C30.3886 98.4748 31.5998 98.4967 32.7908 98.3265C33.836 98.1756 35.3443 97.9305 36.0629 97.1529C36.9435 96.2038 40.6665 91.9184 41.7719 90.8339L42.0088 90.6714C42.1506 90.634 42.2952 90.7062 42.4263 90.7681C43.5839 91.3188 44.9838 91.284 46.1895 90.8378C47.394 90.3928 48.419 89.5688 49.2474 88.6158C50.1615 87.5647 50.8708 86.3241 51.1358 84.9765C51.3137 84.0789 51.2816 83.1362 51.0086 82.2593C50.7436 81.4056 50.0879 80.8226 49.7519 80.0257C49.416 79.2287 49.2929 78.2873 49.0708 77.4555C48.7643 76.3129 48.4592 75.1703 48.1528 74.0277Z" fill="#D9D9D9"/>
<path d="M45.2148 66.4564L44.9619 66.6253L45.0328 66.8794C45.3259 67.3191 45.7073 67.6957 46.0312 68.1161C46.7766 69.082 47.1995 70.2478 47.4297 71.4317C47.6598 72.6143 47.708 73.8213 47.7682 75.0232C47.7963 75.5726 47.8739 76.2045 48.3517 76.5076L48.5203 76.5669C48.6622 76.5682 48.7559 76.4289 48.8214 76.3064C49.3286 75.3804 49.9817 74.5125 50.8248 73.851C51.6666 73.1881 52.7144 72.7393 53.8011 72.7007C53.1239 71.5232 53.0195 70.1214 53.0356 68.7738C53.0503 67.4274 53.1654 66.0631 52.8724 64.7451C52.7653 64.2602 52.5926 63.7689 52.2434 63.4039C51.8834 63.0261 51.3441 62.8133 50.8128 62.8378C49.6351 62.8919 49.0557 63.8656 48.3357 64.5903C47.4805 65.4518 46.3978 66.1056 45.2148 66.4564Z" fill="#FFB78C"/>
<path d="M59.2275 57.3865C60.8602 57.9229 62.2092 59.0681 63.1272 60.4596C63.878 61.6009 64.44 62.8995 64.2794 64.2678C64.1737 65.1653 63.9436 66.0384 63.7254 66.9115C63.518 67.7445 63.2035 68.6576 62.4193 69.0586C62.1971 69.1721 61.9361 69.2457 61.7836 69.4378C61.6672 69.5849 61.6337 69.7757 61.6029 69.9588C61.5226 70.4488 61.4423 70.9402 61.3634 71.429C61.2911 71.8687 61.1265 72.4026 60.6729 72.4813C60.5096 72.5096 60.3436 72.4671 60.179 72.4478C59.4162 72.3588 58.6882 72.7714 58.1087 73.2563C57.5293 73.7399 57.018 74.3164 56.3449 74.671C55.1525 75.3003 53.5346 75.0566 52.5964 74.1075C52.2137 73.7206 51.942 73.2395 51.7681 72.7314C51.7118 72.5689 51.6623 72.4001 51.5499 72.2698C51.4469 72.1525 51.3036 72.0776 51.1645 72.0002C48.5843 70.5701 47.2019 67.6813 46.7777 64.8403C46.6224 63.8061 46.5796 62.719 46.9797 61.7505C47.3625 60.831 48.1079 60.101 48.8854 59.4537C50.0296 58.5019 51.313 57.6598 52.7664 57.2562C53.7995 56.9699 54.8876 56.9132 55.9635 56.9299C57.0676 56.948 58.1823 57.0434 59.2275 57.3865Z" fill="#FFE5CC"/>
<path d="M64.0924 65.7095C63.9185 65.9751 63.6629 66.2111 63.2855 66.4484C62.5334 66.9243 61.6554 67.2119 60.7949 67.4414C59.5691 67.7677 58.3018 67.9418 57.0947 68.3222C55.8875 68.7026 54.7072 69.3243 53.9872 70.3327C53.2847 71.318 53.3436 72.4838 52.8216 73.5451C52.7467 73.6973 52.661 73.852 52.5178 73.9475C52.384 74.0377 52.2154 74.0648 52.0521 74.0842C49.1842 74.4182 46.2855 72.9816 44.4949 70.7983C42.7043 68.615 41.9228 65.7856 41.8238 63.0039C41.8171 62.804 41.8144 62.5951 41.9 62.4132C41.9977 62.2018 42.1985 62.0535 42.3925 61.9155C43.9891 60.778 45.6258 59.6922 47.2972 58.6592C48.7546 57.7591 50.2521 56.8937 51.8888 56.3585C54.8049 55.4055 58.184 55.6067 60.7749 57.2097C62.2256 58.1072 63.3711 59.4587 64.0148 60.9985C64.5929 62.381 64.9663 64.3657 64.0924 65.7095Z" fill="#733118"/>
<path d="M81.1428 138.793L56.3796 125.015C55.9045 124.75 55.9634 124.289 56.5121 123.984L80.8444 110.446C81.3931 110.142 82.2228 110.108 82.6979 110.373L107.461 124.151C107.936 124.415 107.876 124.876 107.327 125.181L82.9977 138.718C82.4476 139.024 81.6179 139.057 81.1428 138.793Z" fill="#F2F2F2"/>
<path d="M82.0674 125.609L58.3989 112.441L81.9203 99.3543L105.589 112.522L82.0674 125.609Z" fill="#F2F2F2"/>
<path d="M82.0604 124.173L60.9814 112.445L81.9293 100.791L103.008 112.518L82.0604 124.173Z" fill="#E6E6E6"/>
<path d="M82.0679 137.181V125.609L105.589 112.522V124.095L82.0679 137.181Z" fill="#BFBFBF"/>
<path d="M58.3989 112.441V124.014L82.0674 137.181V125.609L58.3989 112.441Z" fill="#E6E6E6"/>
<path d="M66.1186 115.303L64.4525 114.381L64.1687 110.668L63.5786 102.742L65.2327 103.516L65.7064 109.814L66.1186 115.303Z" fill="#4D4D4D"/>
<path d="M65.2314 103.514L63.5732 102.741L84.2186 91.2554L85.878 92.0292L65.2314 103.514Z" fill="#737373"/>
<path d="M87.6644 115.771L78.7168 120.747L77.3116 121.533L77.1938 121.601L77.1818 121.454L76.2958 120.964L74.6284 120.041L73.7531 119.552L72.087 118.629L71.2011 118.14L69.5349 117.205L68.6718 116.726L66.9949 115.794L66.1184 115.303L65.7062 109.814L65.2324 103.516L85.8805 92.024L85.9621 93.164L86.0919 94.7799L86.1762 95.9199V95.9315L86.2927 97.5487L86.3757 98.6873L86.5068 100.316L86.5884 101.443L86.7075 103.072L86.7423 103.471L86.7905 104.211L86.9189 105.84L87.6644 115.771Z" fill="#1F2125"/>
<path d="M68.6716 116.727L66.9947 115.794L66.5089 109.371L66.1182 104.199L67.7843 104.973L68.0452 108.516L68.6716 116.727Z" fill="#4D4D4D"/>
<path d="M67.7792 104.974L66.1211 104.2L86.7665 92.7139L88.4259 93.4876L67.7792 104.974Z" fill="#737373"/>
<path d="M90.2175 117.228L79.8995 122.968L78.8476 122.388L77.3113 121.533L77.1935 121.601L77.1815 121.454L76.2955 120.964L74.6281 120.041L73.7528 119.552L72.0867 118.629L71.2008 118.14L69.5346 117.205L68.6715 116.726L68.0452 108.515L67.7842 104.973L86.0916 94.7798L88.4202 93.4825L88.5032 94.6328L88.633 96.2487L88.716 97.3771L88.8337 99.0174L88.9287 100.145L89.0465 101.773L89.1308 102.9V102.912L89.2593 104.529V104.541L89.2834 104.883L90.2175 117.228Z" fill="#1F2125"/>
<path d="M71.2012 118.14L69.535 117.205L68.8485 108.072L68.6719 105.658L70.3273 106.432L70.3862 107.218L71.2012 118.14Z" fill="#4D4D4D"/>
<path d="M70.3289 106.433L68.6694 105.659L89.3148 94.1726L90.9742 94.9464L70.3289 106.433Z" fill="#737373"/>
<path d="M92.723 118.242L82.0624 124.175L79.8998 122.968L78.8479 122.388L77.3116 121.533L77.1938 121.601L77.1818 121.454L76.2958 120.964L74.6283 120.041L73.7531 119.552L72.087 118.629L71.2011 118.14L70.3861 107.218L70.3271 106.432L86.2927 97.5488L90.9725 94.9516L91.0569 96.0786L91.1867 97.7075L91.2683 98.8359V98.8475L91.3874 100.463L91.4704 101.603L91.6002 103.231L91.8237 106.295L92.723 118.242Z" fill="#1F2125"/>
<path d="M73.7529 119.552L72.0868 118.628L71.2129 107.115L72.8791 107.89L73.7529 119.552Z" fill="#4D4D4D"/>
<path d="M72.8772 107.893L71.2178 107.119L91.8645 95.6325L93.5239 96.4063L72.8772 107.893Z" fill="#737373"/>
<path d="M95.074 116.932L92.7226 118.242L82.0621 124.175L79.8994 122.968L78.8476 122.388L77.3112 121.533L77.1934 121.601L77.1814 121.454L76.2955 120.964L74.628 120.041L73.7528 119.552L72.8789 107.89L83.7871 101.83L86.5064 100.316L88.8336 99.0177L91.1863 97.7075L93.527 96.4088L93.6086 97.5372L93.7384 99.1647L93.8213 100.293L93.9392 101.934L94.3768 107.719L95.074 116.932Z" fill="#1F2125"/>
<path d="M76.2957 120.964L74.6283 120.041L73.7651 108.572L75.4192 109.347L76.2957 120.964Z" fill="#4D4D4D"/>
<path d="M75.4246 109.351L73.7651 108.577L94.4118 97.0921L96.0699 97.8658L75.4246 109.351Z" fill="#737373"/>
<path d="M97.4151 115.633L95.0745 116.932L92.7231 118.242L82.0626 124.175L79.8999 122.968L78.8481 122.388L77.3118 121.533L77.1939 121.601L77.1819 121.454L76.296 120.964L75.4194 109.347L86.3637 103.266L86.7077 103.072L89.047 101.774L91.3876 100.463L93.7389 99.1647L96.0675 97.8661L96.1505 98.9945L96.2802 100.623V100.635L96.9186 109.131L97.4151 115.633Z" fill="#1F2125"/>
<path d="M78.8482 122.388L77.3119 121.533L77.1941 121.601L77.1821 121.454L76.3188 110.041L77.9743 110.816L78.7171 120.747L78.8482 122.388Z" fill="#4D4D4D"/>
<path d="M77.9738 110.811L76.313 110.037L96.9597 98.5508L98.6179 99.3245L77.9738 110.811Z" fill="#737373"/>
<path d="M99.7423 114.325L97.4151 115.633L95.0745 116.932L92.7231 118.242L82.0626 124.175L79.8999 122.968L78.848 122.388L78.7169 120.748L77.9741 110.816L86.919 105.84L88.9653 104.701L89.2597 104.541L91.3407 103.379L91.6004 103.231L93.9396 101.934L96.2802 100.635L98.6195 99.3259L99.4586 110.543L99.7423 114.325Z" fill="#1F2125"/>
<path d="M83.7958 117.998L86.7814 118.269V119.549L81.7656 119.126L86.7814 113.136V114.417L83.7958 117.998Z" fill="#F2F2F2"/>
<path d="M89.0372 120.042L88.0737 120.578C89.0266 117.205 89.7385 114.676 90.2069 112.992L91.2735 109.199L92.2397 108.661L89.0372 120.042Z" fill="#F2F2F2"/>
<path d="M96.3017 111.039L93.3066 110.773V109.506L98.3331 109.909L93.3066 115.919V114.625L96.3017 111.039Z" fill="#F2F2F2"/>
<path d="M79.7863 112.464C79.6592 112.278 79.4745 112.138 79.2979 111.995C78.788 111.586 78.3156 111.133 77.8713 110.657C76.9773 109.694 76.1716 108.607 75.0194 107.945C74.1495 107.449 64.9852 103.019 62.6111 101.884C61.2608 101.238 59.8957 100.626 58.5534 99.9653C56.9863 99.1928 56.3145 97.7369 55.64 96.259C54.9468 94.7334 54.2483 93.2026 53.7625 91.6048C53.3302 90.1927 53.0706 88.7367 52.7507 87.2988C52.4429 85.9112 51.9464 84.5481 51.5329 83.1811C51.2652 82.2926 50.9856 81.3937 50.469 80.6135C50.101 80.0602 49.6232 79.5805 49.104 79.1549C48.4442 78.6133 47.6345 78.1297 46.7714 78.2161C46.3792 78.2548 46.0099 78.4095 45.6687 78.5978C43.3347 79.881 42.6254 82.3803 42.9145 84.8086C43.1889 87.1041 44.309 89.2113 45.3274 91.3017C46.3204 93.338 47.2371 95.4117 48.3157 97.408C48.851 98.3997 49.4279 99.3733 50.0702 100.304C51.0284 101.691 51.9652 102.853 53.3315 103.865C54.0502 104.396 54.8773 104.763 55.6882 105.14C56.7441 105.631 66.1561 108.807 67.7406 109.37C67.9133 109.431 68.0792 109.508 68.2505 109.575C68.4164 109.728 68.6546 109.787 68.8795 109.846C69.0588 109.893 69.2114 109.979 69.376 110.047C69.5499 110.127 69.7226 110.209 69.8952 110.29C70.1441 110.446 70.381 110.621 70.5951 110.839C71.0421 111.293 71.3512 111.85 71.7353 112.352C71.9494 112.634 72.1876 112.904 72.4794 113.117C72.8862 113.415 73.3734 113.591 73.8605 113.737C74.4065 113.901 74.9632 114.031 75.5266 114.128C76.3202 114.264 77.1446 114.333 77.9328 114.168C78.5404 114.04 79.1158 113.776 79.6003 113.4C79.71 113.315 79.8185 113.221 79.8773 113.099C79.9724 112.896 79.9134 112.651 79.7863 112.464Z" fill="#FFE5CC"/>
<path d="M42.4763 82.2798C42.4429 82.7737 42.467 83.2896 42.5192 83.8505C42.7869 86.7173 43.7303 89.4952 44.9856 92.1066C45.1047 92.3529 45.2305 92.6044 45.4406 92.7849C45.7216 93.0248 46.1472 93.0029 46.5005 93.0364C47.8656 93.1731 49.2466 92.8223 50.4805 92.2459C51.7157 91.6681 52.8238 90.8712 53.9078 90.0613L54.1206 89.8382C54.1701 89.7286 54.15 89.6035 54.1273 89.4861C53.7298 87.3828 53.0928 85.3272 52.2885 83.336C51.7639 82.0335 51.1537 80.7362 50.2062 79.6774C49.5009 78.8907 48.5882 78.2369 47.5483 77.9287C44.7821 77.1085 42.6383 79.8747 42.4763 82.2798Z" fill="#F2F2F2"/>
<path d="M111.891 191.759L44.147 154.069C43.5862 153.757 43.6571 153.213 44.3035 152.853L69.4013 138.889C70.0504 138.53 71.0286 138.491 71.5894 138.802L139.332 176.492C139.893 176.804 139.822 177.348 139.176 177.709L114.078 191.672C113.432 192.033 112.452 192.071 111.891 191.759Z" fill="#F2F2F2"/>
<path d="M134.546 172.657V173.581L72.7816 139.217C72.253 138.924 71.3323 138.96 70.7247 139.3L49.089 151.335V150.709H46.6025L46.6253 153.088C46.628 153.273 46.727 153.449 46.9639 153.581L110.7 189.041C111.226 189.334 112.148 189.298 112.757 188.958L136.369 175.821C136.694 175.641 136.852 175.412 136.862 175.192L136.872 172.806L134.546 172.657Z" fill="#BFBFBF"/>
<path d="M110.7 186.63L46.9637 151.169C46.4351 150.877 46.5019 150.365 47.1109 150.026L70.7245 136.888C71.3321 136.549 72.2528 136.512 72.7814 136.806L136.517 172.266C137.043 172.56 136.978 173.072 136.369 173.41L112.757 186.548C112.148 186.886 111.226 186.924 110.7 186.63Z" fill="#D9D9D9"/>
<path d="M75.7148 139.712L73.6312 140.879C73.488 140.961 73.2497 140.961 73.1012 140.878L69.6297 138.946L69.5213 138.798L69.52 139.157L69.6297 139.305L73.0999 141.235C73.2484 141.318 73.4867 141.318 73.6312 141.238L75.7135 140.071L75.8232 139.923L75.8246 139.565L75.7148 139.712Z" fill="#1F2125"/>
<path d="M75.7133 139.415C75.8618 139.497 75.8619 139.63 75.7147 139.713L73.631 140.88C73.4878 140.961 73.2496 140.961 73.101 140.878L69.6296 138.947C69.485 138.867 69.4837 138.734 69.6283 138.653L71.7119 137.485C71.8591 137.403 72.0973 137.403 72.2419 137.484L75.7133 139.415Z" fill="#4D4D4D"/>
<path d="M72.4135 141.357L69.2364 143.136C69.0665 143.23 68.7882 143.23 68.6155 143.136L65.4197 141.357L65.2899 141.183L65.2886 141.541L65.4184 141.715L68.6142 143.495C68.7868 143.589 69.0652 143.589 69.2364 143.495L72.4121 141.715L72.5393 141.542L72.5406 141.185L72.4135 141.357Z" fill="#1F2125"/>
<path d="M72.4105 141.011C72.5818 141.105 72.5831 141.261 72.4132 141.356L69.2361 143.136C69.0661 143.23 68.7878 143.23 68.6152 143.136L65.4194 141.356C65.2467 141.261 65.2467 141.105 65.4167 141.011L68.5938 139.231C68.7637 139.136 69.0421 139.136 69.2147 139.231L72.4105 141.011Z" fill="#4D4D4D"/>
<path d="M79.9724 142.075L77.8807 143.246C77.7362 143.327 77.5033 143.327 77.3614 143.247L74.0332 141.397L73.9261 141.251L73.9248 141.609L74.0318 141.754L77.3601 143.606C77.5033 143.684 77.7348 143.684 77.8793 143.604L79.971 142.432L80.0794 142.288L80.0808 141.929L79.9724 142.075Z" fill="#1F2125"/>
<path d="M79.9735 141.785C80.1154 141.863 80.1167 141.994 79.9722 142.075L77.8805 143.246C77.736 143.327 77.5031 143.327 77.3612 143.247L74.033 141.396C73.8912 141.317 73.8898 141.186 74.0343 141.105L76.126 139.935C76.2705 139.854 76.5021 139.854 76.6453 139.933L79.9735 141.785Z" fill="#4D4D4D"/>
<path d="M76.8361 143.817L73.659 145.595C73.4891 145.692 73.2107 145.692 73.0354 145.594L69.841 143.817L69.7098 143.64L69.7085 143.999L69.8396 144.176L73.034 145.953C73.2093 146.049 73.4878 146.049 73.659 145.954L76.8347 144.176L76.9618 144.004L76.9632 143.646L76.8361 143.817Z" fill="#1F2125"/>
<path d="M76.8307 143.469C77.006 143.567 77.006 143.722 76.836 143.817L73.659 145.596C73.4891 145.692 73.2107 145.692 73.0354 145.594L69.8409 143.817C69.667 143.721 69.667 143.564 69.8369 143.469L73.0139 141.691C73.1839 141.595 73.4623 141.595 73.6362 141.693L76.8307 143.469Z" fill="#4D4D4D"/>
<path d="M84.3092 144.488L82.2188 145.659C82.0743 145.74 81.8415 145.74 81.6969 145.659L78.3713 143.809L78.2603 143.662V144.021L78.3713 144.168L81.6956 146.017C81.8401 146.098 82.0729 146.098 82.2175 146.017L84.3092 144.846L84.4163 144.702L84.4176 144.343L84.3092 144.488Z" fill="#1F2125"/>
<path d="M84.3078 144.196C84.4537 144.277 84.4537 144.408 84.3091 144.488L82.2188 145.659C82.0743 145.74 81.8414 145.74 81.6969 145.659L78.3713 143.809C78.2255 143.728 78.2241 143.599 78.3699 143.518L80.4603 142.347C80.6049 142.266 80.8377 142.266 80.9836 142.347L84.3078 144.196Z" fill="#4D4D4D"/>
<path d="M88.6481 146.902L86.5577 148.073C86.4118 148.154 86.1776 148.153 86.0344 148.073L82.7075 146.221L82.6005 146.076L82.5991 146.435L82.7062 146.579L86.0331 148.431C86.1763 148.51 86.4105 148.512 86.5563 148.431L88.6467 147.259L88.7538 147.116L88.7551 146.757L88.6481 146.902Z" fill="#1F2125"/>
<path d="M88.6467 146.61C88.7899 146.689 88.794 146.821 88.6481 146.902L86.5577 148.073C86.4118 148.154 86.1776 148.153 86.0344 148.073L82.7075 146.221C82.563 146.142 82.563 146.012 82.7075 145.932L84.7992 144.76C84.9437 144.679 85.1752 144.679 85.3184 144.759L88.6467 146.61Z" fill="#4D4D4D"/>
<path d="M92.982 149.314L90.8917 150.485C90.7472 150.566 90.5156 150.566 90.3711 150.486L87.0442 148.635L86.9344 148.488L86.9331 148.847L87.0428 148.994L90.3711 150.845C90.5143 150.924 90.7458 150.924 90.8903 150.843L92.9807 149.672L93.0904 149.527L93.0918 149.168L92.982 149.314Z" fill="#1F2125"/>
<path d="M92.9838 149.024C93.127 149.103 93.1283 149.232 92.9825 149.313L90.8921 150.484C90.7476 150.566 90.5161 150.566 90.3715 150.486L87.0446 148.635C86.9001 148.554 86.8987 148.425 87.0433 148.344L89.1336 147.173C89.2795 147.091 89.5111 147.091 89.6569 147.173L92.9838 149.024Z" fill="#4D4D4D"/>
<path d="M97.3223 151.728L95.2292 152.899C95.086 152.979 94.8532 152.979 94.7087 152.899L91.3817 151.048L91.2733 150.902L91.272 151.26L91.3817 151.407L94.7073 153.257C94.8518 153.337 95.0847 153.337 95.2292 153.257L97.3209 152.086L97.428 151.94L97.4293 151.582L97.3223 151.728Z" fill="#1F2125"/>
<path d="M97.3199 151.436C97.4658 151.516 97.4658 151.646 97.3226 151.728L95.2295 152.899C95.0863 152.98 94.8535 152.98 94.709 152.899L91.382 151.048C91.2375 150.968 91.2362 150.838 91.3807 150.757L93.4724 149.586C93.6169 149.504 93.8498 149.504 93.9943 149.586L97.3199 151.436Z" fill="#4D4D4D"/>
<path d="M101.657 154.139L99.5657 155.31C99.4212 155.391 99.1883 155.391 99.0465 155.313L95.7182 153.461L95.6112 153.316L95.6099 153.675L95.7169 153.818L99.0452 155.67C99.187 155.75 99.4199 155.75 99.5644 155.669L101.656 154.498L101.764 154.352L101.766 153.993L101.657 154.139Z" fill="#1F2125"/>
<path d="M101.659 153.849C101.8 153.929 101.8 154.058 101.657 154.139L99.5655 155.31C99.421 155.391 99.1882 155.391 99.0463 155.313L95.718 153.461C95.5762 153.381 95.5749 153.252 95.7194 153.171L97.8111 152C97.9543 151.918 98.1871 151.918 98.3303 151.997L101.659 153.849Z" fill="#4D4D4D"/>
<path d="M105.995 156.552L103.904 157.724C103.759 157.805 103.527 157.805 103.381 157.724L100.057 155.874L99.9471 155.727L99.9458 156.085L100.056 156.232L103.38 158.083C103.526 158.164 103.758 158.164 103.903 158.083L105.993 156.91L106.102 156.766L106.103 156.409L105.995 156.552Z" fill="#1F2125"/>
<path d="M105.993 156.26C106.139 156.342 106.141 156.472 105.995 156.552L103.904 157.724C103.759 157.805 103.527 157.805 103.381 157.724L100.057 155.873C99.911 155.793 99.9096 155.663 100.055 155.582L102.146 154.411C102.292 154.33 102.522 154.33 102.669 154.411L105.993 156.26Z" fill="#4D4D4D"/>
<path d="M110.33 158.965L108.239 160.136C108.095 160.217 107.863 160.217 107.72 160.137L104.392 158.287L104.285 158.141V158.499L104.39 158.645L107.719 160.496C107.862 160.576 108.093 160.576 108.238 160.494L110.33 159.323L110.438 159.178V158.819L110.33 158.965Z" fill="#1F2125"/>
<path d="M110.331 158.675C110.475 158.755 110.475 158.884 110.329 158.965L108.239 160.136C108.094 160.217 107.863 160.217 107.72 160.137L104.391 158.287C104.248 158.207 104.248 158.078 104.393 157.997L106.483 156.824C106.629 156.744 106.862 156.744 107.004 156.823L110.331 158.675Z" fill="#4D4D4D"/>
<path d="M114.668 161.379L112.577 162.55C112.432 162.63 112.199 162.63 112.053 162.55L108.729 160.699L108.619 160.554L108.618 160.911L108.728 161.058L112.052 162.909C112.199 162.988 112.431 162.988 112.575 162.909L114.667 161.736L114.775 161.592L114.777 161.233L114.668 161.379Z" fill="#1F2125"/>
<path d="M114.668 161.087C114.812 161.167 114.813 161.298 114.669 161.379L112.577 162.55C112.433 162.63 112.2 162.63 112.054 162.55L108.73 160.699C108.584 160.618 108.584 160.489 108.728 160.408L110.82 159.237C110.963 159.156 111.196 159.156 111.341 159.237L114.668 161.087Z" fill="#4D4D4D"/>
<path d="M119.006 163.792L116.914 164.963C116.77 165.044 116.535 165.043 116.392 164.963L113.064 163.111L112.957 162.968L112.956 163.325L113.063 163.469L116.392 165.321C116.534 165.401 116.77 165.402 116.913 165.321L119.006 164.15L119.112 164.006L119.113 163.647L119.006 163.792Z" fill="#1F2125"/>
<path d="M119.005 163.501C119.147 163.58 119.151 163.711 119.006 163.792L116.914 164.963C116.77 165.044 116.536 165.043 116.393 164.963L113.064 163.111C112.922 163.032 112.921 162.902 113.066 162.822L115.157 161.651C115.302 161.57 115.535 161.57 115.677 161.649L119.005 163.501Z" fill="#4D4D4D"/>
<path d="M123.342 166.203L121.25 167.376C121.106 167.457 120.873 167.457 120.731 167.377L117.403 165.525L117.293 165.378V165.737L117.403 165.884L120.73 167.734C120.872 167.814 121.104 167.814 121.25 167.733L123.341 166.562L123.449 166.416L123.45 166.059L123.342 166.203Z" fill="#1F2125"/>
<path d="M123.342 165.915C123.485 165.993 123.485 166.124 123.342 166.204L121.25 167.376C121.106 167.457 120.873 167.457 120.731 167.377L117.403 165.525C117.26 165.445 117.257 165.315 117.402 165.234L119.492 164.063C119.637 163.982 119.872 163.983 120.015 164.063L123.342 165.915Z" fill="#4D4D4D"/>
<path d="M121.809 168.218V167.86L121.958 168.059L121.956 168.416L121.809 168.218Z" fill="#1F2125"/>
<path d="M131.185 170.393L131.183 170.752L131.036 170.95L131.038 170.592L131.185 170.393Z" fill="#1F2125"/>
<path d="M131.038 170.592L131.037 170.95L129.134 172.016L129.135 171.658L131.038 170.592Z" fill="#1F2125"/>
<path d="M128.427 171.658L128.426 172.016L121.957 168.416L121.958 168.059L128.427 171.658Z" fill="#1F2125"/>
<path d="M129.135 171.658L129.133 172.015C128.941 172.125 128.621 172.125 128.425 172.015L128.427 171.658C128.621 171.767 128.94 171.767 129.135 171.658Z" fill="#1F2125"/>
<path d="M131.039 170.196C131.233 170.304 131.234 170.482 131.038 170.592L129.135 171.658C128.941 171.767 128.621 171.767 128.427 171.658L121.957 168.059C121.758 167.948 121.761 167.771 121.955 167.663L123.858 166.598C124.054 166.487 124.372 166.486 124.568 166.597L131.039 170.196Z" fill="#4D4D4D"/>
<path d="M81.1616 146.225L77.9858 148.003C77.8145 148.099 77.5362 148.099 77.3635 148.002L74.1691 146.225L74.0366 146.047V146.405L74.1678 146.583L77.3622 148.359C77.5349 148.457 77.8145 148.457 77.9845 148.362L81.1602 146.583L81.2887 146.412V146.053L81.1616 146.225Z" fill="#1F2125"/>
<path d="M81.1576 145.877C81.3316 145.973 81.333 146.128 81.1617 146.225L77.9859 148.003C77.8146 148.099 77.5363 148.099 77.3637 148.002L74.1693 146.225C73.9966 146.129 73.9926 145.972 74.1639 145.877L77.3396 144.098C77.5109 144.003 77.7919 144.004 77.9632 144.1L81.1576 145.877Z" fill="#4D4D4D"/>
<path d="M70.3689 144.949L67.3511 146.639C67.137 146.759 66.7823 146.759 66.5682 146.639L61.3423 143.732L61.179 143.511L61.1777 143.87L61.341 144.089L66.5669 146.997C66.7824 147.117 67.1356 147.117 67.3498 146.997L70.3676 145.308L70.5268 145.091L70.5281 144.733L70.3689 144.949Z" fill="#1F2125"/>
<path d="M70.366 144.513C70.5815 144.632 70.5815 144.83 70.3687 144.95L67.3509 146.639C67.1368 146.76 66.7822 146.76 66.568 146.639L61.3421 143.732C61.124 143.61 61.1253 143.414 61.3395 143.295L64.3559 141.606C64.57 141.485 64.922 141.483 65.1401 141.606L70.366 144.513Z" fill="#4D4D4D"/>
<path d="M74.9271 147.398L71.7541 149.175C71.5828 149.271 71.3018 149.273 71.1265 149.175L67.9334 147.398L67.8036 147.223L67.8022 147.582L67.9334 147.757L71.1265 149.535C71.3004 149.632 71.5828 149.629 71.7528 149.534L74.9258 147.757L75.0556 147.583L75.057 147.226L74.9271 147.398Z" fill="#1F2125"/>
<path d="M74.9244 147.049C75.0997 147.147 75.1011 147.302 74.9271 147.398L71.7541 149.176C71.5828 149.271 71.3017 149.274 71.1264 149.176L67.9334 147.4C67.7621 147.304 67.7607 147.146 67.932 147.049L71.105 145.272C71.279 145.175 71.56 145.176 71.7313 145.272L74.9244 147.049Z" fill="#4D4D4D"/>
<path d="M67.1178 148.002L64.171 149.653C63.9354 149.783 63.5527 149.783 63.3172 149.653L57.0581 146.17L56.8788 145.931L56.8774 146.288L57.0568 146.528L63.3159 150.011C63.5514 150.141 63.9341 150.141 64.1697 150.011L67.1165 148.359L67.2918 148.123L67.2931 147.766L67.1178 148.002Z" fill="#1F2125"/>
<path d="M67.1154 147.525C67.351 147.658 67.3523 147.87 67.1181 148.002L64.1713 149.653C63.9357 149.783 63.553 149.783 63.3175 149.653L57.0584 146.169C56.8189 146.037 56.8202 145.825 57.0557 145.693L60.0026 144.043C60.2368 143.911 60.6168 143.91 60.8564 144.043L67.1154 147.525Z" fill="#4D4D4D"/>
<path d="M85.489 148.631L82.312 150.411C82.142 150.506 81.8637 150.506 81.6884 150.408L78.4939 148.631L78.3641 148.454L78.3628 148.813L78.4926 148.99L81.687 150.767C81.8623 150.863 82.1407 150.863 82.312 150.768L85.4877 148.99L85.6148 148.818L85.6161 148.461L85.489 148.631Z" fill="#1F2125"/>
<path d="M85.4837 148.283C85.659 148.381 85.659 148.536 85.4891 148.631L82.312 150.411C82.142 150.506 81.8637 150.506 81.6884 150.408L78.494 148.631C78.3227 148.536 78.3186 148.38 78.4886 148.283L81.6656 146.505C81.8356 146.409 82.118 146.411 82.2892 146.506L85.4837 148.283Z" fill="#4D4D4D"/>
<path d="M79.2954 149.829L76.1223 151.606C75.951 151.702 75.67 151.703 75.4947 151.606L72.3003 149.829L72.1718 149.653L72.1704 150.011L72.2989 150.187L75.4933 151.964C75.6686 152.062 75.9497 152.06 76.121 151.964L79.294 150.187L79.4238 150.014L79.4251 149.655L79.2954 149.829Z" fill="#1F2125"/>
<path d="M79.2925 149.479C79.4678 149.577 79.4691 149.731 79.2952 149.829L76.1221 151.606C75.9508 151.702 75.6698 151.703 75.4945 151.606L72.3001 149.829C72.1288 149.733 72.1274 149.574 72.2987 149.479L75.4718 147.702C75.6444 147.605 75.9267 147.606 76.098 147.702L79.2925 149.479Z" fill="#4D4D4D"/>
<path d="M71.7207 150.368L68.5477 152.145C68.3737 152.242 68.0954 152.242 67.9214 152.145L64.727 150.368L64.5985 150.194L64.5972 150.553L64.7256 150.727L67.9201 152.504C68.0941 152.601 68.3738 152.601 68.5464 152.504L71.7194 150.727L71.8479 150.553L71.8492 150.194L71.7207 150.368Z" fill="#1F2125"/>
<path d="M71.7196 150.019C71.8935 150.116 71.8922 150.273 71.7209 150.368L68.5479 152.145C68.3739 152.242 68.0955 152.242 67.9215 152.145L64.7271 150.368C64.5545 150.273 64.5532 150.117 64.7271 150.02L67.9002 148.243C68.0715 148.148 68.3525 148.145 68.5251 148.242L71.7196 150.019Z" fill="#4D4D4D"/>
<path d="M60.9124 149.13L57.8277 150.857C57.6309 150.968 57.3111 150.968 57.1144 150.857L52.8172 148.466L52.6673 148.266L52.666 148.625L52.8159 148.825L57.1131 151.216C57.3111 151.327 57.6296 151.327 57.8264 151.216L60.911 149.489L61.0583 149.289L61.0596 148.93L60.9124 149.13Z" fill="#1F2125"/>
<path d="M60.9126 148.73C61.1106 148.84 61.108 149.021 60.9126 149.13L57.8278 150.857C57.6311 150.968 57.3113 150.968 57.1145 150.857L52.8174 148.466C52.618 148.356 52.6166 148.179 52.8147 148.068L55.8981 146.342C56.0948 146.231 56.416 146.23 56.6154 146.34L60.9126 148.73Z" fill="#4D4D4D"/>
<path d="M65.2901 151.56L62.1171 153.337C61.9431 153.435 61.6647 153.435 61.4934 153.339L58.2977 151.56L58.1678 151.387L58.1665 151.744L58.2963 151.918L61.492 153.698C61.6633 153.792 61.943 153.792 62.1157 153.695L65.2887 151.918L65.4198 151.744L65.4212 151.386L65.2901 151.56Z" fill="#1F2125"/>
<path d="M65.2912 151.212C65.4625 151.308 65.4639 151.463 65.2899 151.56L62.1169 153.337C61.9429 153.435 61.6645 153.435 61.4932 153.339L58.2975 151.56C58.1248 151.466 58.1235 151.31 58.2975 151.212L61.4705 149.434C61.6431 149.338 61.9214 149.338 62.0941 149.433L65.2912 151.212Z" fill="#4D4D4D"/>
<path d="M55.566 150.791L52.3903 152.57C52.219 152.665 51.9406 152.665 51.7707 152.57L48.5722 150.791L48.4424 150.616V150.974L48.5722 151.15L51.7693 152.928C51.9406 153.024 52.219 153.024 52.3889 152.928L55.5646 151.15L55.6931 150.977L55.6944 150.619L55.566 150.791Z" fill="#1F2125"/>
<path d="M55.5645 150.445C55.7358 150.54 55.7371 150.696 55.5658 150.791L52.3901 152.57C52.2188 152.665 51.9404 152.665 51.7705 152.57L48.572 150.791C48.4007 150.696 48.3994 150.54 48.5707 150.445L51.7464 148.666C51.9177 148.571 52.196 148.571 52.3673 148.666L55.5645 150.445Z" fill="#4D4D4D"/>
<path d="M60.0768 153.301L56.9011 155.079C56.7298 155.175 56.4514 155.175 56.2761 155.077L53.0817 153.301L52.9505 153.123L52.9492 153.481L53.0817 153.658L56.2761 155.435C56.4501 155.532 56.7285 155.532 56.8998 155.438L60.0755 153.658L60.2013 153.488L60.2026 153.129L60.0768 153.301Z" fill="#1F2125"/>
<path d="M60.0719 152.952C60.2472 153.05 60.2485 153.204 60.0772 153.301L56.9016 155.079C56.7303 155.175 56.4519 155.175 56.2766 155.077L53.0821 153.301C52.9108 153.204 52.9069 153.048 53.0782 152.952L56.2539 151.173C56.4238 151.078 56.7061 151.079 56.8774 151.176L60.0719 152.952Z" fill="#4D4D4D"/>
<path d="M89.815 151.039L86.6393 152.817C86.468 152.913 86.1896 152.913 86.0156 152.816L82.8226 151.039L82.6928 150.863L82.6914 151.223L82.8212 151.397L86.0143 153.174C86.1883 153.271 86.468 153.271 86.638 153.176L89.8137 151.397L89.9421 151.226L89.9434 150.867L89.815 151.039Z" fill="#1F2125"/>
<path d="M89.8106 150.691C89.9846 150.787 89.9859 150.943 89.8146 151.039L86.6389 152.817C86.4676 152.913 86.1892 152.913 86.0153 152.816L82.8222 151.039C82.6496 150.943 82.6496 150.787 82.8195 150.692L85.9952 148.914C86.1665 148.818 86.4449 148.818 86.6175 148.914L89.8106 150.691Z" fill="#4D4D4D"/>
<path d="M83.6615 152.259L80.4885 154.036C80.3185 154.131 80.0361 154.133 79.8622 154.036L76.6678 152.259L76.5379 152.082L76.5366 152.441L76.6664 152.617L79.8608 154.394C80.0362 154.491 80.3172 154.489 80.4885 154.394L83.6615 152.617L83.79 152.443L83.7913 152.085L83.6615 152.259Z" fill="#1F2125"/>
<path d="M83.6603 151.908C83.8356 152.006 83.8356 152.162 83.6616 152.259L80.4886 154.036C80.3187 154.131 80.0363 154.133 79.8623 154.036L76.6679 152.259C76.4953 152.163 76.4953 152.005 76.6652 151.908L79.8382 150.131C80.0122 150.034 80.2946 150.035 80.4659 150.131L83.6603 151.908Z" fill="#4D4D4D"/>
<path d="M76.0664 152.787L72.8934 154.564C72.7208 154.662 72.4411 154.662 72.2671 154.564L69.0727 152.788L68.9442 152.612L68.9429 152.971L69.0713 153.145L72.2658 154.922C72.4398 155.02 72.7195 155.02 72.8921 154.922L76.0664 153.145L76.1949 152.971L76.1963 152.612L76.0664 152.787Z" fill="#1F2125"/>
<path d="M76.0653 152.437C76.2392 152.533 76.2379 152.691 76.0666 152.786L72.8935 154.563C72.7209 154.661 72.4412 154.661 72.2672 154.563L69.0728 152.787C68.9002 152.691 68.9002 152.536 69.0728 152.438L72.2459 150.662C72.4171 150.565 72.6982 150.564 72.8708 150.66L76.0653 152.437Z" fill="#4D4D4D"/>
<path d="M69.6162 153.968L66.4432 155.745C66.2705 155.842 65.9922 155.842 65.8196 155.746L62.6225 153.968L62.4927 153.794V154.152L62.6211 154.326L65.8182 156.105C65.9908 156.2 66.2692 156.2 66.4419 156.103L69.6162 154.326L69.7447 154.152L69.746 153.794L69.6162 153.968Z" fill="#1F2125"/>
<path d="M69.6162 153.619C69.7889 153.715 69.7902 153.871 69.6162 153.968L66.4432 155.745C66.2705 155.841 65.9922 155.841 65.8196 155.746L62.6224 153.968C62.4511 153.872 62.4498 153.716 62.6238 153.619L65.7968 151.842C65.9708 151.744 66.2491 151.744 66.4204 151.841L69.6162 153.619Z" fill="#4D4D4D"/>
<path d="M64.4446 155.731L61.2676 157.509C61.0976 157.604 60.8193 157.604 60.644 157.508L57.4509 155.731L57.3197 155.554L57.3184 155.911L57.4495 156.089L60.6426 157.866C60.818 157.963 61.0963 157.963 61.2676 157.868L64.4433 156.089L64.5704 155.916L64.5718 155.558L64.4446 155.731Z" fill="#1F2125"/>
<path d="M64.4389 155.382C64.6142 155.479 64.6142 155.635 64.4442 155.731L61.2672 157.509C61.0973 157.604 60.8189 157.604 60.6436 157.508L57.4505 155.731C57.2792 155.635 57.2752 155.478 57.4451 155.382L60.6221 153.603C60.7921 153.509 61.0745 153.51 61.2458 153.605L64.4389 155.382Z" fill="#4D4D4D"/>
<path d="M94.1428 153.445L90.9671 155.225C90.7958 155.32 90.5174 155.32 90.3448 155.225L87.1477 153.447L87.0179 153.271L87.0166 153.63L87.1464 153.804L90.3448 155.583C90.5161 155.679 90.7945 155.679 90.9658 155.583L94.1415 153.804L94.2686 153.632V153.274L94.1428 153.445Z" fill="#1F2125"/>
<path d="M94.1406 153.1C94.3133 153.195 94.3133 153.351 94.1433 153.445L90.9675 155.225C90.7962 155.32 90.5179 155.32 90.3453 155.225L87.1482 153.446C86.9769 153.351 86.9755 153.195 87.1468 153.1L90.3225 151.32C90.4938 151.226 90.7722 151.226 90.9435 151.32L94.1406 153.1Z" fill="#4D4D4D"/>
<path d="M88.0288 154.688L84.8558 156.465C84.6859 156.561 84.4035 156.562 84.2296 156.465L81.0364 154.688L80.9053 154.512V154.87L81.0351 155.047L84.2282 156.824C84.4022 156.921 84.6846 156.919 84.8545 156.824L88.0275 155.047L88.1587 154.873V154.514L88.0288 154.688Z" fill="#1F2125"/>
<path d="M88.0272 154.339C88.2012 154.436 88.2025 154.59 88.0285 154.688L84.8555 156.466C84.6855 156.561 84.4032 156.562 84.2292 156.466L81.0361 154.688C80.8634 154.593 80.8621 154.434 81.0334 154.339L84.2065 152.562C84.3805 152.465 84.6615 152.466 84.8341 152.562L88.0272 154.339Z" fill="#4D4D4D"/>
<path d="M80.4136 155.206L77.2406 156.982C77.068 157.08 76.7882 157.08 76.6143 156.982L73.4199 155.206L73.2914 155.032L73.29 155.39L73.4185 155.563L76.613 157.34C76.7883 157.438 77.0666 157.438 77.2406 157.34L80.4136 155.563L80.5421 155.39L80.5434 155.032L80.4136 155.206Z" fill="#1F2125"/>
<path d="M80.4124 154.856C80.5877 154.953 80.585 155.11 80.4137 155.205L77.2407 156.981C77.0681 157.079 76.7884 157.079 76.6144 156.981L73.42 155.205C73.2474 155.11 73.2474 154.954 73.42 154.857L76.5943 153.08C76.7643 152.983 77.0467 152.982 77.218 153.078L80.4124 154.856Z" fill="#4D4D4D"/>
<path d="M73.943 156.374L70.77 158.152C70.5973 158.249 70.3177 158.249 70.1464 158.154L66.9519 156.377L66.8208 156.201V156.558L66.9506 156.735L70.145 158.512C70.3177 158.608 70.596 158.607 70.77 158.511L73.943 156.732L74.0728 156.558L74.0741 156.201L73.943 156.374Z" fill="#1F2125"/>
<path d="M73.9446 156.026C74.1172 156.121 74.1172 156.277 73.9432 156.374L70.7702 158.152C70.5975 158.249 70.3179 158.249 70.1466 158.153L66.9521 156.376C66.7768 156.28 66.7768 156.124 66.9495 156.026L70.1225 154.25C70.2964 154.152 70.5748 154.152 70.7501 154.25L73.9446 156.026Z" fill="#4D4D4D"/>
<path d="M69.7826 158.744L66.6858 160.478C66.4931 160.586 66.1786 160.586 65.9846 160.478L61.856 158.181L61.7088 157.984L61.7075 158.342L61.8547 158.539L65.9832 160.836C66.1773 160.945 66.4918 160.945 66.6845 160.836L69.7813 159.103L69.9244 158.908L69.9257 158.55L69.7826 158.744Z" fill="#1F2125"/>
<path d="M69.7797 158.352C69.9738 158.461 69.9751 158.636 69.7824 158.744L66.6856 160.478C66.4929 160.586 66.1785 160.586 65.9844 160.478L61.8559 158.181C61.6631 158.074 61.6591 157.897 61.8532 157.789L64.9473 156.056C65.1426 155.947 65.4584 155.948 65.6512 156.056L69.7797 158.352Z" fill="#4D4D4D"/>
<path d="M84.7618 157.624L81.5874 159.401C81.4147 159.498 81.1363 159.498 80.9637 159.402L77.7667 157.624L77.6382 157.45V157.808L77.7653 157.982L80.9624 159.761C81.135 159.856 81.4134 159.856 81.5874 159.759L84.7604 157.982L84.8888 157.808L84.8902 157.45L84.7618 157.624Z" fill="#1F2125"/>
<path d="M84.7621 157.275C84.9347 157.371 84.9321 157.528 84.7621 157.623L81.5891 159.4C81.4151 159.497 81.1367 159.497 80.9641 159.402L77.767 157.623C77.5957 157.528 77.5943 157.372 77.7683 157.275L80.9413 155.498C81.1113 155.403 81.3937 155.401 81.565 155.497L84.7621 157.275Z" fill="#4D4D4D"/>
<path d="M78.2722 158.783L75.0992 160.56C74.9253 160.658 74.6442 160.657 74.4716 160.56L71.2798 158.783L71.1474 158.607L71.146 158.966L71.2785 159.141L74.4716 160.918C74.6429 161.014 74.9239 161.015 75.0979 160.918L78.2709 159.141L78.4007 158.969V158.61L78.2722 158.783Z" fill="#1F2125"/>
<path d="M78.2709 158.433C78.4422 158.529 78.4462 158.686 78.2722 158.783L75.0992 160.56C74.9252 160.658 74.6442 160.657 74.4716 160.56L71.2798 158.783C71.1045 158.686 71.1031 158.531 71.2771 158.433L74.4501 156.656C74.6241 156.56 74.9024 156.56 75.0778 156.656L78.2709 158.433Z" fill="#4D4D4D"/>
<path d="M98.4688 155.853L95.2931 157.631C95.1218 157.728 94.8434 157.728 94.6721 157.631L91.475 155.853L91.3465 155.679L91.3452 156.038L91.475 156.212L94.6708 157.99C94.8434 158.085 95.1218 158.085 95.2917 157.99L98.4688 156.212L98.5959 156.04L98.5972 155.682L98.4688 155.853Z" fill="#1F2125"/>
<path d="M98.4672 155.506C98.6385 155.601 98.6399 155.758 98.4686 155.853L95.2929 157.631C95.1216 157.728 94.8432 157.728 94.6719 157.631L91.4748 155.853C91.3035 155.758 91.3036 155.601 91.4735 155.506L94.6505 153.728C94.8205 153.632 95.0989 153.632 95.2702 153.728L98.4672 155.506Z" fill="#4D4D4D"/>
<path d="M92.3968 157.118L89.2238 158.895C89.0525 158.991 88.7715 158.993 88.5962 158.895L85.4017 157.118L85.2733 156.941L85.272 157.3L85.4004 157.477L88.5962 159.254C88.7702 159.35 89.0526 159.349 89.2225 159.254L92.3955 157.477L92.5253 157.302L92.5267 156.944L92.3968 157.118Z" fill="#1F2125"/>
<path d="M92.3945 156.767C92.5698 156.865 92.5711 157.021 92.3972 157.118L89.2241 158.895C89.0529 158.99 88.7718 158.993 88.5965 158.895L85.4021 157.118C85.2308 157.023 85.2308 156.864 85.4008 156.767L88.5751 154.991C88.7477 154.893 89.0287 154.896 89.2 154.991L92.3945 156.767Z" fill="#4D4D4D"/>
<path d="M89.1079 160.043L85.9349 161.819C85.761 161.917 85.4826 161.917 85.31 161.82L82.1128 160.043L81.9844 159.868V160.226L82.1115 160.4L85.31 162.179C85.4813 162.274 85.7596 162.274 85.9336 162.177L89.1066 160.4L89.235 160.226L89.2364 159.868L89.1079 160.043Z" fill="#1F2125"/>
<path d="M89.1083 159.695C89.2809 159.789 89.2783 159.946 89.1083 160.043L85.9353 161.819C85.7613 161.917 85.483 161.917 85.3103 161.82L82.1132 160.043C81.9419 159.946 81.9405 159.792 82.1145 159.695L85.2875 157.917C85.4575 157.821 85.7399 157.82 85.9112 157.915L89.1083 159.695Z" fill="#4D4D4D"/>
<path d="M82.6003 161.191L79.4272 162.968C79.2532 163.064 78.9709 163.063 78.7996 162.968L75.6052 161.191L75.4727 161.014V161.372L75.6038 161.549L78.7983 163.325C78.9709 163.422 79.2519 163.423 79.4259 163.325L82.5989 161.549L82.7261 161.375L82.7274 161.017L82.6003 161.191Z" fill="#1F2125"/>
<path d="M82.5974 160.841C82.77 160.937 82.7727 161.093 82.6001 161.191L79.427 162.968C79.253 163.064 78.9706 163.063 78.7993 162.968L75.605 161.191C75.4297 161.093 75.4297 160.938 75.6023 160.841L78.7753 159.064C78.9493 158.967 79.2276 158.967 79.4029 159.064L82.5974 160.841Z" fill="#4D4D4D"/>
<path d="M102.795 158.261L99.6193 160.039C99.4493 160.134 99.1696 160.134 98.9983 160.039L95.8052 158.262L95.6714 158.085V158.444L95.8038 158.62L98.9983 160.396C99.1696 160.493 99.4479 160.493 99.6179 160.396L102.795 158.619L102.922 158.446V158.088L102.795 158.261Z" fill="#1F2125"/>
<path d="M102.794 157.914C102.965 158.009 102.967 158.164 102.795 158.261L99.6196 160.039C99.4496 160.134 99.1699 160.134 98.9986 160.039L95.8055 158.262C95.6302 158.164 95.6289 158.009 95.8002 157.914L98.9759 156.135C99.1472 156.04 99.4255 156.04 99.5994 156.137L102.794 157.914Z" fill="#4D4D4D"/>
<path d="M96.7644 159.548L93.5914 161.325C93.4201 161.42 93.1391 161.422 92.9638 161.325L89.7693 159.548L89.6395 159.372L89.6382 159.73L89.768 159.906L92.9624 161.683C93.1377 161.78 93.4187 161.779 93.59 161.683L96.7631 159.906L96.8915 159.732L96.8929 159.374L96.7644 159.548Z" fill="#1F2125"/>
<path d="M96.7619 159.198C96.9372 159.295 96.9372 159.451 96.7646 159.548L93.5915 161.325C93.4202 161.42 93.1392 161.422 92.9639 161.325L89.7695 159.548C89.5982 159.452 89.5968 159.294 89.7668 159.198L92.9398 157.421C93.1138 157.325 93.3961 157.326 93.5674 157.421L96.7619 159.198Z" fill="#4D4D4D"/>
<path d="M93.4556 162.461L90.2826 164.237C90.1086 164.335 89.8303 164.335 89.6576 164.239L86.4605 162.461L86.3333 162.287L86.332 162.645L86.4605 162.818L89.6576 164.598C89.8289 164.693 90.1072 164.693 90.2812 164.595L93.4542 162.818L93.5841 162.644L93.5854 162.286L93.4556 162.461Z" fill="#1F2125"/>
<path d="M93.4568 162.113C93.6281 162.208 93.6268 162.364 93.4555 162.461L90.2824 164.237C90.1085 164.335 89.8301 164.335 89.6575 164.24L86.4604 162.461C86.2891 162.364 86.289 162.21 86.4617 162.113L89.6347 160.336C89.806 160.24 90.087 160.238 90.2583 160.335L93.4568 162.113Z" fill="#4D4D4D"/>
<path d="M86.9257 163.597L83.7527 165.374C83.5787 165.472 83.3004 165.472 83.1251 165.374L79.9319 163.597L79.8022 163.422L79.8008 163.779L79.9319 163.956L83.1251 165.733C83.299 165.831 83.5787 165.831 83.7513 165.733L86.9243 163.956L87.0542 163.781L87.0555 163.424L86.9257 163.597Z" fill="#1F2125"/>
<path d="M86.9243 163.248C87.0983 163.346 87.0997 163.5 86.9257 163.597L83.7527 165.374C83.5787 165.472 83.3003 165.472 83.125 165.374L79.9319 163.597C79.7606 163.502 79.7566 163.346 79.9306 163.248L83.1036 161.471C83.2776 161.374 83.5573 161.375 83.7299 161.471L86.9243 163.248Z" fill="#4D4D4D"/>
<path d="M107.126 160.668L103.949 162.448C103.779 162.542 103.496 162.542 103.325 162.445L100.131 160.668L99.9994 160.491L99.998 160.85L100.129 161.027L103.324 162.804C103.496 162.899 103.777 162.9 103.949 162.805L107.124 161.027L107.25 160.855L107.251 160.498L107.126 160.668Z" fill="#1F2125"/>
<path d="M107.12 160.32C107.292 160.417 107.296 160.573 107.126 160.669L103.949 162.448C103.779 162.542 103.496 162.542 103.325 162.446L100.131 160.669C99.9554 160.572 99.9554 160.417 100.125 160.32L103.302 158.542C103.472 158.447 103.751 158.447 103.926 158.543L107.12 160.32Z" fill="#4D4D4D"/>
<path d="M101.13 161.979L97.9569 163.755C97.7869 163.85 97.5045 163.853 97.3306 163.755L94.1375 161.979L94.0077 161.802L94.0063 162.161L94.1361 162.336L97.3292 164.113C97.5045 164.21 97.7856 164.208 97.9569 164.113L101.13 162.336L101.26 162.162V161.805L101.13 161.979Z" fill="#1F2125"/>
<path d="M101.129 161.628C101.304 161.725 101.304 161.881 101.13 161.979L97.957 163.755C97.7871 163.85 97.5047 163.853 97.3307 163.755L94.1376 161.979C93.965 161.882 93.965 161.723 94.1349 161.628L97.308 159.851C97.4819 159.754 97.763 159.756 97.9356 159.851L101.129 161.628Z" fill="#4D4D4D"/>
<path d="M97.8018 164.879L94.6288 166.656C94.4548 166.753 94.1764 166.753 94.0051 166.657L90.8067 164.879L90.6795 164.705L90.6782 165.063L90.8067 165.237L94.0038 167.016C94.1751 167.111 94.4534 167.111 94.6274 167.014L97.8004 165.237L97.9303 165.063L97.9316 164.705L97.8018 164.879Z" fill="#1F2125"/>
<path d="M97.8029 164.531C97.9742 164.626 97.9729 164.784 97.8016 164.879L94.6286 166.656C94.4546 166.753 94.1763 166.753 94.005 166.657L90.8065 164.879C90.6366 164.784 90.6352 164.628 90.8078 164.531L93.9822 162.754C94.1522 162.658 94.4332 162.657 94.6059 162.752L97.8029 164.531Z" fill="#4D4D4D"/>
<path d="M91.2527 166.005L88.0797 167.782C87.9071 167.879 87.6273 167.879 87.4534 167.782L84.2589 166.005L84.1278 165.828L84.1265 166.187L84.2576 166.363L87.4521 168.14C87.6274 168.237 87.9057 168.237 88.0783 168.14L91.2527 166.363L91.3812 166.189L91.3825 165.831L91.2527 166.005Z" fill="#1F2125"/>
<path d="M91.251 165.655C91.425 165.752 91.4263 165.908 91.2523 166.005L88.0793 167.782C87.9067 167.878 87.627 167.878 87.453 167.782L84.2586 166.005C84.0873 165.909 84.0833 165.752 84.2572 165.655L87.4303 163.878C87.6029 163.78 87.8852 163.783 88.0565 163.878L91.251 165.655Z" fill="#4D4D4D"/>
<path d="M111.451 163.076L108.275 164.854C108.104 164.95 107.823 164.948 107.652 164.853L104.459 163.076L104.326 162.899L104.325 163.258L104.457 163.434L107.65 165.211C107.822 165.307 108.104 165.308 108.274 165.213L111.45 163.434L111.577 163.263L111.578 162.904L111.451 163.076Z" fill="#1F2125"/>
<path d="M111.447 162.728C111.618 162.823 111.622 162.981 111.451 163.076L108.275 164.854C108.104 164.95 107.823 164.949 107.651 164.853L104.458 163.076C104.283 162.978 104.282 162.823 104.453 162.728L107.629 160.949C107.8 160.853 108.078 160.853 108.252 160.951L111.447 162.728Z" fill="#4D4D4D"/>
<path d="M105.499 164.407L102.326 166.184C102.156 166.279 101.873 166.282 101.698 166.184L98.5048 164.407L98.375 164.231V164.589L98.5035 164.765L101.698 166.542C101.872 166.64 102.154 166.638 102.324 166.542L105.497 164.765L105.627 164.591L105.628 164.234L105.499 164.407Z" fill="#1F2125"/>
<path d="M105.497 164.058C105.671 164.154 105.673 164.31 105.499 164.407L102.326 166.184C102.156 166.279 101.873 166.282 101.698 166.184L98.5048 164.407C98.3335 164.313 98.3322 164.154 98.5021 164.058L101.676 162.28C101.849 162.184 102.13 162.185 102.303 162.28L105.497 164.058Z" fill="#4D4D4D"/>
<path d="M102.148 167.298L98.9755 169.074C98.8015 169.172 98.5231 169.172 98.3518 169.075L95.1547 167.298L95.0262 167.124L95.0249 167.481L95.1547 167.656L98.3505 169.434C98.5218 169.529 98.8001 169.529 98.9741 169.433L102.147 167.656L102.277 167.481L102.278 167.123L102.148 167.298Z" fill="#1F2125"/>
<path d="M102.15 166.949C102.321 167.046 102.32 167.202 102.149 167.298L98.9756 169.074C98.8017 169.172 98.5233 169.172 98.352 169.075L95.1549 167.298C94.9836 167.202 94.9822 167.047 95.1549 166.949L98.3292 165.173C98.5005 165.076 98.7803 165.075 98.9529 165.17L102.15 166.949Z" fill="#4D4D4D"/>
<path d="M95.5786 168.413L92.4056 170.19C92.2316 170.287 91.9533 170.287 91.7793 170.19L88.5849 168.413L88.4564 168.239L88.4551 168.596L88.5835 168.77L91.7779 170.548C91.9519 170.645 92.2316 170.645 92.4043 170.548L95.5773 168.77L95.7084 168.597V168.239L95.5786 168.413Z" fill="#1F2125"/>
<path d="M95.5775 168.062C95.7515 168.159 95.7528 168.315 95.5789 168.413L92.4058 170.19C92.2318 170.286 91.9535 170.286 91.7795 170.19L88.5851 168.413C88.4124 168.317 88.4111 168.161 88.5851 168.064L91.7581 166.287C91.932 166.189 92.2104 166.189 92.383 166.285L95.5775 168.062Z" fill="#4D4D4D"/>
<path d="M91.1666 171.072L88.8407 172.374C88.4326 172.602 87.7741 172.601 87.366 172.374L67.5824 161.367C67.3763 161.252 67.2733 161.103 67.2733 160.953L67.272 161.311C67.272 161.46 67.375 161.611 67.5811 161.726L87.3646 172.733C87.7728 172.96 88.4312 172.961 88.8394 172.733L91.1653 171.43C91.3674 171.317 91.469 171.168 91.469 171.021L91.4704 170.663C91.4691 170.811 91.3674 170.958 91.1666 171.072Z" fill="#1F2125"/>
<path d="M91.1611 170.249C91.5693 170.476 91.5746 170.843 91.1665 171.072L88.8406 172.374C88.4324 172.602 87.774 172.601 87.3658 172.374L67.5823 161.367C67.1714 161.139 67.1688 160.773 67.5769 160.545L69.9028 159.242C70.311 159.014 70.9667 159.014 71.3776 159.242L91.1611 170.249Z" fill="#4D4D4D"/>
<path d="M115.779 165.482L112.603 167.262C112.432 167.358 112.153 167.358 111.978 167.26L108.784 165.482L108.651 165.307L108.65 165.664L108.782 165.841L111.977 167.618C112.152 167.716 112.43 167.716 112.602 167.621L115.777 165.841L115.903 165.669L115.905 165.311L115.779 165.482Z" fill="#1F2125"/>
<path d="M115.773 165.134C115.949 165.232 115.949 165.388 115.779 165.483L112.603 167.262C112.432 167.358 112.153 167.358 111.978 167.26L108.784 165.483C108.608 165.386 108.608 165.23 108.778 165.134L111.955 163.356C112.125 163.261 112.404 163.261 112.579 163.357L115.773 165.134Z" fill="#4D4D4D"/>
<path d="M109.866 166.838L106.693 168.615C106.522 168.71 106.241 168.712 106.065 168.615L102.871 166.838L102.741 166.661L102.74 167.02L102.87 167.195L106.064 168.972C106.239 169.07 106.52 169.069 106.692 168.972L109.865 167.195L109.993 167.022L109.994 166.664L109.866 166.838Z" fill="#1F2125"/>
<path d="M109.863 166.487C110.039 166.585 110.04 166.74 109.866 166.838L106.693 168.615C106.522 168.71 106.241 168.712 106.065 168.615L102.871 166.838C102.7 166.741 102.698 166.583 102.87 166.488L106.043 164.71C106.215 164.613 106.498 164.615 106.669 164.71L109.863 166.487Z" fill="#4D4D4D"/>
<path d="M106.495 169.716L103.322 171.493C103.148 171.59 102.869 171.59 102.698 171.495L99.5035 169.717L99.3724 169.541L99.3711 169.899L99.5035 170.076L102.697 171.853C102.868 171.948 103.148 171.948 103.32 171.85L106.493 170.073L106.623 169.899L106.624 169.541L106.495 169.716Z" fill="#1F2125"/>
<path d="M106.496 169.367C106.667 169.464 106.666 169.621 106.495 169.716L103.322 171.493C103.148 171.59 102.869 171.59 102.698 171.495L99.5037 169.718C99.3297 169.621 99.3284 169.465 99.5024 169.367L102.675 167.591C102.847 167.494 103.128 167.493 103.302 167.591L106.496 169.367Z" fill="#4D4D4D"/>
<path d="M99.9058 170.819L96.7328 172.596C96.5588 172.694 96.2805 172.694 96.1078 172.597L92.9121 170.819L92.7822 170.645V171.003L92.9107 171.177L96.1065 172.956C96.2792 173.051 96.5575 173.051 96.7315 172.954L99.9045 171.177L100.034 171.003L100.036 170.645L99.9058 170.819Z" fill="#1F2125"/>
<path d="M99.9058 170.471C100.078 170.566 100.08 170.722 99.9058 170.819L96.7327 172.596C96.5588 172.694 96.2804 172.694 96.1078 172.597L92.912 170.819C92.7407 170.723 92.7394 170.569 92.9133 170.471L96.0863 168.693C96.2603 168.597 96.5387 168.597 96.71 168.692L99.9058 170.471Z" fill="#4D4D4D"/>
<path d="M120.277 167.986L117.101 169.765C116.93 169.859 116.651 169.859 116.476 169.763L113.282 167.986L113.152 167.809L113.15 168.167L113.28 168.344L116.475 170.121C116.65 170.218 116.928 170.218 117.1 170.122L120.275 168.344L120.402 168.173L120.404 167.814L120.277 167.986Z" fill="#1F2125"/>
<path d="M120.271 167.638C120.446 167.734 120.446 167.89 120.276 167.986L117.101 169.765C116.929 169.86 116.651 169.86 116.476 169.763L113.281 167.986C113.11 167.89 113.107 167.733 113.277 167.638L116.454 165.859C116.623 165.764 116.905 165.765 117.077 165.861L120.271 167.638Z" fill="#4D4D4D"/>
<path d="M114.233 169.267L111.06 171.044C110.888 171.14 110.607 171.141 110.434 171.044L107.239 169.267L107.109 169.091L107.108 169.449L107.238 169.626L110.432 171.403C110.606 171.5 110.887 171.498 111.058 171.403L114.231 169.626L114.361 169.452L114.363 169.093L114.233 169.267Z" fill="#1F2125"/>
<path d="M114.23 168.917C114.406 169.015 114.406 169.169 114.233 169.267L111.06 171.044C110.889 171.14 110.608 171.141 110.434 171.044L107.239 169.267C107.068 169.172 107.067 169.013 107.236 168.917L110.41 167.14C110.583 167.043 110.866 167.044 111.037 167.14L114.23 168.917Z" fill="#4D4D4D"/>
<path d="M110.842 172.134L107.669 173.911C107.496 174.008 107.217 174.008 107.045 173.913L103.852 172.136L103.72 171.96V172.319L103.851 172.494L107.044 174.271C107.217 174.367 107.495 174.367 107.669 174.27L110.842 172.493L110.97 172.319L110.972 171.96L110.842 172.134Z" fill="#1F2125"/>
<path d="M110.843 171.786C111.016 171.882 111.013 172.039 110.842 172.134L107.669 173.911C107.496 174.008 107.217 174.008 107.045 173.913L103.852 172.136C103.677 172.039 103.677 171.883 103.851 171.786L107.024 170.009C107.194 169.914 107.475 169.912 107.649 170.009L110.843 171.786Z" fill="#4D4D4D"/>
<path d="M104.381 173.309L101.208 175.087C101.034 175.183 100.756 175.183 100.584 175.088L97.3859 173.309L97.2587 173.135L97.2573 173.494L97.3859 173.667L100.583 175.446C100.754 175.542 101.033 175.542 101.207 175.444L104.38 173.667L104.511 173.493L104.512 173.134L104.381 173.309Z" fill="#1F2125"/>
<path d="M104.382 172.961C104.553 173.056 104.555 173.211 104.381 173.309L101.208 175.086C101.034 175.183 100.755 175.183 100.584 175.088L97.3856 173.309C97.2157 173.212 97.2143 173.058 97.3869 172.961L100.561 171.184C100.734 171.086 101.012 171.086 101.185 171.181L104.382 172.961Z" fill="#4D4D4D"/>
<path d="M96.8768 173.819L93.7801 175.552C93.5873 175.66 93.2702 175.659 93.0788 175.552L88.9503 173.255L88.8018 173.058V173.416L88.949 173.614L93.0775 175.91C93.2688 176.017 93.586 176.019 93.7801 175.91L96.8755 174.177L97.0187 173.984L97.02 173.625L96.8768 173.819Z" fill="#1F2125"/>
<path d="M96.8744 173.427C97.0658 173.534 97.0698 173.711 96.8771 173.819L93.7804 175.552C93.5877 175.66 93.2705 175.659 93.0792 175.552L88.9506 173.255C88.7552 173.147 88.7539 172.972 88.9479 172.863L92.042 171.13C92.2374 171.022 92.5505 171.022 92.7459 171.13L96.8744 173.427Z" fill="#4D4D4D"/>
<path d="M124.663 170.427L121.487 172.205C121.316 172.3 121.038 172.301 120.862 172.204L117.669 170.427L117.537 170.25V170.609L117.669 170.785L120.862 172.562C121.036 172.659 121.315 172.659 121.486 172.564L124.662 170.785L124.79 170.614V170.255L124.663 170.427Z" fill="#1F2125"/>
<path d="M124.657 170.079C124.833 170.175 124.834 170.331 124.663 170.427L121.487 172.205C121.316 172.301 121.037 172.301 120.862 172.204L117.669 170.427C117.495 170.33 117.494 170.174 117.665 170.079L120.841 168.3C121.012 168.205 121.29 168.205 121.464 168.302L124.657 170.079Z" fill="#4D4D4D"/>
<path d="M118.6 171.697L115.427 173.474C115.257 173.57 114.974 173.571 114.8 173.474L111.606 171.697L111.477 171.52L111.476 171.879L111.605 172.054L114.799 173.832C114.973 173.93 115.255 173.928 115.427 173.832L118.6 172.054L118.729 171.882V171.523L118.6 171.697Z" fill="#1F2125"/>
<path d="M118.599 171.348C118.773 171.444 118.774 171.599 118.6 171.697L115.427 173.474C115.257 173.57 114.975 173.571 114.801 173.474L111.606 171.697C111.435 171.602 111.435 171.443 111.605 171.348L114.778 169.571C114.951 169.473 115.232 169.474 115.404 169.571L118.599 171.348Z" fill="#4D4D4D"/>
<path d="M115.192 174.554L112.019 176.331C111.845 176.429 111.564 176.427 111.392 176.331L108.198 174.554L108.067 174.378L108.066 174.737L108.197 174.912L111.39 176.689C111.563 176.785 111.844 176.786 112.018 176.689L115.191 174.912L115.318 174.739L115.319 174.381L115.192 174.554Z" fill="#1F2125"/>
<path d="M115.189 174.204C115.362 174.299 115.362 174.459 115.192 174.553L112.019 176.331C111.845 176.429 111.564 176.427 111.391 176.331L108.198 174.553C108.024 174.457 108.023 174.302 108.197 174.204L111.37 172.428C111.54 172.331 111.822 172.33 111.995 172.428L115.189 174.204Z" fill="#4D4D4D"/>
<path d="M108.697 175.709L105.524 177.486C105.35 177.584 105.067 177.582 104.896 177.486L101.702 175.709L101.569 175.534L101.568 175.892L101.7 176.068L104.895 177.845C105.067 177.94 105.348 177.941 105.522 177.845L108.695 176.068L108.823 175.895L108.824 175.536L108.697 175.709Z" fill="#1F2125"/>
<path d="M108.694 175.36C108.865 175.455 108.869 175.612 108.697 175.709L105.524 177.486C105.35 177.584 105.067 177.582 104.896 177.486L101.702 175.709C101.526 175.612 101.526 175.456 101.699 175.36L104.873 173.583C105.046 173.485 105.324 173.485 105.5 173.583L108.694 175.36Z" fill="#4D4D4D"/>
<path d="M101.343 176.269L98.1831 178.037C98.0065 178.136 97.7201 178.135 97.5448 178.037L94.1884 176.169L94.0532 175.99V176.349L94.187 176.528L97.5448 178.395C97.7188 178.493 98.0051 178.495 98.1818 178.395L101.341 176.626L101.471 176.449L101.473 176.091L101.343 176.269Z" fill="#1F2125"/>
<path d="M101.34 175.911C101.514 176.008 101.518 176.169 101.342 176.269L98.1828 178.037C98.0061 178.136 97.7197 178.135 97.5444 178.037L94.188 176.169C94.0101 176.07 94.0087 175.911 94.1854 175.813L97.3437 174.044C97.5203 173.945 97.8053 173.945 97.9833 174.044L101.34 175.911Z" fill="#4D4D4D"/>
<path d="M104.026 179.709L102.522 180.552C102.396 180.622 102.189 180.621 102.062 180.549L98.5261 178.582L98.4297 178.453V178.813L98.5247 178.941L102.06 180.907C102.188 180.978 102.395 180.981 102.521 180.91L104.025 180.067L104.12 179.94V179.582L104.026 179.709Z" fill="#1F2125"/>
<path d="M104.022 179.452C104.15 179.522 104.154 179.637 104.026 179.709L102.522 180.552C102.396 180.623 102.189 180.621 102.062 180.549L98.5262 178.582C98.3978 178.511 98.3977 178.398 98.5249 178.327L100.029 177.485C100.156 177.414 100.36 177.414 100.488 177.485L104.022 179.452Z" fill="#4D4D4D"/>
<path d="M134.649 172.459L132.495 173.666C132.367 173.739 132.165 173.739 132.036 173.666L129.509 172.261L129.414 172.132L129.413 172.489L129.508 172.619L132.036 174.025C132.164 174.096 132.366 174.096 132.495 174.025L134.648 172.818L134.744 172.691L134.746 172.333L134.649 172.459Z" fill="#1F2125"/>
<path d="M134.648 172.204C134.777 172.275 134.778 172.388 134.649 172.459L132.495 173.666C132.368 173.739 132.166 173.739 132.037 173.666L129.509 172.261C129.385 172.191 129.381 172.076 129.508 172.004L131.664 170.798C131.789 170.726 131.997 170.729 132.121 170.798L134.648 172.204Z" fill="#4D4D4D"/>
<path d="M131.401 174.279L128.41 175.954C128.188 176.079 127.828 176.079 127.604 175.954L122.025 172.85L121.855 172.621L121.854 172.979L122.025 173.209L127.603 176.313C127.828 176.436 128.187 176.436 128.409 176.313L131.4 174.638L131.567 174.414V174.056L131.401 174.279Z" fill="#1F2125"/>
<path d="M131.4 173.829C131.622 173.954 131.624 174.154 131.402 174.279L128.411 175.954C128.188 176.079 127.828 176.079 127.605 175.954L122.026 172.85C121.802 172.725 121.798 172.522 122.02 172.399L125.011 170.723C125.234 170.598 125.598 170.601 125.821 170.725L131.4 173.829Z" fill="#4D4D4D"/>
<path d="M122.968 174.127L119.795 175.904C119.623 175.999 119.342 176.002 119.167 175.904L115.973 174.127L115.843 173.95V174.308L115.973 174.485L119.167 176.262C119.341 176.359 119.623 176.358 119.793 176.262L122.966 174.485L123.095 174.311L123.096 173.953L122.968 174.127Z" fill="#1F2125"/>
<path d="M122.967 173.777C123.141 173.874 123.142 174.03 122.968 174.127L119.795 175.904C119.625 175.999 119.343 176.002 119.167 175.904L115.973 174.127C115.802 174.031 115.8 173.873 115.972 173.777L119.145 172C119.319 171.902 119.6 171.905 119.772 172L122.967 173.777Z" fill="#4D4D4D"/>
<path d="M119.539 176.973L116.366 178.75C116.192 178.847 115.911 178.845 115.739 178.75L112.546 176.973L112.414 176.796L112.413 177.155L112.546 177.331L115.737 179.109C115.91 179.204 116.191 179.205 116.365 179.109L119.538 177.331L119.666 177.157V176.799L119.539 176.973Z" fill="#1F2125"/>
<path d="M119.536 176.622C119.709 176.719 119.71 176.877 119.539 176.973L116.366 178.75C116.192 178.848 115.911 178.845 115.738 178.75L112.545 176.973C112.371 176.876 112.37 176.72 112.544 176.623L115.717 174.846C115.887 174.751 116.169 174.748 116.343 174.846L119.536 176.622Z" fill="#4D4D4D"/>
<path d="M127.334 176.556L124.161 178.333C123.99 178.429 123.709 178.43 123.535 178.333L120.341 176.556L120.211 176.38L120.209 176.738L120.339 176.915L123.534 178.692C123.708 178.789 123.989 178.787 124.16 178.692L127.333 176.915L127.463 176.741L127.464 176.382L127.334 176.556Z" fill="#1F2125"/>
<path d="M127.332 176.207C127.507 176.304 127.509 176.46 127.335 176.556L124.162 178.333C123.99 178.429 123.709 178.43 123.535 178.333L120.341 176.556C120.17 176.461 120.168 176.302 120.34 176.207L123.513 174.43C123.685 174.333 123.968 174.334 124.139 174.43L127.332 176.207Z" fill="#4D4D4D"/>
<path d="M123.111 178.922L119.866 180.739C119.716 180.824 119.467 180.824 119.314 180.739L116.884 179.387L116.767 179.229L116.766 179.587L116.883 179.744L119.313 181.097C119.465 181.182 119.714 181.182 119.864 181.097L123.111 179.28L123.225 179.124L123.226 178.767L123.111 178.922Z" fill="#1F2125"/>
<path d="M123.112 178.612C123.263 178.696 123.265 178.835 123.111 178.922L119.865 180.739C119.716 180.824 119.467 180.824 119.314 180.739L116.884 179.387C116.73 179.301 116.728 179.161 116.878 179.078L120.125 177.259C120.278 177.174 120.526 177.174 120.682 177.259L123.112 178.612Z" fill="#4D4D4D"/>
<path d="M118.623 181.435L115.813 183.008C115.542 183.16 115.095 183.16 114.822 183.008L106.165 178.193C106.028 178.116 105.959 178.015 105.96 177.913L105.958 178.272C105.958 178.373 106.027 178.474 106.163 178.551L114.82 183.367C115.094 183.519 115.541 183.519 115.812 183.367L118.621 181.793C118.756 181.719 118.823 181.618 118.825 181.519L118.826 181.16C118.825 181.261 118.758 181.36 118.623 181.435Z" fill="#1F2125"/>
<path d="M118.62 180.882C118.893 181.034 118.894 181.284 118.623 181.435L115.813 183.008C115.542 183.16 115.095 183.16 114.822 183.008L106.165 178.193C105.892 178.041 105.89 177.79 106.162 177.638L108.971 176.066C109.243 175.914 109.69 175.914 109.963 176.066L118.62 180.882Z" fill="#4D4D4D"/>
<path d="M110.267 181.234L107.107 183.002C106.93 183.101 106.643 183.098 106.47 183.002L103.112 181.134L102.978 180.955L102.977 181.314L103.111 181.493L106.469 183.36C106.643 183.457 106.929 183.459 107.106 183.36L110.265 181.591L110.395 181.414L110.396 181.056L110.267 181.234Z" fill="#1F2125"/>
<path d="M110.265 180.877C110.438 180.973 110.442 181.135 110.267 181.234L107.107 183.002C106.93 183.101 106.643 183.099 106.47 183.002L103.112 181.135C102.934 181.035 102.933 180.877 103.111 180.779L106.268 179.009C106.444 178.91 106.73 178.91 106.908 179.009L110.265 180.877Z" fill="#4D4D4D"/>
<path d="M112.894 184.643L111.39 185.486C111.263 185.557 111.057 185.555 110.933 185.486L107.394 183.518L107.299 183.389L107.298 183.746L107.393 183.875L110.931 185.843C111.056 185.914 111.263 185.915 111.389 185.843L112.893 185.002L112.988 184.874L112.989 184.516L112.894 184.643Z" fill="#1F2125"/>
<path d="M112.893 184.387C113.018 184.456 113.022 184.572 112.895 184.643L111.39 185.485C111.263 185.556 111.057 185.555 110.933 185.485L107.394 183.517C107.269 183.447 107.266 183.333 107.393 183.261L108.897 182.419C109.024 182.348 109.23 182.349 109.356 182.419L112.893 184.387Z" fill="#4D4D4D"/>
<path d="M136.372 163.896L120.575 155.106C119.005 154.233 119.202 152.709 121.014 151.7L144.609 138.574C146.42 137.565 149.162 137.456 150.731 138.33L166.53 147.119C168.097 147.992 167.901 149.516 166.088 150.524L142.496 163.651C140.682 164.66 137.942 164.769 136.372 163.896Z" fill="#F2F2F2"/>
<path d="M136.715 162.63L121.671 154.26C120.178 153.43 120.364 151.978 122.09 151.017L144.558 138.517C146.283 137.557 148.894 137.453 150.388 138.283L165.431 146.654C166.926 147.485 166.739 148.937 165.014 149.898L142.545 162.398C140.82 163.357 138.21 163.462 136.715 162.63Z" fill="#595959"/>
<path d="M138.888 156.886L131.331 152.68C131.011 152.502 131.051 152.192 131.42 151.987L144.604 144.66C144.972 144.455 145.53 144.432 145.849 144.61L153.408 148.814C153.728 148.993 153.688 149.303 153.317 149.509L140.135 156.836C139.766 157.041 139.208 157.063 138.888 156.886Z" fill="#333333"/>
<path d="M139.965 155.044C139.965 155.044 146.356 151.673 151.653 148.266L145.483 148.006L141.383 148.965L139.821 150.996L139.965 155.044Z" fill="#747474"/>
<path d="M151.699 148.222C151.826 147.984 151.292 147.527 151.142 147.375C149.392 145.575 146.454 144.464 143.901 144.795C141.793 145.065 139.87 146.092 138.234 147.362C136.938 148.365 135.782 149.54 134.77 150.809C134.601 151.021 134.438 151.234 134.28 151.451L134.11 151.691C134.11 151.691 134.857 155.098 139.965 155.044C141.283 153.854 142.726 152.78 144.208 151.782C146.157 150.466 148.245 149.322 150.489 148.556C150.851 148.434 151.195 148.319 151.58 148.285L151.699 148.222Z" fill="url(#paint0_linear_525_303)"/>
<path d="M180.116 135.16L148.967 117.844L154.028 115.029C154.834 114.58 154.922 113.901 154.222 113.511L125.187 97.4223C124.487 97.0341 123.265 97.0831 122.46 97.5319L117.444 100.321L87.8711 83.8827C87.4602 83.6545 86.7416 83.6841 86.2678 83.9472L85.232 84.5237C84.7583 84.7881 84.7074 85.1865 85.1169 85.4148L114.69 101.853L105.872 106.759C105.065 107.209 104.977 107.889 105.677 108.278L134.712 124.366C135.412 124.755 136.633 124.708 137.44 124.258L146.214 119.377L177.362 136.692C177.774 136.92 178.491 136.892 178.965 136.628L180.001 136.052C180.475 135.787 180.527 135.388 180.116 135.16Z" fill="#F2F2F2"/>
<path d="M150.926 110.686L150.653 112.045L149.941 113.35L148.304 114.503L147.132 115.326L141.814 118.189L135.018 122.312L109.065 107.853L109.071 107.844C109.01 107.795 108.965 107.712 108.965 107.591C108.965 107.312 109.167 106.972 109.42 106.837L121.954 99.8404L122.515 99.5283C123.192 99.1543 123.848 98.4631 124.248 97.6338C124.641 96.8162 124.747 96.009 124.535 95.4248L117.281 75.2837L118.144 74.4906L144.097 88.9393L144.001 90.8286L146.986 98.5546L149.309 105.181L150.802 108.982L150.926 110.686Z" fill="#CCCCCC"/>
<path d="M148.304 114.503L147.132 115.326L141.814 118.189L135.018 122.312L109.065 107.853L109.071 107.844C109.01 107.795 108.965 107.712 108.965 107.591C108.965 107.312 109.167 106.972 109.42 106.837L121.954 99.8404L148.304 114.503Z" fill="#E6E6E6"/>
<path d="M148.444 115.002L135.368 122.295C135.117 122.434 134.913 122.322 134.913 122.045C134.913 121.766 135.117 121.427 135.368 121.288L148.463 113.983C149.14 113.608 149.797 112.913 150.194 112.086C150.588 111.269 150.693 110.463 150.482 109.877L143.229 89.7389L144.093 88.9419L151.348 109.079C151.642 109.899 151.508 111.019 150.98 112.165C150.414 113.395 149.446 114.444 148.444 115.002Z" fill="#A6A6A6"/>
<path d="M177.96 50.1828L89.078 0.731567C88.5133 0.41819 88.0007 0.388519 87.63 0.594856L85.8501 1.59298C86.2208 1.38535 86.7334 1.41502 87.2968 1.72968L176.18 51.1796C177.299 51.8025 178.206 53.3152 178.202 54.5558L178.01 120.302C178.008 120.918 177.782 121.352 177.417 121.556L179.198 120.559C179.562 120.355 179.788 119.922 179.789 119.304L179.982 53.5576C179.986 52.3183 179.079 50.8056 177.96 50.1828Z" fill="#595959"/>
<path d="M179.821 107.781L179.786 119.304C179.786 119.922 179.559 120.355 179.195 120.561L177.416 121.557C177.781 121.354 178.009 120.92 178.009 120.303L178.044 108.77L179.821 107.781Z" fill="#BFBFBF"/>
<path d="M178.199 54.5557L178.009 120.302C178.004 121.544 177.094 122.039 175.972 121.422L87.0915 71.9692C85.9647 71.3464 85.0614 69.8362 85.0654 68.5904L85.2581 2.84382C85.2635 1.60709 86.1735 1.10674 87.299 1.72832L176.178 51.1821C177.3 51.805 178.204 53.3138 178.199 54.5557Z" fill="#333333"/>
<path d="M178.044 108.778L178.009 120.302C178.004 121.544 177.094 122.039 175.972 121.422L87.0915 71.9692C85.9647 71.3464 85.0614 69.8362 85.0654 68.5904L85.1016 57.0666L178.044 108.778Z" fill="#D9D9D9"/>
<path d="M175.751 103.651L88.2983 54.8576V6.09634L175.751 54.8886V103.651Z" fill="#1A1A1A"/>
<path d="M98.0571 18.4081L95.7057 17.0991C95.3256 16.8889 95.0205 16.3241 95.0205 15.8379C95.0205 15.3517 95.3256 15.1286 95.7057 15.3401L98.0571 16.6478C98.4358 16.8593 98.7422 17.4228 98.7422 17.909C98.7422 18.3952 98.4358 18.6183 98.0571 18.4081Z" fill="#006EFF"/>
<path d="M98.0571 49.2633L95.7057 47.9544C95.3256 47.7442 95.0205 47.1793 95.0205 46.6944C95.0205 46.2082 95.3256 45.9839 95.7057 46.1954L98.0571 47.5043C98.4358 47.7145 98.7422 48.2781 98.7422 48.7643C98.7422 49.2504 98.4358 49.4735 98.0571 49.2633Z" fill="#006EFF"/>
<path d="M104.679 52.9477L99.9669 50.3259C99.5895 50.1157 99.2817 49.5509 99.2817 49.0647C99.2817 48.5786 99.5895 48.3554 99.9669 48.5656L104.679 51.1874C105.056 51.3976 105.363 51.9625 105.363 52.4474C105.363 52.9335 105.056 53.1579 104.679 52.9477Z" fill="#B3D4FF"/>
<path d="M121.67 62.4005L106.616 54.0245C106.238 53.8143 105.931 53.2508 105.931 52.7646C105.931 52.2784 106.238 52.0553 106.616 52.2655L121.67 60.6414C122.049 60.8517 122.356 61.4165 122.356 61.9027C122.356 62.3876 122.049 62.6107 121.67 62.4005Z" fill="#FFAD66"/>
<path d="M107.351 23.5782L100.215 19.6075C99.8362 19.3973 99.5298 18.8325 99.5298 18.3463C99.5298 17.8614 99.8362 17.637 100.215 17.8472L107.351 21.8179C107.728 22.0281 108.036 22.593 108.036 23.0792C108.036 23.564 107.728 23.7884 107.351 23.5782Z" fill="#B3D4FF"/>
<path d="M130.992 36.731L109.534 24.793C109.156 24.5815 108.849 24.018 108.849 23.5318C108.849 23.0457 109.156 22.8225 109.534 23.0327L130.992 34.9719C131.369 35.1821 131.677 35.7457 131.677 36.2319C131.677 36.718 131.369 36.9412 130.992 36.731Z" fill="#FFAD66"/>
<path d="M100.275 22.6574L97.922 21.3484C97.5433 21.1382 97.2368 20.5734 97.2368 20.0885C97.2368 19.6023 97.5433 19.3779 97.922 19.5894L100.275 20.8971C100.652 21.1085 100.959 21.6734 100.959 22.1583C100.959 22.6445 100.652 22.8689 100.275 22.6574Z" fill="#006EFF"/>
<path d="M109.566 27.8261L102.429 23.8568C102.052 23.6466 101.744 23.083 101.744 22.5968C101.744 22.1106 102.052 21.8875 102.429 22.0965L109.566 26.0672C109.944 26.2774 110.251 26.8435 110.251 27.3284C110.251 27.8146 109.944 28.0376 109.566 27.8261Z" fill="#B3D4FF"/>
<path d="M133.208 40.9801L111.75 29.0422C111.373 28.832 111.065 28.2672 111.065 27.781C111.065 27.2948 111.373 27.073 111.75 27.2832L133.208 39.2211C133.585 39.4313 133.893 39.9948 133.893 40.4823C133.893 40.9672 133.585 41.1903 133.208 40.9801Z" fill="#FFAD66"/>
<path d="M100.275 25.9254L97.922 24.6165C97.5433 24.4063 97.2368 23.8414 97.2368 23.3552C97.2368 22.869 97.5433 22.6472 97.922 22.8574L100.275 24.1664C100.652 24.3766 100.959 24.9401 100.959 25.4263C100.959 25.9125 100.652 26.1356 100.275 25.9254Z" fill="#006EFF"/>
<path d="M100.275 29.0255L97.922 27.7166C97.5433 27.5064 97.2368 26.9415 97.2368 26.4553C97.2368 25.9704 97.5433 25.746 97.922 25.9562L100.275 27.2652C100.652 27.4767 100.959 28.0402 100.959 28.5264C100.959 29.0126 100.652 29.2357 100.275 29.0255Z" fill="#006EFF"/>
<path d="M100.275 41.5306L97.922 40.2217C97.5433 40.0115 97.2368 39.4467 97.2368 38.9605C97.2368 38.4756 97.5433 38.2512 97.922 38.4627L100.275 39.7717C100.652 39.9819 100.959 40.5454 100.959 41.0316C100.959 41.5178 100.652 41.7408 100.275 41.5306Z" fill="#006EFF"/>
<path d="M100.275 44.5754L97.922 43.2664C97.5433 43.0562 97.2368 42.4914 97.2368 42.0052C97.2368 41.5191 97.5433 41.296 97.922 41.5075L100.275 42.8164C100.652 43.0266 100.959 43.5902 100.959 44.0763C100.959 44.5625 100.652 44.7856 100.275 44.5754Z" fill="#006EFF"/>
<path d="M100.275 53.261L97.922 51.952C97.5433 51.7418 97.2368 51.177 97.2368 50.6921C97.2368 50.2059 97.5433 49.9829 97.922 50.1931L100.275 51.502C100.652 51.7122 100.959 52.2758 100.959 52.7619C100.959 53.2481 100.652 53.4712 100.275 53.261Z" fill="#006EFF"/>
<path d="M106.705 56.8396L102.127 54.2926C101.748 54.0811 101.443 53.5176 101.443 53.0314C101.443 52.5452 101.748 52.3221 102.127 52.5323L106.705 55.0793C107.084 55.2908 107.39 55.8544 107.39 56.3406C107.39 56.8267 107.084 57.0498 106.705 56.8396Z" fill="#B3D4FF"/>
<path d="M124.456 66.7155L108.805 58.0068C108.426 57.7966 108.12 57.2318 108.12 56.7469C108.12 56.2607 108.426 56.0376 108.805 56.2478L124.456 64.9552C124.833 65.1654 125.141 65.7303 125.141 66.2165C125.141 66.7014 124.833 66.9257 124.456 66.7155Z" fill="#FFAD66"/>
<path d="M132.839 62.6934L130.486 61.3844C130.107 61.1742 129.801 60.6081 129.801 60.1232C129.801 59.6371 130.107 59.4139 130.486 59.6241L132.839 60.9331C133.216 61.1433 133.522 61.7081 133.522 62.193C133.522 62.6805 133.216 62.9036 132.839 62.6934Z" fill="#006EFF"/>
<path d="M98.9476 31.0321L96.5963 29.7231C96.2175 29.5116 95.9111 28.9481 95.9111 28.4619C95.9111 27.9757 96.2175 27.7526 96.5963 27.9628L98.9476 29.2717C99.3277 29.4832 99.6328 30.0468 99.6328 30.533C99.6328 31.0192 99.3277 31.2423 98.9476 31.0321Z" fill="#006EFF"/>
<path d="M105.455 34.6521L100.953 32.1464C100.573 31.9362 100.268 31.3726 100.268 30.8864C100.268 30.4002 100.573 30.1772 100.953 30.3874L105.455 32.8931C105.834 33.1033 106.14 33.6668 106.14 34.153C106.14 34.6392 105.834 34.8623 105.455 34.6521Z" fill="#B3D4FF"/>
<path d="M129.666 48.1221L126.489 46.354C126.11 46.1438 125.804 45.5789 125.804 45.0928C125.804 44.6079 126.11 44.3848 126.489 44.5937L129.666 46.3617C130.043 46.5719 130.35 47.1368 130.35 47.623C130.35 48.1092 130.043 48.3323 129.666 48.1221Z" fill="#B3D4FF"/>
<path d="M114.814 39.8583L107.489 35.7831C107.11 35.5729 106.805 35.0081 106.805 34.5232C106.805 34.0357 107.11 33.8126 107.489 34.0228L114.814 38.0992C115.192 38.3094 115.499 38.8743 115.499 39.3592C115.499 39.8454 115.192 40.0685 114.814 39.8583Z" fill="#FFAD66"/>
<path d="M98.9476 34.4251L96.5963 33.1161C96.2175 32.9059 95.9111 32.341 95.9111 31.8561C95.9111 31.37 96.2175 31.1456 96.5963 31.3571L98.9476 32.6647C99.3277 32.8762 99.6328 33.4411 99.6328 33.9273C99.6328 34.4122 99.3277 34.6366 98.9476 34.4251Z" fill="#006EFF"/>
<path d="M98.9476 46.8054L96.5963 45.4964C96.2175 45.2862 95.9111 44.7214 95.9111 44.2352C95.9111 43.749 96.2175 43.526 96.5963 43.7374L98.9476 45.0464C99.3277 45.2566 99.6328 45.8201 99.6328 46.3063C99.6328 46.7925 99.3277 47.0156 98.9476 46.8054Z" fill="#006EFF"/>
<path d="M105.455 38.0449L100.953 35.5405C100.573 35.329 100.268 34.7654 100.268 34.2792C100.268 33.793 100.573 33.57 100.953 33.7802L105.455 36.2859C105.834 36.4961 106.14 37.0609 106.14 37.5471C106.14 38.0333 105.834 38.2564 105.455 38.0449Z" fill="#B3D4FF"/>
<path d="M105.455 47.4576L102.467 45.7954C102.09 45.5852 101.783 45.0203 101.783 44.5354C101.783 44.0492 102.09 43.8261 102.467 44.0363L105.455 45.6987C105.834 45.9089 106.141 46.4724 106.141 46.9586C106.141 47.4448 105.834 47.6678 105.455 47.4576Z" fill="#B3D4FF"/>
<path d="M118.242 54.5726L115.256 52.9103C114.877 52.7001 114.57 52.1352 114.57 51.649C114.57 51.1629 114.877 50.9398 115.256 51.15L118.242 52.8123C118.621 53.0225 118.928 53.5874 118.928 54.0735C118.928 54.5597 118.621 54.7828 118.242 54.5726Z" fill="#B3D4FF"/>
<path d="M138.692 59.9927L99.0192 37.9211C98.6418 37.7109 98.334 37.1474 98.334 36.6612C98.334 36.175 98.6418 35.9519 99.0192 36.1621L138.692 58.2337C139.069 58.4439 139.376 59.0088 139.376 59.4949C139.376 59.9798 139.069 60.2042 138.692 59.9927Z" fill="#F2F2F2"/>
<path d="M113.147 42.3251L107.489 39.1759C107.11 38.9657 106.805 38.4009 106.805 37.916C106.805 37.4298 107.11 37.2067 107.489 37.4169L113.147 40.5648C113.525 40.775 113.832 41.3399 113.832 41.826C113.832 42.3109 113.525 42.5353 113.147 42.3251Z" fill="#FFAD66"/>
<path d="M113.147 51.7368L107.489 48.5889C107.11 48.3774 106.805 47.8138 106.805 47.3277C106.805 46.8428 107.11 46.6184 107.489 46.8299L113.147 49.9778C113.525 50.188 113.832 50.7515 113.832 51.2377C113.832 51.7239 113.525 51.947 113.147 51.7368Z" fill="#FFAD66"/>
<path d="M128.377 60.2106L120.389 55.7666C120.01 55.5551 119.704 54.9916 119.704 54.5054C119.704 54.0192 120.01 53.7961 120.389 54.0063L128.377 58.4515C128.756 58.6617 129.061 59.2253 129.061 59.7115C129.061 60.1977 128.756 60.4208 128.377 60.2106Z" fill="#F2F2F2"/>
<path d="M124.532 45.2656L117.207 41.1892C116.828 40.979 116.521 40.4154 116.521 39.9292C116.521 39.4431 116.828 39.2199 117.207 39.4302L124.532 43.5053C124.91 43.7168 125.216 44.2804 125.216 44.7666C125.216 45.2528 124.91 45.4758 124.532 45.2656Z" fill="#F2F2F2"/>
<path d="M109.566 31.0954L102.429 27.1247C102.052 26.9145 101.744 26.3496 101.744 25.8648C101.744 25.3786 102.052 25.1542 102.429 25.3644L109.566 29.3351C109.944 29.5466 110.251 30.1101 110.251 30.5963C110.251 31.0812 109.944 31.3056 109.566 31.0954Z" fill="#B3D4FF"/>
<path d="M124.911 39.6312L117.774 35.6618C117.397 35.4516 117.089 34.8867 117.089 34.4005C117.089 33.9144 117.397 33.6926 117.774 33.9015L124.911 37.8722C125.288 38.0824 125.596 38.6472 125.596 39.1334C125.596 39.6196 125.288 39.8427 124.911 39.6312Z" fill="#B3D4FF"/>
<path d="M115.362 34.3207L111.75 32.3102C111.373 32.1 111.065 31.5352 111.065 31.049C111.065 30.5641 111.373 30.3397 111.75 30.5512L115.362 32.5604C115.741 32.7706 116.047 33.3355 116.047 33.8217C116.047 34.3065 115.741 34.531 115.362 34.3207Z" fill="#FFAD66"/>
<path d="M138.976 47.4576L127.322 40.9735C126.944 40.7633 126.637 40.1985 126.637 39.7123C126.637 39.2261 126.944 39.003 127.322 39.2132L138.976 45.6973C139.355 45.9088 139.66 46.4724 139.66 46.9586C139.66 47.4448 139.355 47.6678 138.976 47.4576Z" fill="#FFAD66"/>
<path d="M100.275 56.026L97.922 54.717C97.5433 54.5068 97.2368 53.9433 97.2368 53.4571C97.2368 52.9709 97.5433 52.7479 97.922 52.9581L100.275 54.267C100.652 54.4772 100.959 55.042 100.959 55.5282C100.959 56.0131 100.652 56.2375 100.275 56.026Z" fill="#006EFF"/>
<path d="M109.566 61.196L102.429 57.2253C102.052 57.0151 101.744 56.4516 101.744 55.9654C101.744 55.4792 102.052 55.2561 102.429 55.4663L109.566 59.437C109.944 59.6472 110.251 60.2108 110.251 60.6982C110.251 61.1831 109.944 61.4062 109.566 61.196Z" fill="#B3D4FF"/>
<path d="M124.911 69.7333L117.774 65.7626C117.397 65.5524 117.089 64.9876 117.089 64.5027C117.089 64.0165 117.397 63.7934 117.774 64.0036L124.911 67.973C125.288 68.1845 125.596 68.7481 125.596 69.2342C125.596 69.7204 125.288 69.9435 124.911 69.7333Z" fill="#B3D4FF"/>
<path d="M115.362 64.4214L111.75 62.4109C111.373 62.202 111.065 61.6358 111.065 61.151C111.065 60.6648 111.373 60.4417 111.75 60.6519L115.362 62.6611C115.741 62.8726 116.047 63.4362 116.047 63.9223C116.047 64.4085 115.741 64.6316 115.362 64.4214Z" fill="#FFAD66"/>
<path d="M138.976 77.5584L127.322 71.0742C126.944 70.864 126.637 70.2992 126.637 69.8143C126.637 69.3281 126.944 69.1037 127.322 69.3152L138.976 75.7993C139.355 76.0095 139.66 76.5731 139.66 77.0593C139.66 77.5454 139.355 77.7686 138.976 77.5584Z" fill="#FFAD66"/>
<defs>
<linearGradient id="paint0_linear_525_303" x1="145.128" y1="147.271" x2="137.217" y2="157.346" gradientUnits="userSpaceOnUse">
<stop stop-color="white"/>
<stop offset="1" stop-color="#999999"/>
</linearGradient>
</defs>
</svg>
