<svg width="19" height="12" viewBox="0 0 19 12" fill="none" xmlns="http://www.w3.org/2000/svg">
<path d="M8.91 0.605V2.6H5.775V11H3.435V2.6H0.3V0.605H8.91ZM14.8023 11.21C13.1123 11.21 11.8223 10.74 10.9323 9.8C10.0523 8.86 9.6123 7.525 9.6123 5.795C9.6123 4.935 9.7473 4.17 10.0173 3.5C10.2873 2.82 10.6573 2.25 11.1273 1.79C11.5973 1.32 12.1573 0.965 12.8073 0.724999C13.4573 0.484999 14.1623 0.364999 14.9223 0.364999C15.3623 0.364999 15.7623 0.399999 16.1223 0.47C16.4823 0.529999 16.7973 0.604999 17.0673 0.694999C17.3373 0.775 17.5623 0.86 17.7423 0.95C17.9223 1.04 18.0523 1.11 18.1323 1.16L17.4573 3.05C17.1373 2.88 16.7623 2.735 16.3323 2.615C15.9123 2.495 15.4323 2.435 14.8923 2.435C14.5323 2.435 14.1773 2.495 13.8273 2.615C13.4873 2.735 13.1823 2.93 12.9123 3.2C12.6523 3.46 12.4423 3.8 12.2823 4.22C12.1223 4.64 12.0423 5.15 12.0423 5.75C12.0423 6.23 12.0923 6.68 12.1923 7.1C12.3023 7.51 12.4723 7.865 12.7023 8.165C12.9423 8.465 13.2523 8.705 13.6323 8.885C14.0123 9.055 14.4723 9.14 15.0123 9.14C15.3523 9.14 15.6573 9.12 15.9273 9.08C16.1973 9.04 16.4373 8.995 16.6473 8.945C16.8573 8.885 17.0423 8.82 17.2023 8.75C17.3623 8.68 17.5073 8.615 17.6373 8.555L18.2823 10.43C17.9523 10.63 17.4873 10.81 16.8873 10.97C16.2873 11.13 15.5923 11.21 14.8023 11.21Z" fill="#EAB308"/>
</svg>
