<svg width="37" height="23" viewBox="0 0 37 23" fill="none" xmlns="http://www.w3.org/2000/svg">
<path d="M17.82 1.21V5.2H11.55V22H6.87V5.2H0.6V1.21H17.82ZM29.6046 22.42C26.2246 22.42 23.6446 21.48 21.8646 19.6C20.1046 17.72 19.2246 15.05 19.2246 11.59C19.2246 9.87 19.4946 8.34 20.0346 7C20.5746 5.64 21.3146 4.5 22.2546 3.58C23.1946 2.64 24.3146 1.93 25.6146 1.45C26.9146 0.969998 28.3246 0.729998 29.8446 0.729998C30.7246 0.729998 31.5246 0.799999 32.2446 0.939999C32.9646 1.06 33.5946 1.21 34.1346 1.39C34.6746 1.55 35.1246 1.72 35.4846 1.9C35.8446 2.08 36.1046 2.22 36.2646 2.32L34.9146 6.1C34.2746 5.76 33.5246 5.47 32.6646 5.23C31.8246 4.99 30.8646 4.87 29.7846 4.87C29.0646 4.87 28.3546 4.99 27.6546 5.23C26.9746 5.47 26.3646 5.86 25.8246 6.4C25.3046 6.92 24.8846 7.6 24.5646 8.44C24.2446 9.28 24.0846 10.3 24.0846 11.5C24.0846 12.46 24.1846 13.36 24.3846 14.2C24.6046 15.02 24.9446 15.73 25.4046 16.33C25.8846 16.93 26.5046 17.41 27.2646 17.77C28.0246 18.11 28.9446 18.28 30.0246 18.28C30.7046 18.28 31.3146 18.24 31.8546 18.16C32.3946 18.08 32.8746 17.99 33.2946 17.89C33.7146 17.77 34.0846 17.64 34.4046 17.5C34.7246 17.36 35.0146 17.23 35.2746 17.11L36.5646 20.86C35.9046 21.26 34.9746 21.62 33.7746 21.94C32.5746 22.26 31.1846 22.42 29.6046 22.42Z" fill="#EAB308"/>
</svg>
