<svg width="120" height="73" viewBox="0 0 120 73" fill="none" xmlns="http://www.w3.org/2000/svg">
<path d="M57.4 1.7V15H36.5V71H20.9V15H1.41561e-07V1.7H57.4ZM96.682 72.4C85.4154 72.4 76.8154 69.2667 70.882 63C65.0154 56.7333 62.082 47.8333 62.082 36.3C62.082 30.5667 62.982 25.4667 64.782 21C66.582 16.4667 69.0487 12.6667 72.182 9.6C75.3154 6.46667 79.0487 4.1 83.382 2.49999C87.7154 0.899995 92.4154 0.0999949 97.482 0.0999949C100.415 0.0999949 103.082 0.333329 105.482 0.799998C107.882 1.2 109.982 1.7 111.782 2.3C113.582 2.83333 115.082 3.4 116.282 4C117.482 4.6 118.349 5.06667 118.882 5.4L114.382 18C112.249 16.8667 109.749 15.9 106.882 15.1C104.082 14.3 100.882 13.9 97.282 13.9C94.882 13.9 92.5154 14.3 90.182 15.1C87.9154 15.9 85.882 17.2 84.082 19C82.3487 20.7333 80.9487 23 79.882 25.8C78.8154 28.6 78.282 32 78.282 36C78.282 39.2 78.6154 42.2 79.282 45C80.0154 47.7333 81.1487 50.1 82.682 52.1C84.282 54.1 86.3487 55.7 88.882 56.9C91.4154 58.0333 94.482 58.6 98.082 58.6C100.349 58.6 102.382 58.4667 104.182 58.2C105.982 57.9333 107.582 57.6333 108.982 57.3C110.382 56.9 111.615 56.4667 112.682 56C113.749 55.5333 114.715 55.1 115.582 54.7L119.882 67.2C117.682 68.5333 114.582 69.7333 110.582 70.8C106.582 71.8667 101.949 72.4 96.682 72.4Z" fill="#EAB308"/>
</svg>
