<svg width="93" height="57" viewBox="0 0 93 57" fill="none" xmlns="http://www.w3.org/2000/svg">
<path d="M44.738 1.639V11.88H28.645V55H16.633V11.88H0.54V1.639H44.738ZM74.9852 56.078C66.3098 56.078 59.6878 53.6653 55.1192 48.84C50.6018 44.0147 48.3432 37.1617 48.3432 28.281C48.3432 23.8663 49.0362 19.9393 50.4222 16.5C51.8082 13.0093 53.7075 10.0833 56.1202 7.722C58.5328 5.30933 61.4075 3.487 64.7442 2.255C68.0808 1.023 71.6998 0.406996 75.6012 0.406996C77.8598 0.406996 79.9132 0.586663 81.7612 0.945998C83.6092 1.254 85.2262 1.639 86.6122 2.101C87.9982 2.51166 89.1532 2.948 90.0772 3.41C91.0012 3.872 91.6685 4.23133 92.0792 4.488L88.6142 14.19C86.9715 13.3173 85.0465 12.573 82.8392 11.957C80.6832 11.341 78.2192 11.033 75.4472 11.033C73.5992 11.033 71.7768 11.341 69.9802 11.957C68.2348 12.573 66.6692 13.574 65.2832 14.96C63.9485 16.2947 62.8705 18.04 62.0492 20.196C61.2278 22.352 60.8172 24.97 60.8172 28.05C60.8172 30.514 61.0738 32.824 61.5872 34.98C62.1518 37.0847 63.0245 38.907 64.2052 40.447C65.4372 41.987 67.0285 43.219 68.9792 44.143C70.9298 45.0157 73.2912 45.452 76.0632 45.452C77.8085 45.452 79.3742 45.3493 80.7602 45.144C82.1462 44.9387 83.3782 44.7077 84.4562 44.451C85.5342 44.143 86.4838 43.8093 87.3052 43.45C88.1265 43.0907 88.8708 42.757 89.5382 42.449L92.8492 52.074C91.1552 53.1007 88.7682 54.0247 85.6882 54.846C82.6082 55.6673 79.0405 56.078 74.9852 56.078Z" fill="#EAB308"/>
</svg>
