<svg width="492" height="297" viewBox="0 0 492 297" fill="none" xmlns="http://www.w3.org/2000/svg">
<path d="M235.54 6.86999V61.4H149.85V291H85.89V61.4H0.200001V6.86999H235.54ZM396.596 296.74C350.403 296.74 315.143 283.893 290.816 258.2C266.763 232.507 254.736 196.017 254.736 148.73C254.736 125.223 258.426 104.313 265.806 86C273.186 67.4133 283.3 51.8333 296.146 39.26C308.993 26.4133 324.3 16.71 342.066 10.15C359.833 3.58998 379.103 0.309979 399.876 0.309979C411.903 0.309979 422.836 1.26665 432.676 3.17999C442.516 4.81999 451.126 6.86998 458.506 9.32999C465.886 11.5167 472.036 13.84 476.956 16.3C481.876 18.76 485.43 20.6733 487.616 22.04L469.166 73.7C460.42 69.0533 450.17 65.09 438.416 61.81C426.936 58.53 413.816 56.89 399.056 56.89C389.216 56.89 379.513 58.53 369.946 61.81C360.653 65.09 352.316 70.42 344.936 77.8C337.83 84.9067 332.09 94.2 327.716 105.68C323.343 117.16 321.156 131.1 321.156 147.5C321.156 160.62 322.523 172.92 325.256 184.4C328.263 195.607 332.91 205.31 339.196 213.51C345.756 221.71 354.23 228.27 364.616 233.19C375.003 237.837 387.576 240.16 402.336 240.16C411.63 240.16 419.966 239.613 427.346 238.52C434.726 237.427 441.286 236.197 447.026 234.83C452.766 233.19 457.823 231.413 462.196 229.5C466.57 227.587 470.533 225.81 474.086 224.17L491.716 275.42C482.696 280.887 469.986 285.807 453.586 290.18C437.186 294.553 418.19 296.74 396.596 296.74Z" fill="#EAB308"/>
</svg>
